<svg xmlns="http://www.w3.org/2000/svg" xmlns:xlink="http://www.w3.org/1999/xlink" viewBox="0 0 671.33 621.99">
  <defs>
    <linearGradient id="car-linear-gradient" x1="-3628.47" y1="3255.39" x2="-3627.47" y2="3255.39" gradientTransform="translate(365309.92 975898.29) rotate(27.59) scale(213.71 -213.71)" gradientUnits="userSpaceOnUse">
      <stop offset="0" stop-color="#fff8f0"/>
      <stop offset=".08" stop-color="#fff8f0"/>
      <stop offset=".99" stop-color="#efecdf"/>
      <stop offset="1" stop-color="#efecdf"/>
    </linearGradient>
    <linearGradient id="car-linear-gradient-2" x1="-3622.82" y1="3269.76" x2="-3621.82" y2="3269.76" gradientTransform="translate(375017.14 338609.94) scale(103.43 -103.43)" gradientUnits="userSpaceOnUse">
      <stop offset="0" stop-color="#e7e4d5"/>
      <stop offset="1" stop-color="#f3efe3"/>
    </linearGradient>
    <linearGradient id="car-linear-gradient-3" x1="3.31" y1="284.19" x2="649.98" y2="284.19" gradientUnits="userSpaceOnUse">
      <stop offset="0" stop-color="#a8e20c"/>
      <stop offset=".28" stop-color="#a8e20c" stop-opacity=".99"/>
      <stop offset=".42" stop-color="#a8e20c" stop-opacity=".96"/>
      <stop offset=".53" stop-color="#a8e20c" stop-opacity=".9"/>
      <stop offset=".62" stop-color="#a8e20c" stop-opacity=".81"/>
      <stop offset=".7" stop-color="#a8e20c" stop-opacity=".7"/>
      <stop offset=".78" stop-color="#a8e20c" stop-opacity=".57"/>
      <stop offset=".85" stop-color="#a8e20c" stop-opacity=".41"/>
      <stop offset=".92" stop-color="#a8e20c" stop-opacity=".23"/>
      <stop offset=".96" stop-color="#a8e20c" stop-opacity=".1"/>
    </linearGradient>
    <linearGradient id="car-linear-gradient-4" x1="417.41" y1="207.53" x2="567.57" y2="207.53" gradientUnits="userSpaceOnUse">
      <stop offset="0" stop-color="#a8e20c" stop-opacity=".8"/>
      <stop offset="1" stop-color="#a8e20c" stop-opacity=".4"/>
    </linearGradient>
    <linearGradient id="car-linear-gradient-5" x1="177.41" y1="212.18" x2="409.67" y2="212.18" xlink:href="#car-linear-gradient-4"/>
    <linearGradient id="New_Gradient_Swatch_copy_2" data-name="New Gradient Swatch copy 2" x1="67.28" y1="425.06" x2="189.16" y2="425.06" gradientUnits="userSpaceOnUse">
      <stop offset="0" stop-color="#a8e20c" stop-opacity="0"/>
      <stop offset="1" stop-color="#a8e20c"/>
    </linearGradient>
    <linearGradient id="New_Gradient_Swatch_copy_2-2" data-name="New Gradient Swatch copy 2" x1="49.75" y1="435.5" x2="184.43" y2="435.5" xlink:href="#New_Gradient_Swatch_copy_2"/>
    <linearGradient id="New_Gradient_Swatch_copy_2-3" data-name="New Gradient Swatch copy 2" x1="353.43" y1="224.49" x2="471.99" y2="224.49" xlink:href="#New_Gradient_Swatch_copy_2"/>
    <linearGradient id="New_Gradient_Swatch_copy_2-4" data-name="New Gradient Swatch copy 2" x1="348.62" y1="215.02" x2="487.18" y2="215.02" xlink:href="#New_Gradient_Swatch_copy_2"/>
  </defs>
  <g id="OBJECTS">
    <g id="car2">
      <g id="car_tires-tracks">
        <g id="car_tire-track-2">
          <line x1="666.41" y1="357.69" x2="669.83" y2="353.2" fill="none" stroke="#e8e1d6" stroke-linecap="round" stroke-linejoin="round" stroke-width="3"/>
          <line x1="614.74" y1="422.47" x2="638.46" y2="393.55" fill="none" stroke="#e8e1d6" stroke-linecap="round" stroke-linejoin="round" stroke-width="3"/>
          <line x1="652.63" y1="376.15" x2="662.57" y2="362.82" fill="none" stroke="#e8e1d6" stroke-linecap="round" stroke-linejoin="round" stroke-width="3"/>
          <line x1="545.76" y1="391.05" x2="552.76" y2="381.84" fill="none" stroke="#e8e1d6" stroke-linecap="round" stroke-linejoin="round" stroke-width="3"/>
        </g>
        <g id="car_tire-track-1">
          <line x1="497.18" y1="550.17" x2="500.61" y2="545.68" fill="none" stroke="#e8e1d6" stroke-linecap="round" stroke-linejoin="round" stroke-width="3"/>
          <line x1="471.53" y1="583.63" x2="493.93" y2="554.22" fill="none" stroke="#e8e1d6" stroke-linecap="round" stroke-linejoin="round" stroke-width="3"/>
          <line x1="483.54" y1="545.68" x2="497.18" y2="528.24" fill="none" stroke="#e8e1d6" stroke-linecap="round" stroke-linejoin="round" stroke-width="3"/>
          <line x1="442.45" y1="620.49" x2="456.09" y2="603.05" fill="none" stroke="#e8e1d6" stroke-linecap="round" stroke-linejoin="round" stroke-width="3"/>
        </g>
      </g>
      <g>
        <g id="car_tire-2">
          <path d="m461.17,454.95c5.14,4.23,10.56,8.41,15.26,13.63,1.81,2,1.21,6,2.62,8.29,5.48,8.96,5.78,16.75,6.26,26.29.02.35-2.14,1.78-2.17,3-.02.71-.02,1.93-.04,2.68-.05,1.62,2,2.27,2.01,2.71.07,6.55,1.7,9.03.59,16.7-.23,1.62-3.26,1.43-3.5,3.11-.27,1.81-1.3,5.07-1.58,6.93-.34,2.24,1.8,5.77,1.52,8.05-.28,2.3-1.21,6.38-1.48,8.69-.31,2.76-4.46,4.59-4.93,7.11-.28,1.46-.07,7.31-.4,8.69-1.82,7.57-2.4,9.67-6.09,16.08-.75,1.3-4.74-.06-5.52,1.19-1.27,2.01-4.46,3.64-5.82,5.48-2.53,3.42,1.19,5.24-1.11,8.27-7.38,9.71-22.59,15.94-32.54,15.88-14.02-.09-27.03-9.92-38.76-20.3-9.69-8.6-20.32-18.07-25.68-32.66-1.44-3.9-2.48-7.98-3.2-12.17-2.03-11.54-1.44-23.92,8.02-30.6,20.67-14.61,13.64-36.39,16.03-52.9.86-5.95,8.92-5.35,11.85-7.64,1.03-.8,2.84-1.72,3.86-2.42,1.81-1.24-.23-5.12,1.54-6.65,6.5-5.6,13.02-13.56,24.27-10.62" fill="#f9f4eb" stroke-width="0"/>
          <path d="m481.21,505.82c1.49,29.6-12.26,67.24-30.72,84.07-18.46,16.83-34.63,6.48-36.12-23.12-1.49-29.6,10.67-70.38,32.31-83.08,17.6-10.33,33.03-7.47,34.52,22.13Z" fill="#f8f3ea" stroke-width="0"/>
          <path d="m463.63,523.43c.98,16.07-6.01,36.46-15.61,45.48-8.69,8.14-16.53,4.25-18.69-8.45-.25-1.36-.41-2.81-.5-4.36-.98-16.1,6.01-36.48,15.61-45.51.93-.88,1.86-1.62,2.75-2.2,8.45-5.59,15.55.48,16.44,15.03Z" fill="#f3ede4" stroke-width="0"/>
          <path d="m447.69,512.78c.98,16.1-6.01,36.46-15.61,45.48-.93.88-1.86,1.62-2.75,2.2-.25-1.36-.41-2.81-.5-4.36-.98-16.1,6.01-36.48,15.61-45.51.93-.88,1.86-1.62,2.75-2.2.24,1.36.41,2.83.5,4.38Z" fill="#e8e1d6" stroke-width="0"/>
          <path d="m478.13,476.83c-3.12-2.89-6.59-6.06-10.23-7.06-20.12-5.54-46.82,17.18-54.2,42.53-3.13,10.78-12.43,34.43-8.99,60.8,5.45,41.81,27.15,44.48,22.64,44.85-23.27,1.9-54.29-11.12-60.77-17.06-2.01-1.85-7.18-4.64-9.14-8.76-1.39-2.93-.54-5.93-1.33-8.86-1.34-4.95-5.34-7.29-5.91-8.89-.64-3.65,1.12-5.21.85-10.66-.07-1.36,0-6.35.06-7.81.1-2.17-3.9-3.15-3.39-5.52.44-2.07,1.29-6.55,1.71-8.67.33-1.65,4.84-1.95,5.12-3.61.23-1.36,2.94-7.52,3.16-8.79.45-2.63-3.19-4.15-2.85-6.25.26-1.63.48-3.07.64-4.27.55-4.24,6.7-3.99,8.16-7.28.69-1.55,1.13-4.8,1.96-6.21,1.43-2.42-2.46-5.92-1.27-8.35.88-1.79,3.54-7.54,4.39-9.36,1-2.15,3.34-.58,5.15-1.69,2.21-1.35,3.95-5.37,5.57-8.29,1.06-1.91-1.91-3.46-.93-5.29.66-1.23,4.99-7.31,5.62-8.5,1.09-2.04,5.82.47,6.86-1.29,1.16-1.95,3.73-.67,4.89-2.28,1.36-1.88,2.24-7.72,3.68-9.11,5.81-5.59,8.09-10.46,18.97-7.62,13.29,3.47,26.12,6.77,39.51,13.18,6,2.88,10.56,8.41,15.26,13.63,1.81,2,3.39,4.18,4.81,6.47Z" fill="#f6f0e7" stroke-width="0"/>
          <path d="m396.41,455.73l.41,2.9c.14.97-.31,1.93-1.14,2.45l-1.99,1.24c-.52.33-1.15.44-1.76.33l-3.78-.7c-1.2-.22-2.43.23-3.2,1.17l-4.91,6.01c-.73.9-.95,2.1-.58,3.2l1.37,4.03c.33.96.18,2.01-.4,2.84l-3.78,5.41c-.58.83-1.51,1.33-2.52,1.36l-2.98.08c-1.38.04-2.62.84-3.22,2.09l-3.28,6.85c-.55,1.15-.47,2.5.22,3.58l2.86,4.46c.18.28.2.62.07.92l-2.77,6.32c-.11.26-.34.46-.61.54l-5.64,1.73c-.32.1-.57.35-.66.68l-2.64,9.65c-.08.29-.02.6.15.84l3.05,2.77c.82.75,1.12,1.92.74,2.96l-2.5,7.05c-.09.27-.3.48-.56.58l-3.11.53c-1.85.31-3.3,1.75-3.63,3.6l-1.29,7.16c-.17.97-.02,1.96.43,2.83l3.25,2.68c-.06,2.36,0,8.03,0,8.03-.64.55-2.72,2.85-2.72,3.7l.19,7.21c0,1.07.59,2.05,1.53,2.56l3.19,1.71,2.92,6.33s.13.08-.13,4.05c-.19,2.9,4.93,8.66,7.6,10.63,0,0,28.66,21.51,58.17,18.81,14.39-1.56,26.56-5.61,33.98-15.04.94-1.2,1.45-2.69,1.45-4.22v-2.45c0-1.89.66-3.72,1.86-5.18h0c1.55-1.88,3.86-2.97,6.3-2.97h.32c1.17,0,2.29-.47,3.1-1.31,2.77-2.88,4.82-6.42,6.13-10.64.29-.94.28-1.96-.08-2.88l-1.49-3.85c-.56-1.45-.63-3.04-.19-4.53h0c.49-1.67,1.58-3.1,3.06-4.02l1.38-.85c.62-.39,1.14-.94,1.45-1.6,1.87-4.08,2.65-8.71,2.58-13.76-.01-.87-.34-1.71-.89-2.37l-.56-.68c-1.19-1.43-1.69-3.31-1.37-5.14h0c.22-1.25.81-2.41,1.69-3.32l3.57-3.68c.31-.32.54-.72.65-1.15,1.22-4.84,1.21-9.29.09-13.38-.16-.58-.53-1.07-1.03-1.4l-1.27-.86c-1.31-.88-2.1-2.36-2.1-3.94,0-1.2.45-2.35,1.26-3.22l1.4-1.51c1.03-1.11,1.55-2.58,1.48-4.09-.19-3.8-1.29-11.54-6.58-20.28h0c.71-6.82-2.71-13.4-8.69-16.77-5.78-3.25-13.64-7.26-22.26-10.48-12.85-4.8-25.17-13.54-37.47-7.48l-12.64,8.56c-1.09.74-1.66,2.03-1.48,3.34Z" fill="none" stroke="#e8e1d6" stroke-linecap="round" stroke-linejoin="round" stroke-width="3"/>
          <path d="m415.03,562.15s-1.12-59.34,35.62-79.21" fill="none" stroke="#e8e1d6" stroke-linecap="round" stroke-linejoin="round" stroke-width="3"/>
          <path d="m449.27,586.92c-2.93,3.34-6.96,6.76-12.17,8.64" fill="none" stroke="#e8e1d6" stroke-linecap="round" stroke-linejoin="round" stroke-width="3"/>
          <path d="m455.28,577.75s-.83,1.94-2.55,4.58" fill="none" stroke="#e8e1d6" stroke-linecap="round" stroke-linejoin="round" stroke-width="3"/>
          <g id="tire-line-1">
            <path d="m389.95,591.93c2.16.55,4.38.98,6.63,1.25" fill="none" stroke="#e8e1d6" stroke-linecap="round" stroke-linejoin="round" stroke-width="3"/>
            <path d="m364.61,580.07s7.2,5.3,17.26,9.24" fill="none" stroke="#e8e1d6" stroke-linecap="round" stroke-linejoin="round" stroke-width="3"/>
          </g>
          <line id="tire-line-2" x1="400.96" y1="534.57" x2="377.01" y2="526.64" fill="none" stroke="#e8e1d6" stroke-linecap="round" stroke-linejoin="round" stroke-width="3"/>
          <path id="tire-line-3" d="m430.77,466.76s-7.88-5.57-17.07-7.08" fill="none" stroke="#e8e1d6" stroke-linecap="round" stroke-linejoin="round" stroke-width="3"/>
          <path d="m479.37,479.26s-5.54-7.13-14.27-9.47" fill="none" stroke="#e8e1d6" stroke-linecap="round" stroke-linejoin="round" stroke-width="3"/>
        </g>
        <g id="car_tire-1">
          <path d="m641.9,269.53c4.37,3.6,8.98,7.15,12.97,11.59,1.54,1.7,1.03,5.1,2.23,7.05,4.66,7.61,4.91,14.24,5.32,22.34.01.29-1.82,1.52-1.85,2.55-.02.6-.01,1.64-.04,2.28-.05,1.38,1.7,1.93,1.71,2.31.06,5.57,1.45,7.68.5,14.2-.2,1.38-2.77,1.22-2.98,2.64-.23,1.54-1.1,4.31-1.35,5.89-.29,1.9,1.53,4.9,1.29,6.85-.24,1.95-1.03,5.42-1.25,7.38-.27,2.35-3.79,3.91-4.19,6.04-.23,1.24-.06,6.21-.34,7.39-1.55,6.44-2.04,8.22-5.18,13.67-.64,1.11-4.03-.05-4.7,1.01-1.08,1.71-3.79,3.1-4.95,4.66-2.15,2.91,1.01,4.45-.94,7.03-6.27,8.26-19.21,13.55-27.66,13.5-11.92-.08-22.98-8.43-32.95-17.26-8.24-7.31-17.27-15.36-21.83-27.76-1.22-3.31-2.11-6.78-2.72-10.35-1.73-9.81-1.22-20.33,6.82-26.01,17.57-12.42,11.6-30.93,13.63-44.97.73-5.06,7.59-4.55,10.07-6.49.88-.68,2.41-1.46,3.28-2.06,1.54-1.06-.2-4.35,1.31-5.65,5.52-4.76,11.06-11.52,20.63-9.03" fill="#f9f4eb" stroke-width="0"/>
          <path d="m658.94,312.77c1.27,25.16-10.42,57.16-26.11,71.47-15.69,14.31-29.43,5.51-30.7-19.65-1.27-25.16,9.07-59.83,27.47-70.62,14.96-8.78,28.08-6.35,29.34,18.81Z" fill="#f8f3ea" stroke-width="0"/>
          <path d="m643.99,327.74c.83,13.66-5.11,30.99-13.27,38.66-7.39,6.92-14.06,3.61-15.89-7.18-.21-1.16-.34-2.39-.42-3.71-.84-13.68,5.11-31.01,13.27-38.68.79-.75,1.58-1.37,2.34-1.87,7.18-4.76,13.22.41,13.97,12.77Z" fill="#f3ede4" stroke-width="0"/>
          <path d="m630.44,318.69c.84,13.68-5.11,30.99-13.27,38.66-.79.75-1.58,1.37-2.34,1.87-.21-1.16-.34-2.39-.42-3.71-.84-13.68,5.11-31.01,13.27-38.68.79-.75,1.58-1.37,2.34-1.87.21,1.16.35,2.41.43,3.73Z" fill="#e8e1d6" stroke-width="0"/>
          <path d="m656.32,288.13c-2.65-2.46-5.6-5.15-8.69-6-17.1-4.71-39.79,14.61-46.07,36.16-2.66,9.16-10.57,29.27-7.65,51.69,4.63,35.54,23.08,37.81,19.25,38.12-19.78,1.61-46.15-9.46-51.66-14.5-1.71-1.57-6.1-3.94-7.77-7.45-1.19-2.49-.46-5.04-1.13-7.53-1.13-4.21-4.54-6.19-5.03-7.56-.55-3.1.95-4.43.73-9.06-.06-1.16,0-5.4.05-6.64.08-1.85-3.32-2.67-2.88-4.7.38-1.76,1.1-5.57,1.45-7.37.28-1.4,4.11-1.66,4.36-3.07.2-1.16,2.5-6.39,2.69-7.47.38-2.24-2.71-3.53-2.42-5.32.22-1.38.41-2.61.54-3.63.47-3.61,5.7-3.4,6.94-6.19.59-1.32.96-4.08,1.67-5.28,1.21-2.06-2.09-5.04-1.08-7.1.75-1.52,3.01-6.41,3.73-7.96.85-1.83,2.83-.49,4.37-1.43,1.88-1.15,3.36-4.57,4.73-7.05.9-1.63-1.62-2.94-.79-4.49.56-1.05,4.24-6.22,4.78-7.22.92-1.73,4.95.4,5.84-1.09.98-1.66,3.17-.57,4.16-1.94,1.16-1.6,1.9-6.56,3.13-7.74,4.94-4.75,6.88-8.89,16.13-6.47,11.3,2.95,22.21,5.75,33.58,11.21,5.1,2.45,8.98,7.15,12.97,11.59,1.54,1.7,2.89,3.55,4.09,5.5Z" fill="#f6f0e7" stroke-width="0"/>
          <path d="m586.86,270.19l.35,2.46c.12.82-.27,1.64-.97,2.08l-1.69,1.05c-.44.28-.98.38-1.49.28l-3.21-.6c-1.02-.19-2.06.19-2.72,1l-4.17,5.11c-.62.76-.81,1.79-.49,2.72l1.17,3.42c.28.81.15,1.71-.34,2.42l-3.21,4.6c-.49.7-1.28,1.13-2.14,1.15l-2.53.07c-1.17.03-2.23.72-2.73,1.77l-2.79,5.82c-.47.98-.4,2.13.19,3.04l2.43,3.79c.15.23.17.53.06.78l-2.36,5.37c-.1.22-.29.39-.52.46l-4.79,1.47c-.27.08-.48.3-.56.58l-2.25,8.21c-.07.24-.02.51.13.71l2.59,2.36c.7.64.95,1.63.63,2.52l-2.13,5.99c-.08.23-.26.41-.48.5l-2.65.45c-1.57.27-2.81,1.49-3.09,3.06l-1.1,6.09c-.15.82-.02,1.67.36,2.41l2.76,2.28c-.05,2,0,6.83,0,6.83-.55.47-2.31,2.43-2.31,3.15l.16,6.13c0,.91.5,1.75,1.3,2.17l2.71,1.45,2.48,5.38s.11.07-.11,3.44c-.16,2.47,4.19,7.36,6.46,9.03,0,0,24.36,18.28,49.45,15.99,12.23-1.33,22.58-4.77,28.88-12.78.8-1.02,1.23-2.29,1.23-3.59v-2.08c0-1.61.56-3.16,1.58-4.4h0c1.32-1.6,3.28-2.53,5.35-2.53h.27c.99,0,1.94-.4,2.63-1.12,2.35-2.45,4.1-5.46,5.21-9.04.25-.8.24-1.67-.07-2.45l-1.27-3.28c-.48-1.23-.53-2.58-.16-3.85h0c.42-1.42,1.34-2.64,2.6-3.42l1.17-.73c.53-.33.97-.8,1.23-1.36,1.59-3.47,2.26-7.4,2.2-11.69-.01-.74-.29-1.45-.76-2.02l-.48-.57c-1.01-1.22-1.43-2.82-1.16-4.37h0c.19-1.06.69-2.05,1.44-2.82l3.03-3.13c.26-.27.46-.61.55-.98,1.04-4.12,1.03-7.9.08-11.38-.13-.49-.45-.91-.87-1.19l-1.08-.73c-1.11-.75-1.78-2.01-1.78-3.35,0-1.02.38-1.99,1.07-2.74l1.19-1.28c.87-.94,1.32-2.19,1.26-3.48-.16-3.23-1.09-9.81-5.59-17.24.6-5.8-2.3-11.39-7.38-14.25-4.91-2.76-11.59-6.17-18.93-8.91-10.92-4.08-21.39-11.51-31.85-6.36l-10.75,7.27c-.93.63-1.42,1.73-1.26,2.84Z" fill="none" stroke="#e8e1d6" stroke-linecap="round" stroke-linejoin="round" stroke-width="3.07"/>
          <path d="m602.68,360.66s-.95-50.44,30.28-67.33" fill="none" stroke="#e8e1d6" stroke-linecap="round" stroke-linejoin="round" stroke-width="3.07"/>
          <path d="m631.79,381.71c-2.49,2.84-5.91,5.75-10.34,7.35" fill="none" stroke="#e8e1d6" stroke-linecap="round" stroke-linejoin="round" stroke-width="3.07"/>
          <path d="m636.9,373.92s-.71,1.65-2.17,3.9" fill="none" stroke="#e8e1d6" stroke-linecap="round" stroke-linejoin="round" stroke-width="3.07"/>
          <g id="tire-line-4">
            <path d="m581.37,385.97c1.83.46,3.72.83,5.64,1.06" fill="none" stroke="#e8e1d6" stroke-linecap="round" stroke-linejoin="round" stroke-width="3.07"/>
            <path d="m559.82,375.89s6.12,4.5,14.67,7.85" fill="none" stroke="#e8e1d6" stroke-linecap="round" stroke-linejoin="round" stroke-width="3.07"/>
          </g>
          <line id="tire-line-5" x1="590.72" y1="337.21" x2="570.36" y2="330.47" fill="none" stroke="#e8e1d6" stroke-linecap="round" stroke-linejoin="round" stroke-width="3.07"/>
          <path id="tire-line-6" d="m616.06,279.57s-6.69-4.73-14.51-6.02" fill="none" stroke="#e8e1d6" stroke-linecap="round" stroke-linejoin="round" stroke-width="3.07"/>
          <path d="m657.37,290.19s-4.71-6.06-12.13-8.05" fill="none" stroke="#e8e1d6" stroke-linecap="round" stroke-linejoin="round" stroke-width="3.07"/>
        </g>
      </g>
      <g opacity=".2">
        <ellipse cx="518.9" cy="104.82" rx="76.4" ry="73.21" fill="#e7e4d5" stroke-width="0"/>
        <path d="m163.86,229.06c6.41-6.89,6.53-17.21.26-23.04l-15.01-16.86c-4.33-4.03-11.64-2.6-15.01,2.92l-4.87,7.98c-3.76,6.15-3,13.71,1.82,18.19l16.33,18.09c2.87,2.67,7.58,2.28,10.52-.88" fill="#fff8f0" stroke-width="0"/>
        <path d="m312.33,559.31s10.5-1.72,16.44-8.25c5.94-6.52-14.56-18.54-14.56-18.54l-2.34,16.83" fill="#e7e4d5" stroke-width="0"/>
        <polygon points="347.55 501.52 530.98 305.54 537.68 323.92 347.32 533.3 347.55 501.52" fill="#e7e4d5" stroke-width="0"/>
        <path d="m124.46,343.77c5.14,4.23,10.56,8.41,15.26,13.63,1.81,2,1.21,6,2.62,8.29,5.48,8.96,5.78,16.75,6.26,26.29.02.35-2.14,1.78-2.17,3-.02.71-.02,1.93-.04,2.68-.05,1.62,2,2.27,2.01,2.71.07,6.55,1.7,9.03.59,16.7-.23,1.62-3.26,1.43-3.5,3.11-.27,1.81-1.3,5.07-1.58,6.93-.34,2.24,1.8,5.77,1.52,8.05-.28,2.3-1.21,6.38-1.48,8.69-.31,2.76-4.46,4.59-4.93,7.11-.28,1.46-.07,7.31-.4,8.69-1.82,7.57-2.4,9.67-6.09,16.08-.75,1.3-4.74-.06-5.52,1.19-1.27,2.01-4.46,3.64-5.82,5.48-2.53,3.42,1.19,5.24-1.11,8.27-7.38,9.71-22.59,15.94-32.54,15.88-14.02-.09-27.03-9.92-38.76-20.3-9.69-8.6-20.32-18.07-25.68-32.66-1.44-3.9-2.48-7.98-3.2-12.17-2.03-11.54-1.44-23.92,8.02-30.6,20.67-14.61,13.64-36.39,16.03-52.9.86-5.95,8.92-5.35,11.85-7.64,1.03-.8,2.84-1.72,3.86-2.42,1.81-1.24-.23-5.12,1.54-6.65,6.5-5.6,13.02-13.56,24.27-10.62" fill="#e7e4d5" stroke-width="0"/>
        <path d="m144.5,394.64c1.49,29.6-12.26,67.24-30.72,84.07-18.46,16.83-34.63,6.48-36.12-23.12-1.49-29.6,10.67-70.38,32.31-83.08,17.6-10.33,33.03-7.47,34.52,22.13Z" fill="#e2dfd0" stroke-width="0"/>
        <path d="m126.92,412.24c.98,16.07-6.01,36.46-15.61,45.48-8.69,8.14-16.53,4.25-18.69-8.45-.24-1.36-.4-2.81-.5-4.36-.98-16.1,6.01-36.48,15.61-45.51.93-.88,1.86-1.62,2.75-2.2,8.45-5.59,15.55.48,16.44,15.03Z" fill="#c9c5b3" stroke-width="0"/>
        <path d="m110.98,401.6c.98,16.1-6.01,36.46-15.61,45.48-.93.88-1.86,1.62-2.75,2.2-.24-1.36-.4-2.81-.5-4.36-.98-16.1,6.01-36.48,15.61-45.51.93-.88,1.86-1.62,2.75-2.2.25,1.36.41,2.83.5,4.38Z" fill="#92856c" stroke-width="0"/>
        <g id="car_tire-5">
          <path d="m141.42,365.64c-3.12-2.89-6.59-6.06-10.23-7.06-20.12-5.54-46.82,17.18-54.2,42.53-3.13,10.78-12.43,34.43-8.99,60.8,5.45,41.81,27.15,44.48,22.64,44.85-23.27,1.9-54.29-11.12-60.77-17.06-2.01-1.85-7.18-4.64-9.14-8.76-1.39-2.93-.54-5.93-1.33-8.86-1.34-4.95-5.34-7.29-5.91-8.89-.64-3.65,1.12-5.21.85-10.66-.07-1.36,0-6.35.06-7.81.1-2.17-3.9-3.15-3.39-5.52.44-2.07,1.29-6.55,1.71-8.67.33-1.65,4.84-1.95,5.12-3.61.23-1.36,2.94-7.52,3.16-8.79.45-2.63-3.19-4.15-2.85-6.25.26-1.63.48-3.07.64-4.27.55-4.24,6.7-3.99,8.16-7.28.69-1.55,1.13-4.8,1.96-6.21,1.43-2.42-2.46-5.92-1.27-8.35.88-1.79,3.54-7.54,4.39-9.36,1-2.15,3.33-.58,5.15-1.69,2.21-1.35,3.95-5.37,5.57-8.29,1.06-1.91-1.91-3.46-.93-5.29.66-1.23,4.99-7.31,5.62-8.5,1.09-2.04,5.82.47,6.86-1.29,1.16-1.95,3.73-.67,4.89-2.28,1.36-1.88,2.24-7.72,3.68-9.11,5.81-5.59,8.09-10.46,18.97-7.62,13.29,3.47,26.12,6.77,39.51,13.18,6,2.88,10.56,8.41,15.26,13.63,1.81,2,3.4,4.18,4.81,6.47Z" fill="#efecdf" stroke-width="0"/>
          <path id="wheel" d="m142.76,364.65c-3.12-2.89-6.59-6.06-10.23-7.06-20.12-5.54-46.82,17.18-54.2,42.53-3.13,10.78-12.43,34.43-8.99,60.8,5.45,41.81,27.15,44.48,22.64,44.85-23.27,1.9-54.29-11.12-60.77-17.06-2.01-1.85-7.18-4.64-9.14-8.76-1.39-2.93-.54-5.93-1.33-8.86-1.34-4.95-5.34-7.29-5.91-8.89-.64-3.65,1.12-5.21.85-10.66-.07-1.36,0-6.35.06-7.81.1-2.17-3.9-3.15-3.39-5.52.44-2.07,1.29-6.55,1.71-8.67.33-1.65,4.84-1.95,5.12-3.61.23-1.36,2.94-7.52,3.16-8.79.45-2.63-3.19-4.15-2.85-6.25.26-1.63.48-3.07.64-4.27.55-4.24,6.7-3.99,8.16-7.28.69-1.55,1.13-4.8,1.96-6.21,1.43-2.42-2.46-5.92-1.27-8.35.88-1.79,3.54-7.54,4.39-9.36,1-2.15,3.33-.58,5.15-1.69,2.21-1.35,3.95-5.37,5.57-8.29,1.06-1.91-1.91-3.46-.93-5.29.66-1.23,4.99-7.31,5.62-8.5,1.09-2.04,5.82.47,6.86-1.29,1.16-1.95,3.73-.67,4.89-2.28,1.36-1.88,2.24-7.72,3.68-9.11,5.81-5.59,8.09-10.46,18.97-7.62,13.29,3.47,26.12,6.77,39.51,13.18,6,2.88,10.56,8.41,15.26,13.63,1.81,2,3.4,4.18,4.81,6.47Z" fill="#c8ee73" stroke-width="0"/>
          <path d="m59.7,344.55l.41,2.9c.14.97-.31,1.93-1.14,2.45l-1.99,1.24c-.52.33-1.15.44-1.76.33l-3.78-.7c-1.2-.22-2.43.23-3.2,1.17l-4.91,6.01c-.73.9-.95,2.1-.58,3.2l1.37,4.03c.33.96.18,2.01-.4,2.84l-3.78,5.41c-.58.83-1.51,1.33-2.52,1.36l-2.98.08c-1.38.04-2.62.84-3.22,2.09l-3.28,6.85c-.55,1.15-.47,2.5.22,3.58l2.86,4.46c.18.28.2.62.07.92l-2.77,6.32c-.11.26-.34.46-.61.54l-5.64,1.73c-.32.1-.57.35-.66.68l-2.64,9.65c-.08.29-.02.6.15.84l3.05,2.77c.82.75,1.12,1.92.74,2.96l-2.5,7.05c-.09.27-.3.48-.56.58l-3.12.53c-1.85.31-3.3,1.75-3.63,3.6l-1.29,7.16c-.17.97-.02,1.96.43,2.83l3.25,2.68c-.06,2.36,0,8.03,0,8.03-.64.55-2.72,2.85-2.72,3.7l.19,7.21c0,1.07.59,2.05,1.53,2.56l3.19,1.71,2.92,6.33s.13.08-.13,4.05c-.19,2.9,4.93,8.66,7.6,10.63,0,0,28.66,21.51,58.17,18.81,14.39-1.56,26.56-5.61,33.98-15.04.94-1.2,1.45-2.69,1.45-4.22v-2.45c0-1.89.66-3.72,1.86-5.18h0c1.55-1.88,3.86-2.97,6.3-2.97h.32c1.17,0,2.29-.47,3.1-1.31,2.77-2.88,4.82-6.42,6.13-10.64.29-.94.28-1.96-.08-2.88l-1.49-3.85c-.56-1.45-.63-3.04-.19-4.53h0c.49-1.67,1.58-3.1,3.06-4.02l1.38-.85c.63-.39,1.14-.94,1.45-1.6,1.87-4.08,2.65-8.71,2.58-13.76-.01-.87-.34-1.71-.89-2.37l-.56-.68c-1.19-1.43-1.69-3.31-1.37-5.14.22-1.25.81-2.41,1.69-3.32l3.57-3.68c.31-.32.54-.72.65-1.15,1.22-4.84,1.21-9.29.09-13.38-.16-.58-.53-1.07-1.03-1.4l-1.27-.86c-1.31-.88-2.1-2.36-2.1-3.94h0c0-1.2.45-2.35,1.26-3.22l1.4-1.51c1.03-1.11,1.55-2.58,1.48-4.09-.19-3.8-1.29-11.54-6.58-20.28.71-6.82-2.71-13.4-8.69-16.77-5.78-3.25-13.64-7.26-22.26-10.48-12.85-4.8-25.17-13.54-37.47-7.48l-12.64,8.56c-1.09.74-1.67,2.03-1.48,3.34Z" fill="none" stroke="#92856c" stroke-linecap="round" stroke-linejoin="round" stroke-width="3"/>
          <path style="opacity: 0" d="m27.9,468.89s7.2,5.3,17.26,9.24" fill="none" stroke="#92856c" stroke-linecap="round" stroke-linejoin="round" stroke-width="3"/>
        </g>
        <path d="m78.32,450.97s-1.12-59.34,35.62-79.21" fill="none" stroke="#92856c" stroke-linecap="round" stroke-linejoin="round" stroke-width="3"/>
        <path d="m112.56,475.74c-2.93,3.34-6.96,6.76-12.17,8.64" fill="none" stroke="#92856c" stroke-linecap="round" stroke-linejoin="round" stroke-width="3"/>
        <path d="m118.57,466.57s-.83,1.94-2.55,4.58" fill="none" stroke="#92856c" stroke-linecap="round" stroke-linejoin="round" stroke-width="3"/>
        <path d="m53.24,480.75c2.16.55,4.38.98,6.63,1.25" fill="none" stroke="#92856c" stroke-linecap="round" stroke-linejoin="round" stroke-width="3"/>
        <path d="m94.06,355.57s-7.88-5.57-17.07-7.08" fill="none" stroke="#92856c" stroke-linecap="round" stroke-linejoin="round" stroke-width="3"/>
        <path d="m142.66,368.08s-5.54-7.13-14.27-9.47" fill="none" stroke="#92856c" stroke-linecap="round" stroke-linejoin="round" stroke-width="3"/>
        <path d="m51.31,419.98l3.73-27.05,9.13-40.77s4.68-31.25,77.4-81.18l23.22-18.59,9.03-74.01c-.05-.89,12.98-106.53,12.98-106.53L307.55,0l231.74,65.79,16.05,43.7,71.63,17.89,14.67,3.94v65.09l-311.91,321.12-18.42,11.23-13.38-13.09-14.16,7.64c-10.46,7.24-23.97,8.41-35.52,3.09l-185.21-85.33c-5.02-3.11-9.2-9.19-11.74-21.1Z" fill="#f3efe3" stroke-width="0"/>
        <path d="m51.93,422.06l.31,1.28c1.74,7.29,6.9,13.47,14.05,16.82l171.45,80.43c10.51,4.47,24.36,12.37,31.43,7.13l8.71-5.34,7.28-3.71c3.7-2.38,5.4-3.91,8.43-.81l4.86,4.97c3.58,3.66,5.8,8.29,6.36,13.21l-.11,22.05c.71,6.3-2.12,12.49-7.48,16.37l-2.88,2.08c-10.22,7.39-24.07,8.65-35.62,3.24l-205.91-96.23c-8.23-3.86-13.5-11.66-13.69-20.27l-.85-39.77s-.04-.52.11-1.3c1.27-6.89,11.91-6.96,13.54-.14Z" fill="#e7e4d5" stroke-width="0"/>
        <ellipse cx="251.89" cy="454.8" rx="26.06" ry="29.73" fill="#fff8f0" stroke-width="0"/>
        <ellipse cx="99.81" cy="376.87" rx="26.06" ry="29.73" fill="#fff8f0" stroke-width="0"/>
        <path d="m210.78,426.24l-66.69-30.01c-3.52-1.58-5.08-5.72-3.5-9.23h0c1.58-3.52,5.72-5.08,9.23-3.5l66.69,30.01c3.52,1.58,5.08,5.72,3.5,9.23h0c-1.58,3.52-5.72,5.08-9.23,3.5Z" fill="#e7e4d5" stroke-width="0"/>
        <path d="m200.56,450.03l-66.7-30.01c-3.52-1.58-5.08-5.72-3.5-9.23,1.58-3.52,5.72-5.08,9.23-3.5l66.7,30.01c3.52,1.58,5.08,5.72,3.5,9.23h0c-1.58,3.52-5.72,5.08-9.23,3.5Z" fill="#e7e4d5" stroke-width="0"/>
        <path d="m188.64,472l-66.7-30.01c-3.52-1.58-5.08-5.72-3.5-9.23h0c1.58-3.52,5.72-5.08,9.23-3.5l66.69,30.01c3.52,1.58,5.08,5.72,3.5,9.23h0c-1.58,3.52-5.72,5.08-9.23,3.5Z" fill="#e7e4d5" stroke-width="0"/>
        <ellipse cx="59.3" cy="391.81" rx="5.9" ry="6.73" fill="#fff8f0" stroke-width="0"/>
        <path d="m283.85,501.37c0,3.72-2.64,6.73-5.9,6.73s-5.9-3.01-5.9-6.73,2.64-6.73,5.9-6.73,5.9,3.01,5.9,6.73Z" fill="#fff8f0" stroke-width="0"/>
        <path d="m304.78,541.43l-.08,16.25c.72,6.34-2.15,12.58-7.57,16.48l-2.92,2.1c-10.35,7.45-24.38,8.72-36.08,3.26l-55.42-25.17" fill="none" stroke="#92856c" stroke-linecap="round" stroke-linejoin="round" stroke-width="3"/>
        <path d="m88.38,450.97l151.91,70.88c10.36,4.83,22.82,11.56,32.42,5.52l10.46-6,6.01-3.84c3.75-2.4,8.82-1.86,11.89,1.26l3.01,3.06" fill="none" stroke="#92856c" stroke-linecap="round" stroke-linejoin="round" stroke-width="3"/>
        <line x1="76.73" y1="445.53" x2="82.25" y2="448.11" fill="none" stroke="#92856c" stroke-linecap="round" stroke-linejoin="round" stroke-width="3"/>
        <ellipse cx="59.3" cy="391.81" rx="5.9" ry="6.73" fill="none" stroke="#92856c" stroke-linecap="round" stroke-linejoin="round" stroke-width="3"/>
        <path d="m283.85,501.37c0,3.72-2.64,6.73-5.9,6.73s-5.9-3.01-5.9-6.73,2.64-6.73,5.9-6.73,5.9,3.01,5.9,6.73Z" fill="none" stroke="#92856c" stroke-linecap="round" stroke-linejoin="round" stroke-width="3"/>
        <ellipse cx="251.23" cy="456.45" rx="26.06" ry="29.73" fill="none" stroke="#92856c" stroke-linecap="round" stroke-linejoin="round" stroke-width="3"/>
        <ellipse cx="99.16" cy="378.52" rx="26.06" ry="29.73" fill="none" stroke="#92856c" stroke-linecap="round" stroke-linejoin="round" stroke-width="3"/>
        <path d="m210.12,427.9l-66.69-30.01c-3.52-1.58-5.08-5.72-3.5-9.23h0c1.58-3.52,5.72-5.08,9.23-3.5l66.69,30.01c3.52,1.58,5.08,5.72,3.5,9.23h0c-1.58,3.52-5.72,5.08-9.23,3.5Z" fill="none" stroke="#92856c" stroke-linecap="round" stroke-linejoin="round" stroke-width="2.34"/>
        <path d="m199.9,451.69l-66.7-30.01c-3.52-1.58-5.08-5.72-3.5-9.23h0c1.58-3.52,5.72-5.08,9.23-3.5l66.7,30.01c3.52,1.58,5.08,5.72,3.5,9.23h0c-1.58,3.52-5.72,5.08-9.23,3.5Z" fill="none" stroke="#92856c" stroke-linecap="round" stroke-linejoin="round" stroke-width="2.34"/>
        <path d="m187.99,473.65l-66.7-30.01c-3.52-1.58-5.08-5.72-3.5-9.23h0c1.58-3.52,5.72-5.08,9.23-3.5l66.7,30.01c3.52,1.58,5.08,5.72,3.5,9.23h0c-1.58,3.52-5.72,5.08-9.23,3.5Z" fill="none" stroke="#92856c" stroke-linecap="round" stroke-linejoin="round" stroke-width="2.34"/>
        <line x1="388.11" y1="276.1" x2="396.33" y2="279.34" fill="none" stroke="#92856c" stroke-linecap="round" stroke-linejoin="round" stroke-width="3"/>
        <path d="m356.93,263.04s-.51-16.03,22.77-17.71c0,0,9.28-1.1,19.06,5.9" fill="none" stroke="#92856c" stroke-linecap="round" stroke-linejoin="round" stroke-width="3"/>
        <g>
          <path d="m369.25,258.34s4.49-6.88,17.52-3.65" fill="none" stroke="#92856c" stroke-linecap="round" stroke-linejoin="round" stroke-width="3"/>
          <polygon points="640 195.29 607.9 233.23 634.53 243.63 645.55 252.37 662.84 229.46 662.84 208.55 640 195.29" fill="#e2dfd0" stroke-width="0"/>
          <line x1="513.73" y1="95.27" x2="529.34" y2="99.83" fill="none" stroke="#92856c" stroke-linecap="round" stroke-linejoin="round" stroke-width="3"/>
          <path d="m6.65,402.36c-5.27-3.29-5.99-6.91-5.8-11.28.52-12.07,6.01-36.97,38.57-61.34l75.96-51.14c.29-.2.65-.27.99-.2l8.23,1.55c1.12.21,1.48,1.64.59,2.35-11.59,9.34-54.74,41.54-63.85,72.24,0,0-9.11,33.23-11.8,60.82-.21,2.13-2.3,3.56-4.35,2.97-26.36-7.51-38.55-15.97-38.55-15.97Z" fill="#f1eee1" stroke-width="0"/>
          <path d="m561.43,110.36l62.75,15.51c9.4,2.87,15.82,11.55,15.82,21.38v48.05l-20.88,24.48" fill="none" stroke="#92856c" stroke-linecap="round" stroke-linejoin="round" stroke-width="3"/>
          <line x1="274.19" y1="495.77" x2="277.71" y2="492.22" fill="none" stroke="#92856c" stroke-linecap="round" stroke-linejoin="round" stroke-width="3"/>
          <line x1="281.59" y1="507.06" x2="287.44" y2="500.96" fill="none" stroke="#92856c" stroke-linecap="round" stroke-linejoin="round" stroke-width="3"/>
          <path d="m501.16,282.94l20.42-20.42c1.24-1.24,3.37-.36,3.37,1.4v11.92c0,.52-.21,1.03-.58,1.4l-20.42,20.42c-1.24,1.24-3.37.36-3.37-1.4v-11.92c0-.52.21-1.03.58-1.4Z" fill="#e7e4d5" stroke-width="0"/>
          <path d="m500.58,285l21.68-21.68c.99-.99,2.68-.29,2.68,1.11v6.07" fill="none" stroke="#92856c" stroke-linecap="round" stroke-linejoin="round" stroke-width="3"/>
          <polyline points="327.88 122.17 327.88 143.77 303.97 160.81 264.24 170.77 246.78 199.4 198.2 235.96 413.15 332.12 567.16 183.12" fill="url(#car-linear-gradient)" stroke-width="0"/>
          <ellipse cx="624.08" cy="168.46" rx="6.26" ry="13.47" fill="#e7e4d5" stroke-width="0"/>
        </g>
        <ellipse cx="624.08" cy="168.46" rx="6.26" ry="13.47" fill="none" stroke="#92856c" stroke-linecap="round" stroke-linejoin="round" stroke-width="3"/>
        <path d="m646.15,199.27l10.23,5.11c3.96,1.98,6.46,6.03,6.46,10.46v14.16" fill="none" stroke="#92856c" stroke-linecap="round" stroke-linejoin="round" stroke-width="3"/>
        <line x1="147.04" y1="265.43" x2="119.4" y2="286.46" fill="none" stroke="#92856c" stroke-linecap="round" stroke-linejoin="round" stroke-width="3"/>
        <line x1="325.8" y1="144.88" x2="307.13" y2="158.66" fill="none" stroke="#92856c" stroke-linecap="round" stroke-linejoin="round" stroke-width="3"/>
        <line x1="327.88" y1="129.43" x2="327.88" y2="139.24" fill="none" stroke="#92856c" stroke-linecap="round" stroke-linejoin="round" stroke-width="3"/>
        <path d="m421.63,359.87l2.62,22.93s5.32,7.3,8.05.22c2.73-7.08,6.33-24.31,6.33-24.31" fill="#fff8f0" stroke-width="0"/>
        <line x1="539.29" y1="268.73" x2="539.29" y2="297.03" fill="none" stroke="#92856c" stroke-linecap="round" stroke-linejoin="round" stroke-width="3"/>
        <path d="m531.02,241.7l4.35,4.35c2.5,2.51,3.91,5.9,3.91,9.45v7.54" fill="none" stroke="#92856c" stroke-linecap="round" stroke-linejoin="round" stroke-width="3"/>
        <path d="m595.22,102.27c.07,1.18.09,2.13.07,2.78" fill="none" stroke="#92856c" stroke-linecap="round" stroke-linejoin="round" stroke-width="3"/>
        <path d="m488.19,37.71c13.9-5.82,35.65-10.39,60.87.49,17.69,7.63,33.45,20.74,40.41,38.71,3.18,8.2,4.72,16.06,5.38,21.56" fill="none" stroke="#92856c" stroke-linecap="round" stroke-linejoin="round" stroke-width="3"/>
        <line x1="542.32" y1="206.86" x2="556.24" y2="193.03" fill="none" stroke="#92856c" stroke-linecap="round" stroke-linejoin="round" stroke-width="3"/>
        <path d="m41.32,329.23s-40.86,48.37,10.69,68.01l-1.86,19.16s-40.25-4.88-47.76-20.23c0,0-7-36.3,38.93-66.94Z" fill="#fff8f0" opacity=".64" stroke-width="0"/>
        <path d="m335.12,498.85c1.33,9.21,6.73,18.15,19.59,24.73,4.03,2.06,6.7,6.05,7.01,10.57l.78,11.52c.66,9.75-9.39,16.65-18.23,12.48-15.83-7.47-34.91-20.57-32.7-32.77,0,0-2.9-12.75,3.52-28.62.05-.12.1-.25.15-.37,4.01-9.64,18.38-7.87,19.87,2.46Z" fill="#fff8f0" opacity=".64" stroke-width="0"/>
        <path d="m28.77,411.71c-14.58-5.56-21.45-10.32-21.45-10.32-5.27-3.29-5.99-6.91-5.8-11.28.52-12.07,6.01-36.97,38.57-61.34l75.96-51.14c.29-.2.65-.27.99-.2l8.23,1.55c1.12.21,1.48,1.64.59,2.35-11.59,9.34-54.74,41.54-63.85,72.24,0,0-7.82,28.54-11.11,54.69" fill="none" stroke="#92856c" stroke-linecap="round" stroke-linejoin="round" stroke-width="3"/>
        <path d="m50.91,408.25v.1c-.68,5.35-6.01,8.79-11.15,7.17-4.06-1.28-7.72-2.57-10.99-3.81" fill="none" stroke="#92856c" stroke-linecap="round" stroke-linejoin="round" stroke-width="3"/>
        <path d="m530.71,341.29l-1.15,6.06c-.41,2.17.78,4.32,2.84,5.11l9.79,3.78c4.46,1.72,8.23-3.69,5.08-7.28l-8.64-9.84c-2.51-2.86-7.21-1.58-7.92,2.16Z" fill="#fff8f0" stroke-width="0"/>
        <path d="m345.21,217.26c3.24-9.22,7.78-30.52-19.28-42.15-1.69-.73-3.57-.87-5.11.14h0c-3.34,2.21-2.68,7.29,1.11,8.57,9.01,3.05,18.91,11.23,20.24,33,.1,1.71,2.47,2.05,3.04.43Z" fill="#f3efe3" stroke-width="0"/>
        <path d="m481.85,265.79c3.24-9.22,7.78-30.52-19.28-42.15-1.69-.73-3.57-.87-5.11.14h0c-3.34,2.21-2.68,7.29,1.11,8.57,9.01,3.05,18.91,11.23,20.24,33,.1,1.71,2.47,2.05,3.04.43Z" fill="#e7e4d5" stroke-width="0"/>
        <path d="m543.47,190.3c3.26-9.3,7.86-30.87-19.96-42.43-1.45-.6-3.12-.44-4.43.43l-10.25,6.79c11.67,3.26,29.63,2.51,31.6,34.78.1,1.71,2.47,2.05,3.04.43Z" fill="#e7e4d5" stroke-width="0"/>
        <path d="m214.9,223.39l33.91-25.3s7.59-33.23,31.88-33.91c0,0,7.91-.02,16.51,1.81" fill="none" stroke="#92856c" stroke-linecap="round" stroke-linejoin="round" stroke-width="3"/>
        <path d="m248.8,198.09s-1.68,15.85-.42,20.49" fill="none" stroke="#92856c" stroke-linecap="round" stroke-linejoin="round" stroke-width="3"/>
        <path d="m305.91,167.9s42.08,10.75,41.92,30.45" fill="none" stroke="#92856c" stroke-linecap="round" stroke-linejoin="round" stroke-width="3"/>
        <path d="m442.5,218.25s41.79,5.15,40.11,29.04l-.61,8.8" fill="none" stroke="#92856c" stroke-linecap="round" stroke-linejoin="round" stroke-width="3"/>
        <path d="m434.66,304.53s3.8,1.93,16.83-10.42l77.85-75.11" fill="none" stroke="#92856c" stroke-linecap="round" stroke-linejoin="round" stroke-width="3"/>
        <path d="m521.01,147.51s-14.22-7.1-27.89-7.4c-6.83-.15-8.69,2.54-8.83,5.27-.16,3.02,2.12,5.62,5.09,6.17l19.45,3.54" fill="#e7e4d5" stroke-width="0"/>
        <path d="m511.83,143.77s37.92,11.98,33.71,30.45c0,0-1.3,7.84-.91,17.12" fill="none" stroke="#92856c" stroke-linecap="round" stroke-linejoin="round" stroke-width="3"/>
        <path d="m504.82,141.88c-6.92-1.83-13.28-1.81-13.28-1.81-19.54.67-23.44,28.93-23.44,28.93,0,0-.84,5.82.59,9.28" fill="none" stroke="#92856c" stroke-linecap="round" stroke-linejoin="round" stroke-width="3"/>
        <path d="m375.22,361.51l-67.29,64.31c-2.14,2.05-3.44,4.83-3.62,7.8l-1.54,25.43c-.34,5.54,6.62,8.27,10.14,3.98,22.18-27.05,82.09-82.9,93.28-81.91l-22.1-18.43c-1.91-3.13-6.22-3.7-8.87-1.17Z" fill="url(#car-linear-gradient-2)" stroke-width="0"/>
        <path d="m198.01,64.18c-8.56,5.18-14.24,14.02-15.41,23.95l-14.26,121.43,5.78,14.39,15.72-131.38s4.31-11.85,16.96-8.49c12.65,3.36,75.49,23.84,75.49,23.84,0,0-25.94-17.12-46.48-30.01-9.12-5.72-9.33-18.93-.42-24.96L309.57,2.37l-5.19-.52-50.52,28.56-55.85,33.77Z" fill="#fff8f0" stroke-width="0"/>
        <path d="m167.91,211.69l15.19-126.39c.96-7.97,5.53-15.06,12.39-19.22L296.61,4.71c4.79-3,10.62-3.84,16.07-2.32l218.46,61.07c3.85,1.08,6.96,3.92,8.38,7.65l38.39,100.91c1.58,4.16,6.93,5.31,10.08,2.16l31.92-31.92s4.58-5.23-3.96-10.29" fill="none" stroke="#92856c" stroke-linecap="round" stroke-linejoin="round" stroke-width="3"/>
        <path d="m410.45,336.59l7.58-174.65c.69-15.89-12.11-29.12-28.02-28.87-7.75.12-30.87-8.19-41.56-9.71-7.91-1.13-2.74,5.02-12.23,2.53l66.45,20.36c.32.1.63.21.93.34,3.39,1.46,5.55,4.85,5.44,8.54l-2.81,98.75-4.01,82.7" fill="#fff8f0" stroke-width="0"/>
        <path d="m52.1,422.6l.31,1.29c1.77,7.35,6.99,13.57,14.23,16.94l4.39,2.05" fill="none" stroke="#92856c" stroke-linecap="round" stroke-linejoin="round" stroke-width="3"/>
        <path d="m180.29,542.34l-127.29-57.81c-8.34-3.89-13.68-11.75-13.86-20.42l-.86-40.06s-.04-.53.11-1.31" fill="none" stroke="#92856c" stroke-linecap="round" stroke-linejoin="round" stroke-width="3"/>
        <path d="m400.73,339.18c-1.67,1.76-4.26,2.28-6.48,1.32l-209.59-90.98c-2.75-1.27-3.26-4.96-.96-6.93l16.08-13.71c1.18-1.01,2.83-1.27,4.27-.68l90.61,37.21c1.44.59,3.1.33,4.28-.69l7.17-6.16c7.65-6.58,18.37-8.24,27.66-4.29l55.35,21.83,14.35,6.17" fill="#fff8f0" stroke-width="0"/>
        <path d="m399.72,339.18c-1.67,1.76-4.26,2.28-6.48,1.32l-209.59-90.98c-2.75-1.27-3.26-4.96-.96-6.93l16.08-13.71c1.18-1.01,2.83-1.27,4.27-.68l90.61,37.21c1.44.59,3.1.33,4.28-.69l7.17-6.16c7.65-6.58,18.37-8.24,27.66-4.29l55.35,21.83" fill="none" stroke="#92856c" stroke-linecap="round" stroke-linejoin="round" stroke-width="3"/>
        <path d="m424.24,155.09l-7.09,187.67,151.92-150.82c-2.49,3.43-1.35-1.3-2.78-5.58l-34.54-103.46c-1.34-4.01-6.27-5.45-9.56-2.79l-91.16,62.61c-4.1,2.82-6.62,7.4-6.81,12.37Z" fill="none" stroke="#92856c" stroke-linecap="round" stroke-linejoin="round" stroke-width="3"/>
        <path d="m414.71,341.41c-.73-10.71,7.36-19.99,18.08-20.72l36.99-2.52c7.4-.5,13.35,5.98,12.22,13.3l-1.63,10.59c-1.26,8.16-8,14.36-16.24,14.92l-39.25,2.67c-4.91.33-9.16-3.37-9.5-8.28" fill="#fff8f0" stroke-width="0"/>
        <path d="m414.71,341.41c-.73-10.71,7.36-19.99,18.08-20.72l36.99-2.52c7.4-.5,13.35,5.98,12.22,13.3l-1.63,10.59c-1.26,8.16-8,14.36-16.24,14.92l-39.25,2.67c-4.91.33-9.16-3.37-9.5-8.28" fill="none" stroke="#92856c" stroke-linecap="round" stroke-linejoin="round" stroke-width="3"/>
        <line x1="434.34" y1="376.96" x2="436" y2="369.54" fill="none" stroke="#92856c" stroke-linecap="round" stroke-linejoin="round" stroke-width="3"/>
        <path d="m428.01,385.88h0c2.38.31,4.6-1.24,5.12-3.58l.27-1.2" fill="none" stroke="#92856c" stroke-linecap="round" stroke-linejoin="round" stroke-width="3"/>
        <path d="m428.59,350.23s-.57-4.93-.58-9.74c0-4.87,3.48-9.03,8.25-9.96,3.25-.63,7.66-1.24,12.62-1.3" fill="none" stroke="#92856c" stroke-linecap="round" stroke-linejoin="round" stroke-width="3"/>
        <line x1="421.97" y1="364.84" x2="424.02" y2="381.84" fill="none" stroke="#92856c" stroke-linecap="round" stroke-linejoin="round" stroke-width="3"/>
        <path d="m163.86,229.06c6.41-6.89,6.53-17.21.26-23.04l-15.01-16.86c-4.33-4.03-11.64-2.6-15.01,2.92l-4.87,7.98c-3.76,6.15-3,13.71,1.82,18.19l16.33,18.09c2.87,2.67,7.58,2.28,10.52-.88" fill="none" stroke="#92856c" stroke-linecap="round" stroke-linejoin="round" stroke-width="3"/>
        <line x1="326.8" y1="407.02" x2="362.86" y2="372.84" fill="none" stroke="#92856c" stroke-linecap="round" stroke-linejoin="round" stroke-width="3"/>
        <path d="m177.65,238.1l17.31-145.44c.72-6.05,6.76-9.96,12.58-8.14l190.26,59.52c7.44,2.33,12.37,9.37,12.01,17.16l-7.9,172.04s-.58,9.82-8.87,6.34l-208.34-89.27c-4.8-2.05-7.67-7.02-7.05-12.2Z" fill="none" stroke="#92856c" stroke-linecap="round" stroke-linejoin="round" stroke-width="3"/>
      </g>
      <g id="car_wrap">
        <g>
          <path d="m628.99,265.8l-48.74,60.91c-.64.8-1.05,1.77-1.18,2.79l-5.18,33.54c-.99,7.08-8.28,11.42-14.97,8.9l-30.29-11.38c-4.97-1.87-7.93-6.97-7.09-12.21l7.1-34.81c.42-2.65,1.59-5.12,3.35-7.14l58.33-66.62c4.25-4.85,11.03-6.61,17.1-4.44l29.36,10.51c5.17,1.85,9.26,5.87,11.21,11l.08.22c.49,1.28-.96,2.46-2.1,1.7-5.88-3.89-11.47.64-16.99,7.03Z" fill="#fbf6ed" stroke-width="0"/>
          <path d="m651.17,262.47h0c-3.53-9.31-10.97-16.61-20.35-19.96l-21.18-7.58c-7-2.51-14.82-.47-19.72,5.12l-57.12,65.24c-1.85,2.12-3.07,4.72-3.52,7.49l-7.07,34.61c-.84,5.24,2.12,10.34,7.09,12.21l30.29,11.38c6.69,2.51,13.98-1.83,14.97-8.9l4.2-30.61c.24-2.22,1.11-4.33,2.51-6.07l48.39-60.56" fill="none" stroke="#e8e1d6" stroke-linecap="round" stroke-linejoin="round" stroke-width="3"/>
        </g>
        <g>
          <path d="m455.41,445.29l-60.78,67.13c-6.58,7.27-10.15,16.76-9.98,26.56l.32,19c.1,6.09-5.25,10.88-11.29,10.03-7.17-1-12.99-2.62-12.99-2.62-23.84-8.36-36.06-16.2-42.32-21.89-4.12-3.74-6.52-9-6.69-14.56l-.46-14.36c-.35-11,3.65-21.7,11.13-29.78l65.47-70.67c8.48-9.16,21.77-12.07,33.31-7.3l34.46,14.25c.56.23,1.11.47,1.65.72,11.2,5.13,19.49,15.06,23.12,26.83h0c.43,1.4-1.45,2.31-2.27,1.09-5.57-8.27-14.25-16.27-22.69-4.45" fill="#fbf6ed" stroke-width="0"/>
          <path d="m456.08,444.32l-60.57,66.9c-6.71,7.42-10.36,17.11-10.19,27.11l.31,18.69c.1,6.09-5.25,10.88-11.29,10.03-7.17-1-12.99-2.62-12.99-2.62-23.84-8.36-36.06-16.2-42.32-21.89-4.12-3.74-6.52-9-6.69-14.56l-.46-14.36c-.35-11,3.65-21.7,11.13-29.78l65.47-70.67c8.48-9.16,21.77-12.07,33.31-7.3l34.46,14.25c.56.23,1.11.47,1.65.72,11.2,5.13,19.49,15.06,23.12,26.83h0c.52,1.69-1.68,2.87-2.78,1.49-1.44-1.82-3.12-3.68-5.04-5.43" fill="none" stroke="#e8e1d6" stroke-linecap="round" stroke-linejoin="round" stroke-width="3"/>
        </g>
      </g>
      <g id="car_paint-protect" opacity="0">
        <path d="m143.04,187.61c-3.09,0-6.34,1.67-8.23,4.75l-4.87,7.95c-1.51,2.46-2.24,5.15-2.24,7.74,0,3.5,1.33,6.82,3.89,9.19l.06.06,16.3,17.97c1.09,1,2.48,1.49,3.94,1.49,1.83,0,3.76-.79,5.22-2.34.19-.2.44-.3.69-.3.23,0,.46.08.64.25l4.67-5h0c-.38-.35-.4-.95-.05-1.33,3.09-3.31,4.63-7.44,4.63-11.41,0-1.33-.17-2.64-.52-3.89-.58-.26-.95-.88-.87-1.54l.08-.63c-.71-1.53-1.72-2.94-3.01-4.14l-.06-.06-14.98-16.75c-1.49-1.36-3.36-2.01-5.3-2.01" fill="#a8e20c" opacity=".4" stroke-width="0"/>
        <path d="m651.21,261.61l-2.33-6.17c-1.94-5.14-6.03-9.17-11.18-11.02l-29.29-10.52c-.38-.14-.76-.26-1.15-.36l32.46-36.22v-50.14c0-8.89-5.99-16.68-14.63-19.02h0s-71.45-17.92-71.45-17.92l-13.69-37.42c-1.46-3.99-4.75-7.05-8.86-8.22L314.71,2.91c-5.27-1.5-10.92-.76-15.62,2.05l-103.84,62.06c-5.83,3.49-9.72,9.45-10.55,16.17-3.3,26.87-11.68,95.35-11.65,96.06l-9.01,74.14-23.17,18.63c-38.31,26.41-57.69,47.6-67.45,61.72,17.88-26.36,50.95-49.93,56.11-54.64l-11.52-2.18-76.23,51.54c-32.48,24.41-37.96,49.35-38.47,61.45-.19,4.38.53,8,5.78,11.3,0,0,12.16,8.47,38.45,16,1.75.5,3.52-.48,4.13-2.09l-.85,6.16c2.53,11.93,6.7,18.02,11.71,21.14l184.75,85.47c11.52,5.33,25,4.16,35.43-3.09l14.13-7.65,13.35,13.11,3.34-.27c.61,4.83,2.9,9.32,6.52,12.62,6.24,5.7,18.43,13.55,42.21,21.92,0,0,5.81,1.62,12.96,2.63,6.02.85,11.36-3.95,11.26-10.05l-.32-19.04c-.16-9.82,3.39-19.33,9.96-26.61l60.63-67.25c8.35-11.75,16.93-3.96,22.49,4.24.73,1.07,2.4.55,2.4-.74h0c0-.1-.01-.19-.04-.28-3.65-11.73-11.89-21.62-23.03-26.74-.54-.25-1.09-.49-1.65-.72l-12.2-5.07,83.05-92.68-5.05,24.89c-.84,5.25,2.12,10.36,7.07,12.23l30.21,11.4c6.67,2.52,13.95-1.83,14.93-8.92l5.17-33.6c.13-1.02.53-1.99,1.17-2.79l48.62-61.01c6.82-7.92,13.74-12.99,21.18-2.75.04.06.13.02.11-.05ZM54.03,398.14l-1.81,13.14c.48-4.33,1.1-8.75,1.81-13.14Zm1.1-6.45c3.66-20.47,8.56-38.4,8.56-38.4,0,0,0-.01,0-.02,0,.03,0,.06,0,.06l-8.55,38.36Z" fill="none" stroke="#a8e20c" stroke-miterlimit="10" stroke-width="3.99"/>
        <path d="m648.88,254.94c-1.94-5.14-6.03-9.17-11.18-11.02l-29.29-10.52c-.38-.14-.76-.26-1.15-.36l32.46-36.22v-50.14c0-8.89-5.99-16.68-14.63-19.02l-71.45-17.92-13.69-37.42c-1.46-3.99-4.75-7.05-8.86-8.22L314.71,2.4c-5.27-1.5-10.92-.76-15.62,2.05l-103.84,62.06c-5.83,3.49-9.72,9.45-10.55,16.17-3.3,26.87-11.68,95.35-11.65,96.06l-9.01,74.14-23.17,18.63c-38.31,26.41-57.69,47.6-67.45,61.72,17.89-26.36,50.95-49.93,56.11-54.64l-11.52-2.18-76.23,51.54c-32.48,24.41-37.96,49.35-38.47,61.45-.19,4.38.53,8,5.78,11.3,0,0,12.16,8.47,38.45,16,1.75.5,3.52-.48,4.13-2.09l-.85,6.16c2.53,11.93,6.7,18.02,11.71,21.14l184.75,85.47c11.52,5.33,24.99,4.16,35.43-3.09l14.13-7.65,13.35,13.11,3.34-.27c.61,4.83,2.9,9.32,6.52,12.62,6.24,5.7,18.43,13.55,42.21,21.92,0,0,5.81,1.62,12.96,2.63,6.02.85,11.36-3.95,11.26-10.05l-.32-19.04c-.17-9.82,3.39-19.33,9.96-26.61l60.63-67.25c8.35-11.75,16.93-3.96,22.49,4.24.73,1.07,2.4.55,2.4-.74h0c0-.1-.01-.19-.04-.28-3.65-11.73-11.89-21.62-23.03-26.74-.54-.25-1.09-.49-1.65-.72l-12.2-5.07,73.57-82.1c2.62-2.93,7.43-.51,6.65,3.34l-2.23,10.98c-.84,5.25,2.12,10.36,7.07,12.23l30.21,11.4c6.67,2.52,13.95-1.83,14.93-8.92l5.17-33.6c.13-1.02.53-1.99,1.17-2.8l48.62-61.01c6.12-7.1,12.31-11.92,18.9-5.44.52.51,1.37-.06,1.12-.74l-1.05-2.78ZM52.22,410.77c.48-4.33,1.1-8.75,1.81-13.14l-1.81,13.14Zm11.46-57.95l-8.55,38.36c3.66-20.47,8.56-38.4,8.56-38.4v-.02s0,.06,0,.06Zm346.52-192.88l-7.9,171.27s-.58,9.77-8.87,6.31l-208.34-88.87c-4.8-2.05-7.67-6.99-7.05-12.15l17.31-144.79c.72-6.03,6.76-9.92,12.58-8.11l190.26,59.25c7.44,2.32,12.37,9.33,12.01,17.08Zm156.3,33.55l-127.68,126.19-10.97.91-7.48,4.65h0c-.25,1.36-2.26,1.14-2.21-.24l6.49-171.14c.19-4.95,2.71-9.51,6.81-12.32l91.16-62.33c3.29-2.65,8.22-1.21,9.56,2.78l34.54,103c.33.98.65,1.8.96,2.49.91,2.05.44,4.44-1.16,6.01Z" fill="url(#car-linear-gradient-3)" opacity=".51" stroke="#a8e20c" stroke-miterlimit="10" stroke-width="3"/>
      </g>
      <g id="car_windshield-protect" opacity="0">
        <path d="m424.09,155.07l-6.67,176.78c-.15,3.9,4.56,5.96,7.33,3.21l141.21-140.18c1.6-1.58,2.07-3.98,1.16-6.04-.3-.69-.63-1.52-.96-2.5l-34.54-103.46c-1.34-4.01-6.27-5.45-9.56-2.79l-91.16,62.61c-4.1,2.82-6.62,7.4-6.81,12.37Z" fill="url(#car-linear-gradient-4)" stroke-width="0"/>
        <path d="m177.5,238.09l17.31-145.44c.72-6.05,6.76-9.96,12.58-8.14l190.26,59.52c7.44,2.33,12.37,9.37,12.01,17.16l-7.9,172.04s-.58,9.82-8.87,6.34l-208.34-89.27c-4.8-2.05-7.67-7.02-7.05-12.2Z" fill="url(#car-linear-gradient-5)" stroke-width="0"/>
      </g>
      <g id="car_tires" opacity="0">
        <g id="car_tire-4">
          <g>
            <path d="m461.19,454.02c5.14,4.23,10.56,8.41,15.26,13.63,1.81,2,1.21,6,2.62,8.29,5.48,8.96,5.78,16.75,6.26,26.29.02.35-2.14,1.78-2.17,3-.02.71-.02,1.93-.04,2.68-.05,1.62,2,2.27,2.01,2.71.07,6.55,1.7,9.03.59,16.7-.23,1.62-3.26,1.43-3.5,3.11-.27,1.81-1.3,5.07-1.58,6.93-.34,2.24,1.8,5.77,1.52,8.05s-1.21,6.38-1.48,8.69c-.31,2.76-4.46,4.59-4.93,7.11-.28,1.46-.07,7.31-.4,8.69-1.82,7.57-2.4,9.67-6.09,16.08-.75,1.3-4.74-.06-5.52,1.19-1.27,2.01-4.46,3.64-5.82,5.48-2.53,3.42,1.19,5.24-1.11,8.27-7.38,9.71-22.59,15.94-32.54,15.88-14.02-.09-27.03-9.92-38.76-20.3-9.69-8.6-20.32-18.07-25.68-32.66-1.44-3.9-2.48-7.98-3.2-12.17-2.03-11.54-1.44-23.92,8.02-30.6,20.67-14.61,13.64-36.39,16.03-52.9.86-5.95,8.92-5.35,11.85-7.64,1.03-.8,2.84-1.72,3.86-2.42,1.81-1.24-.23-5.12,1.54-6.65,6.5-5.6,13.02-13.56,24.27-10.62" fill="#cef48b" stroke-width="0"/>
            <path d="m481.23,504.88c1.49,29.6-12.26,67.24-30.72,84.07-18.46,16.83-34.63,6.48-36.12-23.12-1.49-29.6,10.67-70.38,32.31-83.08,17.6-10.33,33.03-7.47,34.52,22.13Z" fill="#c8ee73" stroke-width="0"/>
            <path d="m463.65,522.49c.98,16.07-6.01,36.46-15.61,45.48-8.69,8.14-16.53,4.25-18.69-8.45-.24-1.36-.4-2.81-.5-4.36-.98-16.1,6.01-36.48,15.61-45.51.93-.88,1.86-1.62,2.75-2.2,8.45-5.59,15.55.48,16.44,15.03Z" fill="#cef48b" stroke-width="0"/>
            <path d="m447.71,511.85c.98,16.1-6.01,36.46-15.61,45.48-.93.88-1.86,1.62-2.75,2.2-.24-1.36-.4-2.81-.5-4.36-.98-16.1,6.01-36.48,15.61-45.51.93-.88,1.86-1.62,2.75-2.2.25,1.36.41,2.83.5,4.38Z" fill="#a8e20c" stroke-width="0"/>
            <path d="m478.15,475.89c-3.12-2.89-6.59-6.06-10.23-7.06-20.12-5.54-46.82,17.18-54.2,42.53-3.13,10.78-12.43,34.43-8.99,60.8,5.45,41.81,27.15,44.48,22.64,44.85-23.27,1.9-54.29-11.12-60.77-17.06-2.01-1.85-7.18-4.64-9.14-8.76-1.39-2.93-.54-5.93-1.33-8.86-1.34-4.95-5.34-7.29-5.91-8.89-.64-3.65,1.12-5.21.85-10.66-.07-1.36,0-6.35.06-7.81.1-2.17-3.9-3.15-3.39-5.52.44-2.07,1.29-6.55,1.71-8.67.33-1.65,4.84-1.95,5.12-3.61.23-1.36,2.94-7.52,3.16-8.79.45-2.63-3.19-4.15-2.85-6.25.26-1.63.48-3.07.64-4.27.55-4.24,6.7-3.99,8.16-7.28.69-1.55,1.13-4.8,1.96-6.21,1.43-2.42-2.46-5.92-1.27-8.35.88-1.79,3.54-7.54,4.39-9.36,1-2.15,3.34-.58,5.15-1.69,2.21-1.35,3.95-5.37,5.57-8.29,1.06-1.91-1.91-3.46-.93-5.29.66-1.23,4.99-7.31,5.62-8.5,1.09-2.04,5.82.47,6.86-1.29,1.16-1.95,3.73-.67,4.89-2.28,1.36-1.88,2.24-7.72,3.68-9.11,5.81-5.59,8.09-10.46,18.97-7.62,13.29,3.47,26.12,6.77,39.51,13.18,6,2.88,10.56,8.41,15.26,13.63,1.81,2,3.4,4.18,4.81,6.47Z" fill="#c8ee73" stroke-width="0"/>
            <g>
              <path d="m396.43,454.79l.41,2.9c.14.97-.31,1.93-1.14,2.45l-1.99,1.24c-.52.33-1.15.44-1.76.33l-3.78-.7c-1.2-.22-2.43.23-3.2,1.17l-4.91,6.01c-.73.9-.95,2.1-.58,3.2l1.37,4.03c.33.96.18,2.01-.4,2.84l-3.78,5.41c-.58.83-1.51,1.33-2.52,1.36l-2.98.08c-1.38.04-2.62.84-3.22,2.09l-3.28,6.85c-.55,1.15-.47,2.5.22,3.58l2.86,4.46c.18.28.2.62.07.92l-2.77,6.32c-.11.26-.34.46-.61.54l-5.64,1.73c-.32.1-.57.35-.66.68l-2.64,9.65c-.08.29-.02.6.15.84l3.05,2.77c.82.75,1.12,1.92.74,2.96l-2.5,7.05c-.09.27-.3.48-.56.58l-3.12.53c-1.85.31-3.3,1.75-3.63,3.6l-1.29,7.16c-.17.97-.02,1.96.43,2.83l3.25,2.68c-.06,2.36,0,8.03,0,8.03-.64.55-2.72,2.85-2.72,3.7l.19,7.21c0,1.07.59,2.05,1.53,2.56l3.19,1.71,2.92,6.33s.13.08-.13,4.05c-.19,2.9,4.93,8.66,7.6,10.63,0,0,28.66,21.51,58.17,18.81h0c14.39-1.56,26.56-5.61,33.98-15.04.94-1.2,1.45-2.69,1.45-4.22v-2.45c0-1.89.66-3.72,1.86-5.18h0c1.55-1.88,3.86-2.97,6.3-2.97h.32c1.17,0,2.29-.47,3.1-1.31,2.77-2.88,4.82-6.42,6.13-10.64.29-.94.28-1.96-.08-2.88l-1.49-3.85c-.56-1.45-.63-3.04-.19-4.53h0c.49-1.67,1.58-3.1,3.06-4.02l1.38-.85c.63-.39,1.14-.94,1.45-1.6,1.87-4.08,2.65-8.71,2.58-13.76-.01-.87-.34-1.71-.89-2.37l-.56-.68c-1.19-1.43-1.69-3.31-1.37-5.14h0c.22-1.25.81-2.41,1.69-3.32l3.57-3.68c.31-.32.54-.72.65-1.15,1.22-4.84,1.21-9.29.09-13.38-.16-.58-.53-1.07-1.03-1.4l-1.27-.86c-1.31-.88-2.1-2.36-2.1-3.94h0c0-1.2.45-2.35,1.26-3.22l1.4-1.51c1.03-1.11,1.55-2.58,1.48-4.09-.19-3.8-1.29-11.54-6.58-20.28h0c.71-6.82-2.71-13.4-8.69-16.77-5.78-3.25-13.64-7.26-22.26-10.48-12.85-4.8-25.17-13.54-37.47-7.48l-12.64,8.56c-1.09.74-1.66,2.03-1.48,3.34Z" fill="none" stroke="#a8e20c" stroke-linecap="round" stroke-linejoin="round" stroke-width="3"/>
              <path d="m415.05,561.21s-1.12-59.34,35.62-79.21" fill="none" stroke="#a8e20c" stroke-linecap="round" stroke-linejoin="round" stroke-width="3"/>
              <path d="m449.29,585.98c-2.93,3.34-6.96,6.76-12.17,8.64" fill="none" stroke="#a8e20c" stroke-linecap="round" stroke-linejoin="round" stroke-width="3"/>
              <path d="m455.3,576.82s-.83,1.94-2.55,4.58" fill="none" stroke="#a8e20c" stroke-linecap="round" stroke-linejoin="round" stroke-width="3"/>
              <g id="tire-line-2-1">
                <path d="m389.97,590.99c2.16.55,4.38.98,6.63,1.25" fill="none" stroke="#a8e20c" stroke-linecap="round" stroke-linejoin="round" stroke-width="3"/>
                <path d="m364.63,579.14s7.2,5.3,17.26,9.24" fill="none" stroke="#a8e20c" stroke-linecap="round" stroke-linejoin="round" stroke-width="3"/>
              </g>
              <line id="tire-line-2-2" x1="400.98" y1="533.63" x2="377.03" y2="525.7" fill="none" stroke="#a8e20c" stroke-linecap="round" stroke-linejoin="round" stroke-width="3"/>
              <path id="tire-line-2-3" d="m430.79,465.82s-7.88-5.57-17.07-7.08" fill="none" stroke="#a8e20c" stroke-linecap="round" stroke-linejoin="round" stroke-width="3"/>
            </g>
          </g>
          <path d="m479.39,478.32s-5.54-7.13-14.27-9.47" fill="none" stroke="#a8e20c" stroke-linecap="round" stroke-linejoin="round" stroke-width="3"/>
        </g>
        <g id="car_tire-3">
          <g>
            <path d="m641.97,269.28c4.36,3.59,8.95,7.13,12.93,11.55,1.53,1.7,1.02,5.09,2.22,7.03,4.65,7.59,4.9,14.2,5.3,22.28.01.29-1.81,1.51-1.84,2.54-.02.6-.01,1.63-.04,2.27-.05,1.38,1.7,1.92,1.7,2.3.06,5.55,1.44,7.65.5,14.15-.2,1.38-2.76,1.22-2.97,2.64-.22,1.54-1.1,4.3-1.34,5.88-.29,1.9,1.52,4.89,1.29,6.83-.24,1.95-1.03,5.4-1.25,7.36-.27,2.34-3.78,3.89-4.18,6.02-.23,1.23-.06,6.19-.34,7.37-1.55,6.42-2.03,8.19-5.16,13.63-.63,1.11-4.02-.05-4.68,1.01-1.07,1.71-3.78,3.09-4.93,4.65-2.14,2.9,1.01,4.44-.94,7.01-6.25,8.23-19.15,13.51-27.57,13.46-11.88-.08-22.91-8.41-32.85-17.2-8.22-7.29-17.22-15.31-21.76-27.68-1.22-3.3-2.1-6.76-2.71-10.31-1.72-9.78-1.22-20.27,6.8-25.94,17.52-12.38,11.56-30.84,13.59-44.84.73-5.04,7.56-4.54,10.04-6.47.87-.68,2.41-1.46,3.27-2.05,1.53-1.05-.2-4.34,1.31-5.63,5.51-4.75,11.03-11.49,20.57-9" fill="#cef48b" stroke-width="0"/>
            <path d="m658.96,312.39c1.26,25.09-10.39,56.99-26.04,71.25-15.64,14.26-29.35,5.49-30.61-19.6-1.26-25.09,9.04-59.65,27.39-70.41,14.92-8.76,27.99-6.33,29.26,18.76Z" fill="#c8ee73" stroke-width="0"/>
            <path d="m644.06,327.32c.83,13.62-5.09,30.9-13.23,38.55-7.36,6.9-14.01,3.6-15.84-7.16-.21-1.16-.34-2.38-.42-3.69-.83-13.64,5.09-30.92,13.23-38.57.79-.75,1.57-1.37,2.33-1.86,7.16-4.74,13.18.41,13.93,12.74Z" fill="#cef48b" stroke-width="0"/>
            <path d="m630.55,318.3c.83,13.64-5.09,30.9-13.23,38.55-.79.75-1.57,1.37-2.33,1.86-.21-1.16-.34-2.38-.42-3.69-.83-13.64,5.09-30.92,13.23-38.57.79-.75,1.57-1.37,2.33-1.86.21,1.16.34,2.4.42,3.72Z" fill="#a8e20c" stroke-width="0"/>
            <path d="m656.35,287.82c-2.64-2.45-5.58-5.13-8.67-5.98-17.05-4.7-39.68,14.56-45.94,36.05-2.65,9.13-10.53,29.18-7.62,51.53,4.62,35.44,23.01,37.7,19.19,38.01-19.72,1.61-46.01-9.43-51.51-14.46-1.7-1.57-6.09-3.93-7.75-7.43-1.18-2.49-.46-5.03-1.13-7.51-1.13-4.2-4.53-6.17-5.01-7.53-.54-3.09.95-4.42.72-9.03-.06-1.16,0-5.38.05-6.62.08-1.84-3.31-2.67-2.87-4.68.38-1.76,1.09-5.55,1.45-7.34.28-1.4,4.1-1.65,4.34-3.06.2-1.15,2.5-6.37,2.68-7.45.38-2.23-2.71-3.51-2.42-5.3.22-1.38.41-2.6.54-3.62.47-3.6,5.68-3.39,6.92-6.17.58-1.32.95-4.07,1.66-5.26,1.21-2.05-2.08-5.02-1.07-7.08.75-1.52,3-6.39,3.72-7.93.84-1.82,2.83-.49,4.36-1.43,1.87-1.15,3.35-4.55,4.72-7.03.9-1.62-1.62-2.93-.79-4.48.56-1.04,4.23-6.2,4.76-7.2.92-1.73,4.93.4,5.82-1.09.98-1.65,3.16-.57,4.15-1.93,1.15-1.59,1.89-6.54,3.12-7.72,4.93-4.74,6.86-8.86,16.08-6.46,11.27,2.94,22.14,5.73,33.48,11.17,5.09,2.44,8.95,7.13,12.93,11.55,1.53,1.7,2.88,3.54,4.08,5.48Z" fill="#c8ee73" stroke-width="0"/>
            <g>
              <path d="m587.1,269.94l.35,2.45c.12.82-.26,1.63-.97,2.07l-1.69,1.05c-.44.28-.97.38-1.49.28l-3.2-.59c-1.02-.19-2.06.19-2.71.99l-4.16,5.09c-.62.76-.8,1.78-.49,2.71l1.16,3.41c.28.81.15,1.71-.34,2.41l-3.2,4.58c-.49.7-1.28,1.13-2.13,1.15l-2.52.07c-1.17.03-2.22.71-2.73,1.77l-2.78,5.8c-.47.97-.4,2.12.19,3.03l2.42,3.78c.15.23.17.53.06.78l-2.35,5.36c-.1.22-.28.39-.52.46l-4.78,1.47c-.27.08-.48.3-.56.57l-2.24,8.18c-.07.24-.02.5.13.71l2.59,2.35c.7.63.95,1.62.63,2.51l-2.12,5.97c-.08.23-.25.41-.48.49l-2.64.45c-1.57.27-2.8,1.49-3.08,3.05l-1.09,6.07c-.15.82-.02,1.66.36,2.4l2.75,2.28c-.05,2,0,6.81,0,6.81-.55.47-2.31,2.42-2.31,3.14l.16,6.11c0,.91.5,1.74,1.3,2.17l2.7,1.45,2.48,5.36s.11.07-.11,3.43c-.16,2.46,4.18,7.34,6.44,9.01,0,0,24.29,18.23,49.3,15.94h0c12.19-1.32,22.51-4.76,28.8-12.74.8-1.02,1.23-2.28,1.23-3.58v-2.07c0-1.6.56-3.15,1.57-4.39h0c1.31-1.6,3.27-2.52,5.34-2.52h.27c.99,0,1.94-.4,2.62-1.11,2.35-2.44,4.09-5.44,5.19-9.02.25-.8.24-1.66-.07-2.44l-1.26-3.27c-.47-1.23-.53-2.58-.16-3.84h0c.42-1.42,1.34-2.63,2.59-3.41l1.17-.72c.53-.33.97-.79,1.23-1.36,1.59-3.46,2.25-7.38,2.19-11.66-.01-.74-.29-1.45-.76-2.01l-.48-.57c-1.01-1.21-1.43-2.81-1.16-4.36h0c.19-1.06.69-2.04,1.44-2.81l3.02-3.12c.26-.27.46-.61.55-.97,1.04-4.11,1.03-7.88.08-11.34-.13-.49-.45-.9-.87-1.19l-1.08-.73c-1.11-.75-1.78-2-1.78-3.34h0c0-1.01.38-1.99,1.07-2.73l1.18-1.28c.87-.94,1.32-2.19,1.25-3.46-.16-3.22-1.09-9.78-5.58-17.19h0c.6-5.78-2.29-11.36-7.36-14.21-4.9-2.76-11.56-6.15-18.87-8.88-10.89-4.07-21.33-11.47-31.76-6.34l-10.71,7.25c-.92.63-1.41,1.72-1.26,2.83Z" fill="none" stroke="#a8e20c" stroke-linecap="round" stroke-linejoin="round" stroke-width="2.54"/>
              <path d="m602.87,360.13s-.95-50.29,30.19-67.13" fill="none" stroke="#a8e20c" stroke-linecap="round" stroke-linejoin="round" stroke-width="2.54"/>
              <path d="m631.89,381.13c-2.48,2.83-5.9,5.73-10.31,7.33" fill="none" stroke="#a8e20c" stroke-linecap="round" stroke-linejoin="round" stroke-width="2.54"/>
              <path d="m636.99,373.36s-.7,1.64-2.16,3.88" fill="none" stroke="#a8e20c" stroke-linecap="round" stroke-linejoin="round" stroke-width="2.54"/>
              <g id="tire-line-2-4">
                <path d="m581.62,385.37c1.83.46,3.71.83,5.62,1.06" fill="none" stroke="#a8e20c" stroke-linecap="round" stroke-linejoin="round" stroke-width="2.54"/>
                <path d="m560.14,375.32s6.1,4.49,14.63,7.83" fill="none" stroke="#a8e20c" stroke-linecap="round" stroke-linejoin="round" stroke-width="2.54"/>
              </g>
              <line id="tire-line-2-5" x1="590.95" y1="336.76" x2="570.65" y2="330.04" fill="none" stroke="#a8e20c" stroke-linecap="round" stroke-linejoin="round" stroke-width="2.54"/>
              <path id="tire-line-2-6" d="m616.21,279.29s-6.68-4.72-14.47-6" fill="none" stroke="#a8e20c" stroke-linecap="round" stroke-linejoin="round" stroke-width="2.54"/>
            </g>
          </g>
          <path d="m656.87,286.55s-4.7-6.04-12.09-8.02" fill="none" stroke="#a8e20c" stroke-linecap="round" stroke-linejoin="round" stroke-width="2.54"/>
        </g>
      </g>
      <g id="car_powertrain" opacity="0">
        <polyline points="237.37 472.67 236.64 438.22 177.21 413.56 177.76 447.13" fill="#d6ff66" stroke-width="0"/>
        <g>
          <polygon points="274.83 386.73 234.23 370.15 183.58 408.09 177.92 413.35 290.72 392.99 274.83 386.73" fill="#cef48b" stroke-width="0"/>
          <polygon points="188.22 418.78 237.05 439.36 289.95 392.96 176.28 413.64 188.22 418.78" fill="#cef48b" stroke-width="0"/>
        </g>
        <polyline points="237.14 439.67 291.31 392.7 291.28 422.92 237.36 472.27 237.14 439.67" fill="#bfed58" stroke-width="0"/>
        <ellipse cx="437.1" cy="535.82" rx="18.65" ry="7.18" transform="translate(-208.93 782.38) rotate(-71.68)" fill="#bfed58" stroke="#a8e20c" stroke-linecap="round" stroke-linejoin="round" stroke-width="1.5"/>
        <ellipse cx="446.71" cy="539.76" rx="25.69" ry="9.89" transform="translate(-204.88 797.28) rotate(-71.95)" fill="#d6ff66" stroke="#a8e20c" stroke-linecap="round" stroke-linejoin="round" stroke-width="1.5"/>
        <line x1="188.41" y1="451.92" x2="68.03" y2="398.2" fill="none" stroke="url(#New_Gradient_Swatch_copy_2)" stroke-linecap="round" stroke-linejoin="round" stroke-width="1.5"/>
        <path d="m183.68,465.13l188.05,83.69.62.27c2.39,1.02,5.1.98,7.46-.1l37.14-16.98c.9-.41,1.93-.42,2.84-.03l9.16,3.94,6.21-12.53-11.01-4.96c-2.99-1.35-6.42-1.31-9.38.1l-37.35,17.76-189.02-84.36" fill="#fff9f1" stroke="#a8e20c" stroke-linecap="round" stroke-linejoin="round" stroke-width="1.5"/>
        <line x1="50.5" y1="405.87" x2="183.68" y2="465.13" fill="none" stroke="url(#New_Gradient_Swatch_copy_2-2)" stroke-linecap="round" stroke-linejoin="round" stroke-width="1.5"/>
        <ellipse cx="187.17" cy="458.87" rx="18.65" ry="7.18" transform="translate(-307.27 492.35) rotate(-71.68)" fill="#d6ff66" stroke="#a8e20c" stroke-linecap="round" stroke-linejoin="round" stroke-width="1.5"/>
        <ellipse cx="199.61" cy="465.51" rx="31.63" ry="12.18" transform="translate(-305.05 508.71) rotate(-71.68)" fill="#cafc72" stroke="#a8e20c" stroke-linecap="round" stroke-linejoin="round" stroke-width="1.5"/>
        <path d="m215.19,476.05c-3.29,7.43-7.84,12.22-11.03,11.16-3.76-1.25-4.19-10.18-.96-19.96,3.24-9.78,8.91-16.69,12.68-15.44,2.94.97,3.88,6.39,2.61,13.47" fill="#d6ff66" stroke="#a8e20c" stroke-linecap="round" stroke-linejoin="round" stroke-width="1.5"/>
        <path d="m216.84,471.77c-.19.56-.38,1.11-.58,1.65" fill="#fff9f1" stroke="#a8e20c" stroke-linecap="round" stroke-linejoin="round" stroke-width="1.5"/>
        <ellipse cx="621.65" cy="338.75" rx="14.27" ry="5.49" transform="translate(104.7 822.44) rotate(-71.68)" fill="#bfed58" stroke="#a8e20c" stroke-linecap="round" stroke-linejoin="round" stroke-width="1.15"/>
        <ellipse cx="629" cy="341.76" rx="19.66" ry="7.57" transform="translate(109.2 833.95) rotate(-71.95)" fill="#d6ff66" stroke="#a8e20c" stroke-linecap="round" stroke-linejoin="round" stroke-width="1.15"/>
        <line x1="471.24" y1="249.48" x2="354.18" y2="199.51" fill="none" stroke="url(#New_Gradient_Swatch_copy_2-3)" stroke-linecap="round" stroke-linejoin="round" stroke-width="1.5"/>
        <path d="m486.43,244.37l110.23,47.2h0c2.11.95,3.73,2.74,4.46,4.94l9.4,28.48c.38,1.16,1.24,2.11,2.36,2.6l6.31,2.79s-2.02,3.62-3.8,10l-7.99-3.38c-2.64-1.12-4.65-3.33-5.51-6.07l-9.29-29.66-106.16-45.32" fill="none" stroke="#a8e20c" stroke-linecap="round" stroke-linejoin="round" stroke-width="1.5"/>
        <line x1="349.37" y1="185.68" x2="486.43" y2="244.37" fill="none" stroke="url(#New_Gradient_Swatch_copy_2-4)" stroke-linecap="round" stroke-linejoin="round" stroke-width="1.5"/>
        <polyline points="237.18 439.34 290.87 393.03 291.29 423.56 237.14 473.69 237.18 439.34 177.21 413.56 177.76 447.13" fill="none" stroke="#a8e20c" stroke-linecap="round" stroke-linejoin="round" stroke-width="1.5"/>
        <line x1="177.21" y1="413.56" x2="184.29" y2="408.03" fill="none" stroke="#a8e20c" stroke-linecap="round" stroke-linejoin="round" stroke-width="1.5"/>
        <path d="m372.1,440.41c0-1.32.51-2.56,1.44-3.49h0c.93-.94,2.17-1.45,3.5-1.45,2.72,0,4.93,2.21,4.93,4.93,0,2.72-2.21,4.93-4.93,4.93-2.73,0-4.94-2.21-4.94-4.93Zm6.89,56.01v1.23m-3.9.47v-1.7m6.88,41.48c0,2.72-2.21,4.93-4.93,4.93-2.73,0-4.94-2.21-4.94-4.93,0-1.36.55-2.59,1.45-3.48.9-.9,2.13-1.45,3.5-1.45,2.72,0,4.93,2.21,4.93,4.93Zm-2.99-11.75v6.02m-3.9,0v-6.02m13.42-5.17c.09,0,.15.05.18.07s.07.09.07.18v3.54c0,.09-.05.15-.07.18s-.09.07-.18.07h-23.04c-.09,0-.15-.05-.18-.07s-.07-.09-.07-.18v-3.54c0-.09.05-.15.07-.18s.09-.07.18-.07h23.04Zm-9.52-8.29v7.17m-3.9,0v-6.7m11.86-5.33c.36-.04.72.06,1.01.28.29.23.47.55.52.92.09.75-.45,1.44-1.2,1.53l-20.41,2.47c-.36.04-.72-.06-1.01-.28-.29-.23-.47-.55-.52-.92-.09-.75.45-1.44,1.2-1.53l20.41-2.47Zm-7.96-5.17v5m-3.9.47v-5m11.86-5.32c.36-.04.72.06,1.01.28.29.23.47.55.52.92.04.36-.06.72-.28,1.01-.23.29-.55.47-.92.52l-20.41,2.47c-.36.04-.72-.06-1.01-.28-.29-.23-.47-.55-.52-.92-.04-.36.06-.72.28-1.01.23-.29.55-.47.92-.52l20.41-2.47Zm-3.2-5.74v2.98c0,.14-.11.25-.25.25h-13.17c-.14,0-.25-.11-.25-.25v-1.32m16.88-5.93c.36-.04.72.06,1.01.28.29.23.47.55.52.92.09.75-.45,1.44-1.2,1.53l-20.41,2.47c-.36.04-.72-.06-1.01-.28-.29-.23-.47-.55-.52-.92-.04-.36.06-.72.28-1.01.04-.04.07-.09.11-.13.22-.22.5-.35.8-.39l20.41-2.47Zm-3.2-5.74v5m-13.67,1.65v-5m16.88-5.93c.36-.04.72.06,1.01.28.29.23.47.55.52.92.04.36-.06.72-.28,1.01-.23.29-.55.47-.92.52l-20.41,2.47c-.36.04-.72-.06-1.01-.28-.29-.23-.47-.55-.52-.92-.04-.36.06-.72.28-1.01.23-.29.55-.47.92-.52l20.41-2.47Zm-3.2-5.74v5m-13.67,1.65v-5m16.88-5.93c.75-.09,1.44.45,1.53,1.2.09.75-.45,1.44-1.2,1.53l-20.41,2.47c-.75.09-1.44-.45-1.53-1.2-.04-.36.06-.72.28-1.01.03-.04.07-.09.11-.13.22-.22.5-.35.8-.39l20.41-2.47Zm-3.2-5.6v4.86m-13.67,1.65v-6.51m18.37-9.79c.12.02.21.13.21.26v8.17c0,.14-.11.25-.25.25h-4.09s0,0,0,0h-14.79s0,0,0,0h-3.83c-.14,0-.25-.11-.25-.25v-8.17c0-.07.03-.14.08-.18.04-.04.08-.06.13-.07,7.57-1.39,15.24-1.39,22.8,0Zm-13.35-2.12v-4.89c.61.21,1.27.33,1.95.33.68,0,1.33-.12,1.95-.33v4.89" fill="#d6ff66" stroke="#a8e20c" stroke-linecap="round" stroke-linejoin="round" stroke-width="1.55"/>
        <path d="m590.37,232.78c0-.91.35-1.76.99-2.4h0c.64-.64,1.49-1,2.4-1,1.87,0,3.39,1.52,3.39,3.39,0,1.87-1.52,3.39-3.39,3.39-1.87,0-3.4-1.52-3.4-3.39Zm4.73,38.48v.84m-2.68.32v-1.17m4.73,28.5c0,1.87-1.52,3.39-3.39,3.39-1.87,0-3.4-1.52-3.4-3.39,0-.93.38-1.78.99-2.39.62-.62,1.47-1,2.4-1,1.87,0,3.39,1.52,3.39,3.39Zm-2.05-8.07v4.14m-2.68,0v-4.14m9.22-3.55c.06,0,.1.03.12.05s.05.06.05.12v2.43c0,.06-.03.1-.05.12s-.06.05-.12.05h-15.84c-.06,0-.1-.03-.12-.05s-.05-.06-.05-.12v-2.43c0-.06.03-.1.05-.12s.06-.05.12-.05h15.84Zm-6.54-5.7v4.93m-2.68,0v-4.61m8.15-3.66c.25-.03.5.04.7.19.2.16.32.38.35.63.06.52-.31.99-.82,1.05l-14.03,1.7c-.25.03-.5-.04-.7-.19-.2-.16-.32-.38-.35-.63-.06-.52.31-.99.82-1.05l14.03-1.7Zm-5.47-3.55v3.44m-2.68.32v-3.44m8.15-3.66c.25-.03.5.04.7.19.2.16.32.38.35.63.03.25-.04.5-.19.7-.16.2-.38.32-.63.35l-14.03,1.7c-.25.03-.5-.04-.7-.19-.2-.16-.32-.38-.35-.63-.03-.25.04-.5.19-.7.16-.2.38-.32.63-.35l14.03-1.7Zm-2.2-3.95v2.05c0,.1-.08.18-.17.17h-9.05c-.1,0-.18-.08-.18-.17v-.91m11.6-4.08c.25-.03.5.04.7.19.2.16.32.38.35.63.06.52-.31.99-.82,1.05l-14.03,1.7c-.25.03-.5-.04-.7-.19-.2-.16-.32-.38-.35-.63-.03-.25.04-.5.19-.7.02-.03.05-.06.08-.09.15-.15.34-.24.55-.27l14.03-1.7Zm-2.2-3.95v3.44m-9.4,1.14v-3.44m11.6-4.08c.25-.03.5.04.7.19.2.16.32.38.35.63.03.25-.04.5-.19.7-.16.2-.38.32-.63.35l-14.03,1.7c-.25.03-.5-.04-.7-.19-.2-.16-.32-.38-.35-.63-.03-.25.04-.5.19-.7.16-.2.38-.32.63-.35l14.03-1.7Zm-2.2-3.95v3.44m-9.4,1.14v-3.44m11.6-4.08c.52-.06.99.31,1.05.82.06.52-.31.99-.82,1.05l-14.03,1.7c-.52.06-.99-.31-1.05-.82-.03-.25.04-.5.19-.7.02-.03.05-.06.08-.09.15-.15.34-.24.55-.27l14.03-1.7Zm-2.2-3.85v3.34m-9.4,1.14v-4.47m12.62-6.73c.08.02.15.09.15.18v5.61c0,.1-.08.18-.18.18h-2.81s0,0,0,0h-10.16s0,0,0,0h-2.63c-.1,0-.18-.08-.18-.17v-5.61s.02-.09.05-.13c.02-.02.06-.04.09-.05,5.2-.96,10.47-.96,15.67,0Zm-9.17-1.46v-3.36c.42.14.87.22,1.34.22.47,0,.92-.08,1.34-.22v3.36" fill="#d6ff66" stroke="#a8e20c" stroke-linecap="round" stroke-linejoin="round" stroke-width="1.07"/>
        <path d="m471.24,249.81l-177.44,45.27c-1.53.39-2.79,1.45-3.44,2.88l-37.32,82.16" fill="none" stroke="#a8e20c" stroke-linecap="round" stroke-linejoin="round" stroke-width="1.5"/>
        <line x1="475.07" y1="248.72" x2="469.51" y2="250.24" fill="none" stroke="#a8e20c" stroke-linecap="round" stroke-linejoin="round" stroke-width="1.5"/>
        <path d="m486.43,255.96l-183.71,46.67c-1.45.37-2.66,1.36-3.3,2.71l-40.87,86.06" fill="none" stroke="#a8e20c" stroke-linecap="round" stroke-linejoin="round" stroke-width="1.5"/>
        <line x1="219.97" y1="466.01" x2="214.92" y2="463.53" fill="none" stroke="#a8e20c" stroke-linecap="round" stroke-linejoin="round" stroke-width="1.5"/>
        <line x1="279.96" y1="388.81" x2="287.48" y2="391.81" fill="none" stroke="#a8e20c" stroke-linecap="round" stroke-linejoin="round" stroke-width="1.5"/>
        <polyline points="249.16 361.97 262.7 392.7 304.17 359.68 290.56 333.76 256.76 356.63" fill="#bfed58" stroke-width="0"/>
        <line x1="268.71" y1="388.4" x2="268.71" y2="397.16" fill="none" stroke="#a8e20c" stroke-linecap="round" stroke-linejoin="round" stroke-width="1.5"/>
        <polyline points="290.48 333.65 247.77 316.08 206.26 345.75 247.03 363.38 266.42 349.93" fill="#cafc72" stroke-width="0"/>
        <polyline points="206.26 345.94 247.77 316.27 290.48 333.84" fill="none" stroke="#a8e20c" stroke-linecap="round" stroke-linejoin="round" stroke-width="1.5"/>
        <ellipse cx="265.59" cy="370.08" rx="5.05" ry="6.6" transform="translate(-122.84 132.13) rotate(-22.84)" fill="#d6ff66" stroke="#a8e20c" stroke-linecap="round" stroke-linejoin="round" stroke-width="1.5"/>
        <ellipse cx="277.58" cy="361.41" rx="5.05" ry="6.6" transform="translate(-118.53 136.11) rotate(-22.84)" fill="#d6ff66" stroke="#a8e20c" stroke-linecap="round" stroke-linejoin="round" stroke-width="1.5"/>
        <ellipse cx="289.57" cy="353.26" rx="5.05" ry="6.6" transform="translate(-114.43 140.12) rotate(-22.84)" fill="#d6ff66" stroke="#a8e20c" stroke-linecap="round" stroke-linejoin="round" stroke-width="1.5"/>
        <polyline points="256.68 356.71 290.48 333.84 304.09 359.76 234.42 415.24" fill="none" stroke="#a8e20c" stroke-linecap="round" stroke-linejoin="round" stroke-width="1.5"/>
        <polyline points="234.42 425.61 234.42 415.24 262.62 392.78 248.58 360.9 206.26 345.94 184.29 367.07 200.39 400.84 200.32 410.48" fill="#cef48b" stroke-width="0"/>
        <polyline points="234.42 425.61 234.42 415.24 262.62 392.78 248.58 360.9 206.26 345.94 184.29 367.07 200.39 400.84 200.32 410.48" fill="none" stroke="#a8e20c" stroke-linecap="round" stroke-linejoin="round" stroke-width="1.5"/>
        <g>
          <ellipse cx="237.18" cy="393.15" rx="7.49" ry="8.55" fill="#e1f9aa" stroke="#a8e20c" stroke-linecap="round" stroke-linejoin="round" stroke-width="1.5"/>
          <ellipse cx="222.9" cy="368.44" rx="5.01" ry="5.71" fill="#e1f9aa" stroke="#a8e20c" stroke-linecap="round" stroke-linejoin="round" stroke-width="1.5"/>
          <ellipse cx="200.39" cy="388.76" rx="11.87" ry="13.54" fill="#e1f9aa" stroke="#a8e20c" stroke-linecap="round" stroke-linejoin="round" stroke-width="1.5"/>
        </g>
        <g>
          <ellipse cx="234.24" cy="396.09" rx="7.49" ry="8.55" fill="#d6ff66" stroke="#a8e20c" stroke-linecap="round" stroke-linejoin="round" stroke-width="1.5"/>
          <ellipse cx="219.97" cy="371.37" rx="5.01" ry="5.71" fill="#d6ff66" stroke="#a8e20c" stroke-linecap="round" stroke-linejoin="round" stroke-width="1.5"/>
          <path d="m190.72,380.55l24.29-14.38c3.7-2.19,8.48-1.08,10.83,2.53l14.2,21.83" fill="none" stroke="#a8e20c" stroke-linecap="round" stroke-linejoin="round" stroke-width="1.5"/>
          <line x1="230.91" y1="388.4" x2="201.98" y2="404.22" fill="none" stroke="#a8e20c" stroke-linecap="round" stroke-linejoin="round" stroke-width="1.5"/>
          <ellipse cx="197.45" cy="391.7" rx="11.87" ry="13.54" fill="#d6ff66" stroke="#a8e20c" stroke-linecap="round" stroke-linejoin="round" stroke-width="1.5"/>
        </g>
      </g>
    </g>
  </g>
</svg>