<svg preserveAspectRatio="xMidYMin meet" version="1.1" id="animLogo" xmlns="http://www.w3.org/2000/svg" xmlns:xlink="http://www.w3.org/1999/xlink" x="0px" y="0px" width="1442.86px" height="316.57px" viewBox="0 0 1442.86 316.57" xml:space="preserve">
  <g>
    <g id="clouds2" opacity="1">
      <path opacity="0.5" fill="#F2EEE0" d="M230.75,223.24c4.38,0,8.43,1.42,11.76,3.76c2.61-16.19,17.15-28.38,34.31-27.26c16.72,1.09,30.37,16.07,30.37,32.82v1.58c0,7.92-6.42,14.35-14.35,14.35h-71.23c-7.42,0-12.47-7.62-9.48-14.41C214.72,228.22,220.03,223.24,230.75,223.24z"/>
      <path opacity="0.5" fill="#F2EEE0" d="M298.24,186.85c-4.38,0-8.43,1.42-11.76,3.76c-2.61-16.19-17.15-28.38-34.31-27.26c-16.72,1.09-30.37,16.07-30.37,32.82v1.58c0,7.92,6.42,14.35,14.35,14.35h71.23c7.42,0,12.47-7.62,9.48-14.41C314.28,191.83,308.96,186.85,298.24,186.85z"/>
      <path opacity="0.5" fill="#F2EEE0" d="M278.44,141.06c2.19,0,4.21,0.71,5.88,1.88c1.3-8.09,8.57-14.19,17.16-13.63c8.36,0.54,15.19,8.03,15.19,16.41v0.79c0,3.96-3.21,7.17-7.17,7.17h-35.62c-3.71,0-6.23-3.81-4.74-7.2C270.42,143.54,273.08,141.06,278.44,141.06z"/>
    </g>
    <g id="clouds1" opacity="1">
      <path opacity="0.5" fill="#F2EEE0" d="M1160.75,133.24c4.38,0,8.43,1.42,11.76,3.76c2.61-16.19,17.15-28.38,34.31-27.26c16.72,1.09,30.37,16.07,30.37,32.82v1.58c0,7.92-6.42,14.35-14.35,14.35h-71.23c-7.42,0-12.47-7.62-9.48-14.41C1144.72,138.22,1150.03,133.24,1160.75,133.24z"/>
      <path opacity="0.5" fill="#F2EEE0" d="M1228.24,96.85c-4.38,0-8.43,1.42-11.76,3.76c-2.61-16.19-17.15-28.38-34.31-27.26c-16.72,1.09-30.37,16.07-30.37,32.82v1.58c0,7.92,6.42,14.35,14.35,14.35h71.23c7.42,0,12.47-7.62,9.48-14.41C1244.28,101.83,1238.96,96.85,1228.24,96.85z"/>
      <path opacity="0.5" fill="#F2EEE0" d="M1208.44,51.06c2.19,0,4.21,0.71,5.88,1.88c1.3-8.09,8.57-14.19,17.16-13.63c8.36,0.54,15.19,8.03,15.19,16.41v0.79c0,3.96-3.21,7.17-7.17,7.17h-35.62c-3.71,0-6.23-3.81-4.74-7.2C1200.42,53.54,1203.08,51.06,1208.44,51.06z"/>
    </g>
  </g>
</svg>
