<?xml version="1.0" encoding="UTF-8"?>
<svg width="253px" height="178" xmlns="http://www.w3.org/2000/svg" viewBox="0 0 234.46 167.35">
  <g id="OBJECTS">
    <g id="SELECT_YOUR_CHARITY_02" data-name="SELECT YOUR CHARITY 02">
      <g>
        <g>
          <line x1="196.43" y1="165.69" x2="206.93" y2="165.69" fill="none" stroke="#93866c" stroke-linecap="round" stroke-linejoin="round" stroke-width="2.5"/>
          <path d="m223.66,165.69s-6.78-12.76,9.74-23.06c0,0,5.8,11.71-9.74,23.06h0Z" fill="#cac6b4" fill-rule="evenodd" opacity=".5" stroke-width="0"/>
          <path d="m216.37,148.24s6.41,1.05,7.21,17.26c0,0-5.86-1.23-7.21-17.26h0Z" fill="#e8e5d6" fill-rule="evenodd" stroke-width="0"/>
          <line x1="219.21" y1="166.1" x2="228.37" y2="166.1" fill="none" stroke="#93866c" stroke-linecap="round" stroke-miterlimit="10" stroke-width="2.5"/>
          <path d="m223.66,165.69s-.18-8.9-3.05-13.43" fill="none" fill-rule="evenodd" stroke="#93866c" stroke-linecap="round" stroke-miterlimit="10" stroke-width="2.5"/>
          <path d="m222.47,156.21s1.54-5.67,4.77-8.6" fill="none" fill-rule="evenodd" stroke="#93866c" stroke-linecap="round" stroke-miterlimit="10" stroke-width="2.5"/>
          <line x1="92.79" y1="161.46" x2="213.4" y2="161.46" fill="none" stroke="#93866c" stroke-linecap="round" stroke-linejoin="round" stroke-width="2.5"/>
          <g id="CELEBRATE_FROG" data-name="CELEBRATE FROG">
            <path d="m183.49,161.11s-43.97,2.39-57.42-.28c0,0-7.4,6.48-17.45,2.83-.96-.35-3.47-2.08-3.89-3.02-.49-1.1,1.65-4.9,4.36-5.43,1.98-.39,2.94-1.4,2.94-1.4,0,0-5.5-4.85-6.73-12.36-1.5-9.17.4-18.58,5.42-26.39.54-.84,1.13-1.7,1.77-2.57,0,0-11.1-11.22,1.03-29.23.41-.61.42-1.41.02-2.04-1.62-2.56-4.94-10.04,2.71-15.35,0,0,6.1-4.39,12.6,2.87,0,0,18.8-7.45,33.55-.98,0,0,5.28-8.4,13.5-4.62,7.17,3.3,5.86,11.35,5.02,14.51-.21.77.11,1.59.78,2.03,4.78,3.17,22.5,16.92,23.46,47.41,0,0,2.46,14.79-6.17,26.82-.37.51-.11,1.23.5,1.41,3.64,1.05,9.87,5.22,2.2,8.39-1.76.73-4.58,1.1-4.58,1.1-6.87.06-10.93-1.92-10.93-1.92" fill="#fff6ee" fill-rule="evenodd" stroke-width="0"/>
            <path d="m131.17,160.93s-7.97-9.96,1.67-22.09c0,0,11.56-12.92,35-4.69,0,0,17.5,6.73,7.6,26.78" fill="#f9f7ed" fill-rule="evenodd" stroke-width="0"/>
            <path d="m126.07,160.82c13.45,2.67,57.42.28,57.42.28" fill="none" fill-rule="evenodd" stroke="#93866c" stroke-linecap="round" stroke-linejoin="round" stroke-width="2.5"/>
            <path d="m112.03,153.8s-5.5-4.85-6.73-12.36c-1.5-9.17.4-18.58,5.42-26.39.54-.84,1.13-1.7,1.77-2.57,0,0-11.1-11.22,1.03-29.23.41-.61.42-1.41.02-2.04-1.62-2.56-4.94-10.04,2.71-15.35,0,0,6.1-4.39,12.6,2.87,0,0,18.8-7.45,33.55-.98,0,0,5.28-8.4,13.5-4.62,7.17,3.3,5.86,11.35,5.02,14.51-.21.77.11,1.59.78,2.03,4.78,3.17,28.92,24.27,23.05,59.46" fill="none" fill-rule="evenodd" stroke="#93866c" stroke-linecap="round" stroke-linejoin="round" stroke-width="2.5"/>
            <path d="m157.92,99.25c6.22-11.74,1.51-19.42,1.51-19.42-1.26-2.25-3.18-3.41-4.97-4-1.94-.64-4.04-.66-6.02-.16-6.48,1.63-13.83,1.14-16.29.91-1.3-.12-2.62.07-3.8.63-2.34,1.11-5.26,3.9-5.55,10.94-.18,4.3.66,8.61,2.63,12.44.76,1.47,1.72,2.97,2.95,4.26" fill="none" fill-rule="evenodd" stroke="#93866c" stroke-linecap="round" stroke-linejoin="round" stroke-width="2.5"/>
            <path d="m136.99,109s6.41,1.76,14.3-2.47" fill="none" fill-rule="evenodd" stroke="#93866c" stroke-linecap="round" stroke-linejoin="round" stroke-width="2.5"/>
            <path d="m158.6,121.67s-10.36-19.29-5.49-22.38c4.87-3.08,21.64,12.33,21.64,12.33" fill="none" fill-rule="evenodd" stroke="#93866c" stroke-linecap="round" stroke-linejoin="round" stroke-width="2.5"/>
            <path d="m116.66,118.29s12.8-17.42,17.78-14.51c4.97,2.91-3.38,20.53-3.38,20.53" fill="none" fill-rule="evenodd" stroke="#93866c" stroke-linecap="round" stroke-linejoin="round" stroke-width="2.5"/>
            <ellipse cx="119.87" cy="72.85" rx="3.79" ry="4.53" transform="translate(-11.05 22.48) rotate(-10.25)" fill="#93866c" opacity=".8" stroke-width="0"/>
            <circle cx="119.09" cy="72.04" r="1.37" fill="#fff" stroke-width="0"/>
            <ellipse cx="172.17" cy="71.02" rx="4.72" ry="3.95" transform="translate(66.45 224.35) rotate(-77.83)" fill="#93866c" opacity=".8" stroke-width="0"/>
            <circle cx="171.73" cy="69.93" r="1.43" fill="#fff" stroke-width="0"/>
            <path d="m127.98,103.83s7.68-16.78,32.83-13.26c0,0-.31,5.3-2.4,8.85,0,0-8.66-5.64-5.67,7.3,0,0-10.29,4.25-15.72,2,0,0-.52-6.73-3.73-5.31-3.21,1.42-4.01,2.25-4.01,2.25l-1.3-1.84Z" fill="#93866c" fill-rule="evenodd" opacity=".4" stroke-width="0"/>
            <path d="m171.26,135.99c3.9,2.7,9.34,8.71,6.1,20.26" fill="none" fill-rule="evenodd" stroke="#93866c" stroke-linecap="round" stroke-linejoin="round" stroke-width="2.5"/>
            <path d="m130.89,160.54s-7.7-10.67,1.95-21.7c0,0,3.37-3.89,10.43-6.02,0,0,12.24-3.4,23.07.77" fill="none" fill-rule="evenodd" stroke="#93866c" stroke-linecap="round" stroke-linejoin="round" stroke-width="2.5"/>
            <path d="m199.37,155.17c1.44-.09,2.89.25,4.06,1.09.99.72,1.61,1.64,1.84,2.62.84,3.52-3.33,7.83-13.23,6.35-3.15-.47-6.09-1.89-8.38-4.1" fill="none" stroke="#93866c" stroke-linecap="round" stroke-linejoin="round" stroke-width="2.5"/>
            <path d="m112.03,153.8c-1.44-.09-6.67,1.51-7.57,4.76-.84,3.52,3.33,7.83,13.23,6.35,3.15-.47,6.09-1.89,8.38-4.1" fill="none" stroke="#93866c" stroke-linecap="round" stroke-linejoin="round" stroke-width="2.5"/>
            <path d="m188.2,85.85s-10.68,13.73-2.17,32.79c4.1,9.18,11.74,15.22,18.81,17.29,0,0,4.51-31.4-16.64-50.08Z" fill="#93866c" fill-rule="evenodd" opacity=".2" stroke-width="0"/>
          </g>
        </g>
        <ellipse cx="48.87" cy="33.98" rx="48.87" ry="33.98" fill="#f0ede0" opacity=".7" stroke-width="0"/>
        <g>
          <path d="m32.78,29.33c-.24-.15-.42-.36-.55-.64s-.19-.55-.18-.83c0-.54.04-1.09.14-1.64.1-.55.23-1.09.4-1.62.11-.31.24-.64.37-.98.14-.34.27-.65.41-.95s.26-.53.37-.71c.27-.45.56-.81.86-1.11.3-.29.53-.48.67-.57.12-.07.33-.14.64-.21.3-.07.61-.07.94.01.23.06.44.14.64.22.2.09.33.16.39.22.07.11.13.19.19.27.06.07.09.16.09.27,0,.07-.02.16-.07.26s-.13.17-.21.22c-.08.04-.16.02-.24-.07-.11-.17-.23-.29-.35-.36-.12-.07-.25-.13-.39-.2-.1-.06-.23-.09-.39-.1-.17,0-.34.01-.51.06-.18.04-.33.12-.46.22-.09.08-.2.19-.34.35-.14.15-.28.32-.42.5s-.25.36-.34.54c-.24.41-.45.82-.64,1.24-.19.42-.35.87-.48,1.36-.04.12-.08.3-.14.54-.06.24-.11.47-.16.71-.05.24-.09.43-.1.58-.06.43-.08.8-.06,1.13s.13.55.33.67.53.1,1-.05c.2-.03.42-.11.65-.26s.46-.33.68-.56.41-.46.57-.71c.15-.28.28-.55.4-.83.12-.27.18-.49.19-.67s-.07-.26-.25-.25c-.32-.04-.58-.05-.79-.03-.2.01-.38-.02-.54-.09-.06-.1-.09-.19-.08-.29,0-.1.06-.19.16-.29.1-.04.26-.06.48-.08.23-.02.47-.01.73.02.26.03.49.09.7.19.15.07.25.17.31.31.06.14.09.29.09.47s-.02.35-.05.54c-.04.19-.14.42-.28.69-.14.27-.32.55-.52.85-.13.18-.31.38-.54.6-.23.22-.47.42-.71.59-.24.17-.44.29-.61.35-.35.16-.71.26-1.07.31s-.67-.01-.9-.18Z" fill="#93866c" stroke-width="0"/>
          <path d="m38.58,29.22c0,.06-.02.07-.05.03-.04-.04-.1-.1-.2-.18-.08-.08-.13-.16-.14-.24-.02-.08-.02-.2-.01-.37.04-.2.12-.5.24-.88.11-.39.25-.8.41-1.23.02-.17.07-.39.16-.67,0-.02.02-.04.07-.07.04-.03.08-.07.1-.13.03-.02.05-.06.04-.14s-.02-.12-.03-.15c0-.06.03-.2.1-.42.07-.22.17-.52.3-.9.14-.38.3-.86.5-1.42.1-.12.2-.32.31-.6.07-.09.1-.14.09-.17s-.07-.08-.2-.16c-.07-.12-.12-.24-.16-.37-.04-.12,0-.24.08-.34.03-.04.08-.1.15-.17.07-.07.16-.14.24-.2.2-.11.35-.18.45-.22.1-.04.23-.04.39,0,.28,0,.49.02.64.04.15.02.24.06.29.13.03.03.07.07.14.1.07.03.13.05.19.05.16.02.33.07.51.14.18.08.35.16.49.24.14.08.23.14.25.17.15.12.28.31.39.56.11.25.18.55.2.88,0,.2,0,.37-.02.5s-.05.27-.11.4c-.06.13-.16.29-.3.49-.26.44-.61.86-1.05,1.26-.44.41-.95.78-1.53,1.11-.02.04-.05.09-.09.17,0,.06.05.16.16.29.11.13.24.27.4.43.16.16.33.31.5.47.17.15.33.28.47.39.14.11.24.17.29.2.05.02.12.01.2-.01s.16-.03.23-.02c.07.01.1.09.1.24.02.12-.02.23-.12.32-.1.09-.16.15-.18.16-.05.09-.09.15-.12.18-.03.03-.07.04-.13,0-.06-.03-.15-.09-.28-.18-.31-.1-.62-.29-.9-.55-.29-.26-.58-.58-.88-.94-.18-.19-.33-.33-.43-.41-.1-.08-.19-.13-.26-.15-.07-.02-.16-.02-.26,0-.06,0-.13,0-.22-.02-.08-.01-.16-.05-.23-.12,0-.06-.05-.11-.14-.14-.08-.03-.12-.01-.12.05,0,.02-.04.11-.09.28-.05.17-.11.34-.17.52-.06.18-.11.3-.16.37.02.08,0,.21-.04.39-.04.18-.11.44-.21.77,0,.1-.03.17-.06.23-.03.06-.04.05-.04,0-.05-.04-.09-.05-.1-.05-.01,0-.03.02-.05.05Zm2.46-3.45c.28-.17.56-.36.84-.59.28-.23.53-.45.76-.68.23-.23.4-.43.51-.6.07-.05.14-.14.2-.26s.12-.2.16-.22c.07-.1.12-.17.15-.22.03-.05.02-.11-.02-.19,0-.07,0-.14.01-.21,0-.07.03-.13.08-.2.09-.26.09-.45.02-.55-.07-.11-.22-.21-.44-.3-.04-.04-.12-.09-.23-.13s-.22-.08-.35-.12c-.12-.04-.22-.07-.29-.1-.15-.03-.3-.05-.45-.07s-.26-.03-.34-.02c-.1.03-.16.06-.2.1-.04.04-.11.17-.22.4-.02.11-.05.23-.1.34-.05.11-.1.18-.13.2,0,.04-.05.16-.13.38-.08.22-.17.48-.28.79s-.22.61-.33.91c-.11.3-.2.56-.27.77-.07.21-.1.33-.1.37,0,.02.04.06.13.12s.14.07.16,0c.14.05.23.09.26.1l.2.12.39-.13Z" fill="#93866c" stroke-width="0"/>
          <path d="m46.47,29.24c-.27-.02-.51-.1-.71-.25s-.42-.3-.65-.46c-.15-.15-.27-.31-.35-.48-.09-.17-.16-.4-.21-.67-.04-.17-.04-.38,0-.63s.09-.51.17-.77c.08-.26.15-.46.22-.62.1-.25.24-.51.4-.79.16-.28.32-.55.48-.81.16-.26.29-.46.39-.62.06-.06.09-.1.08-.11,0-.04.05-.15.14-.33.09-.18.17-.34.24-.48.13-.14.21-.25.22-.34.02-.09,0-.16-.04-.21-.02-.03.01-.1.09-.18.08-.09.2-.19.35-.3s.34-.23.54-.34c.21-.17.41-.26.61-.27.2-.01.31.03.35.12,0,.03.05.03.15.02.1-.01.22-.03.35-.07.13-.03.25-.05.36-.07.04-.05.15-.09.31-.12.16-.03.35-.06.57-.08.11,0,.23.01.33,0,.11,0,.24-.02.39-.03.06-.02.13,0,.22.03s.16.13.23.29c.06.16.04.28-.06.35-.1.08-.33.14-.69.18-.26.04-.49.06-.68.08-.19.02-.39.05-.6.08s-.47.08-.77.15c-.22.04-.4.09-.54.15-.14.06-.26.14-.37.25-.11.11-.22.26-.35.47-.06.04-.14.16-.24.34-.1.18-.19.37-.29.55-.25.34-.46.64-.64.88s-.25.39-.22.44c.19.05.31.08.34.08.09-.04.19-.07.32-.09s.23-.04.31-.05c.54-.14.97-.25,1.28-.33.31-.08.54-.14.71-.18.16-.04.29-.06.37-.07.12-.1.24-.11.36-.05.12.06.21.16.28.29.04.1.05.18,0,.25-.04.07-.15.14-.33.21-.18.07-.44.15-.79.25-.35.1-.81.22-1.38.38-.48.14-.89.22-1.23.25-.34.03-.5-.05-.49-.22-.06-.04-.13,0-.2.12s-.15.28-.22.48c-.07.2-.13.42-.18.64-.05.23-.08.44-.09.64-.01.2,0,.34.03.44.07.2.16.36.28.48s.32.22.62.31c.17,0,.34.02.51.04s.35-.02.56-.11c.51-.09.92-.18,1.22-.28.3-.1.47-.16.51-.2.07-.03.12-.05.14-.06.02,0,.05,0,.1,0-.03.04-.01.05.03,0s.12-.1.2-.19c.1-.09.22-.17.38-.25.16-.08.3-.14.43-.18.13-.04.19-.04.2,0,.05.09.04.21-.03.36-.07.15-.2.32-.38.5-.18.18-.42.35-.71.52-.46.25-.96.42-1.51.52-.54.1-1.03.16-1.46.16Z" fill="#93866c" stroke-width="0"/>
          <path d="m56.6,29.96s-.07-.02-.12-.05-.09-.07-.13-.12c-.06-.06-.1-.14-.12-.22-.02-.09-.03-.17-.03-.25v-.36c0-.14,0-.3-.03-.47,0-.25,0-.51-.01-.79,0-.27,0-.45.04-.52-.03-.12-.03-.26,0-.4.02-.14.03-.25.03-.33l-.05-.35h-.72c-.17.03-.41.03-.74.02-.33-.01-.72-.03-1.17-.06l-.17.27s-.08.13-.18.28-.17.31-.24.5c-.04.11-.1.24-.16.37-.06.14-.12.27-.19.41-.07.14-.14.26-.22.37-.14.27-.25.46-.32.56s-.13.15-.18.15c-.08,0-.15,0-.2-.01s-.13-.04-.22-.11c-.17-.08-.25-.2-.23-.37.02-.17.12-.38.29-.63.04-.06.1-.15.17-.28,0-.02.03-.1.1-.24.07-.14.14-.3.24-.48s.18-.33.27-.48c.09-.14.15-.22.2-.24.16-.17.14-.34-.04-.5-.06-.03-.09-.06-.08-.11,0-.05.04-.09.1-.14.06-.04.12-.07.2-.07.09-.04.15-.07.19-.09.04-.02.06-.04.06-.08,0-.02.03-.09.08-.22.06-.13.13-.28.22-.45.09-.17.18-.33.27-.48.09-.15.17-.27.23-.35.1-.24.17-.41.22-.49.05-.08.1-.16.13-.24.04-.04.1-.14.18-.29.08-.15.16-.29.25-.43.12-.12.23-.25.33-.4s.19-.26.27-.36c.04-.1.11-.2.19-.31s.17-.23.26-.35c.17-.18.3-.3.4-.35.1-.05.24-.03.41.05.2.09.35.23.45.42.1.19.16.47.18.84.03.2.05.43.08.67s.02.43-.02.56c0,.16,0,.35,0,.58,0,.23,0,.44.03.64-.04.17-.05.35-.04.56,0,.21.01.35.01.43s0,.2-.01.37c0,.17-.01.32-.01.44,0,.33-.02.61-.02.83,0,.22,0,.43,0,.62,0,.2,0,.43,0,.69.02.69,0,1.16-.05,1.42s-.18.4-.38.43Zm-2.66-4.59c.41-.04.74-.06.98-.05.29-.03.53-.03.72-.02.19.01.31.01.34,0,.1,0,.16-.03.2-.12.03-.09.05-.2.05-.34-.02-.19-.03-.45-.04-.78,0-.33-.02-.66-.02-1,0-.34,0-.61,0-.83,0-.17-.02-.38-.05-.66-.02-.03-.07,0-.17.11-.1.1-.2.22-.32.37s-.23.29-.33.43-.17.24-.22.31c-.04.04-.1.16-.2.34-.1.18-.21.38-.33.59-.32.51-.53.91-.62,1.18-.09.27-.09.43-.01.47Z" fill="#93866c" stroke-width="0"/>
          <path d="m59.82,29.24c-.09.02-.18.02-.29,0-.1-.02-.19-.09-.26-.2-.07-.11-.09-.3-.07-.56.03-.26.12-.62.29-1.07.03-.08.08-.24.16-.48s.18-.51.28-.81c.11-.3.21-.57.31-.83.1-.25.18-.43.24-.52.03-.08.05-.14.06-.2,0-.05,0-.1,0-.13,0-.04.02-.1.06-.18s.08-.15.11-.23c.04-.09.08-.17.11-.24s.05-.14.05-.19c.09-.31.17-.56.24-.76.07-.2.15-.37.24-.5.08-.2.15-.38.22-.52.07-.15.11-.25.11-.3,0-.02-.1-.03-.29-.03s-.42,0-.69.02c-.27.01-.52.03-.76.05-.24.02-.4.04-.5.07-.08.02-.15.03-.21.05-.06.01-.1.02-.12,0-.04-.02-.08-.07-.12-.14-.05-.08-.07-.17-.08-.27,0-.1.04-.18.14-.23.16-.1.3-.15.43-.17.13-.02.27-.03.42-.03.15,0,.34-.02.56-.05.2,0,.38-.01.52-.03.15-.02.24-.03.28-.03.09,0,.19-.02.32-.05.13-.04.27-.05.44-.05.11,0,.23-.01.34-.03s.21-.03.3-.03h.81c.12,0,.29-.02.5-.05.21-.04.38-.07.51-.11.4-.09.71-.11.94-.07.22.04.37.17.45.39.03.19-.1.33-.41.4-.31.07-.85.13-1.63.18-.38.04-.63.06-.77.08s-.21.07-.21.14c0,.05-.02.1-.06.14s-.08.08-.11.12c-.04.02-.09.1-.16.25-.07.15-.15.32-.22.51-.07.19-.13.37-.18.53-.05.16-.08.26-.08.31-.06.11-.09.19-.09.22-.04.09-.08.19-.14.3-.06.11-.11.21-.15.3-.13.35-.24.63-.32.84-.08.21-.15.37-.2.49-.05.12-.09.22-.12.31-.04.11-.09.31-.17.58-.08.27-.16.51-.25.72-.04.06-.08.1-.11.12-.03.02-.05.07-.05.14,0,0-.02.08-.05.21s-.08.29-.14.46c-.06.18-.11.36-.17.54-.06.18-.11.33-.15.45s-.07.18-.09.18Z" fill="#93866c" stroke-width="0"/>
          <path d="m28.9,45.38c-.13-.05-.26-.11-.4-.17-.14-.06-.26-.15-.38-.27s-.22-.28-.31-.49c-.09-.25-.15-.5-.18-.75-.03-.24-.04-.53-.03-.85,0-.45.03-.85.1-1.19.07-.34.17-.68.31-1.03.02-.03.05-.1.1-.23.05-.13.11-.26.17-.41s.12-.26.15-.34c.07-.15.18-.35.32-.6.14-.25.3-.49.46-.73.25-.38.46-.67.63-.89.17-.22.32-.4.47-.55.15-.15.32-.29.5-.43.19-.13.43-.3.73-.5.19-.14.4-.21.64-.22s.45.04.65.15.35.27.45.48c.1.18.14.4.14.66s-.04.53-.12.81c-.08.28-.19.55-.33.81-.14.25-.3.46-.49.63-.11.1-.22.14-.31.12s-.2-.1-.32-.21c-.08-.15-.12-.24-.12-.26,0-.03.01-.04.05-.05.05-.06.12-.17.21-.31.09-.15.17-.31.26-.48.09-.17.15-.31.18-.41.07-.37.12-.63.14-.78.03-.15,0-.27-.08-.35-.04-.04-.08-.05-.15-.04-.07,0-.17.05-.32.13-.2.09-.46.28-.79.58s-.62.64-.89,1c-.35.46-.64.87-.88,1.23-.24.36-.42.72-.54,1.1-.02.03-.07.15-.14.34,0,.04,0,.12-.04.26-.04.14-.08.25-.12.35-.1.4-.15.82-.17,1.25s0,.81.07,1.15.16.56.29.69c.11.08.27.1.46.08.2-.03.42-.09.67-.18.25-.1.51-.2.77-.31.21-.09.4-.18.58-.29.17-.1.31-.2.39-.27.07-.05.16-.11.27-.16s.2-.08.28-.08c.12-.04.19-.06.21-.05s.03.05.03.12c0,.12-.07.26-.2.41-.14.15-.31.28-.52.41-.07.07-.16.14-.28.22-.11.08-.23.14-.35.18-.18.14-.41.27-.68.41-.27.13-.54.23-.82.3-.28.07-.53.08-.75.04Z" fill="#93866c" stroke-width="0"/>
          <path d="m34.09,45.85c-.11-.04-.21-.06-.28-.05-.14-.03-.24-.1-.31-.22-.07-.12-.08-.25-.06-.39.04-.04.06-.11.07-.22.01-.11.02-.21.02-.27.03-.07.04-.12.05-.16,0-.04.03-.12.07-.26.02-.15.05-.36.11-.62s.12-.55.19-.86c.07-.31.14-.61.22-.89.07-.28.14-.52.2-.71s.1-.3.12-.33c0-.06,0-.11-.01-.14.03-.17.07-.31.13-.42.04-.1.06-.2.08-.31.02-.11.03-.19.03-.22.04-.04.08-.15.14-.32.06-.17.12-.34.18-.52.04-.14.09-.29.15-.45s.13-.35.23-.59v-.07s.1-.21.23-.54c.13-.32.3-.74.52-1.26.03-.07.08-.15.12-.24.05-.09.07-.15.07-.18.04-.07.1-.1.18-.1s.16.02.24.07.15.12.19.22l.14.21-.45.96c-.12.25-.23.47-.31.67-.09.21-.13.33-.13.36-.1.28-.18.52-.24.71-.07.2-.12.37-.16.53-.09.28-.17.51-.24.68s-.11.28-.11.31c0-.02.1-.03.29-.05.19-.01.44-.03.73-.04.3-.01.6-.03.91-.04.31-.01.58-.03.83-.05s.4-.03.49-.05l.67-.08.41-1.36c.06-.25.14-.55.24-.9s.19-.65.27-.9c.12-.41.22-.66.3-.76.08-.1.17-.14.28-.14.03,0,.09,0,.18.04.08.03.14.09.18.16.11.09.17.19.16.31,0,.12-.07.29-.2.5-.12.24-.23.49-.31.77s-.16.51-.23.68c0,.1,0,.19-.03.25s-.06.12-.09.16c-.02.02-.05.08-.1.2-.05.11-.09.23-.13.34s-.06.18-.06.21c0,.06,0,.14-.03.23s-.06.16-.09.19c0,.05-.04.19-.09.4-.05.21-.12.46-.19.75-.08.28-.15.56-.22.83s-.15.49-.22.67c0,.06,0,.14-.05.23-.04.09-.06.17-.05.24-.04.11-.08.24-.12.4-.05.16-.07.26-.06.31-.04.2-.07.41-.12.62-.04.21-.08.39-.1.54-.03.15-.04.24-.04.27-.03.04-.08.04-.15.02-.07-.02-.16-.05-.25-.08-.17-.1-.27-.2-.3-.3-.04-.11,0-.26.08-.46.04-.07.09-.24.15-.52.06-.28.12-.55.18-.83.04-.13.09-.31.14-.54.05-.23.1-.45.16-.68.05-.23.1-.42.14-.59.04-.17.07-.26.09-.28v-.13s-.13-.03-.33-.03c-.2,0-.45,0-.75,0-.3,0-.61.03-.92.05-.32.03-.61.06-.86.11-.1,0-.21.01-.33.01s-.22,0-.29.01c-.1,0-.21,0-.34.01,0,.03-.04.12-.08.28s-.1.35-.16.57c-.06.22-.12.45-.19.69-.07.24-.12.45-.16.64-.04.19-.07.33-.08.41-.03.16-.07.36-.12.6s-.11.48-.16.73c-.06.25-.1.46-.14.65-.04.19-.07.31-.08.36Z" fill="#93866c" stroke-width="0"/>
          <path d="m41.96,44.91c-.32-.24-.53-.43-.62-.57-.09-.14-.14-.3-.16-.49-.02-.16-.01-.37,0-.64.02-.27.05-.54.08-.8.04-.26.07-.46.09-.59.04-.04.06-.14.05-.29,0-.04.02-.16.09-.35.07-.19.13-.43.2-.73.17-.52.34-.96.5-1.32.16-.35.32-.66.48-.91.16-.25.31-.49.47-.69.36-.37.65-.64.87-.83.22-.19.46-.34.73-.47.17-.1.34-.19.49-.25.15-.06.27-.07.37-.03.49.1.86.3,1.1.6.24.29.42.75.54,1.36.06.38.1.73.11,1.04.01.31-.01.62-.07.92-.06.3-.17.63-.33.99-.16.36-.39.78-.67,1.26-.31.6-.65,1.13-1.03,1.57-.38.45-.77.8-1.17,1.05-.4.26-.78.4-1.15.44-.37.04-.7-.06-.98-.28Zm.84-.38c.2-.03.39-.09.58-.18.18-.1.38-.24.58-.43.2-.19.43-.43.68-.71.23-.26.41-.48.56-.66.14-.18.27-.36.37-.54s.2-.41.29-.67c.09-.26.2-.6.32-1.02.07-.26.12-.48.16-.66.03-.17.06-.34.07-.49,0-.15.01-.33,0-.53,0-.2,0-.46,0-.77,0-.15-.04-.3-.09-.46-.05-.16-.11-.28-.18-.36-.09-.1-.21-.16-.37-.2s-.33-.02-.52.07c-.11.04-.24.14-.41.29-.17.15-.34.33-.52.53s-.36.41-.52.62c-.16.21-.29.39-.39.56-.1.16-.15.27-.15.33,0,.09-.03.15-.07.2-.11.12-.24.34-.37.66-.14.31-.26.67-.39,1.07-.12.4-.22.79-.31,1.18s-.13.73-.15,1.02c-.02.24-.03.4-.03.48s.02.16.05.2.09.14.17.27c.05.09.14.15.27.2.13.04.25.05.39.03Z" fill="#93866c" stroke-width="0"/>
          <path d="m48.59,45.37c-.07-.09-.21-.14-.43-.16s-.47-.01-.78.01c-.12.02-.24.01-.35-.01-.11-.03-.21-.07-.28-.13-.07-.06-.1-.13-.08-.21,0-.1.1-.19.26-.26.17-.07.44-.11.81-.12l.7-.04.13-.28c.03-.1.06-.23.11-.41.05-.17.1-.36.15-.56.04-.12.09-.3.16-.54s.15-.5.24-.77c.09-.27.17-.51.24-.73.07-.22.11-.37.12-.45.04-.08.08-.22.14-.43.06-.21.12-.43.18-.65.06-.22.1-.38.12-.46.2-.7.33-1.2.39-1.49.06-.3.07-.45.04-.45s-.12,0-.26.01c-.13,0-.28.02-.45.05-.16.02-.31.04-.43.07-.13.02-.2.04-.22.06-.04.06-.12.08-.22.05s-.17-.09-.21-.18c0-.08-.01-.14,0-.18,0-.04.02-.08.06-.1.06-.05.18-.11.35-.18.17-.07.37-.14.59-.2.22-.06.43-.11.64-.14.15-.02.3-.05.45-.11s.26-.12.34-.19c.08-.03.16-.06.23-.08s.15-.02.23-.01c.07.04.19.05.36.05.17,0,.35-.01.54-.03.49-.06.82-.08,1-.07.17.01.29.08.35.2.04.16.05.28.03.38-.02.1-.11.14-.26.13-.08.03-.22.05-.43.07-.21.02-.42.04-.65.05-.3.04-.53.07-.7.11-.17.04-.26.08-.28.11-.04.04-.06.07-.08.1-.02.04-.05.08-.09.12.02.04,0,.15-.04.33-.04.19-.1.38-.16.58-.04.11-.09.28-.16.5s-.14.46-.22.7c-.07.24-.14.46-.2.66-.06.2-.1.33-.13.39-.03.08-.05.16-.07.26-.02.09-.03.16-.03.2-.14.57-.27,1.05-.39,1.45-.12.4-.23.75-.33,1.07-.1.31-.19.63-.27.96.27-.03.52-.06.75-.09.31-.04.55-.07.72-.09s.31-.02.39-.02c.09,0,.15.02.18.05s.06.08.08.14c.18.23.21.38.08.47-.13.09-.43.14-.92.16-.46.03-.8.06-1.04.08-.24.02-.41.05-.5.07s-.14.07-.15.13c0,.04-.02.08-.05.1-.03.02-.07.03-.13.02-.06,0-.12-.03-.19-.05Z" fill="#93866c" stroke-width="0"/>
          <path d="m54.84,45.27c-.27.08-.58.05-.93-.08-.35-.14-.65-.31-.9-.53-.04-.06-.08-.15-.14-.27-.06-.12-.11-.24-.16-.38-.05-.13-.09-.25-.12-.35-.03-.1-.04-.16-.03-.19.03-.04.05-.1.06-.16,0-.06,0-.11,0-.14-.04-.13-.02-.37.07-.72.09-.35.23-.78.42-1.28.19-.51.42-1.05.68-1.62.17-.36.38-.74.66-1.13s.56-.78.87-1.14c.31-.36.61-.67.89-.94.28-.26.52-.43.71-.51.15-.06.26-.09.33-.08.07,0,.18.02.31.03.25.04.48.12.69.27.21.14.37.31.5.49.08.16.14.35.2.58.05.23.08.46.09.69,0,.23-.02.42-.08.58-.06.15-.11.25-.14.29-.03.05-.11.08-.23.1-.03,0-.09,0-.16-.02s-.16-.06-.26-.12c-.04-.04-.11-.1-.22-.17.03-.19.06-.34.09-.45.12-.35.15-.67.08-.98-.07-.3-.2-.48-.4-.54-.19,0-.45.1-.77.32s-.64.53-.94.91c-.39.48-.75.97-1.07,1.47s-.59,1.02-.81,1.57c-.2.57-.36,1.09-.47,1.55-.11.47-.18.82-.21,1.05.02.11.03.21.03.28,0,.07-.01.11-.05.11.02.1.07.24.15.39s.17.28.26.37c.04.04.09.06.16.07.07.01.15.01.24,0,.1.02.26,0,.46-.03.2-.03.4-.08.58-.14s.31-.11.36-.15c.18-.06.31-.09.39-.09.08-.04.19-.1.33-.16.14-.07.27-.14.39-.22.24-.1.46-.18.67-.24.21-.05.34-.07.41-.05-.04.08-.08.17-.12.26-.04.06-.13.15-.25.26s-.24.21-.35.3c-.11.09-.18.14-.2.15-.04,0-.12.04-.22.08-.1.04-.21.1-.32.17-.25.15-.5.27-.77.37-.27.1-.52.16-.75.16Z" fill="#93866c" stroke-width="0"/>
          <path d="m60.85,45c-.17-.04-.36-.11-.54-.19-.19-.08-.35-.17-.48-.28-.13-.1-.21-.19-.24-.27,0-.04-.02-.08-.05-.11-.03-.03-.07-.05-.12-.05v-.1s0-.07,0-.11c0-.04-.01-.07-.06-.1-.06-.13-.08-.34-.07-.62.02-.28.06-.58.13-.9s.15-.61.24-.87c0-.08.01-.16.05-.24.03-.08.05-.14.05-.18.03-.08.07-.2.14-.36.07-.16.15-.34.25-.54.1-.2.19-.38.29-.56s.18-.32.26-.41c0-.04.03-.1.09-.17.06-.07.11-.17.14-.29.07-.07.16-.19.27-.35.11-.17.21-.32.29-.46.18-.15.3-.28.34-.4.04-.12.06-.21.04-.28,0-.13.03-.23.06-.3.03-.07.1-.13.21-.18.11-.05.28-.1.5-.15.28-.1.57-.18.86-.22.29-.04.67-.07,1.12-.08.14-.03.29-.06.45-.07.02-.02.07-.01.16.01s.19.06.31.11c.11.05.21.09.29.14.08.04.12.08.11.1,0,.05-.06.1-.18.16-.12.05-.26.1-.44.14s-.36.08-.55.1c-.39.04-.72.1-.99.16-.27.06-.49.15-.68.26-.19.11-.36.26-.52.45-.16.18-.33.42-.52.72-.24.37-.39.63-.46.8s-.09.27-.05.31c.04.04.11.06.2.06.11,0,.2-.01.29-.03s.16-.03.22-.03c.45-.11.8-.19,1.05-.22.28-.05.47-.09.57-.12.1-.03.2-.05.29-.06.3-.03.48,0,.56.09.07.08.07.18-.03.29-.09.11-.25.21-.47.3-.09.04-.2.07-.33.12s-.25.08-.37.11-.19.05-.22.05c-.13.03-.25.04-.37.04-.03,0-.15.02-.38.05-.23.03-.44.06-.64.08-.31.08-.54.14-.7.19-.16.05-.28.11-.36.19-.08.08-.15.21-.22.38-.08.19-.16.44-.23.74-.07.3-.13.6-.18.91s-.07.57-.07.81.03.38.09.44c.09.11.26.18.53.21.27.03.56,0,.87-.05.31-.06.58-.16.79-.29.07-.05.15-.11.25-.16s.2-.1.29-.14c.11-.07.19-.1.24-.1.05,0,.16.07.32.19.15.21.16.37.04.48-.12.11-.43.27-.92.48-.45.17-.81.28-1.08.33-.27.05-.53.07-.78.05Z" fill="#93866c" stroke-width="0"/>
          <path d="m66.38,44.51c-.17.06-.3.09-.41.08-.11,0-.23-.05-.36-.15-.17-.16-.22-.32-.16-.48.06-.16.2-.32.43-.48.16-.1.27-.15.35-.16.07,0,.19.02.35.09.26.17.38.35.35.55s-.21.38-.53.54Zm.71-2.1c-.24.04-.41-.07-.48-.35-.08-.28-.06-.66.07-1.15.05-.1.1-.21.13-.31s.05-.18.05-.24c.03-.11.08-.25.14-.4.06-.15.12-.3.18-.43.06-.14.1-.22.13-.27.03,0,.07-.03.11-.09.04-.06.06-.12.06-.18,0-.07.02-.15.05-.24.03-.09.06-.15.1-.18,0-.04.02-.09.05-.14.04-.05.05-.1.05-.13s.01-.07.03-.09c.02-.03.03-.06.03-.09.08-.14.18-.35.31-.62.13-.28.25-.57.38-.87.13-.31.23-.58.32-.81.09-.24.13-.38.13-.43.02-.07.04-.12.08-.16s.09-.04.16-.03c.04-.03.07-.04.1-.05.04,0,.07,0,.11,0,.06.07.12.14.18.21.07.06.11.13.12.21,0,.08.01.17.01.28,0,.17-.07.35-.18.56-.11.21-.24.44-.38.7-.09.17-.17.32-.26.47s-.12.24-.12.27-.02.09-.05.16c-.04.07-.07.16-.12.26-.05.09-.11.19-.17.31-.06.12-.12.23-.16.33s-.07.16-.07.19c0,.04-.02.07-.03.11-.01.03-.04.07-.07.1-.04,0-.06.05-.07.14,0,.03-.02.12-.06.24-.04.13-.1.28-.19.45-.17.46-.28.83-.35,1.11-.07.28-.11.51-.13.7-.02.21-.03.33-.05.37-.01.04-.05.07-.12.1Z" fill="#93866c" stroke-width="0"/>
        </g>
        <circle cx="83.45" cy="68.2" r="4.55" fill="#f0ede0" opacity=".7" stroke-width="0"/>
        <circle cx="92.1" cy="75.44" r="1.94" fill="#f0ede0" opacity=".7" stroke-width="0"/>
      </g>
    </g>
  </g>
</svg>