<?xml version="1.0" encoding="UTF-8"?>
<svg width="330" height="73" xmlns="http://www.w3.org/2000/svg" viewBox="0 0 346.9 75.31">
  <g id="OBJECTS">
    <g id="SELECT_YOUR_CHARITY_02" data-name="SELECT YOUR CHARITY 02">
      <g id="animal">
        <line x1="24.67" y1="73.68" x2="49.53" y2="73.68" fill="none" stroke="#93866c" stroke-linecap="round" stroke-linejoin="round" stroke-width="3.25"/>
        <path d="m208.15,73.19s-14.49-6.27-7.45-26.3c0,0,12.96,6.02,7.45,26.3h0Z" fill="#cac6b4" fill-rule="evenodd" opacity=".5" stroke-width="0"/>
        <path d="m209.68,73.33s-2.79-12.85,14.24-17.9c0,0,2.21,11.78-14.24,17.9h0Z" fill="#e8e5d6" fill-rule="evenodd" stroke-width="0"/>
        <path d="m206.08,74.02s-8.43.17-17.95-13.51c0,0,7.79.09,17.95,13.51h0Z" fill="#e8e5d6" fill-rule="evenodd" stroke-width="0"/>
        <line x1="175.61" y1="73.3" x2="170.09" y2="73.3" fill="none" stroke="#93866c" stroke-linecap="round" stroke-linejoin="round" stroke-width="1.95"/>
        <line x1="165.08" y1="73.3" x2="149.85" y2="73.3" fill="none" stroke="#93866c" stroke-linecap="round" stroke-linejoin="round" stroke-width="1.95"/>
        <path d="m202.57,9.5c-.93-2.35-1.95-4.72-3.09-7.09" fill="none" fill-rule="evenodd" stroke="#93866c" stroke-linecap="round" stroke-linejoin="round" stroke-width="1.95"/>
        <path d="m209.09,72.59s2.25-10.35,1.47-25.59c-.42-8.15-1.7-17.69-4.66-27.8" fill="none" fill-rule="evenodd" stroke="#93866c" stroke-linecap="round" stroke-linejoin="round" stroke-width="1.95"/>
        <path d="m220.92,18.25s-7.94,6.56-10.3,30.29" fill="none" fill-rule="evenodd" stroke="#93866c" stroke-linecap="round" stroke-linejoin="round" stroke-width="1.95"/>
        <path d="m208.15,73.19s-14.49-6.27-7.45-26.3c0,0,12.96,6.02,7.45,26.3h0Z" fill="#cac6b4" fill-rule="evenodd" opacity=".5" stroke-width="0"/>
        <path d="m209.68,73.33s-2.79-12.85,14.24-17.9c0,0,2.21,11.78-14.24,17.9h0Z" fill="#e8e5d6" fill-rule="evenodd" stroke-width="0"/>
        <path d="m206.08,74.02s-8.43.17-17.95-13.51c0,0,7.79.09,17.95,13.51h0Z" fill="#e8e5d6" fill-rule="evenodd" stroke-width="0"/>
        <line x1="175.61" y1="73.3" x2="170.09" y2="73.3" fill="none" stroke="#93866c" stroke-linecap="round" stroke-linejoin="round" stroke-width="1.95"/>
        <line x1="165.08" y1="73.3" x2="149.85" y2="73.3" fill="none" stroke="#93866c" stroke-linecap="round" stroke-linejoin="round" stroke-width="1.95"/>
        <path d="m202.57,9.5c-.93-2.35-1.95-4.72-3.09-7.09" fill="none" fill-rule="evenodd" stroke="#93866c" stroke-linecap="round" stroke-linejoin="round" stroke-width="3.25"/>
        <path d="m209.09,72.59s2.25-10.35,1.47-25.59c-.42-8.15-1.7-17.69-4.66-27.8" fill="none" fill-rule="evenodd" stroke="#93866c" stroke-linecap="round" stroke-linejoin="round" stroke-width="3.25"/>
        <path d="m220.92,18.25s-7.94,6.56-10.3,30.29" fill="none" fill-rule="evenodd" stroke="#93866c" stroke-linecap="round" stroke-linejoin="round" stroke-width="3.25"/>
        <g>
          <line x1="3.37" y1="73.68" x2="15.16" y2="73.68" fill="none" stroke="#93866c" stroke-linecap="round" stroke-linejoin="round" stroke-width="3.25"/>
          <path d="m12.14,37.46c.53-1.35,1.12-2.7,1.77-4.06" fill="none" fill-rule="evenodd" stroke="#93866c" stroke-linecap="round" stroke-linejoin="round" stroke-width="3.25"/>
          <path d="m8.4,73.6s-1.29-5.93-.84-14.66c.24-4.67.98-10.14,2.67-15.93" fill="none" fill-rule="evenodd" stroke="#93866c" stroke-linecap="round" stroke-linejoin="round" stroke-width="3.25"/>
          <path d="m1.62,42.47s4.55,3.76,5.9,17.36" fill="none" fill-rule="evenodd" stroke="#93866c" stroke-linecap="round" stroke-linejoin="round" stroke-width="3.25"/>
          <path d="m7.62,57.94s4.01-6.46,9.82-9.5c1.6-.83,3.45.51,3.08,2.27-.84,3.98-3.57,10.65-12.28,16.44" fill="none" fill-rule="evenodd" stroke="#93866c" stroke-miterlimit="10" stroke-width="3.25"/>
        </g>
        <path d="m147.44,58.29c1.23,1.76,4.16,4.09,7.56,5.4,3.25,1.25,6.94,1.58,10.01-.42,2.3-1.5,4.26-4.3,5.43-8.98.65-2.6,1.06-5.79,1.15-9.66l-8.84-3.49-13.97-1.44-1.34,18.59Z" fill="#edeadd" stroke-width="0"/>
        <path d="m138.1,68.76c-.23-.9-1.29-3.46-2.8-6.45-1.12-2.21-1.8-3.29-1.96-3.5-2.02-2.75-1.44-6.62,1.31-8.64,2.74-2.02,6.61-1.45,8.63,1.3.98,1.33,2.19,3.59,3.04,5.25.89,1.75,3.04,6.13,3.76,9.01.84,3.31-1.16,6.67-4.47,7.51-3.31.84-6.67-1.16-7.51-4.47h0Z" fill="#e0ddce" stroke-width="0"/>
        <path d="m65.36,47.71c0,1.77-.33,3.69-.94,5.51-.58,1.71-1.41,3.33-2.49,4.65.82.52,1.66,1.02,2.51,1.47,4.05,2.17,8.39,3.59,12.71,4.33,2-2.12,3.09-5.23,3.17-8.44.07-2.99-.74-6.06-2.52-8.46-2.62,1.17-5.76,1.61-9.16,1.37-1.07-.08-2.17-.22-3.28-.43h0Z" fill="#e0ddce" stroke-width="0"/>
        <path d="m97.67,62.53c.92-.34,8.58-4.98,9.66-5.15,4.57,3.76,9.87,5.66,15.54,6.16,5.67.49,11.7-.43,17.73-2.34,6.73-2.13,10.12-6.47,11.58-12.02.25-.95,1.14-1.58,2.12-1.48,1.02.11,2.06.17,3.12.17,3.39,0,6.77-.38,9.92-1.12,5.9-1.38,11.02-4.05,14.04-7.93,1.82-2.34,2.88-5.12,2.88-8.34,0-4.75-2.31-9.68-5.99-13.82-5.14-5.78-12.94-10.01-20.85-10.01-5.36,0-10.32,1.44-14.36,3.88-3.14,1.9-5.73,4.41-7.51,7.32-1.23,2-3.06,3.57-5.24,4.43-6.79,2.7-30.22,8.27-30.22,8.27,0,0-14.57,6.4-21.69,17.66l-.21,15.94,17.35-.5,2.14-1.14Z" fill="#fff6ee" stroke-width="0"/>
        <path d="m168.44,30.9c1.07,1.23,2.62,1.94,4.25,1.94s3.18-.71,4.25-1.94c.57-.66.5-1.65-.15-2.22-.66-.57-1.65-.5-2.22.15-.47.54-1.16.86-1.88.86s-1.4-.31-1.88-.86c-.57-.66-1.57-.72-2.22-.15-.66.57-.73,1.57-.15,2.22h0Z" fill="#93866c" stroke-width="0"/>
        <path d="m49.57,42.74c-1.3,1.31-1.53,3.25-.57,4.83,3.42,5.6,8.12,10.14,13.95,13.49,6.71,3.85,14.67,5.88,22.42,5.71,3.47-.07,6.75-.58,9.77-1.5.83-.25,1.3-1.13,1.05-1.97-.25-.83-1.13-1.3-1.97-1.05-2.74.84-5.75,1.3-8.92,1.37-2.04.04-4.09-.08-6.13-.36,1.24-2.03,1.99-4.51,2.13-7.14.15-2.84-.42-5.6-1.62-7.95,1.29-.73,2.43-1.63,3.4-2.71l-3.2-1.28s-.01,0-.02.01c-2.69,2.32-6.66,3.33-11.45,2.85-4.51-.45-9.34-2.16-13.97-4.93-1.61-.96-3.57-.72-4.89.61Zm13.98,15.01c.72-1.08,1.34-2.31,1.83-3.63.5-1.35.84-2.76,1.04-4.15,3.42.55,7.04.53,10.38-.53,1.02,1.89,1.5,4.16,1.37,6.52-.14,2.6-1.01,4.99-2.4,6.7-4.23-.94-8.39-2.57-12.22-4.91Zm-10.71-12.92c3.43,2.06,6.99,3.58,10.49,4.49-.15,1.24-.46,2.5-.9,3.71-.4,1.09-.91,2.09-1.49,2.96-3.73-2.75-6.83-6.12-9.24-10.06-.28-.46-.05-.8.11-.97.14-.14.52-.44,1.03-.13Z" fill="#93866c" stroke-width="0"/>
        <path d="m128.31,69.03c-.99-3.37-2.14-8.03-3.74-11.04-1.6-3.01-.46-6.76,2.56-8.36,3.01-1.6,6.76-.46,8.36,2.56,2.25,4.24,3.46,9.19,4.69,13.37.96,3.28-.92,6.71-4.2,7.67-3.28.96-6.71-.92-7.67-4.2h0Z" fill="#edeadd" stroke-width="0"/>
        <path d="m103.53,69.4c-.36-1.29-1.06-3.59-1.95-6.17-.86-2.47-1.7-4.65-2.44-6.3-1.4-3.11,0-6.77,3.11-8.17,3.11-1.4,6.77,0,8.17,3.11.9,2,1.86,4.46,2.84,7.31.84,2.42,1.66,5.01,2.19,6.92.91,3.29-1.02,6.69-4.31,7.61-3.29.91-6.69-1.02-7.61-4.31h0Z" fill="#e0ddce" stroke-width="0"/>
        <path d="m178.83,16.2c-1.18-1.32-2.49-2.57-3.89-3.7-.68-.55-1.67-.44-2.21.24-.55.68-.44,1.67.24,2.21,1.27,1.02,2.45,2.15,3.51,3.34,3.61,4.06,5.59,8.59,5.59,12.77,0,2.72-.86,5.2-2.55,7.37-2.63,3.37-7.3,5.99-13.16,7.36-3.03.71-6.25,1.07-9.56,1.07-.99,0-1.98-.05-2.95-.16-1.76-.19-3.36.92-3.81,2.64-1.41,5.36-4.66,8.87-9.93,10.72-.68-2.27-1.46-4.63-2.47-6.86-.36-.79-1.29-1.15-2.08-.79-.79.36-1.15,1.29-.79,2.08,1.65,3.67,2.65,7.67,3.73,11.37.35,1.18.21,2.43-.38,3.5-.59,1.08-1.57,1.86-2.75,2.21-2.44.71-5-.69-5.71-3.13-1.01-3.47-2.17-8.15-3.86-11.34-.41-.77-1.36-1.06-2.13-.65-.77.41-1.06,1.36-.65,2.13.61,1.14,1.15,2.56,1.65,4.07-.78-.01-1.54-.05-2.28-.12-2.25-.2-4.41-.63-6.44-1.29-.35-1.09-.72-2.22-1.1-3.31-.66-1.9-1.31-3.65-1.94-5.2-.33-.81-1.24-1.2-2.05-.87-.81.33-1.19,1.24-.87,2.05.61,1.5,1.24,3.2,1.88,5.05.83,2.39,1.63,4.94,2.16,6.82.68,2.45-.76,4.99-3.21,5.67-2.45.68-4.99-.75-5.67-3.21-.37-1.32-1.08-3.65-1.98-6.27-.87-2.51-1.73-4.73-2.49-6.43-.36-.79-1.29-1.15-2.08-.79-.79.36-1.15,1.29-.79,2.08.37.82.77,1.79,1.18,2.85l1.21,3.32c.88,2.54,1.57,4.81,1.92,6.08,1.14,4.13,5.41,6.55,9.54,5.4,4.13-1.15,6.55-5.41,5.4-9.54-.01-.04-.02-.08-.03-.12,1.64.41,3.34.7,5.09.85,1.03.09,2.1.13,3.19.13.11,0,.22,0,.33,0,.16.55.31,1.1.46,1.63.19.66.37,1.29.54,1.89,1.2,4.1,5.51,6.47,9.62,5.27,1.25-.37,2.36-1.02,3.26-1.91,1.88,1.42,4.3,1.91,6.58,1.34,4.15-1.05,6.67-5.27,5.61-9.42-.17-.68-.42-1.44-.71-2.23,1.03.61,2.11,1.15,3.2,1.57,1.94.75,3.81,1.12,5.56,1.12,2.16,0,4.14-.57,5.88-1.7,2.87-1.87,4.92-5.2,6.1-9.92.47-1.9.81-4.05,1.01-6.41,3.95-1.65,7.09-3.91,9.25-6.68,2.13-2.74,3.21-5.87,3.21-9.3,0-4.95-2.27-10.23-6.39-14.86Zm-33.5,54.78c-1.43.36-2.94,0-4.06-.91.66-1.61.75-3.39.25-5.08-.18-.61-.36-1.24-.54-1.88,2.16-.74,4.05-1.73,5.68-2.97.98,2.17,1.68,3.99,1.99,5.25.63,2.47-.87,4.97-3.33,5.6Zm23.36-18.28c-.98,3.92-2.58,6.63-4.76,8.04-2.86,1.86-6.25,1.18-8.58.28-2.42-.93-4.49-2.38-5.81-3.67,1.62-2,2.81-4.4,3.54-7.19.05-.2.23-.33.43-.31,1.08.12,2.19.17,3.29.17,3.55,0,7.01-.39,10.28-1.16.82-.19,1.61-.41,2.39-.64-.18,1.63-.45,3.13-.78,4.47Z" fill="#93866c" stroke-width="0"/>
        <path d="m83.48,42.21c.7.52,1.69.36,2.2-.34,5.23-7.12,13.37-10.05,21.78-12,7.63-1.76,15.88-2.79,22.81-5.54,2.46-.98,4.6-2.78,6-5.07,1.64-2.67,4.05-5.02,6.98-6.79,3.95-2.39,8.64-3.66,13.55-3.66,3.31,0,6.82.82,10.15,2.38.79.37,1.73.03,2.09-.76.37-.79.03-1.73-.76-2.09-3.74-1.75-7.71-2.67-11.48-2.67-.69,0-1.37.02-2.05.07-.74-1.58-1.97-3.86-3.03-5.16-.55-.67-1.55-.77-2.22-.21-.67.55-.77,1.55-.21,2.22.47.57,1.3,1.87,2.16,3.56-2.7.48-5.29,1.31-7.69,2.49-.03-.04-.07-.08-.1-.12-.93-1.02-2.76-2.9-4.62-3.99-.75-.44-1.71-.18-2.15.57-.44.75-.19,1.72.57,2.15.99.58,2.24,1.65,3.49,2.98-3.03,1.97-5.55,4.5-7.32,7.36-1.01-1-2.29-2.2-3.54-3.17-.69-.53-1.68-.41-2.21.28-.53.69-.41,1.68.28,2.21.97.76,2.17,1.84,3.4,3.08-.73.61-1.56,1.1-2.44,1.45-1.6.63-3.27,1.17-4.99,1.64-.18-.29-.36-.58-.54-.86-1.05-1.63-2.12-3.02-3.18-4.13-.6-.63-1.6-.65-2.23-.05-.63.6-.65,1.6-.05,2.23.9.94,1.87,2.2,2.79,3.62-2.38.55-4.89,1.04-7.42,1.54-.26-.36-.52-.72-.79-1.07-.91-1.18-1.85-2.26-2.78-3.2-.61-.62-1.61-.62-2.23,0-.62.61-.62,1.61,0,2.23.8.8,1.6,1.72,2.39,2.73-1.11.23-2.22.47-3.31.72-1.55.36-3.15.76-4.75,1.23-.94-1.26-1.93-2.42-2.88-3.36-.62-.61-1.61-.61-2.23,0-.61.62-.61,1.62.01,2.23.62.62,1.27,1.35,1.92,2.15-2.36.85-4.7,1.88-6.93,3.2-1.15-1.16-2.27-2.1-3.34-2.78-.73-.47-1.71-.25-2.17.48-.47.73-.25,1.71.48,2.17.73.46,1.53,1.11,2.34,1.89-2.46,1.8-4.55,3.92-6.06,5.97-.52.7-.36,1.69.34,2.2h0Z" fill="#93866c" stroke-width="0"/>
        <path d="m155.31,26.49c0,.87.7,1.57,1.57,1.57s1.57-.71,1.57-1.57c0-.73.59-1.32,1.32-1.32s1.32.59,1.32,1.32c0,.87.7,1.57,1.57,1.57s1.57-.71,1.57-1.57c0-2.46-2-4.47-4.47-4.47s-4.47,2-4.47,4.47h0Z" fill="#93866c" stroke-width="0"/>
        <line x1="59.73" y1="73.68" x2="345.27" y2="73.68" fill="none" stroke="#93866c" stroke-linecap="round" stroke-linejoin="round" stroke-width="3.25"/>
        <path d="m83.38,39.7s-1.46,2-2.29,3.13-1.47,1.59-1.47,1.59l3.38,1.16s.93-1.08,1.35-1.69,1.22-2.03,1.9-2.76" fill="#93866c" stroke-width="0"/>
        <path d="m159.78,35.41c0,2.67-2.72,4.84-6.07,4.84s-6.07-2.17-6.07-4.84,2.72-4.83,6.07-4.83,6.07,2.16,6.07,4.83h0Z" fill="#fff" stroke-width="0"/>
      </g>
    </g>
  </g>
</svg>