<svg xmlns:xlink="http://www.w3.org/1999/xlink" xmlns="http://www.w3.org/2000/svg" fill="none" viewBox="0 0 306.67 95.5801" height="95.580078" width="306.670044">
	<path fill-rule="nonzero" fill-opacity="1.000000" fill="#A6E00C" d="M199 19.9199C212.89 19.9199 223.83 30.8501 223.83 44.4502C223.83 58.0503 212.89 68.9795 199 68.9795C185.11 68.9795 174.18 58.0403 174.18 44.4502C174.18 30.8601 185.12 19.9199 199 19.9199ZM199 60.7002C208.46 60.7002 214.37 53.9001 214.37 44.4502C214.37 35.0002 208.46 28.2002 199 28.2002C189.54 28.2002 183.63 35.0002 183.63 44.4502C183.63 53.9001 189.54 60.7002 199 60.7002Z" id="Vector"></path>
	<path fill-rule="nonzero" fill-opacity="1.000000" fill="#A6E00C" d="M68.77 26.8193C73.7 22.1895 80.79 19.9199 87.29 19.9199C101.08 19.9199 106.8 27.4094 106.8 35.4795L106.8 59.3193C106.8 62.5693 106.9 65.3301 107.19 67.79L99.31 67.79C99.11 65.4299 99.01 63.0603 99.01 60.7002L98.81 60.7002C94.87 66.7102 89.55 68.9795 82.46 68.9795C73.79 68.9795 66.3 64.0503 66.3 54.9902C66.3 42.9702 77.83 38.8398 92.01 38.8398L98.51 38.8398L98.51 36.8701C98.51 32.04 94.96 27.0195 87.38 27.0195C80.58 27.0195 77.33 29.8799 74.08 32.3398L68.76 26.8193L68.77 26.8193ZM93.79 45.3398C85.42 45.3398 75.17 46.8198 75.17 54.2998C75.17 59.6199 79.11 61.8896 85.22 61.8896C95.07 61.8896 98.52 54.5999 98.52 48.2998L98.52 45.3398L93.79 45.3398Z" id="Vector"></path>
	<path fill-rule="nonzero" fill-opacity="1.000000" fill="#A6E00C" d="M120.69 21.0996L129.56 21.0996L129.56 28.29L129.76 28.29C132.03 23.3601 137.94 19.9199 145.13 19.9199C154.19 19.9199 162.07 25.3401 162.07 37.75L162.07 67.7998L153.2 67.7998L153.2 40.2197C153.2 31.4497 148.18 28.2002 142.56 28.2002C135.17 28.2002 129.56 32.9294 129.56 43.7695L129.56 67.8096L120.69 67.8096L120.69 21.1201L120.69 21.0996Z" id="Vector"></path>
	<path fill-rule="nonzero" fill-opacity="1.000000" fill="#A6E00C" d="M235.94 21.0996L244.81 21.0996L244.81 27.7998L245.01 27.7998C248.46 22.7798 254.96 19.9199 261.26 19.9199C275.74 19.9199 285 30.6602 285 44.4502C285 58.2402 275.64 68.9795 261.26 68.9795C254.56 68.9795 248.16 65.9297 245.01 61.0996L244.81 61.0996L244.81 95.5801L235.94 95.5801L235.94 21.0996ZM244.81 44.4502C244.81 53.9102 250.72 60.7002 260.18 60.7002C269.64 60.7002 275.55 53.9001 275.55 44.4502C275.55 35.0002 269.64 28.2002 260.18 28.2002C250.72 28.2002 244.81 35.0002 244.81 44.4502Z" id="Vector"></path>
	<path fill-rule="nonzero" fill-opacity="1.000000" fill="#A6E00C" d="M297.8 29.9697L306.67 21.0996L306.67 67.79L297.8 67.79L297.8 29.96L297.8 29.9697Z" id="Vector"></path>
	<path fill-rule="nonzero" fill-opacity="1.000000" fill="#A6E00C" d="M60.72 0L47.52 0L14.3 32.5996L14.3 34.6699L14.3 36.7295L47.31 69.1201L60.51 69.1201L24.57 34.6699L60.72 0Z" id="Vector"></path>
	<path fill-rule="nonzero" fill-opacity="1.000000" fill="#A6E00C" d="M9.45001 69.1201L0 60.2598L0 8.31934L9.45001 0L9.45001 69.1201Z" id="Vector"></path>
	<path fill-rule="evenodd" fill-opacity="1.000000" fill="#A6E00C" d="M297.8 2.2793L306.67 2.2793L306.67 11.1494L297.8 11.1494L297.8 2.2793Z" id="Vector"></path>
</svg>
