<svg viewBox="0 0 227.06 70.77" xmlns="http://www.w3.org/2000/svg" data-name="Шар 2" id="_Шар_2">
  <g id="OBJECTS">
    <g>
      <path stroke-width="0" fill="#a6e00c" d="m147.35,14.75c10.28,0,18.38,8.1,18.38,18.16s-8.1,18.16-18.38,18.16-18.38-8.1-18.38-18.16,8.1-18.16,18.38-18.16Zm0,30.2c7,0,11.38-5.03,11.38-12.04s-4.38-12.04-11.38-12.04-11.38,5.03-11.38,12.04,4.38,12.04,11.38,12.04Z"></path>
      <path stroke-width="0" fill="#a6e00c" d="m50.93,19.86c3.65-3.43,8.9-5.11,13.71-5.11,10.21,0,14.44,5.54,14.44,11.52v17.65c0,2.41.07,4.45.29,6.27h-5.84c-.15-1.75-.22-3.5-.22-5.25h-.15c-2.92,4.45-6.86,6.13-12.11,6.13-6.42,0-11.96-3.65-11.96-10.36,0-8.9,8.53-11.96,19.04-11.96h4.81v-1.46c0-3.57-2.63-7.29-8.24-7.29-5.03,0-7.44,2.12-9.85,3.94l-3.94-4.08Zm18.53,13.71c-6.2,0-13.79,1.09-13.79,6.64,0,3.94,2.92,5.62,7.44,5.62,7.29,0,9.85-5.4,9.85-10.07v-2.19h-3.5Z"></path>
      <path stroke-width="0" fill="#a6e00c" d="m89.36,15.63h6.56v5.32h.15c1.68-3.65,6.05-6.2,11.38-6.2,6.71,0,12.55,4.01,12.55,13.2v22.25h-6.56v-20.42c0-6.49-3.72-8.9-7.88-8.9-5.47,0-9.63,3.5-9.63,11.53v17.8h-6.56V15.63Z"></path>
      <path stroke-width="0" fill="#a6e00c" d="m174.7,15.63h6.56v4.96h.15c2.55-3.72,7.37-5.84,12.04-5.84,10.72,0,17.58,7.95,17.58,18.16s-6.93,18.16-17.58,18.16c-4.96,0-9.7-2.26-12.04-5.84h-.15v25.53h-6.56V15.63Zm6.56,17.29c0,7,4.38,12.04,11.38,12.04s11.38-5.03,11.38-12.04-4.38-12.04-11.38-12.04-11.38,5.03-11.38,12.04Z"></path>
      <path stroke-width="0" fill="#a6e00c" d="m220.5,22.19l6.56-6.56v34.57h-6.56v-28.01Z"></path>
      <polygon stroke-width="0" fill="#a6e00c" points="44.96 0 35.19 0 10.59 24.14 10.59 25.67 10.59 27.2 35.03 51.18 44.81 51.18 18.2 25.67 44.96 0"></polygon>
      <polygon stroke-width="0" fill="#a6e00c" points="7 51.18 0 44.62 0 6.16 7 0 7 51.18"></polygon>
      <rect stroke-width="0" fill="#a6e00c" height="6.56" width="6.56" y="1.69" x="220.5"></rect>
    </g>
  </g>
</svg>