<svg xmlns="http://www.w3.org/2000/svg" xmlns:xlink="http://www.w3.org/1999/xlink" viewBox="0 0 345.05 573.86">
  <defs>
    <linearGradient id="sale-2-linear-gradient" x1="104" y1="184.67" x2="104.45" y2="235.42" gradientUnits="userSpaceOnUse">
      <stop offset="0" stop-color="#fff9f1"/>
      <stop offset="1" stop-color="#f0ede0"/>
    </linearGradient>
    <clipPath id="clippath">
      <rect x="93.92" y="270.84" width="55.31" height="50.25" fill="none" stroke-width="0"/>
    </clipPath>
  </defs>
  <g id="OBJECTS">
    <g id="panda-mail" data-name="PANDA - MAIL">
      <path d="m31.89,468.24s-11.16-4.83-5.74-20.25c0,0,9.98,4.63,5.74,20.25h0Z" fill="#cac6b4" fill-rule="evenodd" opacity=".5" stroke-width="0"/>
      <path d="m33.07,468.34s-2.14-9.89,10.96-13.78c0,0,1.7,9.07-10.96,13.78h0Z" fill="#e8e5d6" fill-rule="evenodd" stroke-width="0"/>
      <path d="m30.3,468.87s-6.49.13-13.82-10.4c0,0,5.99.07,13.82,10.4h0Z" fill="#e8e5d6" fill-rule="evenodd" stroke-width="0"/>
      <g id="bamboo">
        <path d="m122.7,366.79s13.95-11.98,31.34,5.59c0,0-12.9,10.51-31.34-5.59h0Z" fill="#cac6b4" fill-rule="evenodd" opacity=".5" stroke-width="0"/>
        <path d="m121.77,368.32s14.87,3.63,11.49,24.02c0,0-13.46-3.69-11.49-24.02h0Z" fill="#e8e5d6" fill-rule="evenodd" stroke-width="0"/>
        <path d="m122.88,364.2s4.12-8.91,23.29-11.92c0,0-4.06,8.11-23.29,11.92h0Z" fill="#e8e5d6" fill-rule="evenodd" stroke-width="0"/>
        <g>
          <rect x="58.44" y="158.11" width="62.25" height="192.72" fill="#f0ede0" stroke-width="0"/>
          <path d="m58.44,158.11h8.47c1,52.29,6.72,145.91,33.86,192.72h-42.33s0-192.72,0-192.72Z" fill="#e8e5d6" fill-rule="evenodd" stroke-width="0"/>
          <path d="m109.86,247.78l6.6-.95v-66.31s1-9.96-8.47-9.96h-6.97c-19.17,0-4.48,1.49-1,2.99,4.48,1.49,8.47,4.48,9.21,8.47.91,4.68.87,21.25.62,65.77Z" fill="url(#sale-2-linear-gradient)" fill-rule="evenodd" opacity=".5" stroke-width="0"/>
        </g>
        <g>
          <polygon points="120.69 51.04 120.69 158.11 58.44 158.11 58.44 0 120.69 51.04" fill="#f0ede0" fill-rule="evenodd" stroke-width="0"/>
          <path d="m68.68,8.95c3.21,50.16,11.23,111.71,31.13,147.48.42.76-.12,1.68-.98,1.68h-39.25c-.63,0-1.13-.51-1.13-1.13V2.41c0-.96,1.12-1.49,1.86-.87l7.98,6.61c.24.2.39.48.41.8Z" fill="#e8e5d6" fill-rule="evenodd" stroke-width="0"/>
          <path d="m116.46,124.75c0,22.66-3.49-.5-3.98-2.24-1.74-10.46-3.24-24.15-3.24-39.34,0-8.47,0-18.18.25-28.14,2.24.5,4.73,1,6.97,1.49v68.23h0Zm-.5-77.44l.5.5v.5s-.5-1-.5-1Z" fill="#fff9f1" fill-rule="evenodd" opacity=".6" stroke-width="0"/>
          <path d="m61.23.61c-1.23-.34-2.31.9-1.87,2.1,3.35,9.02,15.98,37.86,50.49,46.4,4.31,1.07,7.73-3.62,5.46-7.44C108.19,29.68,92.03,9.27,61.23.61Z" fill="#cac6b4" fill-rule="evenodd" stroke-width="0"/>
          <path d="m63.67,12.11c6.55,12.16,20.11,30.3,46.06,37.03,1.96.51,3.53-1.68,2.4-3.36-8.12-12.03-23.13-27.21-48.46-33.82v.16Z" fill="#93866c" fill-rule="evenodd" opacity=".3" stroke-width="0"/>
        </g>
        <rect x="58.44" y="358.56" width="62.25" height="192.72" fill="#f0ede0" stroke-width="0"/>
        <path d="m58.44,358.56h8.47c1,52.29,6.72,145.91,33.86,192.72h-42.33s0-192.72,0-192.72Z" fill="#e8e5d6" fill-rule="evenodd" stroke-width="0"/>
        <path d="m116.46,517.91v-136.95s1-9.96-8.47-9.96c-2.24,0-4.73,0-6.97,0-19.17,0-4.48,1.49-1,2.99,4.48,1.49,8.47,4.48,9.21,8.47,1.74,8.96,0,61.5,0,93.87,0,15.19,1.49,28.88,3.24,39.34.25,1.74,3.98,24.65,3.98,2.24h0Z" fill="#fff9f1" fill-rule="evenodd" opacity=".4" stroke-width="0"/>
        <path d="m58.44,364.93c8.87.6,13.21,4.96,62.25.08v-14.87c-21.69,5.89-61.92,0-62.25,0" fill="#cac6b4" stroke-width="0"/>
        <path d="m67,366.1c-.71-13.1,2.89-14.66,2.89-14.66l-11.44-1.31v14.76s8.55,1.2,8.55,1.2Z" fill="#93866c" opacity=".3" stroke-width="0"/>
        <path d="m110.36,308.89c.57,5.96,1.31,11.41,2.11,16.18.25,1.74,3.98,24.65,3.98,2.24v-19.37c-1.83,1.01-4.05,1.33-6.09.95Z" fill="#fff9f1" fill-rule="evenodd" opacity=".4" stroke-width="0"/>
        <path d="m120.89,321.09s-2.42,5.52-21.94,3.81c-2.35-.2-4.14-2.19-4.14-4.55v-67.43c0-2.5,2-4.53,4.5-4.56,6.42-.08,17.85-.61,21.58-3.37" fill="#e8e5d6" fill-rule="evenodd" stroke-width="0"/>
        <path d="m116.43,246.72c1.11-.28,2.11-.6,2.94-.98.62-.28,1.32.17,1.32.85v6.1" fill="none" fill-rule="evenodd" stroke="#93866c" stroke-linecap="round" stroke-linejoin="round" stroke-width="1.5"/>
        <path d="m111.15,247.65c1.89-.23,3.7-.53,5.28-.93" fill="none" fill-rule="evenodd" stroke="#93866c" stroke-linecap="round" stroke-linejoin="round" stroke-width="1.5"/>
        <path d="m110.16,247.78c-3.85.41-7.89.54-10.86.58-2.5.03-4.5,2.06-4.5,4.56v67.43c0,2.36,1.79,4.4,4.14,4.55,12.07.79,19.31-.54,21.94-3.69v-4.64c-2.76-23.31-12.32-38.37-6.37-69.4-1.37.25-2.85.45-4.35.61" fill="#93866c" fill-rule="evenodd" opacity=".25" stroke-width="0"/>
        <line x1="120.69" y1="257.15" x2="120.69" y2="260.88" fill="none" stroke="#93866c" stroke-linecap="round" stroke-linejoin="round" stroke-width="1.5"/>
        <path d="m65.01,365.81c12.36,1.38,39.3,3.65,55.68-.8" fill="none" stroke="#93866c" stroke-linecap="round" stroke-linejoin="round" stroke-width="1.5"/>
        <path d="m97.37,352.66c-15.92.2-32.61-1.6-38.93-2.38v-62.46" fill="none" stroke="#93866c" stroke-linecap="round" stroke-linejoin="round" stroke-width="1.5"/>
        <path d="m120.69,350.13c-3.06.83-6.56,1.42-10.33,1.82" fill="none" stroke="#93866c" stroke-linecap="round" stroke-linejoin="round" stroke-width="1.5"/>
        <path d="m58.44,161.89c8.87.6,13.21,4.96,62.25.08v-14.87c-21.69,5.89-61.92,0-62.25,0" fill="#cac6b4" stroke-width="0"/>
        <path d="m67,163.07c-.71-13.1,2.89-14.66,2.89-14.66l-11.44-1.31v14.76s8.55,1.2,8.55,1.2Z" fill="#93866c" opacity=".3" stroke-width="0"/>
        <path d="m65.01,162.77c12.36,1.38,39.3,3.65,55.68-.8" fill="none" stroke="#93866c" stroke-linecap="round" stroke-linejoin="round" stroke-width="1.5"/>
        <path d="m97.37,149.63c-15.92.2-32.61-1.6-38.93-2.38" fill="none" stroke="#93866c" stroke-linecap="round" stroke-linejoin="round" stroke-width="1.5"/>
        <path d="m110.36,148.92c3.77-.4,7.27-.99,10.33-1.82v-8.47" fill="none" stroke="#93866c" stroke-linecap="round" stroke-linejoin="round" stroke-width="1.5"/>
        <path d="m94.8,292.39s.44,33.81,20.57,31.74c0,0-8.93,2.03-17.4.53l-3.72-3.49.48-7.06" fill="#93866c" fill-rule="evenodd" opacity=".37" stroke-width="0"/>
        <path d="m118.14,323.06s1.69-.54,2.56-1.62c.63-.79.18-3.05.18-4.96" fill="none" fill-rule="evenodd" stroke="#93866c" stroke-linecap="round" stroke-linejoin="round" stroke-width="1.5"/>
        <path d="m52.62,150.05s-27.63-14.68-49.93,21.09c0,0,25.36,12.55,49.93-21.09h0Z" fill="#cac6b4" fill-rule="evenodd" opacity=".5" stroke-width="0"/>
        <path d="m14.97,130.83s2.27,13.88,37.38,15.62c0,0-2.67-12.68-37.38-15.62h0Z" fill="#e8e5d6" fill-rule="evenodd" stroke-width="0"/>
        <path d="m120.97,468.87s14.68-27.63-21.09-49.93c0,0-12.55,25.36,21.09,49.93h0Z" fill="#cac6b4" fill-rule="evenodd" opacity=".5" stroke-width="0"/>
        <g id="mail">
          <g clip-path="url(#clippath)">
            <g>
              <path d="m137.26,284.08l-47.25-1.18-3.41,22.96c-.61,4.08,2.25,7.86,6.33,8.39l40.97,5.35c4.08.53,7.8-2.37,8.28-6.46l2.28-20.82c.47-4.33-2.85-8.13-7.2-8.24Z" fill="#68b2f9" stroke-width="0"/>
              <path d="m138.04,314.57l.03-.28,4.22-32.91c.21-1.61-.94-3.07-2.55-3.26l-43.63-4.78c-1.6-.19-3.04.96-3.23,2.55l-4.57,33.16,49.72,5.51Z" fill="#cdf38a" stroke="#93866c" stroke-linecap="round" stroke-linejoin="round"/>
              <path d="m142.81,286.93l-19.18,13.97,15.74,17.16s2.16-.84,2.85-4.97l2.24-20.75s.6-2.95-1.65-5.41Z" fill="#e8e5d6" stroke-width="0"/>
              <g opacity=".4">
                <path d="m140.47,313.04l2.24-20.73s0-.04,0-.05c.02-.09.37-2.02-.8-3.95l.79-.58c1.62,2.1,1.19,4.4,1.17,4.5,0,.02,0,.04,0,.05l-2.24,20.73c-.46,2.74-1.6,3.89-2.16,4.31l-.53-.58c.55-.66,1.2-1.79,1.52-3.7Z" fill="#fff9f1" stroke-width="0"/>
              </g>
              <path d="m107.11,299.07l-14.37-16.19-2.73.02-3.46,23.7s-.26,3.54,2.13,5.25l18.43-12.77Z" fill="#e8e5d6" stroke-width="0"/>
              <g opacity=".4">
                <polygon points="91.66 284.15 90.42 284.16 90.52 283.48 92.48 283.46 106.24 298.97 105.35 299.58 91.66 284.15" fill="#fff9f1" stroke-width="0"/>
              </g>
              <path d="m133.96,319.15l-40.97-5.35c-1.6-.21-3.04-.95-4.13-2.11l21.98-14.87c3.11-2.11,7.3-1.63,9.86,1.11l18.46,19.78s-.03.02-.04.03c-1.47,1.15-3.3,1.65-5.15,1.41Z" fill="#e8e5d6" stroke-width="0"/>
              <g opacity=".4">
                <path d="m119.12,299.03c-2.15-2.31-5.48-2.88-8.24-1.53l.29-.19c2.89-1.96,6.72-1.53,9.11,1.03l18.01,19.29c-.39.25-.8.46-1.23.61l-17.93-19.21Z" fill="#fff9f1" stroke-width="0"/>
              </g>
              <g opacity=".3">
                <path d="m93.82,282.12l13.04,11.07c.9.99,2.35,1.26,3.55.68l1.21-.58c3.32-1.6,7.29-1,9.99,1.51l.56.52c1.01.94,2.52,1.08,3.68.35l15.59-9.88-1.01,2.87-16.86,12.3s-3.57-4.96-7.59-5.37c0,0-2.87-1.1-8.94,3.55l-14.15-14.7.91-2.32Z" fill="#93866c" stroke-width="0"/>
              </g>
              <path d="m126.29,299.14s8.57,13.63,16.34,10.11l-1.48,6.15-1.74,2.7-15.78-17.17,2.65-1.78Z" fill="#cac6b4" stroke-width="0"/>
              <path d="m89.41,311.78l17.58-12.36s0-.01,0-.02c1.98,3.72,9.1,13.79,28.8,15.39l2.49,2.78c-1.28.86-2.8,1.21-4.32,1h0s-41.79-5.72-41.79-5.72c-1.13-.15-2.16-.6-3.05-1.29.1.08.2.15.3.22Z" fill="#cac6b4" stroke-width="0"/>
              <path d="m87.65,301.35s6.02,6.11,17.95-3.93l1.46,1.72-18.38,12.71s-3.7-3.41-1.03-10.5Z" fill="#cac6b4" stroke-width="0"/>
              <path d="m142.23,286.93l-19.18,13.97,15.52,16.81s2.38-.97,3.06-5.1l2.24-20.27s.6-2.95-1.65-5.41Z" fill="none" stroke="#93866c" stroke-miterlimit="10" stroke-width="1.5"/>
              <path d="m106.53,299.07l-14.37-16.19-2.73.02-3.34,22.88c-.16,1.08-.14,2.18.15,3.23.27,1,.99,2.1,2.04,2.84l18.25-12.77Z" fill="none" stroke="#93866c" stroke-miterlimit="10" stroke-width="1.5"/>
              <path d="m133.38,319.15l-40.97-5.35c-1.6-.21-3.04-.95-4.13-2.11l21.98-14.87c3.11-2.11,7.3-1.63,9.86,1.11l18.46,19.78s-.03.02-.04.03c-1.47,1.15-3.3,1.65-5.15,1.41Z" fill="none" stroke="#93866c" stroke-miterlimit="10" stroke-width="1.5"/>
            </g>
          </g>
        </g>
        <path d="m140.19,431.23s-13.88,2.27-15.62,37.38c0,0,12.68-2.67,15.62-37.38h0Z" fill="#e8e5d6" fill-rule="evenodd" stroke-width="0"/>
        <line x1="58.45" y1="282.23" x2="58.45" y2="277.09" fill="none" stroke="#93866c" stroke-linecap="round" stroke-linejoin="round" stroke-width="1.5"/>
        <line x1="58.44" y1="271.5" x2="58.44" y2="235.8" fill="none" stroke="#93866c" stroke-linecap="round" stroke-linejoin="round" stroke-width="1.5"/>
        <path d="m98.74,324.9c-2.35-.2-4.14-2.19-4.14-4.54v-9.76" fill="none" fill-rule="evenodd" stroke="#93866c" stroke-linecap="round" stroke-linejoin="round" stroke-width="1.5"/>
        <path d="m94.6,295.97v-43.05c0-2.5,2-4.53,4.5-4.56,3.27-.04,7.85-.2,12.04-.71" fill="none" fill-rule="evenodd" stroke="#93866c" stroke-linecap="round" stroke-linejoin="round" stroke-width="1.5"/>
      </g>
      <rect y="468.87" width="345.05" height="104.99" fill="#f0ede0" stroke-width="0"/>
      <line x1="239.13" y1="468.39" x2="291.56" y2="468.39" fill="none" stroke="#93866c" stroke-linecap="round" stroke-linejoin="round" stroke-width="1.5"/>
      <line x1="304.81" y1="468.39" x2="309.51" y2="468.39" fill="none" stroke="#93866c" stroke-linecap="round" stroke-linejoin="round" stroke-width="1.5"/>
      <line x1="48.4" y1="468.39" x2="235.78" y2="468.39" fill="none" stroke="#93866c" stroke-linecap="round" stroke-linejoin="round" stroke-width="1.5"/>
      <line x1="48.4" y1="468.39" x2="235.78" y2="468.39" fill="none" stroke="#93866c" stroke-linecap="round" stroke-linejoin="round" stroke-width="1.5"/>
      <line x1="44.26" y1="468.32" x2="40.01" y2="468.32" fill="none" stroke="#93866c" stroke-linecap="round" stroke-linejoin="round" stroke-width="1.5"/>
      <line x1="36.16" y1="468.32" x2="24.44" y2="468.32" fill="none" stroke="#93866c" stroke-linecap="round" stroke-linejoin="round" stroke-width="1.5"/>
      <path d="m27.6,419.2c-.71-1.81-1.5-3.63-2.38-5.46" fill="none" fill-rule="evenodd" stroke="#93866c" stroke-linecap="round" stroke-linejoin="round" stroke-width="1.5"/>
      <path d="m32.62,467.77s1.73-7.97,1.13-19.7c-.32-6.27-1.31-13.62-3.59-21.4" fill="none" fill-rule="evenodd" stroke="#93866c" stroke-linecap="round" stroke-linejoin="round" stroke-width="1.5"/>
      <path d="m41.72,425.94s-6.11,5.05-7.93,23.32" fill="none" fill-rule="evenodd" stroke="#93866c" stroke-linecap="round" stroke-linejoin="round" stroke-width="1.5"/>
      <path d="m309.37,445.64c.33-.85.7-1.7,1.11-2.55" fill="none" fill-rule="evenodd" stroke="#93866c" stroke-linecap="round" stroke-linejoin="round" stroke-width="1.5"/>
      <path d="m307.02,468.34s-.81-3.73-.53-9.21c.15-2.93.61-6.37,1.68-10.01" fill="none" fill-rule="evenodd" stroke="#93866c" stroke-linecap="round" stroke-linejoin="round" stroke-width="1.5"/>
      <path d="m302.76,448.79s2.86,2.36,3.71,10.9" fill="none" fill-rule="evenodd" stroke="#93866c" stroke-linecap="round" stroke-linejoin="round" stroke-width="1.5"/>
      <path d="m306.53,458.5s2.52-4.06,6.17-5.97c1-.52,2.17.32,1.94,1.43-.53,2.5-2.24,6.69-7.71,10.33" fill="none" fill-rule="evenodd" stroke="#93866c" stroke-miterlimit="10" stroke-width="1.5"/>
      <path d="m31.89,468.24s-11.16-4.83-5.74-20.25c0,0,9.98,4.63,5.74,20.25h0Z" fill="#cac6b4" fill-rule="evenodd" opacity=".5" stroke-width="0"/>
      <path d="m33.07,468.34s-2.14-9.89,10.96-13.78c0,0,1.7,9.07-10.96,13.78h0Z" fill="#e8e5d6" fill-rule="evenodd" stroke-width="0"/>
      <path d="m30.3,468.87s-6.49.13-13.82-10.4c0,0,5.99.07,13.82,10.4h0Z" fill="#e8e5d6" fill-rule="evenodd" stroke-width="0"/>
      <line x1="44.26" y1="468.32" x2="40.01" y2="468.32" fill="none" stroke="#93866c" stroke-linecap="round" stroke-linejoin="round" stroke-width="1.5"/>
      <line x1="36.16" y1="468.32" x2="24.44" y2="468.32" fill="none" stroke="#93866c" stroke-linecap="round" stroke-linejoin="round" stroke-width="1.5"/>
      <path d="m27.6,419.2c-.71-1.81-1.5-3.63-2.38-5.46" fill="none" fill-rule="evenodd" stroke="#93866c" stroke-linecap="round" stroke-linejoin="round" stroke-width="1.5"/>
      <path d="m32.62,467.77s1.73-7.97,1.13-19.7c-.32-6.27-1.31-13.62-3.59-21.4" fill="none" fill-rule="evenodd" stroke="#93866c" stroke-linecap="round" stroke-linejoin="round" stroke-width="1.5"/>
      <path d="m41.72,425.94s-6.11,5.05-7.93,23.32" fill="none" fill-rule="evenodd" stroke="#93866c" stroke-linecap="round" stroke-linejoin="round" stroke-width="1.5"/>
      <g id="panda">
        <g id="leg">
          <path d="m244.67,440.55c.68,3.15,1.51,6.11,2.46,8.84.22.64.45,1.26.68,1.88,8.16,21.27,23.87,27.16,31.17-4.48.66-2.84,1.26-5.99,1.76-9.45.75-5.11,1.33-10.93,1.7-17.5l-37.77,20.71Z" fill="#fff9f1" stroke-width="0"/>
          <g opacity=".3">
            <path d="m244.67,440.55c.68,3.15,1.51,6.11,2.46,8.84.02,0,.06,0,.08,0,12.87.2,25.21-3.94,33.54-12.05.75-5.11,1.33-10.93,1.7-17.5l-37.77,20.71Z" fill="#93866c" stroke-width="0"/>
          </g>
          <path d="m278.98,446.79c-7.29,31.63-23.01,25.74-31.17,4.48,11.47,4.6,22.23,5.17,31.17-4.48Z" fill="#cac6b4" stroke-width="0"/>
          <path d="m248.74,438.53c-.27-1.37-1.56-2.23-2.87-1.93-1.31.3-2.15,1.66-1.88,3.03,3.31,16.47,10.55,27.5,18.41,28.41.61.07,1.23.08,1.85.03,10.17-.89,16.75-18.11,18.54-48.5.08-1.4-.93-2.6-2.27-2.67-1.34-.07-2.49,1.01-2.57,2.41" fill="none" stroke="#93866c" stroke-miterlimit="10" stroke-width="1.5"/>
        </g>
        <g id="body">
          <path d="m186.54,370.65c-.64,7.48-.41,14.32.56,20.55,1.53,9.89,4.9,18.22,9.52,25.06h0c-.98,8.99-1.07,16.8-.48,23.44,2.57,29.11,18.25,35.86,30.95,19.84,2.56-3.23,5.01-7.4,7.19-12.5v-.03c.21-.47.42-.96.62-1.45,1.23-3.06,4.22-5.05,7.53-4.99,18.2.28,35.32-8.11,41.56-24.14,3.76-10.94,2.45-20.06-.42-28.92-.01-.05-.03-.09-.05-.14-.01-.03-.02-.07-.04-.12-1.11-3.42-2.47-6.82-3.85-10.26,0-.02,0-.03-.02-.04-1.53-3.82-3.09-7.71-4.4-11.78,0-.02-.01-.03-.01-.03s0-.02-.01-.03c-1.23-3.8-2.23-7.76-2.8-11.98l-36.69,7.48-49.15,10.03Z" fill="#fff9f1" stroke-width="0"/>
          <path d="m188.92,361.14c-2.39,9.57-2.02,19.34-1.84,29.26,26.82-7.24,57.27-9.15,79.13-6.67,6.71.76,12.62,2.01,17.37,3.78,0,0-.02-.05-.05-.14-.01-.03-.02-.07-.04-.12-.41-1.1-2.1-5.6-3.85-10.26,0-.02,0-.03-.02-.04-2.07-5.52-4.21-11.25-4.4-11.78,0-.02-.01-.03-.01-.03s0-.02-.01-.03c-.26-1-4.57-20.44-4.57-20.44l-39.14-1.11c-.72-.02-1.45-.04-2.17-.06-7.71-.22-15.29-.15-22.85-1.79-1.59-.35-3.63-1.38-5.26-1.13-2.89.44-4.46,3.23-5.86,5.5-1.84,2.97-3.39,6.13-4.63,9.4-.72,1.88-1.3,3.77-1.77,5.66Z" fill="#cac6b4" stroke-width="0"/>
          <path d="m186.13,369.39c-.04.58-.07,1.15-.07,1.73-.02,3.32-.3,6.59-.15,9.92.04.82.86,9.27.66,9.32.96-.26,1-.41,1.97-.65,3.38-.86,5.74-3.91,5.67-7.39l-.08-4.46c0-5.76,1.14-11.74,1.69-17.5.63-6.6,1.45-13.25,3.69-19.52-4.01,3.67-6.94,8.41-9.07,13.42-1.98,4.67-3.91,10.02-4.31,15.15Z" fill="#fff9f1" stroke-width="0"/>
          <path d="m234.28,447.02v.02c-13.03,30.35-35.06,27.65-38.15-7.34,11.47,10.81,24.2,13.24,38.15,7.31Z" fill="#cac6b4" stroke-width="0"/>
          <g opacity=".3">
            <path d="m266.21,383.74c4.49,12.22,7.37,34.37-27.2,40.51,0,0-19.66,1.14-12.36,33.66.13.55.28,1.1.44,1.63,2.56-3.23,5.01-7.4,7.19-12.5v-.03c.21-.47.42-.96.62-1.45,1.23-3.06,4.22-5.05,7.53-4.99,18.2.28,35.32-8.11,41.56-24.14,3.76-10.94,2.45-20.06-.42-28.92h0s-.02-.05-.05-.14c-.01-.03-.02-.07-.04-.12-1.11-3.42-2.47-6.82-3.85-10.26,0-.02,0-.03-.02-.04-2.07-5.52-4.21-11.25-4.4-11.78,0-.02-.01-.03-.01-.03s0-.02-.01-.03c-.26-1-4.57-20.44-4.57-20.44l-39.14-1.11-8.49,4.7s2.86,5.11,12.7,12.35c5.98,4.4,14.55,9.58,26.61,14.87,0,0,2.08,3.31,3.9,8.24Z" fill="#93866c" stroke-width="0"/>
          </g>
          <g opacity=".55">
            <path d="m196.34,439.74c1.87,21.12,10.63,30.47,20.15,27.9-5.11-2.8-9.28-9.91-11.14-21.28-3.09-1.66-6.09-3.87-9.02-6.62Z" fill="#fff9f1" stroke-width="0"/>
          </g>
          <path d="m273.65,350.65c-1.56.2-1.22,1.63-1.01,3.16,1.3,9.34,3.98,16.94,7.16,24.69,5.31,12.94,9.06,24.5,3.92,39.36-5.69,14.32-21.76,23.35-40.95,23-4.68-.08-7.58,2.89-9.34,7.15-6.03,14.69-15.83,21.43-23.23,19.59-8.51-2.12-16.28-17.41-12.88-48.83.07-.66-.09-1.33-.47-1.88-4.67-6.78-7.57-14.65-9.12-22.7-1.64-8.53-2.49-18.34-.52-26.83,2.31-9.98,5.23-20.83,12.81-28.17" fill="none" stroke="#93866c" stroke-miterlimit="10" stroke-width="1.5"/>
        </g>
        
        <g id="part-bag">
          <path d="m190.09,392.72c-1.3,2.34-2.34,5.67-1.32,11.87.46,2.76,2.54,4.97,5.27,5.58l20.18,4.7c2.44.54,5-.18,6.78-1.93,1.73-1.7,3.94-4.4,6.22-8.61,5.07-9.32,0-10.26,0-10.26l-29.04-5.46c-2.87-.54-5.42-.74-8.1,4.11Z" fill="#cac6b4" stroke="#93866c" stroke-linecap="round" stroke-linejoin="round" stroke-width="1.5"/>
          <path d="m224.71,394.21l-.4.63s-17.71-3.93-25.14-3.61c-1.7.08-3.29,1.02-4.1,2.51,0,.01,0,.02-.01.03-2.5,4.66-2.52,10.44-2.85,15.7-1.8-1-3.09-2.78-3.44-4.88-1.03-6.19.02-9.52,1.32-11.87,2.36-4.28,4.63-4.63,7.09-4.28,1.45.54,2.94.81,4.46,1.1-.38.05-.77.13-1.17.22l24.24,4.45Z" fill="#93866c" opacity=".6" stroke-width="0"/>
        </g>
        <g id="panda-hand">
          <path d="m225.47,352.47c1.76,6.2-.11,13.37-4.69,17.89-7.64,7.54-20.16,6-29.12,1.84-.99-.47-1.96-1.01-2.98-1.41-1.31-.52-2.68-.81-4.08-.96-15.59-6.78-24.69-15.98-24.69-15.98-6.95-8.96-8.31-17.12-5.15-23.24,3.57-6.93,12.57-8.92,19.13-4.7,7.79,5.01,16.16,9.03,24.65,12.7,4.29,1.86,8.61,3.63,12.93,5.41,2,.82,4.01,1.88,6.07,2.54,3.33,1.06,6.87,2.21,7.93,5.92Z" fill="#cac6b4" stroke-width="0"/>
          <path d="m192.46,372.9c-2.9-.98-5.79-1.97-8.69-2.96-9.51-4.06-16.67-9.04-20.91-12.42-3.86-3.08-7.06-6.94-9.08-11.44-2.68-5.95-2.71-11.3-.48-15.64,3.57-6.93,12.58-8.92,19.13-4.7.41.27.83.54,1.26.8-4.72,0-9.31,2.41-11.61,6.9-3.17,6.12-1.81,14.28,5.14,23.24,0,0,9.32,9.42,25.24,16.22Z" fill="#fff9f1" stroke-width="0"/>
          <path d="m198.74,374.56c-16.43-4.75-28.66-12.98-35-17.96-4.04-3.17-7.42-7.14-9.6-11.8-2.73-5.85-3.03-11.22-.76-15.59,1.5-2.9,4.14-4.97,7.42-5.84,3.52-.93,7.3-.33,10.38,1.64,15.83,10.12,35.71,18.62,59.09,25.27,1.68.48,3.42-.48,3.9-2.14.48-1.66-.49-3.39-2.17-3.87" fill="none" stroke="#93866c" stroke-miterlimit="10" stroke-width="1.5"/>
        </g>
        <g id="panda-tail">
          <path d="m287.74,416.23c-8.57-1.64-12.12-4.89-12.12-4.89,2.64-3.13,3.55-9.9.17-14.54,0,0,11.95-6.71,19.07-1.48,7.12,5.23,3.25,22.9-7.13,20.91Z" fill="#fff9f1" stroke-width="0"/>
          <path d="m285.87,393.85s13.01,4.29,9.47,18.92c1.88-2.23,3.49-4.7,3.52-8.58l-1.72-6.72-5.43-4.5-5.57.83" fill="#93866c" opacity=".2" stroke-width="0"/>
          <path d="m275.62,411.33c.38.37,3.91,3.64,11.45,5.07.23.04.47.08.7.11,4.2.49,7.94-1.9,9.87-6.38,2.12-4.91,1.66-11.92-2.79-15.15-6.97-5.06-17.84,1.04-19.05,1.75" fill="none" stroke="#93866c" stroke-miterlimit="10" stroke-width="1.5"/>
        </g>

        <g id="bag">
          <g>
            <path d="m239.08,400.95l-8.21,38.67s-.56,4.85-8.35,4.36c-7.79-.5-40.3-6.69-41.39-13.57-.08-.5,4.04-32.6,7.74-38.67,1.46-2.38,4.08-3.3,6.72-3.54-1.85,1.29-3.45,3.1-3.77,4.62-.55,2.62-.67,6.65.36,12.85.46,2.76,2.54,4.97,5.27,5.58l8.79,1.96c2.44.54,5-.18,6.78-1.93,1.74-1.7,3.94-4.4,6.23-8.61,5.06-9.32,7.98-9.08,7.98-9.08h0l9.86,1.9s3.41.79,1.99,5.46Z" fill="#e8e5d6" stroke-width="0"/>
            <path d="m190.59,390.23c-2.52,1.53-2.42,4.41-4.61,11.68-8.01,26.66-4.37,30.99-1.75,32.24-.84-1.51-1.93-5.51-.21-15.64,2.01-11.83,5.14-20.42,6.67-20.42.16,0,.32.1.47.3-.11-2.71.59-5.28.72-6.44.09-.78,2.21-2.44,2.54-3" fill="#fff9f1" stroke-width="0"/>
            <path d="m227.69,394.58c-1.02,4.37-1.41,8.81-2.43,12.34-.8,2.77.72,5.67,3.45,6.61l.12.04c.56.19,1.15.29,1.74.29.89,0,1.62-.68,2.42-1.11,1.32-.72,1.94-2.5,2.31-3.96.82-3.22,1.1-6.71,2.5-12.28.33.16,2.18,1.69,1.89,2.32-.11.26.04-.17-.17.62h-.02s-.68,2.74-.68,2.74l-.04.17c-2.39,9.84-7.07,32.27-7.99,37.48-.24,1.37-.76,2.28-1.63,2.89-1.02.7-2.11,1.68-4.17,1.68-1.35,0-2.27-.05-4.08-.28-.74-.62-2.47-2.6-2.27-2.37-.26-.36-.43-.78-.59-1.19-.16-.41-.27-.84-.37-1.27-.19-.86-.29-1.74-.32-2.62-.09-1.76.1-3.53.36-5.27.28-1.75.6-3.51.93-5.26.33-1.75.66-3.5,1-5.25l1.01-5.26.99-5.26c.65-3.51.65-5.05-.5-5.05-.71,0-1.97,1.23-3.69,3.33-1.6,1.95-3.41,3.07-5.02,3.71,4.05-3.36,8.18-11.18,9.73-13.96,1.67-2.99,4.14-3.77,5.52-3.82" fill="#93866c" opacity=".45" stroke-width="0"/>
            <path d="m238.46,396.3c.75.75,1.38,2.14.62,4.65l-8.21,38.67s-.56,4.85-8.35,4.36c-7.79-.5-40.3-6.69-41.39-13.57-.08-.5,4.04-32.6,7.74-38.67,1.46-2.38,4.08-3.3,6.72-3.54-1.85,1.29-3.45,3.1-3.77,4.62-.55,2.62-.67,6.65.36,12.85.46,2.76,2.54,4.97,5.27,5.58l8.79,1.96c2.44.54,5-.18,6.78-1.93,1.74-1.7,3.94-4.4,6.23-8.61,5.06-9.32,7.98-9.08,7.98-9.08h0" fill="none" stroke="#93866c" stroke-linecap="round" stroke-linejoin="round" stroke-width="1.5"/>
          </g>

        </g>
                <g id="panda-hand-2">
          <path d="m225.47,352.47c1.76,6.2-.11,13.37-4.69,17.89-7.64,7.54-20.16,6-29.12,1.84-.99-.47-1.96-1.01-2.98-1.41-1.31-.52-2.68-.81-4.08-.96-15.59-6.78-24.69-15.98-24.69-15.98-6.95-8.96-8.31-17.12-5.15-23.24,3.57-6.93,12.57-8.92,19.13-4.7,7.79,5.01,16.16,9.03,24.65,12.7,4.29,1.86,8.61,3.63,12.93,5.41,2,.82,4.01,1.88,6.07,2.54,3.33,1.06,6.87,2.21,7.93,5.92Z" fill="#cac6b4" stroke-width="0"/>
          <path d="m192.46,372.9c-2.9-.98-5.79-1.97-8.69-2.96-9.51-4.06-16.67-9.04-20.91-12.42-3.86-3.08-7.06-6.94-9.08-11.44-2.68-5.95-2.71-11.3-.48-15.64,3.57-6.93,12.58-8.92,19.13-4.7.41.27.83.54,1.26.8-4.72,0-9.31,2.41-11.61,6.9-3.17,6.12-1.81,14.28,5.14,23.24,0,0,9.32,9.42,25.24,16.22Z" fill="#fff9f1" stroke-width="0"/>
          <path d="m198.74,374.56c-16.43-4.75-28.66-12.98-35-17.96-4.04-3.17-7.42-7.14-9.6-11.8-2.73-5.85-3.03-11.22-.76-15.59,1.5-2.9,4.14-4.97,7.42-5.84,3.52-.93,7.3-.33,10.38,1.64,15.83,10.12,35.71,18.62,59.09,25.27,1.68.48,3.42-.48,3.9-2.14.48-1.66-.49-3.39-2.17-3.87" fill="none" stroke="#93866c" stroke-miterlimit="10" stroke-width="1.5"/>
        </g>
                  <g>
            <path d="m234.16,365.31s7.62,5.25,9.36,6.28l-6.19,29.67-10.52-2.24" fill="#e8e5d6" stroke-width="0"/>
            <path d="m235.07,360.26l-11.37,52.12c-.67,2.86,1.05,5.74,3.9,6.5h0c3.03.81,6.11-1.1,6.74-4.16l9.2-44.09" fill="none" stroke="#93866c" stroke-linecap="round" stroke-linejoin="round" stroke-width="1.5"/>
            <ellipse cx="229.41" cy="413.5" rx="2.47" ry="2.28" transform="translate(-236.57 493.94) rotate(-70.77)" fill="#fff9f1" stroke-width="0"/>
            <ellipse cx="229.16" cy="413.5" rx="2.47" ry="2.28" transform="translate(-236.74 493.71) rotate(-70.77)" fill="none" stroke="#93866c" stroke-linecap="round" stroke-linejoin="round" stroke-width="1.5"/>
          </g>
      </g>
              <g id="panda-head">
          <path d="m176.32,275.65c-11.76,41.56,16.29,66.73,56.46,78.1,40.17,11.36,77.25,4.62,89.01-36.94,11.76-41.56-11.28-84.47-51.45-95.83-40.17-11.36-82.27,13.12-94.03,54.68Z" fill="#fff9f1" stroke-width="0"/>
          <path d="m232.7,353.99c-21.37-6.04-37.93-15.67-47.89-27.84-11.43-13.96-14.4-31.02-8.83-50.7,11.79-41.69,54.18-66.33,94.48-54.93,40.3,11.4,63.49,54.59,51.7,96.28-5.57,19.68-17.03,32.66-34.08,38.56-9.85,3.41-21.58,4.36-34.6,2.84-6.62-.77-13.57-2.17-20.78-4.21Zm37.56-132.77c-3.81-1.08-7.63-1.83-11.45-2.27" fill="none" stroke="#93866c" stroke-miterlimit="10" stroke-width="1.5"/>
          <g opacity=".3">
            <path d="m310.95,339.15c-16.77,21.1-46.08,23.61-77.41,15.21-40.32-10.81-68.72-35.59-57.53-77.31,5.84-21.79,35.79,52.14,76.11,62.95,21.76,5.83,42.54,6.41,58.83-.85Z" fill="#93866c" stroke-width="0"/>
          </g>
          <g>
            <g>
              <path d="m276.99,228.86c2.91-23.26-20.86-21.67-14.96-5.32l14.96,5.32Z" fill="#fff9f1" stroke-width="0"/>
              <path d="m262.37,223.41c-1.6-4.43-1.12-8.17,1.32-10.28,1.97-1.71,4.89-1.93,7.44-.57,4.42,2.36,6.47,8.44,5.49,16.25" fill="none" stroke="#93866c" stroke-linecap="round" stroke-linejoin="round" stroke-width="1.5"/>
            </g>
            <g>
              <path d="m261.13,219.6c-7.62-12.59-20.55-.9-6.23,6.55l6.23-6.55Z" fill="#fff9f1" stroke-width="0"/>
              <path d="m261.3,219.44c-2.54-4.2-5.9-6.33-9.23-5.65-2.11.44-3.66,2.02-3.94,4.03-.42,3.05,2.04,6.29,6.59,8.65" fill="none" stroke="#93866c" stroke-linecap="round" stroke-linejoin="round" stroke-width="1.5"/>
            </g>
          </g>
          <g id="left_ear" data-name="left ear">
            <path d="m244.24,225.77c-17.72-38.51-78.97-18.15-52.92,30.17-2.77-15.3,37.43-43.49,52.92-30.17Z" fill="#cac6b4" stroke-width="0"/>
            <g opacity=".55">
              <path d="m184.41,228.95c8.29-21.49,41.76-25.21,55.79-.61l2.97-1.7c-13.76-29.9-53.75-24.31-58.76,2.3Z" fill="#fff9f1" stroke-width="0"/>
            </g>
            <path d="m240.35,218.48c-5.82-7.58-14.23-12.06-23.93-12.77-11.29-.82-21.82,3.94-27.48,12.43-6.41,9.61-5.72,22.43,1.94,36.09.41.73.93,1.42,2.31,1.63" fill="none" stroke="#93866c" stroke-linecap="round" stroke-miterlimit="10" stroke-width="1.5"/>
          </g>
          <g id="right_ear" data-name="right ear">
            <path d="m301.41,239.58c33.16-17.41,63.62,30.78,19.35,50.56,0-16.7-1.91-34.24-19.35-50.56Z" fill="#cac6b4" stroke-width="0"/>
            <g opacity=".55">
              <path d="m340.14,274.98c5.78-19.51-15.64-40.16-38.72-30.5l-1.17-2.79c25.75-13.51,50.73,11.96,39.89,33.29Z" fill="#fff9f1" stroke-width="0"/>
            </g>
            <path d="m301.47,239.04c10.32-4.55,19.72-3.57,28.79,2.42,8.35,5.51,13.15,14.52,12.54,23.52-.69,10.19-8.09,18.79-20.82,24.22-.68.29-2.25.88-3.71-.43" fill="none" stroke="#93866c" stroke-linecap="round" stroke-linejoin="round" stroke-width="1.33"/>
          </g>
        </g>
        <g id="panda-head-2">
          <path d="m238.73,230.87c-3.61-33.32-54.64-33.43-47.25,9.34,1.76-12.17,38.97-23.21,47.25-9.34Z" fill="#cac6b4" stroke-width="0"/>
          <g opacity=".55">
            <path d="m193.08,218.24c11.61-14.03,37.64-8.42,41.98,13.55l2.65-.52c-2.81-25.87-34.2-31.72-44.63-13.02Z" fill="#fff9f1" stroke-width="0"/>
          </g>
          <path d="m237.64,224.42c-2.46-7.14-7.64-12.61-14.73-15.58-8.26-3.45-17.35-2.52-23.72,2.42-7.22,5.6-9.92,15.38-7.6,27.55.12.65.34,1.29,1.32,1.8" fill="none" stroke="#93866c" stroke-linecap="round" stroke-miterlimit="10" stroke-width="1.19"/>
          <path d="m164.28,310.53c7.4,42.56,43.58,53.1,84.71,45.95,41.13-7.15,71.64-29.28,64.24-71.84-7.4-42.56-46.73-71.26-87.86-64.11-41.13,7.15-68.48,47.44-61.08,90Z" fill="#fff9f1" stroke-width="0"/>
          <path d="m225.27,220.07c41.26-7.17,80.87,21.72,88.29,64.41,3.5,20.15-1.22,36.81-14.03,49.52-7.4,7.34-17.57,13.27-29.96,17.54-6.3,2.17-13.18,3.92-20.55,5.2-21.88,3.8-40.97,2.29-55.22-4.37m31.6-131.58c-3.9.68-7.67,1.66-11.3,2.91" fill="none" stroke="#93866c" stroke-linecap="round" stroke-linejoin="round" stroke-width="1.5"/>
          <g>
            <path d="m234.77,224.77c-7.45-22.23-28.19-10.5-15.79,1.68l15.79-1.68Z" fill="#fff9f1" stroke-width="0"/>
            <path d="m219.24,226.19c-3.36-3.3-4.55-6.88-3.26-9.84,1.04-2.39,3.57-3.85,6.46-3.73,5,.22,9.48,4.8,11.99,12.27" fill="none" stroke="#93866c" stroke-linecap="round" stroke-linejoin="round" stroke-width="1.5"/>
          </g>
          <g>
            <path d="m216.46,223.29c-12.32-8.05-18.91,8.08-2.78,8.6l2.78-8.6Z" fill="#fff9f1" stroke-width="0"/>
            <path d="m216.55,223.07c-4.11-2.69-8.06-3.15-10.76-1.1-1.72,1.31-2.43,3.4-1.81,5.33.94,2.93,4.56,4.78,9.69,4.95" fill="none" stroke="#93866c" stroke-linecap="round" stroke-linejoin="round" stroke-width="1.5"/>
          </g>
          <path d="m261.42,223.86c22.36-30.05,70.68.2,39.33,37.2-7.23-15.06-16.54-30.04-39.33-37.2Z" fill="#cac6b4" stroke-width="0"/>
          <g opacity=".55">
            <path d="m311.65,239c-3.23-20.09-31.49-29.43-48.11-10.73l-2.26-2.01c17.36-23.33,50.91-11.18,50.37,12.74Z" fill="#fff9f1" stroke-width="0"/>
          </g>
          <path d="m261.24,223.34c7.33-8.57,16.23-11.75,27-10.29,9.91,1.35,18.14,7.39,21.48,15.77,3.78,9.48.84,20.44-8.28,30.84-.49.55-1.64,1.77-3.53,1.22" fill="none" stroke="#93866c" stroke-linecap="round" stroke-linejoin="round" stroke-width="1.33"/>
          <path d="m194.94,278.87c-7.52-12.06-15.87-16.55-24.71-15.25-.7.71-6.35,14.1-7.16,30.16,3.22,4.19,8.14,10.21,10.15,16.08,1.04,3.05,3.9,5.11,7.12,5.22,16.23.54,25.5-18.48,14.6-36.2Z" fill="#cac6b4" stroke-width="0"/>
          <g opacity=".6">
            <path d="m173.37,298.73c.19-.39.36-.68.56-.99.19-.31.41-.59.63-.87.22-.29.47-.54.71-.81.25-.26.52-.49.79-.74,1.1-.94,2.39-1.69,3.79-2.19.69-.28,1.44-.42,2.17-.56.75-.07,1.49-.17,2.24-.09,1.49.05,2.92.51,4.18,1.18.68.36.93,1.21.57,1.89-.22.41-.61.66-1.03.72l-.25.03c-.31.04-.6.06-.89.08-.29.02-.57,0-.85.05-.28.03-.55.06-.82.07-.27,0-.53.09-.79.12-.53.05-1.03.2-1.54.29-.5.15-1,.26-1.49.45-.99.34-1.96.77-2.93,1.3l-.73.41c-.23.15-.49.28-.73.43l-.37.22c-.12.08-.23.16-.36.23-.24.14-.5.33-.7.43l-.34.17c-.67.34-1.5.07-1.84-.61-.2-.39-.18-.85,0-1.22Z" fill="#93866c" stroke-width="0"/>
          </g>
          <path d="m179.88,325.09c.21-.29.42-.58.6-.9.19-.32.34-.61.52-1.02.16-.38.16-.83-.06-1.21-.37-.66-1.2-.9-1.86-.53l-.33.18c-.2.11-.45.31-.68.46-.12.08-.23.16-.35.25l-.36.24c-.23.16-.48.31-.71.46l-.71.44c-.95.57-1.9,1.04-2.87,1.42-.48.21-.98.34-1.47.51-.5.11-1,.28-1.53.36-.26.04-.52.13-.79.15-.12.01-.24.03-.35.05.58,1.36,1.21,2.67,1.88,3.94.6-.01,1.2-.11,1.8-.19.72-.18,1.46-.35,2.14-.66,1.38-.56,2.64-1.37,3.7-2.35.26-.26.52-.5.76-.77.23-.28.47-.54.68-.84Z" fill="#93866c" opacity=".57" stroke-width="0"/>
          <g opacity=".1">
            <path d="m168.1,324.36c9.13,23.24,29.32,34.18,56.38,34.4,46.41.38,89.87-18.82,89.85-61.84,0-22.56-44.56,46.52-91.86,45.16-22.52-.65-41.07-5.83-54.37-17.72Z" fill="#93866c" stroke-width="0"/>
          </g>
        </g>
    </g>
  </g>
</svg>