<svg xmlns="http://www.w3.org/2000/svg" xmlns:xlink="http://www.w3.org/1999/xlink" viewBox="0 0 359.82 223.04">
  <defs>
    <linearGradient id="sale-linear-gradient" x1="62.21" y1="73.74" x2="115.21" y2="73.74" gradientUnits="userSpaceOnUse">
      <stop offset="0" stop-color="#edeadd"/>
      <stop offset="1" stop-color="#fff8f3"/>
    </linearGradient>
    <linearGradient id="New_Gradient_Swatch" data-name="New Gradient Swatch" x1="62.22" y1="77.62" x2="105.59" y2="77.62" gradientUnits="userSpaceOnUse">
      <stop offset=".08" stop-color="#e3e0d1"/>
      <stop offset=".92" stop-color="#f0ede0"/>
    </linearGradient>
    <linearGradient id="sale-linear-gradient-2" x1="155.85" y1="32.5" x2="216.47" y2="32.5" xlink:href="#sale-linear-gradient"/>
    <linearGradient id="New_Gradient_Swatch-2" data-name="New Gradient Swatch" x1="173.86" y1="32.66" x2="216.39" y2="32.66" xlink:href="#New_Gradient_Swatch"/>
  </defs>
  <g id="OBJECTS">
    <g id="RED_PANDA_EATING_BAMBOO" data-name="RED PANDA EATING BAMBOO">
      <g id="right_leg" data-name="right leg">
        <path d="m181.63,221.38h40.5s16.8,1.99,24.78-4.46,8.26-14.98,8.26-22.55c0-6.84-1.93-20.38-13.08-20.93-9.55-.47-12.53,9.69-12.53,9.69,0,0-10.19-23.32-30.84-7.9-20.65,15.42-17.1,46.14-17.1,46.14Z" fill="#cac6b4" stroke-width="0"/>
        <path d="m243.14,177.04c-9.55-.47-12.34,11.95-12.34,11.95,0,0-10.74-23.43-31.39-8.01-13.84,10.34-16.81,27.55-17.26,37.77-.35-7.38,0-30.98,17.26-43.87,20.65-15.42,30.84,7.9,30.84,7.9,0,0,2.98-10.16,12.53-9.69,11.15.55,13.08,14.09,13.08,20.93,0,1.29,0,2.61-.06,3.94-.4-7.18-2.59-20.41-12.66-20.91Z" fill="#f0ede0" stroke-width="0"/>
        <path d="m182.31,220.83h40.5s16.8,1.99,24.78-4.46c7.99-6.44,8.26-14.98,8.26-22.55,0-6.84-1.93-20.38-13.08-20.93-9.55-.47-12.53,9.69-12.53,9.69,0,0-10.19-23.32-30.84-7.9-20.65,15.42-17.1,46.14-17.1,46.14Z" fill="none" stroke="#93866c" stroke-linecap="round" stroke-miterlimit="10" stroke-width="1.5"/>
        <ellipse cx="245.57" cy="195.81" rx="9.6" ry="16.93" fill="#fff9f1" stroke-width="0"/>
        <g opacity=".2">
          <path d="m222.81,203.63s16.8,1.99,24.78-4.46c4.63-3.74,6.67-8.18,7.56-12.73.53,2.69.7,5.3.7,7.32,0,7.57-.28,16.11-8.26,22.55-7.99,6.44-24.78,4.46-24.78,4.46h-40.5s-.88-7.6.78-17.14h39.72Z" fill="#93866c" stroke-width="0"/>
        </g>
        <path d="m230.5,181.83s-.35,3.75,0,7.43" fill="none" stroke="#93866c" stroke-linecap="round" stroke-linejoin="round" stroke-width="1.5"/>
      </g>
      <g>
        <path d="m16.82,217.3c4.1,1.41,9.11,2.07,15.09,1.72.92-.05,1.87-.13,2.84-.24,2.43-.26,4.79-.49,7.09-.69,4.68-.41,9.1-.72,13.28-.95h0c3.62-.2,7.05-.33,10.35-.43,3.74-.11,7.28-.16,10.65-.19,11.3-.11,20.73.06,29.52-.55,13.17-.91,12.34-12.48-2.39-25.46-4.25-3.75-13.62-7.37-22.13-10.57-3.72-1.4-7.28-2.73-10.17-3.94-.36-.15-.72-.31-1.07-.45-5-2.13-9.52-4.2-13.72-5.96-5.49-2.3-10.43-4.08-15.2-4.78-1.47-.22-2.92-.34-4.36-.34-2.27,0-4.6.24-6.93.71-5.37,1.08-10.73,3.41-15.3,6.93-6.08,4.67-10.76,11.45-12.25,20.21-1.71,10.06,2.51,20.79,14.7,24.97Z" fill="#fff9f1" stroke-width="0"/>
        <g opacity=".3">
          <path d="m65.46,216.72c3.74-.11,7.28-.16,10.65-.19-6.04-16.03.59-29.85,5.01-36.58-3.72-1.4-7.28-2.73-10.17-3.94-.36-.15-.72-.31-1.07-.45-11.85,16.21-7.05,34.15-4.42,41.17Z" fill="#93866c" stroke-width="0"/>
        </g>
        <g opacity=".3">
          <path d="m41.84,218.1c4.68-.41,9.1-.72,13.28-.95-11.11-15.28-3.82-36.82,1.05-47.56-5.49-2.3-10.43-4.08-15.2-4.78-11.59,23.06-3.14,45.12.87,53.28Z" fill="#93866c" stroke-width="0"/>
        </g>
        <g opacity=".3">
          <path d="m16.82,217.3c4.1,1.41,9.11,2.07,15.09,1.72-14.42-21.63-5.62-46.17-2.23-53.84-5.37,1.08-10.73,3.41-15.3,6.93-6.17,20.22-1.69,36.17,2.45,45.19Z" fill="#93866c" stroke-width="0"/>
        </g>
        <g opacity=".6">
          <path d="m1.87,198.79c.06-.66.15-1.32.25-1.97,1.49-8.77,6.18-15.55,12.25-20.21,3.65-2.81,7.8-4.86,12.05-6.12-.01.06-.02.13-.02.2,0,2.02,4.3,3.66,9.61,3.66s9.61-1.63,9.61-3.66c0-.14-.02-.28-.06-.41,3.36.91,6.85,2.23,10.6,3.8,4.2,1.76,8.72,3.83,13.72,5.96.36.15.71.31,1.07.46,2.89,1.22,6.44,2.54,10.16,3.94,8.51,3.21,17.88,6.83,22.13,10.57,6.53,5.76,10.31,11.23,11.38,15.62,1.46-4.76-2.33-12.2-11.38-20.17-4.25-3.74-13.62-7.37-22.13-10.57-3.72-1.4-7.28-2.72-10.16-3.94-.36-.15-.72-.31-1.07-.46-5-2.13-9.52-4.19-13.72-5.96-5.49-2.3-10.43-4.08-15.2-4.78-1.47-.22-2.91-.34-4.36-.34-2.27,0-4.6.24-6.93.71-5.37,1.08-10.73,3.41-15.31,6.93-6.07,4.67-10.77,11.44-12.25,20.21-.37,2.17-.46,4.37-.25,6.53Z" fill="#fff9f1" stroke-width="0"/>
        </g>
        <g opacity=".2">
          <path d="m2.12,191.96c.19-1.1.43-2.17.71-3.21,1.89,5.97,6.39,11.15,14.02,13.76,4.1,1.41,9.11,2.07,15.09,1.72.92-.05,1.87-.13,2.84-.24,2.43-.26,4.79-.49,7.09-.69,4.68-.41,9.1-.72,13.28-.95h0c3.62-.2,7.05-.33,10.35-.43,3.74-.11,7.28-.16,10.65-.19,11.3-.11,20.73.06,29.52-.55,2.54-.18,4.56-.75,6.06-1.66,5.78,8.75,3.77,15.4-6.09,16.08-8.79.61-18.22.44-29.52.55-3.37.03-6.91.08-10.65.19-3.29.09-6.73.23-10.35.43h0c-4.18.22-8.59.53-13.28.95-2.3.2-4.66.43-7.09.69-.97.1-1.92.18-2.84.24-5.98.35-10.99-.31-15.09-1.72-12.19-4.18-16.41-14.91-14.7-24.97Z" fill="#93866c" stroke-width="0"/>
        </g>
        <path d="m15.81,217.3c4.1,1.41,9.11,2.07,15.09,1.72.92-.05,1.87-.13,2.84-.24,2.43-.26,4.79-.49,7.09-.69,4.68-.41,9.1-.72,13.28-.95h0c3.62-.2,7.05-.33,10.35-.43,3.74-.11,7.28-.16,10.65-.19,11.3-.11,20.73.06,29.52-.55,13.17-.91,12.34-12.48-2.39-25.46-4.25-3.75-13.62-7.37-22.13-10.57-3.72-1.4-7.28-2.73-10.17-3.94-.36-.15-.72-.31-1.07-.45-5-2.13-9.52-4.2-13.72-5.96-5.49-2.3-10.43-4.08-15.2-4.78-1.47-.22-2.92-.34-4.36-.34-2.27,0-4.6.24-6.93.71-5.37,1.08-10.73,3.41-15.3,6.93-6.08,4.67-10.76,11.45-12.25,20.21-1.71,10.06,2.51,20.79,14.7,24.97Z" fill="none" stroke="#93866c" stroke-linecap="round" stroke-miterlimit="10" stroke-width="1.5"/>
      </g>
      <g id="right_hand" data-name="right hand">
        <g opacity=".3">
          <path d="m178.46,153.16c3.71,12.46,19.63,19.24,41.92,9.17,11.32-5.11,18.03-12.9,21.26-20.1,3.14-6.98,3-13.4.6-16.29-8.57-10.34-21.95,8.65-30.3,10.59-.35.08-.68.15-1.02.2-7.32,1.17-11.94-3.87-20.36-2.22-6.62,1.29-15.22,8.18-12.1,18.66Z" fill="#93866c" stroke-width="0"/>
        </g>
        <g opacity=".6">
          <path d="m242.24,131.11c-8.57-10.34-21.95,8.65-30.3,10.59-.35.08-.68.15-1.02.2-7.32,1.17-11.94-3.87-20.36-2.22-5.22,1.02-11.68,5.53-12.64,12.54-1.17-9.06,6.56-14.96,12.64-16.14,8.42-1.65,13.04,3.39,20.36,2.22.33-.05.67-.12,1.02-.2,8.34-1.94,21.73-20.93,30.3-10.59,1.4,1.69,2.03,4.6,1.68,8.11-.22-1.88-.79-3.43-1.68-4.5Z" fill="#fff9f1" stroke-width="0"/>
        </g>
        <g opacity=".2">
          <path d="m178.46,153.16c3.71,12.46,19.63,19.24,41.92,9.17,11.32-5.11,18.03-12.9,21.26-20.1-14.43,4.79-24.86-.66-30.72-5.51-7.32,1.17-11.94-3.87-20.36-2.22-6.62,1.29-15.22,8.18-12.1,18.66Z" fill="#93866c" stroke-width="0"/>
        </g>
      </g>
      <g>
        <path d="m88.69,212.54c8.83,10.26,54.82,10.46,77.05,9.93h0c7.31-.17,12.06-.43,12.06-.43,0,0,27.32-3.13,37.45-22.78,2.3-4.47,3.72-9.79,3.72-16.13,0-18.4-7.53-34.49-14.5-45.43-5.97-9.39-11.53-14.98-11.53-14.98-9.09-8.48-36.09-21.8-63.63-9-19.71,9.16-19.77,22.95-23.07,34.65-1.31,4.65-3.14,8.97-6.92,12.54-14.87,14.04-22.37,38-10.63,51.63Z" fill="#fff9f1" stroke-width="0"/>
        <path d="m165.74,222.47h0c7.31-.17,12.06-.43,12.06-.43,0,0,27.32-3.13,37.45-22.78.74-18.48-10.78-33.38-25.92-33.38-15.29,0-28.49,15.19-29.48,33.93-.46,8.71,1.8,16.65,5.88,22.66Z" fill="#fff9f1" stroke-width="0"/>
        <g opacity=".2">
          <path d="m106.24,148.37c47.08,12.53,80.55-.2,98.23-10.67-5.97-9.39-11.53-14.98-11.53-14.98-9.09-8.48-36.09-21.8-63.63-9-19.71,9.16-19.77,22.95-23.07,34.65Z" fill="#93866c" stroke-width="0"/>
        </g>
        <g opacity=".2">
          <path d="m93.54,166.79c-4.46,10.43-4.75,21.76,1.84,29.41,10.35,12.02,78.58,8.38,78.58,8.38,0,0,36.3-4.16,36.3-34.31,0-20.26-10.36-37.34-17.15-46.37,4.42,4.8,25.2,28.98,25.2,59.54,0,34.2-41.16,38.91-41.16,38.91,0,0-77.38,4.13-89.12-9.5-10.3-11.96-5.78-31.88,5.53-46.06Z" fill="#93866c" stroke-width="0"/>
        </g>
        <path d="m108.59,138.5c-.84,3.24-1.48,6.46-2.35,9.54-1.31,4.65-3.14,8.97-6.92,12.54-14.87,14.04-22.37,38-10.63,51.63,8.83,10.26,54.82,10.46,77.05,9.93h0c7.31-.17,12.06-.43,12.06-.43,0,0,27.32-3.13,37.45-22.78,2.3-4.47,3.72-9.79,3.72-16.13,0-18.4-7.53-34.49-14.5-45.43-1.65-2.6-3.27-4.9-4.75-6.88" fill="none" stroke="#93866c" stroke-linecap="round" stroke-miterlimit="10" stroke-width="1.5"/>
      </g>
      <g id="left_ear" data-name="left ear">
        <path d="m76.86,81.01c7.16,9.95,14.84,19.16,17.72,22.56.75.89,1.17,1.38,1.17,1.38,0,0,16.89-27.86,19.19-52.7.3-3.25.36-6.45.09-9.52,0,0-10.6-.47-22.3.1-12.64.61-26.57,2.44-29.84,7.39-.31.47-.51,1.02-.61,1.66-.07.44-.09.92-.06,1.42.29,6.19,7.18,17.35,14.64,27.72Z" fill="url(#sale-linear-gradient)" stroke-width="0"/>
        <path d="m62.28,51.87c7.89-2.87,28.39-8.39,52.66.38.3-3.25.36-6.45.09-9.52,0,0-45.84-2.04-52.14,7.48-.31.47-.51,1.02-.61,1.66Z" fill="#fff9f1" stroke-width="0"/>
        <path d="m76.86,81.01c7.16,9.95,14.84,19.16,17.72,22.56,1.31-3.19,3.64-9.17,5.83-16.05,3.26-10.29,6.19-22.6,4.84-30.72,0,0-9.18-2.75-19.74-4.22-4.52-.63-9.3-1.02-13.73-.87-3.52.13-6.8.6-9.56,1.59.29,6.19,7.18,17.35,14.64,27.72Z" fill="url(#New_Gradient_Swatch)" stroke-width="0"/>
        <path d="m100.41,87.51c3.26-10.28,6.19-22.6,4.84-30.72,0,0-18.71-5.62-33.47-5.09,2.43,6.23,10.03,22.05,28.63,35.81Z" fill="#cac6b4" stroke-width="0"/>
        <g opacity=".1">
          <path d="m76.86,80.69c7.16,9.95,14.84,19.16,17.72,22.56.75.89,1.17,1.38,1.17,1.38,0,0,16.89-27.86,19.19-52.7.3-3.25.36-6.45.09-9.52,0,0-10.6-.47-22.3.1-.36,3.07-1.89,7.31-7.22,9.75-.5.23-1.03.44-1.61.64,0,0,5.72,16.32-7.04,27.8Z" fill="#93866c" stroke-width="0"/>
        </g>
        <path d="m70.4,81.01c7.16,9.95,14.84,19.16,17.72,22.56.75.89,1.17,1.38,1.17,1.38,0,0,16.89-27.86,19.19-52.7.3-3.25,2.95-6.45,2.69-9.52,0,0-13.2-.47-24.9.1-12.64.61-26.57,2.44-29.84,7.39-.31.47-.51,1.02-.61,1.66-.07.44-.09.92-.06,1.42.29,6.19,7.18,17.35,14.64,27.72Z" fill="none" stroke="#93866c" stroke-linecap="round" stroke-miterlimit="10" stroke-width="1.5"/>
      </g>
      <g id="right_ear" data-name="right ear">
        <path d="m214.02,33.63c1.57,12.27,2.19,24.33,2.38,28.8.05,1.17.07,1.82.07,1.82,0,0-33.69-10.27-53.61-27.75-2.61-2.28-4.98-4.69-7.01-7.22,0,0,8.06-7.27,17.76-14.48,10.47-7.78,22.85-15.47,29.05-13.82.59.15,1.15.45,1.69.87.37.29.74.64,1.09,1.04,4.28,4.92,6.94,17.94,8.58,30.73Z" fill="url(#sale-linear-gradient-2)" stroke-width="0"/>
        <path d="m204.36,1.85c-8.35,2.95-28.63,12.11-41.5,34.65-2.61-2.28-4.98-4.69-7.01-7.22,0,0,34.88-31.47,46.81-28.3.59.15,1.15.45,1.69.87Z" fill="#fff9f1" stroke-width="0"/>
        <path d="m214.02,33.63c1.57,12.27,2.19,24.33,2.38,28.8-3.36-1.59-9.57-4.63-16.32-8.46-10.08-5.73-21.37-13.23-26.22-20.32,0,0,5.27-8.09,12.59-16.11,3.13-3.43,6.63-6.85,10.26-9.62,2.88-2.2,5.84-3.98,8.74-5.03,4.28,4.92,6.94,17.94,8.58,30.73Z" fill="url(#New_Gradient_Swatch-2)" stroke-width="0"/>
        <path d="m215.23,33.63c1.57,12.27,2.19,24.33,2.38,28.8.05,1.17.07,1.82.07,1.82,0,0-33.69-10.27-53.61-27.75-2.61-2.28-4.98-4.69-7.01-7.22,0,0,8.06-7.27,17.76-14.48,10.47-7.78,22.85-15.47,29.05-13.82.59.15,1.15.45,1.69.87.37.29.74.64,1.09,1.04,4.28,4.92,6.94,17.94,8.58,30.73Z" fill="none" stroke="#93866c" stroke-linecap="round" stroke-miterlimit="10" stroke-width="1.5"/>
        <path d="m200.08,53.96c-10.08-5.73-21.37-13.23-26.22-20.32,0,0,10.75-16.5,22.85-25.73,2.61,6.34,8.1,23.39,3.37,46.04Z" fill="#cac6b4" stroke-width="0"/>
        <g opacity=".1">
          <path d="m214.02,33.63c1.57,12.27,2.19,24.33,2.38,28.8.05,1.17.07,1.82.07,1.82,0,0-33.69-10.27-53.61-27.75-2.61-2.28-4.98-4.69-7.01-7.22,0,0,8.06-7.27,17.76-14.48,2.52,2.11,6.82,4.35,12.83,2.74.57-.15,1.14-.34,1.74-.56,0,0,7.35,16.2,25.83,16.65Z" fill="#93866c" stroke-width="0"/>
        </g>
      </g>
      <g id="head">
        <path d="m90.82,124.15c3.77,7,11.76,12.47,22.09,16.05,17.47,6.05,41.64,6.72,63.45.31,5.96-1.75,11.74-4.03,17.16-6.87.47-.24.93-.49,1.39-.74,26.14-14.33,35.66-32.54,37.71-47.16,1.41-10.08-.73-18.46-3.42-22.69-6.61-10.35-18.71-14.07-30.99-20.98-8.04-4.52-15.74-9.59-24.21-13.31-5.47-2.4-11.16-4.26-17.07-5.21-3.14-.51-6.03-.45-9.26-.13-3.29.33-6.54.62-9.72,1.51-1.21.34-2.41.69-3.6,1.07-5.94,1.9-11.47,4.38-16.26,8.42-4.51,3.81-8.32,8.39-11.57,13.31-6.78,10.26-7.12,22.65-11.36,32.01-11.96,26.39-9.16,35.45-4.34,44.4Z" fill="#fff9f1" stroke-width="0"/>
        <g>
          <path d="m201.62,47.19c-10.55-5.74-41.17-20.71-59.1-22.75,1.64-2.22,11.81-.72,16.13-1.88.08-.02-.11-.12-.17-.18,16.48,2.79,30.77,12.87,40.6,18.4,12.28,6.91,24.38,10.63,30.99,20.98.77,1.21,1.5,2.78,2.11,4.62-6.95-9.11-18.68-12.72-30.56-19.19Z" fill="#fff9f1" stroke-width="0"/>
          <path d="m87.77,111.56c.68-6.34,3.15-14.55,8.46-26.04,4.34-9.39,4.69-21.78,11.62-32.08,1.22-1.82,2.49-3.55,3.82-5.19,1.81.76,4.92-.27,7.59-2.65,2.92-2.61,4.29-5.94,3.29-7.76-.15-.28,6.97-6.1,7.51-6.57,1.07-.92,2.15-1.84,3.03-2.95.27-.34.51-.9.16-1.17-.16-.12-.39-.12-.59-.1-5.11.36-10.22,3.63-14.12,6.81-4.36,3.55-8.04,7.91-11.13,12.59-6.78,10.26-7.12,22.65-11.36,32.01-7.38,16.28-9.14,25.97-8.27,33.1Z" fill="#fff9f1" stroke-width="0"/>
        </g>
        <path id="red-panda_mouth-2" d="m101.76,126.53c.41,4.65,4.25,10.83,11.15,13.67h0c17.47,6.06,41.64,6.72,63.45.31,2.13-.72,4.28-1.5,6.43-2.32,3.71-1.43,7.29-2.95,10.73-4.55.47-.24.93-.49,1.39-.74,26.14-14.33,35.66-32.54,37.71-47.16-5.76-14.46-44.73-3.51-71.93,4.64-9.97,1.84-25.33,5.51-38.89,12.29-22.41,11.21-20.41,19.63-20.03,23.85Z" fill="#f0ede0" stroke-width="0"/>
        <g opacity=".3">
          <path id="red-panda_mouth-1" d="m128.93,123.53c4.61,15.44,29.53,23.72,53.52,14.78,24-8.93,37.58-31.62,32.55-45.14-5.03-13.52-26.78-12.75-50.78-3.82-24,8.93-40.87,15.52-35.3,34.18Z" fill="#93866c" stroke-width="0"/>
        </g>
        <g opacity=".2">
          <path d="m90.41,104.33c3.62,6.72,11.29,11.97,21.21,15.41h0c16.77,5.81,39.98,6.45,60.92.3,5.72-1.68,11.27-3.87,16.47-6.6.45-.23.89-.47,1.33-.71,25.1-13.76,34.24-31.24,36.2-45.28.39-2.81.49-5.48.38-7.95.81.95,1.56,1.96,2.26,3.05,2.7,4.23,4.84,12.61,3.42,22.69-2.04,14.62-11.57,32.83-37.71,47.16-.46.25-.92.5-1.39.74-5.42,2.85-11.2,5.12-17.16,6.87-21.81,6.41-45.98,5.74-63.45-.31h0c-10.33-3.59-18.32-9.05-22.09-16.05-3.35-6.22-5.72-12.5-2.85-24.6.67,1.85,1.51,3.57,2.44,5.28Z" fill="#93866c" stroke-width="0"/>
        </g>
        <ellipse cx="135.92" cy="69.87" rx="6.68" ry="3.4" transform="translate(-10.33 25.53) rotate(-10.34)" fill="#fff9f1" stroke-width="0"/>
        <ellipse cx="181.22" cy="53.18" rx="6.68" ry="3.4" transform="translate(-4.32 88.46) rotate(-27.12)" fill="#fff9f1" stroke-width="0"/>
        <path d="m91.67,123.8c3.77,7,11.76,12.47,22.09,16.05,17.47,6.05,41.64,6.72,63.45.31,5.96-1.75,11.74-4.03,17.16-6.87.47-.24.93-.49,1.39-.74,26.14-14.33,35.66-32.54,37.71-47.16,1.41-10.08-.73-18.46-3.42-22.69-6.61-10.35-18.71-14.07-30.99-20.98-5.65-3.18-11.1-6.69-16.84-9.72-5.18-2.74-10.55-5.16-16.16-6.87-4.02-1.23-8.27-2.01-12.45-2.22-3.28-.16-6.56.06-9.81.52-6.76.94-14.86,4.35-17.41,5.7-2.65,1.4-5.18,3.05-7.47,4.99-4.5,3.81-8.3,8.37-11.54,13.28-6.78,10.26-7.12,22.65-11.36,32.01-11.96,26.39-9.16,35.45-4.34,44.4Z" fill="none" stroke="#93866c" stroke-linecap="round" stroke-miterlimit="10" stroke-width="1.5"/>
        <g opacity=".6">
          <path d="m134.34,83.78c.14-.4.26-.7.42-1.02.15-.32.33-.62.51-.92.18-.3.39-.58.59-.86.21-.28.45-.54.67-.81.95-1.03,2.11-1.91,3.4-2.56.63-.35,1.34-.57,2.02-.8.71-.15,1.42-.34,2.15-.35,1.44-.13,2.88.15,4.17.65.7.27,1.04,1.06.77,1.75-.16.42-.51.71-.91.82l-.23.06c-.29.08-.57.13-.85.18-.27.05-.55.06-.81.15-.26.06-.52.12-.78.17-.26.04-.5.15-.75.2-.5.11-.97.32-1.45.46-.46.21-.94.37-1.39.61-.91.44-1.8.97-2.67,1.6l-.65.48c-.21.17-.44.33-.65.5l-.33.26c-.11.09-.21.18-.32.27-.21.17-.44.38-.62.5l-.31.2c-.61.41-1.44.24-1.84-.37-.24-.36-.28-.79-.15-1.17Z" fill="#93866c" stroke-width="0"/>
        </g>
        <g opacity=".6">
          <path d="m192.41,66.08c-.22.02-.53,0-.8-.01-.14,0-.28,0-.42-.01h-.42c-.27-.01-.55,0-.82,0l-.81.02c-1.07.04-2.1.16-3.09.37-.5.08-.98.25-1.47.37-.47.18-.97.3-1.43.52-.23.11-.49.17-.72.3-.23.12-.47.23-.72.34-.26.09-.48.25-.73.38-.25.13-.5.26-.78.38l-.21.09c-.69.29-1.48-.03-1.78-.72-.17-.41-.12-.87.09-1.23.72-1.19,1.68-2.28,2.9-3.06.58-.44,1.25-.72,1.91-1.04.68-.24,1.37-.49,2.09-.6,1.42-.28,2.87-.29,4.26-.06.34.07.69.14,1.03.23.34.1.67.19,1,.32.32.13.65.25.96.41.32.16.6.32.96.55.61.4.79,1.22.39,1.84-.23.36-.61.57-1.01.6l-.37.03Z" fill="#93866c" stroke-width="0"/>
        </g>
      </g>
      <g id="red-panda_right-hair">
        <g>
          <path id="red-panda_right-hair-4" d="m154.75,23.95c1.38-1.74,2.99-4.7,1.43-6.78-3.1-4.13-15.08,4.64-15.08,4.64,0,0,1.2-10.03-1.86-10.83-3.05-.8-6.2,3.95-7.64,5.92-1.39,1.91-2.65,3.91-3.85,5.94-.57.97-1.22,1.94-1.69,2.96-.39.83-1.14,2.42-.75,3.33.19.44.63.72,1.07.92,1.26.56,2.67.67,4.05.66,2.47-.02,4.93-.38,7.37-.78,3.34-.54,6.65-1.22,9.97-1.82,2.81-.51,5.16-1.89,6.97-4.16Z" fill="#fff9f1" stroke-width="0"/>
        </g>
        <g>
          <path id="red-panda_right-hair-3" d="m140.24,28.2s1.53-4.39.97-7.59c3.13-2.1,13.35-8.05,15.84-4.73,1.15,1.53.64,3.56-.7,5.6-4.68-.3-16.12,6.72-16.12,6.72Z" fill="#fff9f1" stroke-width="0"/>
        </g>
        <g>
          <path id="red-panda_right-hair-2" d="m142.21,17.05c-.24-.29-.53-.49-.88-.58h-.01c-2.6-.64-5.23,2.74-6.61,4.43-1.27,1.57-2.43,3.23-3.52,4.92-1.06,1.63-1.85,3.48-3.38,4.69-.49-.1-.97-.25-1.43-.45-.44-.2-.88-.48-1.07-.92-.21-.49-.08-1.19.15-1.85.08-.17.17-.34.26-.51,1.55-2.92,3.17-5.82,4.98-8.59.03-.04.06-.08.08-.12.62-.93,1.25-1.85,1.92-2.75,1.43-1.92,4.47-6.41,7.43-5.63,1.86.49,2.14,4.38,2.08,7.36Z" fill="#fff9f1" stroke-width="0"/>
        </g>
        <g>
          <path id="red-panda_right-hair-1" d="m153.23,24.84c1.55-.79,2.89-1.67,3.61-3.25s1.32-3.26.19-4.77c-3.1-4.13-15.08,4.64-15.08,4.64,0,0,1.2-10.03-1.86-10.83-4.65-1.22-12.63,13.53-15.58,19.36" fill="none" stroke="#93866c" stroke-linecap="round" stroke-miterlimit="10" stroke-width="1.5"/>
          <path id="red-panda_right-hair-5" d="m142.08,20.05s-.39,2.87-1.66,5.3" fill="none" stroke="#93866c" stroke-linecap="round" stroke-miterlimit="10" stroke-width="1.5"/>
        </g>
      </g>
      <g id="red-panda_left-hair" opacity="0">
        <g>
          <path id="red-panda_left-hair-4" d="m124.67,31.48c-1.98-1-4.67-3.03-4.11-5.57,1.11-5.04,15.64-2.03,15.64-2.03,0,0-5.25-8.63-2.8-10.63,2.44-1.99,7.28,1.02,9.41,2.22,2.06,1.16,4.03,2.45,5.97,3.8.92.64,1.91,1.26,2.77,2,.7.59,2.04,1.73,2.07,2.71.01.48-.27.92-.59,1.28-.91,1.04-2.15,1.72-3.41,2.28-2.26,1.01-4.65,1.7-7.03,2.35-3.26.89-6.55,1.65-9.83,2.48-2.77.7-5.48.42-8.07-.89Z" fill="#fff9f1" stroke-width="0"/>
        </g>
        <g>
          <path id="red-panda_left-hair-3" d="m139.64,29.33s-3.21-3.36-4.04-6.5c-3.72-.61-15.49-1.79-16.38,2.27-.41,1.87.89,3.51,2.96,4.81,4.13-2.21,17.46-.58,17.46-.58Z" fill="#fff9f1" stroke-width="0"/>
        </g>
        <g>
          <path id="red-panda_left-hair-2" d="m133.23,20c.1-.36.28-.67.56-.89h0c2.1-1.67,5.9.32,7.85,1.28,1.81.9,3.55,1.93,5.24,3.02,1.64,1.04,3.13,2.4,5.02,2.86.4-.29.78-.63,1.11-1,.32-.36.6-.8.59-1.28-.01-.53-.42-1.12-.9-1.62-.14-.12-.3-.24-.45-.36-2.62-2.01-5.3-3.98-8.09-5.75-.04-.02-.09-.05-.12-.08-.95-.59-1.9-1.16-2.89-1.71-2.1-1.15-6.73-3.98-9.1-2.04-1.49,1.22-.13,4.87,1.16,7.56Z" fill="#fff9f1" stroke-width="0"/>
        </g>
        <g>
          <path id="red-panda_left-hair-1" d="m126.43,31.66c-1.74-.08-3.32-.32-4.64-1.46s-2.56-2.41-2.15-4.26c1.11-5.04,15.64-2.03,15.64-2.03,0,0-5.25-8.63-2.8-10.63,3.72-3.04,17.1,7.07,22.21,11.15" fill="none" stroke="#93866c" stroke-linecap="round" stroke-miterlimit="10" stroke-width="1.5"/>
          <path id="red-panda_left-hair-5" d="m134.58,22.68s1.55,2.45,3.71,4.13" fill="none" stroke="#93866c" stroke-linecap="round" stroke-miterlimit="10" stroke-width="1.5"/>
        </g>
      </g>
      <g id="mouth">
        <path id="red-panda_mouth-part" d="m147.51,109.04c3.09,11.06,18.14,16.53,33.62,12.21,15.48-4.32,24.02-17.97,20.93-29.03-3.09-11.06-16.63-15.34-32.11-11.02-15.48,4.32-25.53,16.79-22.44,27.85Z" fill="#fffffb" stroke-width="0"/>
        <ellipse id="red-panda_mouth-line-4" cx="174.82" cy="96.22" rx="18.31" ry="9.43" transform="translate(-22.75 68.15) rotate(-20.74)" fill="#f0ede0" stroke-width="0"/>
        <path id="red-panda_mouth-line-1" d="m159.62,106.02c3.78,2.23,10.76,2.17,17.91-.54,7.85-2.97,13.44-8.21,14.05-12.68" fill="none" stroke="#93866c" stroke-linecap="round" stroke-linejoin="round" stroke-width="1.38"/>
        <path id="red-panda_mouth-line-2" d="m151.78,99.55c2.57-.29,5.26,1.09,6.63,3.65,1.77,3.3.7,7.31-2.38,8.96" fill="none" stroke="#93866c" stroke-linecap="round" stroke-linejoin="round" stroke-width="1.5"/>
        <circle cx="173.91" cy="94.28" r="6.31" fill="#93866c" stroke-width="0"/>
        <line id="red-panda_mouth-line-3" x1="175.64" y1="97.76" x2="178.63" y2="104.42" fill="none" stroke="#93866c" stroke-linecap="round" stroke-miterlimit="10" stroke-width="1.5"/>
      </g>
      <g>
        <g>
          <path d="m154.78,175.74l1.16,2.74,3.8,9.03,98.71-72.72c1.34-.98,1.54-2.9.45-4.15l-2.75-3.13-1.2-1.37-100.16,69.6Z" fill="#f0ede0" stroke-width="0"/>
          <polyline points="154.78 175.74 155.94 178.48 256.14 107.51 254.95 106.14 207.63 139.02" fill="#fff9f1" stroke-width="0"/>
          <path d="m157.48,182.49l2.11,5.02,98.29-72.42c1.56-1.15,1.8-3.39.52-4.85l-1.13-1.29-99.8,73.53Z" fill="#cac6b4" stroke-width="0"/>
          <path d="m258.52,110.71l-2.75-3.13h0c-.68-.78-1.84-.92-2.69-.33l-98.67,68.56,1.16,2.74,1.65,3.92-.11.08,2.11,5.02.11-.08.03.08,98.71-72.72c1.34-.98,1.54-2.9.45-4.15Z" fill="none" stroke="#93866c" stroke-linecap="round" stroke-linejoin="round" stroke-width="1.5"/>
        </g>
        <g>
          <path d="m179.98,168.54c.37.84.7,1.79.95,2.85" fill="none" stroke="#93866c" stroke-linecap="round" stroke-miterlimit="10" stroke-width="1.5"/>
          <path d="m174.3,162.26s2.35.97,4.37,3.91" fill="none" stroke="#93866c" stroke-linecap="round" stroke-miterlimit="10" stroke-width="1.5"/>
          <path d="m177.78,159.66s4.88,1.52,6.59,8.63" fill="none" stroke="#93866c" stroke-linecap="round" stroke-miterlimit="10" stroke-width="1.5"/>
          <path d="m212.39,144.53c.4.89.76,1.89,1.03,3.02" fill="none" stroke="#93866c" stroke-linecap="round" stroke-miterlimit="10" stroke-width="1.5"/>
          <path d="m208.11,139.2c.69.49,1.57,1.23,2.43,2.3" fill="none" stroke="#93866c" stroke-linecap="round" stroke-miterlimit="10" stroke-width="1.5"/>
          <path d="m214,138.56c1.12,1.31,2.21,3.2,2.86,5.88" fill="none" stroke="#93866c" stroke-linecap="round" stroke-miterlimit="10" stroke-width="1.5"/>
          <path d="m240.65,116.08s2.88.26,4.78,4.78" fill="none" stroke="#93866c" stroke-linecap="round" stroke-miterlimit="10" stroke-width="1.5"/>
          <path d="m244.33,113.33s3.95.34,5.65,7.44" fill="none" stroke="#93866c" stroke-linecap="round" stroke-miterlimit="10" stroke-width="1.5"/>
        </g>
      </g>
      <g id="left_hand" data-name="left hand">
        <path d="m171.96,170.34c-.04,7.64-16.6,20.45-40.14,13.84-23.54-6.61-31.39-22.03-26.22-33.96,4.34-10.03,15.36-9.78,21.27-6.51,7.85,4.34,7.83,11.61,15.08,15.28,7.64,3.87,30.1-2.07,30.02,11.36Z" fill="#e8e5d6" stroke-width="0"/>
        <g opacity=".6">
          <path d="m170.56,174.26c.08-13.42-22.38-7.49-30.02-11.36-7.25-3.67-7.23-10.95-15.08-15.28-5.84-3.23-16.7-3.5-21.13,6.23.25-1.02.57-2.02,1-3,4.34-10.03,15.36-9.78,21.27-6.51,7.85,4.34,7.83,11.61,15.08,15.28,7.64,3.87,30.1-2.07,30.02,11.36,0,1.18-.41,2.48-1.16,3.81.02-.18.03-.35.03-.52Z" fill="#fff9f1" stroke-width="0"/>
        </g>
        <path d="m105.59,150.18c.27-.62.57-1.21.89-1.76-.17,10.42,8.59,21.62,27.74,26.99,17.9,5.02,31.76-1.17,37.39-7.79.23.8.35,1.69.34,2.69-.04,7.64-16.6,20.45-40.14,13.84-23.54-6.61-31.39-22.03-26.22-33.96Z" fill="#cac6b4" stroke-width="0"/>
        <path d="m171.7,171.11c-.04,7.64-16.6,20.45-40.14,13.84-23.54-6.61-31.39-22.03-26.22-33.96,4.34-10.03,15.36-9.78,21.27-6.51,7.85,4.34,7.83,11.61,15.08,15.28,7.64,3.87,30.1-2.07,30.02,11.36Z" fill="none" stroke="#93866c" stroke-linecap="round" stroke-miterlimit="10" stroke-width="1.5"/>
      </g>
      <g id="left_leg" data-name="left leg">
        <path d="m90.06,213.83c7.96,6.26,36.77,7.54,36.77,7.54,0,0,16.8,1.99,24.78-4.46s8.26-14.98,8.26-22.55c0-6.84-1.93-20.38-13.08-20.93-9.55-.47-12.53,9.69-12.53,9.69,0,0-18.79-15.83-35.91-6.11-16.32,9.27-17.26,29.77-8.3,36.81Z" fill="#cac6b4" stroke-width="0"/>
        <ellipse cx="150.27" cy="195.81" rx="9.6" ry="16.93" fill="#fff9f1" stroke-width="0"/>
        <g opacity=".2">
          <path d="m86.01,191.46c.84,3.51,2.56,6.52,5.06,8.47,7.96,6.26,36.77,7.54,36.77,7.54,0,0,16.8,1.99,24.78-4.46,4.06-3.27,6.12-7.09,7.17-11.04.05.87.08,1.69.08,2.43,0,7.57-.28,16.11-8.26,22.55-7.99,6.44-24.78,4.46-24.78,4.46,0,0-28.81-1.29-36.77-7.54-5.49-4.31-7.25-13.68-4.05-22.42Z" fill="#93866c" stroke-width="0"/>
        </g>
        <path d="m148.26,176.58c-9.83-.47-15.17,10.66-15.17,10.66,0,0-16.71-15.5-34.33-5.78-8.97,4.95-13.42,13.1-14.22,20.7-.95-8.77,3.14-19.64,13.81-25.7,17.11-9.72,35.91,6.11,35.91,6.11,0,0,2.98-10.16,12.53-9.69,6.81.34,10.17,5.51,11.77,11.05-2.03-3.32-5.51-7.12-10.29-7.34Z" fill="#f0ede0" stroke-width="0"/>
        <path d="m90.06,213.83c7.96,6.26,36.77,7.54,36.77,7.54,0,0,16.8,1.99,24.78-4.46,7.99-6.44,8.26-14.98,8.26-22.55,0-6.84-1.93-20.38-13.08-20.93-9.55-.47-12.53,9.69-12.53,9.69,0,0-18.79-15.83-35.91-6.11-16.32,9.27-17.26,29.77-8.3,36.81Z" fill="none" stroke="#93866c" stroke-linecap="round" stroke-miterlimit="10" stroke-width="1.5"/>
        <path d="m134.26,183.13s-1.63,5.24-1.48,8.33" fill="none" stroke="#93866c" stroke-linecap="round" stroke-miterlimit="10" stroke-width="1.5"/>
      </g>
      <!-- <path id="red-panda_leaf-2" d="m204.86,113.87c-14.96-12.36-24.36-9.53-24.36-9.53,1.38,1.05,2.7,1.98,3.97,2.82-3.13-1.75-5.7-2.1-5.7-2.1-1.96.73-4.3,1.75-4.3,1.75-9.27,18.21,1.9,26.56,1.9,26.56,4.25-7.1,4.79-12.77,3.91-17.02,4.09,14.06,15.08,15.87,15.08,15.87.9-13.64-2.64-19.33-7.44-22.74,11.96,7.31,16.94,4.39,16.94,4.39Z" fill="#a6e00c" fill-rule="evenodd" stroke="#93866c" stroke-linecap="round" stroke-linejoin="round"/> -->
      <path id="red-panda_leaf" d="m204.92,114.24c-14.96-12.36-24.36-9.53-24.36-9.53,1.38,1.05,2.7,1.98,3.97,2.82-3.13-1.75-5.7-2.1-5.7-2.1-1.96.73-4.3,1.75-4.3,1.75-9.27,18.21,1.9,26.56,1.9,26.56,4.25-7.1,4.79-12.77,3.91-17.02,4.09,14.06,15.08,15.87,15.08,15.87.9-13.64-2.64-19.33-7.44-22.74,11.96,7.31,16.94,4.39,16.94,4.39Z" fill="#a6e00c" fill-rule="evenodd" stroke="#93866c" stroke-linecap="round" stroke-linejoin="round"/>
      <g>
        <path d="m239.64,110.54s.97-18.91-24.36-21.97c0,0-.38,17.12,24.36,21.97h0Z" fill="#a6e00c" fill-rule="evenodd" stroke="#93866c" stroke-linecap="round" stroke-linejoin="round"/>
        <path d="m240.78,86.04s-7.41,4.2-1.03,24.5c0,0,6.64-4.18,1.03-24.5h0Z" fill="#cef48b" fill-rule="evenodd" stroke="#93866c" stroke-linecap="round" stroke-linejoin="round"/>
      </g>
      <g>
        <path d="m176.22,157.23s-8.62-5.99-1.36-18.14c0,0,7.64,5.65,1.36,18.14h0Z" fill="#a6e00c" fill-rule="evenodd" stroke="#93866c" stroke-linecap="round" stroke-linejoin="round"/>
        <path d="m165.65,148.49s4.49-1.45,10.4,8.76c0,0-4.19,1.15-10.4-8.76h0Z" fill="#cdf38a" fill-rule="evenodd" stroke="#93866c" stroke-linecap="round" stroke-linejoin="round"/>
      </g>
      <g>
        <path d="m219.25,149.81s17.8-4.62,25.67,18.82c0,0-16.21,3.75-25.67-18.82h0Z" fill="#a6e00c" fill-rule="evenodd" stroke="#93866c" stroke-linecap="round" stroke-linejoin="round"/>
        <path d="m219.09,150.08s11.75,9.8-.26,26.63c0,0-10.46-9.24.26-26.63h0Z" fill="#cdf38a" fill-rule="evenodd" stroke="#93866c" stroke-linecap="round" stroke-linejoin="round"/>
        <path d="m219.25,149.82s7.62-6.19,26.16-.45c0,0-7.21,5.5-26.16.45h0Z" fill="#cdf38a" fill-rule="evenodd" stroke="#93866c" stroke-linecap="round" stroke-linejoin="round"/>
      </g>
      <line x1="155.98" y1="222.28" x2="287.84" y2="221.66" fill="none" stroke="#93866c" stroke-linecap="round" stroke-linejoin="round" stroke-width="1.5"/>
      <g>
        <path d="m340.18,220.75s-6.78-12.76,9.74-23.06c0,0,5.8,11.71-9.74,23.06h0Z" fill="#cac6b4" fill-rule="evenodd" opacity=".5" stroke-width="0"/>
        <path d="m332.88,203.29s6.41,1.05,7.21,17.26c0,0-5.86-1.23-7.21-17.26h0Z" fill="#e8e5d6" fill-rule="evenodd" stroke-width="0"/>
        <line x1="323.79" y1="221.64" x2="359.07" y2="221.64" fill="none" stroke="#93866c" stroke-linecap="round" stroke-miterlimit="10" stroke-width="1.5"/>
        <path d="m340.18,220.75s-.18-8.9-3.05-13.43" fill="none" fill-rule="evenodd" stroke="#93866c" stroke-linecap="round" stroke-miterlimit="10" stroke-width="1.5"/>
        <path d="m338.98,211.26s1.54-5.67,4.77-8.6" fill="none" fill-rule="evenodd" stroke="#93866c" stroke-linecap="round" stroke-miterlimit="10" stroke-width="1.5"/>
      </g>
    </g>
  </g>
</svg>