<svg viewBox="0 0 247.2 246.94" xmlns="http://www.w3.org/2000/svg" data-name="Шар 2" id="_Шар_2">
  <g id="OBJECTS">
    <g data-name="THANK YOU POP UP" id="THANK_YOU_POP_UP">
      <g id="animal2">
        <g data-name="CELEBRATE FOX" id="CELEBRATE_FOX">
          <g>
            <rect stroke-width="0" fill="#f9f7ed" transform="translate(-10.6 193.55) rotate(-45)" ry="3.98" rx="3.98" height="7.96" width="14.61" y="105.59" x="221.03"></rect>
            <rect stroke-width="2.18" stroke-linejoin="round" stroke-linecap="round" stroke="#93866c" fill="none" transform="translate(-10.56 193.46) rotate(-45)" ry="3.98" rx="3.98" height="7.96" width="14.61" y="105.5" x="220.94"></rect>
            <g>
              <path stroke-width="0" fill="#e3e0d1" d="m72.44,207.06c18.35,6.35,32.37-7.8,32.37-7.8l-2.75-4.81c-5,2.04-9.31,2.26-12.81,1.41-.97-.23-1.87-.55-2.71-.93-3.01-1.37-5.2-3.59-6.44-5.95-1.35-2.55-1.58-5.26-.55-7.23.78-1.49,2.22-2.09,3.38-1.12,2.15,1.8-.59,4.16.81,5.47,1.24,1.15,4.58,1.3,6.6-.8.23-.24.45-.48.66-.74h0c.2-.24.39-.49.57-.74,5.54-7.77.64-19.47-11.9-21.48-8.21-1.32-15.29,3.81-19.22,11.11-6.11,11.33-4.63,27.87,11.99,33.62Z"></path>
              <path stroke-width="0" fill="#edd1b6" d="m58.13,179.23c-2.92,10.57.36,23.01,14.31,27.83,18.35,6.35,32.37-7.8,32.37-7.8l-2.75-4.81c-5,2.04-9.31,2.26-12.81,1.41-3.92,2.31-10.07,6.46-19.05,1.59-4.12-2.24-6.33-5.26-7.16-8.51-3.74-5.02-3.57-11-2.59-15.5-.02.03-.04.07-.06.1-.08.15-.16.3-.23.45-.11.21-.21.42-.32.64-.05.11-.11.22-.16.33-.09.19-.17.38-.25.57-.1.23-.19.45-.28.68-.01.02-.02.04-.03.06-.08.2-.16.41-.24.61l-.04.1c-.09.24-.18.49-.26.74-.08.25-.16.5-.24.75-.08.25-.15.5-.22.75Z"></path>
              <path stroke-width="0" fill="#f9f7ed" d="m72.44,207.06c18.35,6.35,32.37-7.8,32.37-7.8l-2.75-4.81c-5,2.04-9.31,2.26-12.81,1.41-3.92,2.31-10.31,6.89-19.04,1.59-12.82-7.78-4.86-26.34,5.42-28.72,8.4-1.95,19.75,6.18,15.39,15.82,6.41-7.74,1.62-20.14-11.33-22.22-20.95-3.36-34.56,35.28-7.24,44.73Z"></path>
            </g>
            <path stroke-width="2.18" stroke-linejoin="round" stroke-linecap="round" stroke="#93866c" fill="none" d="m87.8,186.74c.48-.13.94-.31,1.33-.52,1.05-.58,1.86-1.56,2.53-2.54.72-1.05,1.27-2.2,1.64-3.42.84-2.76.62-5.69-.46-8.35-.22-.55-.48-1.08-.77-1.6-.46-.82-1-1.59-1.61-2.29"></path>
            <path stroke-width="2.18" stroke-linejoin="round" stroke-linecap="round" stroke="#93866c" fill="none" d="m90.47,168.02c-1.08-1.25-2.37-2.31-3.78-3.17-1.84-1.12-3.89-1.9-6-2.33-2.79-.57-5.62-.5-8.34.35-3.79,1.19-7.09,3.76-9.51,6.88-2.53,3.27-4.27,7.11-5.11,11.16-.84,4.13-.87,8.66.55,12.66,1.04,2.96,2.74,5.68,4.94,7.92,1.36,1.38,2.91,2.57,4.58,3.53s3.47,1.58,5.27,2.24c3.29,1.21,7.05,1.57,10.53,1.38,3.05-.17,6.06-.82,8.93-1.87,2.39-.87,4.68-2.01,6.83-3.36,1.48-.93,2.91-1.95,4.24-3.08.41-.35.82-.7,1.2-1.08l-2.75-4.81c-5,2.04-9.31,2.26-12.81,1.41-.97-.23-1.87-.55-2.71-.93-3.01-1.37-5.2-3.59-6.44-5.95-1.35-2.55-1.58-5.26-.55-7.23.78-1.49,2.22-2.09,3.38-1.12,2.15,1.8-.59,4.16.81,5.47,1.02.95,2.66,1.02,4.06.65"></path>
            <path stroke-width="0" fill="#e3e0d1" d="m136.87,213.31c-3.38,3.18-7.89,5.69-12.3,8.26-4.05,2.37-7.75,5.27-11.06,8.58-1.2,1.2-2.35,2.46-3.44,3.77-1.41,1.69-2.85,3.26-4.32,4.68-4.05,3.92-9.26,6.42-14.83,7.25-17.52,2.62-24.9-5-23.41-11.23.66-2.77,3.07-5.27,7.11-6.48,1.41-2.19,2.78-4.47,4.12-6.82,4.3-7.53,8.28-15.69,12.24-23.7,3.63-7.35,7.25-14.56,11.11-21.04,3.22,18.68,15.8,30.16,34.78,36.72Z"></path>
            <path stroke-width="0" fill="#e3e0d1" d="m154.48,213.31c3.38,3.18,7.89,5.69,12.3,8.26,4.05,2.37,7.75,5.27,11.06,8.58,1.2,1.2,2.35,2.46,3.44,3.77,1.41,1.69,2.85,3.26,4.32,4.68,4.05,3.92,9.26,6.42,14.83,7.25,17.52,2.62,24.9-5,23.41-11.23-.66-2.77-3.07-5.27-7.11-6.48-1.41-2.19-2.78-4.47-4.12-6.82-4.3-7.53-8.28-15.69-12.24-23.7-3.63-7.35-7.25-14.56-11.11-21.04-3.22,18.68-15.8,30.16-34.78,36.72Z"></path>
            <path stroke-width="0" fill="#f9f7ed" d="m116.57,226.87c-1.49,1.6-3.74,4.04-6.49,7.04-3.7,4.02-3.88,4.26-4.32,4.68-4.05,3.92-9.26,6.42-14.83,7.25-25.29,3.78-29.45-13.78-16.29-17.71.7-1.11,1.39-2.23,2.09-3.35.61-.98,1.21-1.96,1.8-2.93,3.96-.87,6.99-.46,8.75-.06,2.29.52,5.18,1.64,7.35,2.98.42.26,1.66,1.04,3.44,1.93,1.05.52,1.59.79,2.33,1.05,1.76.62,3.2.69,5.08.76,2.29.09,4.07-.1,4.73-.18,1.64-.19,3.84-.59,6.36-1.46Z"></path>
            <path stroke-width="0" fill="#f9f7ed" d="m174.79,226.87c1.49,1.6,3.74,4.04,6.49,7.04,3.7,4.02,3.88,4.26,4.32,4.68,4.05,3.92,9.26,6.42,14.83,7.25,25.29,3.78,29.45-13.78,16.29-17.71-.7-1.11-1.39-2.23-2.09-3.35-.61-.98-1.21-1.96-1.8-2.93-3.96-.87-6.99-.46-8.75-.06-2.29.52-5.18,1.64-7.35,2.98-.42.26-1.66,1.04-3.44,1.93-1.05.52-1.59.79-2.33,1.05-1.76.62-3.2.69-5.08.76-2.29.09-4.07-.1-4.73-.18-1.64-.19-3.84-.59-6.36-1.46Z"></path>
            <path stroke-width="0" fill="#e3e0d1" d="m235.87,124.64c-.24,2.37-1.41,4.55-3.16,6.16-4.29,3.95-8.84,7.73-13.62,11.32-11.01,8.29-23.21,15.65-35.93,22.15-1.39-2.9-2.68-5.84-3.88-8.83l-5.77-17.24-1.41-4.22.3-.12,25.85-10.44.35-.14,2.1-.85c.98-.4,1.93-.84,2.85-1.35,3.15-1.71,5.93-4.04,8.18-6.86,1.86-2.34,3.88-4.27,6.16-5.67,4.61-1.93,8.23,2.16,10.06,6.57,2.88-.01,5.49,1.69,6.9,4.27.81,1.51,1.21,3.31,1.01,5.26Z"></path>
            <path stroke-width="0" fill="#f9f7ed" d="m235.87,124.64c-.24,2.37-1.41,4.55-3.16,6.16-4.29,3.95-8.84,7.73-13.62,11.32-2.39-1.04-11.27-5.26-14.43-14.68-.77-2.31-1.06-4.48-1.1-6.37,3.15-1.71,5.93-4.04,8.18-6.86,1.86-2.34,3.88-4.27,6.16-5.67,4.61-1.93,8.23,2.16,10.06,6.57,4.56-.02,8.45,4.24,7.91,9.53Z"></path>
            <path stroke-width="0" fill="#e3e0d1" d="m54.03,125.16c.24,2.37,1.41,4.55,3.16,6.16,4.29,3.95,8.84,7.73,13.62,11.32,11.01,8.29,23.21,15.65,35.93,22.15,1.39-2.9,2.68-5.84,3.88-8.83l5.77-17.24,1.41-4.22-.3-.12-25.85-10.44-.35-.14-2.1-.85c-.98-.4-1.93-.84-2.85-1.35-3.15-1.71-5.93-4.04-8.18-6.86-1.86-2.34-3.88-4.27-6.16-5.67-4.61-1.93-8.23,2.16-10.06,6.57-2.88-.01-5.49,1.69-6.9,4.27-.81,1.51-1.21,3.31-1.01,5.26Z"></path>
            <rect stroke-width="0" fill="#f9f7ed" transform="translate(28.49 230.67) rotate(-135)" ry="3.98" rx="3.98" height="7.96" width="14.61" y="105.46" x="54.71"></rect>
            <rect stroke-width="2.18" stroke-linejoin="round" stroke-linecap="round" stroke="#93866c" fill="none" transform="translate(28.72 230.13) rotate(-135)" ry="3.98" rx="3.98" height="7.96" width="14.61" y="105.14" x="54.71"></rect>
            <path stroke-width="0" fill="#f9f7ed" d="m54.03,125.16c.24,2.37,1.41,4.55,3.16,6.16,4.29,3.95,8.84,7.73,13.62,11.32,2.39-1.04,11.27-5.26,14.43-14.68.77-2.31,1.06-4.48,1.1-6.37-3.15-1.71-5.93-4.04-8.18-6.86-1.86-2.34-3.88-4.27-6.16-5.67-4.61-1.93-8.23,2.16-10.06,6.57-4.56-.02-8.45,4.24-7.91,9.53Z"></path>
            <path stroke-width="0" fill="#e3e0d1" d="m184.25,198.34c10.5-14.47,4.51-39.23-8.75-70.26h-59.64c-13.26,31.03-19.25,55.79-8.75,70.26,8.04,19.98,60.22,26.92,77.14,0Z"></path>
            <ellipse stroke-width="0" fill="#f9f7ed" ry="38.16" rx="32.08" cy="164" cx="145.67"></ellipse>
            <path stroke-width="0" fill="#f9f7ed" d="m95.38,53.48h0c.38.68.77,1.27,1.17,1.77l22.26-21.79c-13.3-8.72-22.21-17.16-24.88-15.93-.42.19-.84.72-1.24,1.56-1.07,2.24-1.93,6.71-1.9,13,.04,7.57,1.91,16.58,4.59,21.39Z"></path>
            <path stroke-width="0" fill="#e3e0d1" d="m209.56,93.01c-1.35-2.77-3.76-3.76-4.22-4.22-.9-5.32-1.06-19.76-6.93-33.26,5.76-10.65,8.88-33.22,3.05-41.75-1.93-2.83-4.85-4.11-8.98-2.9-6.23,1.82-14.69,8.68-25.57,14.75-6.16-2.04-13.34-3.22-21.69-3.22s-15.53,1.18-21.69,3.22c-10.88-6.08-19.34-12.93-25.57-14.75-4.13-1.21-7.05.07-8.98,2.9-5.83,8.53-2.71,31.1,3.05,41.75-5.87,13.5-6.87,27.18-7.78,32.5-.46.46-2.03,2.21-3.38,4.98-2.35,4.82-4.03,12.76,1.95,22.4,14.46,23.33,53.21,24.01,62.4,24.01s47.93-.68,62.4-24.01c5.98-9.64,4.3-17.58,1.95-22.4Z"></path>
            <path stroke-width="0" fill="#f9f7ed" d="m122.41,137.72c-14.31-2.54-31.12-8.43-39.59-22.1-5.98-9.64-4.3-17.57-1.95-22.4,5.08-6.27,14.03-12.25,27.78-5.96,4.66,2.13,7.61,6.53,15.44,4.59,4.15-1.03,9.97-9.02,21.12-9.03h0c11.15,0,16.97,7.99,21.12,9.03,7.83,1.95,10.79-2.45,15.44-4.59,13.76-6.29,22.7-.31,27.78,5.96,2.35,4.82,4.03,12.76-1.95,22.4-14.46,23.33-53.19,24.01-62.39,24.01h0c-3.81,0-12.68-.12-22.8-1.91"></path>
            <path stroke-width="2.18" stroke-linejoin="round" stroke-linecap="round" stroke="#93866c" fill="none" d="m121.59,137.4c-13.29-2.86-30.66-9.43-38.33-21.82-4.48-7.22-5.41-13.68-4.21-18.38.68-2.68,2.24-6.44,4.27-8.32,5.29-4.9,14.11-6.71,25.59-1.46,4.63,2.12,7.56,6.49,15.34,4.55,4.12-1.03,9.9-8.96,20.97-8.96h0c11.07,0,16.85,7.94,20.97,8.96,7.77,1.94,10.71-2.44,15.34-4.55,12.01-5.49,19.94-2.49,25.2,2.77,1.5,1.5,3,4.27,3.62,6.29,1.46,4.78,1.61,11.39-3.17,19.11-9.83,15.86-30.96,21.18-46.24,22.96"></path>
            <path stroke-width="0" fill="#93866c" d="m114.76,73.76c.17-.21.29-.34.43-.5.14-.15.29-.3.43-.44.29-.29.61-.54.92-.8.64-.5,1.33-.95,2.05-1.33,1.45-.77,3.05-1.3,4.72-1.54.83-.12,1.68-.15,2.53-.12.85.05,1.69.17,2.5.38,1.63.42,3.15,1.16,4.41,2.19.58.48.66,1.35.18,1.93-.33.4-.84.56-1.32.47h-.07c-1.37-.28-2.65-.51-3.91-.61-.63-.04-1.25-.06-1.87-.04-.62.02-1.24.07-1.86.14-1.24.17-2.48.45-3.72.86-.62.2-1.24.43-1.86.67-.32.12-.62.25-.93.38l-.46.2c-.15.06-.32.15-.43.18l-.37.1c-.71.2-1.44-.21-1.64-.92-.12-.43,0-.88.25-1.2Z"></path>
            <path stroke-width="0" fill="#93866c" d="m172.4,75.59c-.11-.03-.28-.12-.43-.18l-.46-.2c-.31-.13-.62-.26-.93-.38-.62-.24-1.24-.47-1.87-.66-1.24-.4-2.48-.68-3.72-.84-.62-.07-1.24-.12-1.86-.13-.62-.01-1.24.01-1.87.05-1.26.1-2.53.34-3.9.62h-.06c-.74.16-1.46-.32-1.61-1.06-.1-.51.09-1.01.46-1.32,1.25-1.04,2.77-1.79,4.39-2.22.81-.21,1.65-.34,2.5-.39.84-.04,1.69,0,2.53.1,1.67.23,3.28.75,4.73,1.51.73.38,1.42.82,2.06,1.32.32.25.63.51.93.8.15.14.29.29.44.44.15.16.27.3.44.5.47.56.39,1.4-.18,1.87-.34.29-.79.37-1.19.26l-.38-.1Z"></path>
            <ellipse stroke-width="0" fill="#fff9f1" ry="9.59" rx="13.4" cy="99.95" cx="97.53"></ellipse>
            <path stroke-width="0" fill="#cac6b4" d="m70.25,115.98c-.34.84-.56,1.72-.66,2.62-.14,1.29-.04,2.63-.45,3.87-.44,1.35-1.5,2.48-2.82,3.01.74-2.1.9-4.4.47-6.58,1.35-.61,2.57-1.49,3.58-2.57l-.12-.34Z"></path>
            <ellipse stroke-width="0" fill="#fff9f1" ry="9.59" rx="13.4" cy="100.25" cx="192.9"></ellipse>
            <path stroke-width="0" fill="#93866c" d="m66.86,118.57c.47.47.78,1.07.98,1.67.2.61.27,1.23.27,1.85-.02,1.24-.35,2.46-.97,3.53-.61,1.07-1.54,2-2.67,2.54-1.13.56-2.4.67-3.55.47-.26-.05-.43-.29-.38-.55.04-.21.21-.37.42-.39h.02c1.02-.11,1.97-.38,2.74-.9.39-.26.73-.57,1.04-.91.3-.35.56-.74.78-1.15.42-.84.69-1.77.75-2.7.08-.94-.06-1.87-.45-2.64l-.02-.05c-.17-.33-.04-.73.29-.89.26-.13.57-.07.77.12Z"></path>
            <path stroke-width="0" fill="#93866c" d="m63,115.39c-.22.76-.14,1.49.29,2.04.42.56,1.25.89,2.14.87.9-.01,1.83-.37,2.66-.91.84-.54,1.58-1.29,2.22-2.12h0c.13-.18.38-.21.55-.08.16.12.19.34.1.51-.56.97-1.24,1.9-2.13,2.66-.88.76-1.97,1.39-3.24,1.6-.63.1-1.3.1-1.97-.07-.67-.16-1.32-.49-1.86-.99-.55-.49-.94-1.16-1.15-1.87-.21-.71-.24-1.44-.15-2.12v-.05c.1-.7.75-1.2,1.45-1.1.7.09,1.2.74,1.1,1.45,0,.06-.02.12-.04.18Z"></path>
            <path stroke-width="0" fill="#cac6b4" d="m220.01,116.24c.34.84.56,1.72.66,2.62.14,1.29.04,2.63.45,3.87.44,1.35,1.5,2.48,2.82,3.01-.74-2.1-.9-4.4-.47-6.58-1.35-.61-2.57-1.49-3.58-2.57l.12-.34Z"></path>
            <path stroke-width="0" fill="#93866c" d="m223.85,118.81c-.47.47-.78,1.07-.98,1.67-.2.61-.27,1.23-.27,1.85.02,1.24.35,2.46.97,3.53.61,1.07,1.54,2,2.67,2.54,1.13.56,2.4.67,3.55.47.26-.05.43-.29.38-.55-.04-.21-.21-.37-.42-.39h-.02c-1.02-.11-1.97-.38-2.74-.9-.39-.26-.73-.57-1.04-.91-.3-.35-.56-.74-.78-1.15-.42-.84-.69-1.77-.75-2.7-.08-.94.06-1.87.45-2.64l.02-.05c.17-.33.04-.73-.29-.89-.26-.13-.57-.07-.77.12Z"></path>
            <path stroke-width="0" fill="#93866c" d="m227.18,115.11c.22.76.14,1.49-.29,2.04-.42.56-1.25.89-2.14.87-.9-.01-1.83-.37-2.66-.91-.84-.54-1.58-1.29-2.22-2.12h0c-.13-.18-.38-.21-.55-.08-.16.12-.19.34-.1.51.56.97,1.24,1.9,2.13,2.66.88.76,1.97,1.39,3.24,1.6.63.1,1.3.1,1.97-.07.67-.16,1.32-.49,1.86-.99.55-.49.94-1.16,1.15-1.87.21-.71.24-1.44.15-2.12v-.05c-.1-.7-.75-1.2-1.45-1.1-.7.09-1.2.74-1.1,1.45,0,.06.02.12.04.18Z"></path>
            <path stroke-width="0" fill="#f9f7ed" d="m122.27,59.34c-.31-1.74,4.87-7.27,7.99-5.75,3.12,1.52,2.64,5.23.75,6.25-2.74,1.49-8.43,1.24-8.73-.5Z"></path>
            <path stroke-width="0" opacity=".2" fill="#93866c" d="m126.36,118.12s-7.39-11.09,2.66-11.94c10.05-.85,15.41-3.27,20.03-8.12,0,0,13.15-4.4,17.74,9.75,0,0,2.97,9.55-10.91,15.88-13.88,6.33-27.96-2.47-29.52-5.57Z"></path>
            <path stroke-width="0" fill="#f9f7ed" d="m168.16,59.34c.31-1.74-4.87-7.27-7.99-5.75-3.12,1.52-2.64,5.23-.75,6.25,2.74,1.49,8.43,1.24,8.73-.5Z"></path>
            <path stroke-width="2.18" stroke-linejoin="round" stroke-linecap="round" stroke="#93866c" fill="none" d="m123.42,110.55c0,8.31,9.76,15.05,21.8,15.05,12.04,0,21.8-6.74,21.8-15.05,0-8.31-11.81-19.26-21.8-9.97-10.43,9.7-21.8,1.65-21.8,9.97Z"></path>
            <path stroke-width="0" opacity=".4" fill-rule="evenodd" fill="#93866c" d="m137.64,125.07c16.14,2.95,26.92-7.64,26.92-7.64,2.3-3.89,1.73-7.88,1.73-7.88-27.61-3.86-38.58,10.15-38.58,10.15,0,0,4.15,4.32,9.92,5.37Z"></path>
            <path stroke-width="0" fill="#f9f7ed" d="m123.5,26.55c-11.06-6.13-19.65-13.07-25.95-14.91-4.13-1.21-7.05.07-8.98,2.9-1.38,2.02-2.26,4.84-2.72,8.1.51-2.19,1.25-4.09,2.26-5.57,1.93-2.83,4.85-4.11,8.98-2.9,5.79,1.69,13.54,7.8,23.33,13.52.72-.26,1.73-.75,3.08-1.15Z"></path>
            <path stroke-width="0" fill="#f9f7ed" d="m166.27,26.47c11.06-6.13,19.65-13.19,25.95-15.04,4.13-1.21,7.05.07,8.98,2.9,1.38,2.02,2.26,4.84,2.72,8.1-.51-2.19-1.25-4.09-2.26-5.57-1.93-2.83-4.85-4.11-8.98-2.9-5.79,1.69-13.51,7.79-23.3,13.51-.72-.26-1.76-.6-3.11-1Z"></path>
            <path stroke-width="0" fill="#f9f7ed" d="m197.09,51.81c-6.51-12.12-14.94-19.78-25.27-23.1,13.3-8.72,22.4-12.06,25.25-11.33,1.44.37,2.11,1.19,2.51,2.03,1.07,2.24,1.83,6.32,1.8,12.62-.04,7.57-1.61,14.97-4.28,19.78Z"></path>
            <path stroke-width="0" fill="#f9f7ed" d="m93.81,52.81c6.51-12.12,14.94-19.78,25.27-23.1-13.3-8.72-22.4-12.06-25.25-11.33-1.44.37-2.11,1.19-2.51,2.03-1.07,2.24-1.67,6.26-1.64,12.55.04,7.57,1.45,15.03,4.13,19.85Z"></path>
            <path stroke-width="0" fill="#f9f7ed" d="m201.82,62.83c-6.89-18.32-21.81-37.64-56.14-37.64s-49.28,19.36-56.16,37.7c5.92-19,19.93-41.12,56.16-41.12s50.21,22.08,56.14,41.07Z"></path>
            <path stroke-width="2.18" stroke-linejoin="round" stroke-linecap="round" stroke="#93866c" fill="none" d="m235.33,119.38c-1.4-2.59-4.01-4.29-6.89-4.27-1.83-4.41-5.45-8.5-10.06-6.57-2.28,1.4-4.3,3.33-6.16,5.67-2.25,2.82-5.5,5.03-8.65,6.74-.91.5,2.79-3.32,4.54-6.15,5.98-9.64,3.22-17.01.88-21.83-1.35-2.77-3.78-4.28-4.24-4.74.56-6.31-.61-19.72-6.49-33.22,5.76-10.65,8.88-33.22,3.05-41.75-1.93-2.83-4.85-4.11-8.98-2.9-6.23,1.82-14.69,8.68-25.57,14.75-6.16-2.04-13.34-3.22-21.69-3.22s-15.53,1.18-21.69,3.22c-10.88-6.08-19.34-12.93-25.57-14.75-4.13-1.21-7.05.07-8.98,2.9-5.83,8.53-2.71,31.1,3.05,41.75-5.87,13.5-7.96,26.64-7.29,32.73-.46.46-2.52,1.98-3.86,4.75-2.35,4.82-4.03,12.76,1.95,22.4,1.71,2.76,3.77,5.21,6.07,7.37-.84-.35-1.66-.75-2.45-1.18-3.15-1.71-5.93-4.04-8.18-6.86-1.86-2.34-3.88-4.27-6.16-5.67-4.61-1.93-8.23,2.16-10.06,6.57-2.88-.01-5.49,1.69-6.9,4.27-.81,1.51-1.21,3.31-1.01,5.26.24,2.37,1.41,4.55,3.16,6.16,4.29,3.95,8.84,7.73,13.62,11.32,10.01,7.53,20.99,14.3,32.46,20.34-1.19,5.27-1.9,10.2-2.04,14.74-3.61,6.18-7.02,12.98-10.44,19.9-3.96,8.01-7.93,16.17-12.24,23.7-1.34,2.34-2.71,4.62-4.12,6.82-4.04,1.21-6.45,3.71-7.11,6.48-1.49,6.24,5.89,13.85,23.41,11.23,5.57-.83,10.78-3.34,14.83-7.25,1.47-1.42,2.9-2.99,4.32-4.68,1.09-1.31,2.24-2.57,3.44-3.77,3.31-3.31,7.01-6.21,11.06-8.58,3.53-2.06,7.13-4.08,10.16-6.43,7.04,1.17,14.61,1.23,21.81-.07,3.05,2.39,6.68,4.42,10.25,6.5,4.05,2.37,7.75,5.27,11.06,8.58,1.2,1.2,2.35,2.46,3.44,3.77,1.41,1.69,2.85,3.26,4.32,4.68,4.05,3.92,9.26,6.42,14.83,7.25,17.52,2.62,24.9-5,23.41-11.23-.66-2.77-3.07-5.27-7.11-6.48-1.41-2.19-2.78-4.47-4.12-6.82-4.3-7.53-8.28-15.69-12.24-23.7-3.63-7.35-7.25-14.56-11.11-21.04-.02.1-.04.19-.05.29-.19-4.28-.88-8.9-1.99-13.82,11.52-6.06,22.55-12.85,32.59-20.41,4.78-3.59,9.34-7.37,13.62-11.32,1.75-1.62,2.92-3.8,3.16-6.16.2-1.95-.2-3.75-1.01-5.26Z"></path>
            <path stroke-width="2.18" stroke-linejoin="round" stroke-linecap="round" stroke="#93866c" fill="none" d="m123.86,24.94s-12.3,3.65-21.66,14.13"></path>
            <path stroke-width="2.18" stroke-linejoin="round" stroke-linecap="round" stroke="#93866c" fill="none" d="m166.74,25.1s22.39,6.02,31.51,29.9"></path>
            <path stroke-width="2.18" stroke-linejoin="round" stroke-linecap="round" stroke="#93866c" fill="none" d="m103.21,162.46s3.46-17.3,9.2-26.64"></path>
            <path stroke-width="2.18" stroke-linejoin="round" stroke-linecap="round" stroke="#93866c" fill="none" d="m188.85,174.66s1.02,9.21-3.09,18.93"></path>
            <path stroke-width="2.18" stroke-linejoin="round" stroke-linecap="round" stroke="#93866c" fill="none" d="m125.61,212.77s22.59,6.47,40.68-1.38"></path>
          </g>
          <path stroke-width="2.18" stroke-linejoin="round" stroke-linecap="round" stroke="#93866c" fill="none" d="m216.74,227.71s-6.43-1.07-11.71,2.36"></path>
          <path stroke-width="2.18" stroke-linejoin="round" stroke-linecap="round" stroke="#93866c" fill="none" d="m74.02,227.71s6.43-1.07,11.71,2.36"></path>
        </g>
        <line stroke-width="2.18" stroke-linejoin="round" stroke-linecap="round" stroke="#93866c" fill="none" y2="245.8" x2="232.16" y1="245.8" x1="40.16"></line>
        <line stroke-width="2.18" stroke-linejoin="round" stroke-linecap="round" stroke="#93866c" fill="none" y2="245.8" x2="33.31" y1="245.8" x1="16.59"></line>
        <line stroke-width="2.18" stroke-linejoin="round" stroke-linecap="round" stroke="#93866c" fill="none" y2="245.8" x2="246.1" y1="245.8" x1="238.07"></line>
        <g>
          <path stroke-width="2.18" stroke-linejoin="round" stroke-linecap="round" stroke="#93866c" fill-rule="evenodd" fill="#a6e00c" d="m144.46,21.26s-9.31-7.01-.79-20.16c0,0,8.26,6.56.79,20.16h0Z"></path>
          <path stroke-width="2.18" stroke-linejoin="round" stroke-linecap="round" stroke="#93866c" fill-rule="evenodd" fill="#cdf38a" d="m144.66,21.22s.23-9.7,13.32-10.38c0,0-.46,8.83-13.32,10.38h0Z"></path>
          <path stroke-width="2.18" stroke-linejoin="round" stroke-linecap="round" stroke="#93866c" fill-rule="evenodd" fill="#cdf38a" d="m144.47,21.25c-.9.21-9.7-.51-10.54-12.8,0,0,5.57,1.41,10.54,12.8h0Z"></path>
        </g>
        <path stroke-width="0" opacity=".5" fill-rule="evenodd" fill="#cac6b4" d="m107.28,245.47s-9.75-4.22-5.01-17.69c0,0,8.72,4.05,5.01,17.69h0Z"></path>
        <path stroke-width="0" fill-rule="evenodd" fill="#e8e5d6" d="m108.31,245.56s-1.87-8.64,9.57-12.04c0,0,1.48,7.92-9.57,12.04h0Z"></path>
        <path stroke-width="0" fill-rule="evenodd" fill="#e8e5d6" d="m105.89,246.02s-5.67.11-12.07-9.08c0,0,5.24.06,12.07,9.08h0Z"></path>
        <line stroke-width="1.31" stroke-linejoin="round" stroke-linecap="round" stroke="#93866c" fill="none" y2="245.54" x2="114.37" y1="245.54" x1="118.08"></line>
        <line stroke-width="1.31" stroke-linejoin="round" stroke-linecap="round" stroke="#93866c" fill="none" y2="245.54" x2="100.76" y1="245.54" x1="111"></line>
        <path stroke-width="1.31" stroke-linejoin="round" stroke-linecap="round" stroke="#93866c" fill-rule="evenodd" fill="none" d="m103.53,202.64c-.62-1.58-1.31-3.17-2.08-4.77"></path>
        <path stroke-width="1.31" stroke-linejoin="round" stroke-linecap="round" stroke="#93866c" fill-rule="evenodd" fill="none" d="m107.91,245.06s1.51-6.96.99-17.21c-.28-5.48-1.14-11.9-3.13-18.7"></path>
        <path stroke-width="1.31" stroke-linejoin="round" stroke-linecap="round" stroke="#93866c" fill-rule="evenodd" fill="none" d="m115.86,208.52s-5.34,4.41-6.92,20.37"></path>
        <path stroke-width="0" opacity=".5" fill-rule="evenodd" fill="#cac6b4" d="m107.28,245.47s-9.75-4.22-5.01-17.69c0,0,8.72,4.05,5.01,17.69h0Z"></path>
        <path stroke-width="0" fill-rule="evenodd" fill="#e8e5d6" d="m108.31,245.56s-1.87-8.64,9.57-12.04c0,0,1.48,7.92-9.57,12.04h0Z"></path>
        <path stroke-width="0" fill-rule="evenodd" fill="#e8e5d6" d="m105.89,246.02s-5.67.11-12.07-9.08c0,0,5.24.06,12.07,9.08h0Z"></path>
        <line stroke-width="1.31" stroke-linejoin="round" stroke-linecap="round" stroke="#93866c" fill="none" y2="245.54" x2="114.37" y1="245.54" x1="118.08"></line>
        <line stroke-width="1.31" stroke-linejoin="round" stroke-linecap="round" stroke="#93866c" fill="none" y2="245.54" x2="100.76" y1="245.54" x1="111"></line>
        <path stroke-width="2.18" stroke-linejoin="round" stroke-linecap="round" stroke="#93866c" fill-rule="evenodd" fill="none" d="m103.53,202.64c-.62-1.58-1.31-3.17-2.08-4.77"></path>
        <path stroke-width="2.18" stroke-linejoin="round" stroke-linecap="round" stroke="#93866c" fill-rule="evenodd" fill="none" d="m107.91,245.06s1.51-6.96.99-17.21c-.28-5.48-1.14-11.9-3.13-18.7"></path>
        <path stroke-width="2.18" stroke-linejoin="round" stroke-linecap="round" stroke="#93866c" fill-rule="evenodd" fill="none" d="m115.86,208.52s-5.34,4.41-6.92,20.37"></path>
        <g>
          <line stroke-width="2.18" stroke-linejoin="round" stroke-linecap="round" stroke="#93866c" fill="none" y2="245.8" x2="10.19" y1="245.8" x1="2.27"></line>
          <path stroke-width="2.18" stroke-linejoin="round" stroke-linecap="round" stroke="#93866c" fill-rule="evenodd" fill="none" d="m8.16,221.44c.36-.91.75-1.82,1.19-2.73"></path>
          <path stroke-width="2.18" stroke-linejoin="round" stroke-linecap="round" stroke="#93866c" fill-rule="evenodd" fill="none" d="m5.65,245.74s-.87-3.99-.56-9.86c.16-3.14.66-6.82,1.8-10.71"></path>
          <path stroke-width="2.18" stroke-linejoin="round" stroke-linecap="round" stroke="#93866c" fill-rule="evenodd" fill="none" d="m1.09,224.81s3.06,2.53,3.97,11.67"></path>
          <path stroke-width="2.18" stroke-miterlimit="10" stroke="#93866c" fill-rule="evenodd" fill="none" d="m5.13,235.21s2.7-4.35,6.6-6.39c1.07-.56,2.32.34,2.07,1.53-.57,2.68-2.4,7.16-8.26,11.06"></path>
        </g>
      </g>
    </g>
  </g>
</svg>