<?xml version="1.0" encoding="UTF-8"?>
<svg title="hint" xmlns="http://www.w3.org/2000/svg" viewBox="0 0 24.15 24.15">
  <g id="OBJECTS">
    <g id="icon">
      <circle cx="12.07" cy="12.07" r="12.07" fill="#808988" opacity=".4" stroke-width="0"/>
      <path d="m9.44,7.57c.17-.15.36-.3.57-.43.21-.14.43-.26.67-.36.24-.1.5-.18.78-.24s.58-.09.91-.09c.44,0,.84.06,1.21.18.36.12.67.3.93.52.26.23.46.5.6.82.14.32.21.68.21,1.07s-.06.72-.17,1c-.11.28-.25.53-.42.74-.17.21-.35.39-.55.54-.2.15-.39.3-.57.43-.18.13-.33.27-.46.4-.13.13-.21.28-.23.44l-.18,1.11h-1.29l-.13-1.24c-.03-.24,0-.45.1-.63.1-.18.23-.35.4-.5s.35-.29.55-.43c.2-.14.39-.29.57-.46s.33-.35.45-.56.18-.45.18-.74c0-.18-.03-.35-.1-.49-.07-.14-.16-.27-.29-.37-.12-.1-.27-.18-.44-.24s-.35-.08-.55-.08c-.29,0-.53.03-.74.1-.2.06-.37.13-.51.21-.14.08-.26.15-.35.21-.1.06-.18.1-.26.1-.18,0-.31-.08-.4-.23l-.5-.78Zm1.44,8.98c0-.16.03-.31.09-.45.06-.14.14-.26.24-.37s.22-.18.37-.24c.14-.06.29-.09.46-.09s.31.03.45.09c.14.06.26.14.37.24s.19.22.25.37c.06.14.09.29.09.45s-.03.31-.09.45c-.06.14-.14.26-.25.36s-.23.18-.37.24c-.14.06-.29.09-.45.09s-.31-.03-.46-.09c-.14-.06-.26-.14-.37-.24s-.18-.22-.24-.36c-.06-.14-.09-.29-.09-.45Z" fill="#fff" stroke-width="0"/>
    </g>
  </g>
</svg>