<svg viewBox="0 0 160.43 160.43" xmlns:xlink="http://www.w3.org/1999/xlink" xmlns="http://www.w3.org/2000/svg">
  <defs>
    <clipPath id="clippath">
      <polygon stroke-width="0" fill="none" points="101.32 80.44 117.02 79.29 118.04 66.39 99.06 69.23 101.32 80.44"></polygon>
    </clipPath>
  </defs>
  <g id="OBJECTS">
    <g data-name="ICON - GREEDY" id="ICON_-_GREEDY">
      <circle stroke-width="0" fill="#ece8dc" r="80.21" cy="80.21" cx="80.21"></circle>
      <rect stroke-width="1.11" stroke-miterlimit="10" stroke="#93866c" fill="#fff9f1" transform="translate(.42 -.15) rotate(.22)" ry="1.58" rx="1.58" height="5.26" width="15.77" y="104.91" x="31.92"></rect>
      <rect stroke-width="1.11" stroke-miterlimit="10" stroke="#93866c" fill="#fff9f1" transform="translate(.44 -.14) rotate(.22)" ry="1.58" rx="1.58" height="5.26" width="15.77" y="110.15" x="29.39"></rect>
      <polyline stroke-width="0" fill="#f0ede0" points="43.65 80.82 100.08 81.02 100.62 112.15 97.49 115.53 42.61 115.24 39.36 112.16 38.88 84.71 41.42 80.98 99.93 80.84"></polyline>
      <path stroke-width="0" fill="#e3e0d1" d="m100.63,80.89l25.04-1.61.52,30.03-1.63,3.43-1.62.68s-2.31.63-2.36.59c-.03-.03-8.2.8-13.9,1.39-2.91.3-5.45-1.95-5.5-4.87l-.56-29.62Z"></path>
      <path stroke-width="0" fill="#fff9f1" d="m65.69,81.1l10.1.02.08,4.69c.05,2.76-2.15,5.03-4.91,5.08h-.11c-2.76.05-5.03-2.15-5.08-4.9l-.09-4.89Z"></path>
      <path stroke-width="0" fill="#e3e0d1" d="m125.3,78.62c10.6-1.19,13.49-12.68,13.49-12.68,2.67-17.55-9.27-18.48-9.27-18.48l1.11,1.57.91,1.54"></path>
      <polyline stroke-width="0" fill="#f0ede0" points="71.52 48.51 129.32 48.02 131.52 49.55 125.56 78.59 63.78 79.66"></polyline>
      <path stroke-width="0" fill="#e3e0d1" d="m63.34,78.17c10.38-1.12,11.86-11.01,12.2-11.12,2.67-17.55-4.93-18.01-4.93-18.01"></path>
      <g>
        <line stroke-width="1.25" stroke-linejoin="round" stroke-linecap="round" stroke="#93866c" fill="none" y2="115.37" x2="65.23" y1="115.41" x1="71.77"></line>
        <path stroke-width="1.25" stroke-linejoin="round" stroke-linecap="round" stroke="#93866c" fill="none" d="m75.71,86.4c.02-.18.02-.37.02-.56l-.09-4.91,24.44.09.51,29.45c.05,2.8-2.22,5.1-5.02,5.08l-23.8-.15"></path>
        <path stroke-width="1.25" stroke-linejoin="round" stroke-linecap="round" stroke="#93866c" fill="none" d="m50.31,115.28l-6-.04c-2.71-.02-4.9-2.19-4.95-4.9l-.45-24.44c-.05-2.8,2.21-5.09,5.01-5.08l21.78.08.09,4.91c.05,2.72,2.19,5.06,4.91,5.1.9.01,1.74-.21,2.47-.62"></path>
        <line stroke-width="1.25" stroke-linejoin="round" stroke-linecap="round" stroke="#93866c" fill="none" y2="83.78" x2="58.44" y1="83.77" x1="57.45"></line>
        <path stroke-width="1.25" stroke-linejoin="round" stroke-linecap="round" stroke="#93866c" fill="none" d="m96.94,83.98l.46,26.36c.02,1.17-.91,2.13-2.07,2.15l-50.66-.42c-1.17.02-2.13-.91-2.15-2.07l-.41-23.8c-.02-1.4,1.11-2.55,2.51-2.54l10.37.06"></path>
        <path stroke-width="1.25" stroke-linejoin="round" stroke-linecap="round" stroke="#93866c" fill="none" d="m75.6,87.06c.09-.39.14-.8.13-1.22l-.03-1.99"></path>
        <path stroke-width="1.25" stroke-linejoin="round" stroke-linecap="round" stroke="#93866c" fill="none" d="m65.74,83.79l.04,2.01c.05,2.72,2.19,5.06,4.91,5.1"></path>
        <line stroke-width="1.25" stroke-linejoin="round" stroke-linecap="round" stroke="#93866c" fill="none" y2="109.05" x2="100.57" y1="110.47" x1="100.59"></line>
        <line stroke-width="1.25" stroke-linejoin="round" stroke-linecap="round" stroke="#93866c" fill="none" y2="115.2" x2="107.73" y1="115.15" x1="108.27"></line>
        <path stroke-width="1.25" stroke-linejoin="round" stroke-linecap="round" stroke="#93866c" fill="none" d="m125.57,79.28l.52,29.58c.05,2.61-1.93,4.82-4.53,5.06l-11.23,1.04"></path>
        <polyline stroke-width="1.25" stroke-linejoin="round" stroke-linecap="round" stroke="#93866c" fill="none" points="100.57 109.05 100.08 81.02 110.2 80.44"></polyline>
        <line stroke-width="1.25" stroke-linejoin="round" stroke-linecap="round" stroke="#93866c" fill="none" y2="83.17" x2="114.57" y1="83.83" x1="105.29"></line>
        <path stroke-width="1.25" stroke-linejoin="round" stroke-linecap="round" stroke="#93866c" fill="none" d="m123.15,108.45c.03,1.44-1.12,2.63-2.57,2.66l-14.32,1.34c-1.44.03-2.63-1.12-2.66-2.57l-.28-23.78"></path>
        <path stroke-width="1.25" stroke-linejoin="round" stroke-linecap="round" stroke="#93866c" fill="none" d="m129.93,58.32l1.55-7.25c.33-1.56-.86-3.02-2.45-3.02l-56.88.18c-1.17,0-2.19.82-2.43,1.97l-5.96,27.73"></path>
        <line stroke-width="1.25" stroke-linejoin="round" stroke-linecap="round" stroke="#93866c" fill="none" y2="60.15" x2="129.54" y1="62.01" x1="129.14"></line>
        <polyline stroke-width="1.25" stroke-linejoin="round" stroke-linecap="round" stroke="#93866c" fill="none" points="115.13 78.57 125.56 78.74 128.75 63.82"></polyline>
        <line stroke-width="1.25" stroke-linejoin="round" stroke-linecap="round" stroke="#93866c" fill="none" y2="78.57" x2="115.13" y1="78.55" x1="113.85"></line>
        <line stroke-width="1.25" stroke-linejoin="round" stroke-linecap="round" stroke="#93866c" fill="none" y2="78.55" x2="113.85" y1="78.5" x1="110.38"></line>
        <line stroke-width="1.25" stroke-linejoin="round" stroke-linecap="round" stroke="#93866c" fill="none" y2="78.5" x2="110.38" y1="78.4" x1="104.36"></line>
        <line stroke-width="1.25" stroke-linejoin="round" stroke-linecap="round" stroke="#93866c" fill="none" y2="78.4" x2="104.36" y1="77.95" x1="75.75"></line>
        <line stroke-width="1.25" stroke-linejoin="round" stroke-linecap="round" stroke="#93866c" fill="none" y2="77.94" x2="73.59" y1="77.94" x1="72.74"></line>
        <path stroke-width="1.25" stroke-linejoin="round" stroke-linecap="round" stroke="#93866c" fill="none" d="m135.45,50.5c1.66,2,3.46,5.29,3.56,10.2.07,3.21-.66,6.4-2.05,9.29-1.8,3.73-5.28,8.51-11.3,8.64"></path>
        <path stroke-width="1.25" stroke-linejoin="round" stroke-linecap="round" stroke="#93866c" fill="none" d="m74.86,53.73c1.23,2.68,1.97,6.48,1.02,11.69,0,0-.31,1.6-1.16,3.65"></path>
        <path stroke-width="1.25" stroke-linejoin="round" stroke-linecap="round" stroke="#93866c" fill="none" d="m73.05,50.82c.63.77,1.26,1.73,1.8,2.91"></path>
        <path stroke-width="1.25" stroke-linejoin="round" stroke-linecap="round" stroke="#93866c" fill="none" d="m70.93,48.76c.55.41,1.33,1.08,2.13,2.06"></path>
        <line stroke-width="1.25" stroke-linejoin="round" stroke-linecap="round" stroke="#93866c" fill="none" y2="80.95" x2="42.71" y1="77.94" x1="63.75"></line>
        <rect stroke-width="1.25" stroke-linejoin="round" stroke-linecap="round" stroke="#93866c" fill="none" transform="translate(-1.4 1.24) rotate(-1)" height="0" width="9.95" y="80.91" x="65.69"></rect>
        <path stroke-width="1.25" stroke-linejoin="round" stroke-linecap="round" stroke="#93866c" fill="none" d="m115.82,89.18c.84.59,1.4,1.55,1.42,2.66,0,.38-.05.75-.17,1.1"></path>
        <path stroke-width="1.25" stroke-linejoin="round" stroke-linecap="round" stroke="#93866c" fill="none" d="m114.14,95.2c-.05,0-.11,0-.16,0-1.83.03-3.33-1.42-3.37-3.25-.03-1.83,1.42-3.33,3.25-3.37.72-.01,1.4.21,1.95.59"></path>
        <path stroke-width="1.25" stroke-linejoin="round" stroke-linecap="round" stroke="#93866c" fill="none" d="m71.1,87.78c-1.18.02-2.16-.92-2.18-2.1-.02-1.18.92-2.16,2.1-2.18"></path>
        <circle stroke-width="1.25" stroke-linejoin="round" stroke-linecap="round" stroke="#93866c" fill="#fff9f1" r="1.94" cy="88.73" cx="113.87"></circle>
      </g>
      <rect stroke-width="1.11" stroke-miterlimit="10" stroke="#93866c" fill="#fff9f1" transform="translate(.26 -.3) rotate(.22)" ry="1.58" rx="1.58" height="5.26" width="15.77" y="65.21" x="69.42"></rect>
      <rect stroke-width="1.11" stroke-miterlimit="10" stroke="#93866c" fill="#fff9f1" transform="translate(.28 -.32) rotate(.22)" ry="1.58" rx="1.58" height="5.26" width="15.77" y="70.48" x="73.7"></rect>
      <rect stroke-width="1.11" stroke-miterlimit="10" stroke="#93866c" fill="#fff9f1" transform="translate(.3 -.29) rotate(.22)" ry="1.58" rx="1.58" height="5.26" width="15.77" y="75.71" x="68.25"></rect>
      <rect stroke-width="1.11" stroke-miterlimit="10" stroke="#93866c" fill="#fff9f1" transform="translate(.3 -.22) rotate(.22)" ry="1.58" rx="1.58" height="5.26" width="15.77" y="75.72" x="48.72"></rect>
      <rect stroke-width="1.11" stroke-miterlimit="10" stroke="#93866c" fill="#fff9f1" transform="translate(.28 -.23) rotate(.22)" ry="1.58" rx="1.58" height="5.26" width="15.77" y="70.17" x="51.11"></rect>
      <rect stroke-width="1.11" stroke-miterlimit="10" stroke="#93866c" fill="#fff9f1" transform="translate(86.2 -44.93) rotate(50.66)" ry="1.58" rx="1.58" height="5.26" width="15.77" y="65.95" x="82.67"></rect>
      <rect stroke-width="1.11" stroke-miterlimit="10" stroke="#93866c" fill="#fff9f1" transform="translate(.3 -.36) rotate(.22)" ry="1.58" rx="1.58" height="5.26" width="15.77" y="75.77" x="84.02"></rect>
      <rect stroke-width="1.11" stroke-miterlimit="10" stroke="#93866c" fill="#fff9f1" transform="translate(.4 -.49) rotate(.22)" ry="1.58" rx="1.58" height="5.26" width="15.77" y="100.44" x="119.45"></rect>
      <rect stroke-width="1.11" stroke-miterlimit="10" stroke="#93866c" fill="#fff9f1" transform="translate(.42 -.48) rotate(.22)" ry="1.58" rx="1.58" height="5.26" width="15.77" y="105.77" x="115.33"></rect>
      <rect stroke-width="1.11" stroke-miterlimit="10" stroke="#93866c" fill="#fff9f1" transform="translate(.44 -.45) rotate(.22)" ry="1.58" rx="1.58" height="5.26" width="15.77" y="111.18" x="107.22"></rect>
      <rect stroke-width="1.11" stroke-miterlimit="10" stroke="#93866c" fill="#fff9f1" transform="translate(.44 -.49) rotate(.22)" ry="1.58" rx="1.58" height="5.26" width="15.77" y="111.22" x="119.02"></rect>
      <g clip-path="url(#clippath)">
        <rect stroke-width="1.11" stroke-miterlimit="10" stroke="#93866c" fill="#fff9f1" transform="translate(-23.61 69.44) rotate(-32.05)" ry="1.58" rx="1.58" height="5.26" width="15.77" y="73.19" x="101.19"></rect>
      </g>
    </g>
  </g>
</svg>