<svg viewBox="0 0 160.43 160.43" xmlns:xlink="http://www.w3.org/1999/xlink" xmlns="http://www.w3.org/2000/svg">
  <defs>
    <clipPath id="clippath">
      <rect stroke-width="0" fill="none" height="71.55" width="117.83" y="41.02" x="21.3"></rect>
    </clipPath>
  </defs>
  <g id="OBJECTS">
    <g data-name="ICON - LACK OF TRANSPARANCY" id="ICON_-_LACK_OF_TRANSPARANCY">
      <circle stroke-width="0" fill="#ece8dc" r="80.21" cy="80.21" cx="80.21"></circle>
      <line stroke-width="1.2" stroke-linejoin="round" stroke-linecap="round" stroke="#93866c" fill="none" y2="112.86" x2="26.56" y1="112.86" x1="29.85"></line>
      <line stroke-width="1.2" stroke-linejoin="round" stroke-linecap="round" stroke="#93866c" fill="none" y2="112.86" x2="33.88" y1="112.86" x1="135.35"></line>
      <g clip-path="url(#clippath)">
        <g>
          <path stroke-width="0" fill-rule="evenodd" fill="#edeadd" d="m44.1,80.33l1.01-4.03s.74-1.45,4.14-1.26c0,0,2.01-.28,3.63.58,1.62.86,2.57,2.35,2.85,3.66s.14,1.1.14,1.1"></path>
          <path stroke-width="0" fill-rule="evenodd" fill="#e0ddce" d="m43.95,80.33l1.01-4.03s.05-.1.19-.25c-.9-.26-1.84-.4-2.82-.4-5.69,0-10.3,4.61-10.3,10.3h0c0,5.69,4.61,10.3,10.3,10.3s10.3-4.61,10.3-10.3h0c0-2.06-.61-3.98-1.65-5.59l-7.02-.03Z"></path>
          <rect stroke-width="0" fill="#edeadd" ry="2.06" rx="2.06" height="6.75" width="8.46" y="75.43" x="99.7"></rect>
          <path stroke-width="0" fill-rule="evenodd" fill="#fff6ee" d="m67.34,104.24h49.98l1.41-.63,3.16-3.16h3.44c1.13,0,1.69-1.27,1.69-1.27v-2.98c-.05-.73-.55-1.54-.55-1.54.12-.05.27-1.36.27-1.36.36.01,2.64.72,2.64.72,0,0-.2.21,1.15-.03,1.36-.24,1.03-1.8,1.03-1.8,0,0-.3-.99-1.24-3.21-.94-2.22-2.6-2.4-2.6-2.4l-2.05-.17c-.76-4.62-4.64-5.55-4.64-5.55l-16.21-2.82s-2.17-22.17-2.17-24.13-1.75-1.78-1.75-1.78h-50.93c-1.78,0-1.94.75-1.94.75l-6.7,27.73c-4.88,0-5.42,5.04-5.42,5.04v4.9l-.89,1.59-.97,3.33h-2.26c-1.54,0-1.91,1.87-1.91,1.87v4.64c0,1.26,1.02,2.28,2.28,2.28h35.16m-16.39-23.77h-6.77l6.13-26h16.4l1.21,26h-14.12m18.05-2.45c-.05.09.61-2.3-1.92-2.44l-.82-20.34s.24-.69,1.63-.7c1.39,0,28.75,0,28.75,0,0,0,1.02.15,1.06,1.35l2.05,22.14h-30.75Z"></path>
          <path stroke-width="0" fill-rule="evenodd" fill="#edeadd" d="m126.9,96.13v2.48c0,.93-.76,1.69-1.69,1.69h-27.2c-.93,0-1.69-.76-1.69-1.69v-2.71c0-.93.76-1.69,1.69-1.69h27.2c.93,0,1.69.76,1.69,1.69v.22"></path>
          <path stroke-width="0" fill-rule="evenodd" fill="#edeadd" d="m41.59,82.49c.9,0,1.5.73,1.34,1.62-.16.9-1.01,1.62-1.91,1.62s-1.5-.73-1.34-1.62c.16-.9,1.01-1.62,1.91-1.62Z"></path>
          <path stroke-width="0" fill-rule="evenodd" fill="#e0ddce" d="m71.81,79.43c.53.26.9.81.9,1.44v2.19c0,.88-.72,1.6-1.6,1.6h0c-.88,0-1.6-.72-1.6-1.6v-.7"></path>
          <path stroke-width="0" fill-rule="evenodd" fill="#edeadd" d="m71.71,77.88c-.05.09.61-2.3-1.92-2.44l-.82-20.34s.24-.69,1.63-.7c1.39,0,28.75,0,28.75,0,0,0,1.02.15,1.06,1.35l2.05,22.14h-30.75Z"></path>
          <polygon stroke-width="0" fill-rule="evenodd" fill="#fff8f3" points="79.62 54.39 83.15 77.81 85.79 77.81 81.97 54.39 79.62 54.39"></polygon>
          <path stroke-width="0" fill-rule="evenodd" fill="#fff8f3" d="m77.61,54.39l3.29,23.49h-10.77l-1.16-22.78s.36-.66,1.27-.68,7.36-.02,7.36-.02Z"></path>
          <rect stroke-width="0" fill="#edeadd" ry="2.06" rx="2.06" height="6.75" width="8.46" y="75.43" x="63.32"></rect>
          <polyline stroke-width=".57" stroke-linejoin="round" stroke-linecap="round" stroke="#93866c" fill-rule="evenodd" fill="none" points="102.26 75.51 102.48 77.88 74.88 77.88"></polyline>
          <path stroke-width=".57" stroke-linejoin="round" stroke-linecap="round" stroke="#93866c" fill-rule="evenodd" fill="none" d="m69.89,75.44l-.95-19.94c-.03-.6.45-1.1,1.05-1.1h29.37c.54,0,1,.41,1.05.96l1.85,20.16"></path>
          <polyline stroke-width=".57" stroke-linejoin="round" stroke-linecap="round" stroke="#93866c" fill-rule="evenodd" fill="none" points="67.54 73.94 66.57 54.28 59.8 54.28"></polyline>
          <path stroke-width=".57" stroke-linejoin="round" stroke-linecap="round" stroke="#93866c" fill-rule="evenodd" fill="none" d="m41.68,79.23l6.12-26.18c.15-.64.72-1.09,1.37-1.08l18.11.04,33.83-.05h.05c.73,0,1.33.56,1.4,1.28l2.15,24.64,15.61,2.68c2.65.46,4.72,2.54,5.16,5.19l1.03,6.27s.12.89.11,1.25c-.01.33-.04.77-.27,1.23"></path>
          <polyline stroke-width=".57" stroke-linejoin="round" stroke-linecap="round" stroke="#93866c" fill-rule="evenodd" fill="none" points="44.04 80.33 50.18 54.28 56.96 54.23"></polyline>
          <path stroke-width=".57" stroke-linejoin="round" stroke-linecap="round" stroke="#93866c" fill-rule="evenodd" fill="none" d="m126.9,96.13v2.48c0,.93-.76,1.69-1.69,1.69h-27.2c-.93,0-1.69-.76-1.69-1.69v-2.71c0-.93.76-1.69,1.69-1.69h27.2c.93,0,1.69.76,1.69,1.69v.22"></path>
          <g id="front">
            <g id="grill">
              <rect stroke-width="0" fill="#e0ddce" ry="1.05" rx="1.05" height="2.09" width="11.12" y="83.41" x="103.93"></rect>
              <rect stroke-width="0" fill="#e0ddce" ry="1.05" rx="1.05" height="2.09" width="11.12" y="86.7" x="104.72"></rect>
              <rect stroke-width="0" fill="#e0ddce" ry="1.05" rx="1.05" height="2.09" width="11.12" y="89.99" x="105.52"></rect>
              <rect stroke-width=".57" stroke-linejoin="round" stroke-linecap="round" stroke="#93866c" fill="none" ry="1.05" rx="1.05" height="2.09" width="11.12" y="83.41" x="103.93"></rect>
              <rect stroke-width=".57" stroke-linejoin="round" stroke-linecap="round" stroke="#93866c" fill="none" ry="1.05" rx="1.05" height="2.09" width="11.12" y="86.73" x="104.72"></rect>
              <rect stroke-width=".57" stroke-linejoin="round" stroke-linecap="round" stroke="#93866c" fill="none" ry="1.05" rx="1.05" height="2.09" width="11.12" y="89.99" x="105.52"></rect>
            </g>
            <g id="headlightz">
              <path stroke-width="0" fill-rule="evenodd" fill="#fff8f3" d="m120.71,82.09c1.65.38,3.09,1.81,3.41,3.51.37,1.99-.94,3.61-2.93,3.61s-3.91-1.62-4.29-3.61c-.09-.46-.05-1.02,0-1.31s.33-1.04.88-1.56c.51-.48,1.23-.74,2.05-.74.29,0,.59.04.87.1"></path>
              <path stroke-width="0" fill-rule="evenodd" fill="#fff8f3" d="m98.99,82.09c1.65.38,3.09,1.81,3.41,3.51.37,1.99-.94,3.61-2.93,3.61s-3.91-1.62-4.29-3.61c-.09-.46-.05-1.02,0-1.31s.33-1.04.88-1.56c.51-.48,1.23-.74,2.05-.74.29,0,.59.04.87.1"></path>
              <path stroke-width=".57" stroke-linejoin="round" stroke-linecap="round" stroke="#93866c" fill-rule="evenodd" fill="none" d="m120.71,82.04c1.65.38,3.09,1.81,3.41,3.51.37,1.99-.94,3.61-2.93,3.61s-3.91-1.62-4.29-3.61c-.09-.46-.08-.9,0-1.31"></path>
              <path stroke-width=".57" stroke-linejoin="round" stroke-linecap="round" stroke="#93866c" fill-rule="evenodd" fill="none" d="m96.07,82.68c.52-.46,1.23-.74,2.05-.74.29,0,.59.04.87.1"></path>
              <path stroke-width=".57" stroke-linejoin="round" stroke-linecap="round" stroke="#93866c" fill-rule="evenodd" fill="none" d="m117.78,82.68c.52-.46,1.23-.74,2.05-.74.29,0,.59.04.87.1"></path>
              <path stroke-width=".57" stroke-linejoin="round" stroke-linecap="round" stroke="#93866c" fill-rule="evenodd" fill="none" d="m98.99,82.04c1.65.38,3.09,1.81,3.41,3.51.37,1.99-.94,3.61-2.93,3.61s-3.91-1.62-4.29-3.61c-.09-.46-.08-.9,0-1.31"></path>
              <path stroke-width=".57" stroke-linejoin="round" stroke-linecap="round" stroke="#93866c" fill-rule="evenodd" fill="none" d="m126.41,91.43c.1.51-.24.93-.75.93s-1-.41-1.1-.93c-.1-.51.24-.93.75-.93.03,0,.06,0,.1,0"></path>
              <path stroke-width=".57" stroke-linejoin="round" stroke-linecap="round" stroke="#93866c" fill-rule="evenodd" fill="none" d="m96.29,90.49c.51,0,1,.41,1.1.93.1.51-.24.93-.75.93s-1-.41-1.1-.93c-.1-.51.24-.93.75-.93Z"></path>
            </g>
          </g>
          <path stroke-width=".57" stroke-linejoin="round" stroke-linecap="round" stroke="#93866c" fill-rule="evenodd" fill="none" d="m97.67,77.69c.14-2.41-1.59-4.28-4.06-4.28h0c-2.53,0-4.92,1.97-5.48,4.46"></path>
          <line stroke-width=".57" stroke-linejoin="round" stroke-linecap="round" stroke="#93866c" fill="none" y2="54.52" x2="98.21" y1="73.42" x1="93.85"></line>
          <path stroke-width="0" fill-rule="evenodd" fill="#edeadd" d="m38.39,104.23h-6.85c-.98,0-1.77-.79-1.77-1.77v-1.66h11.27"></path>
          <line stroke-width=".57" stroke-linejoin="round" stroke-linecap="round" stroke="#93866c" fill="none" y2="73.73" x2="91.49" y1="54.39" x1="96.07"></line>
          <path stroke-width="1.2" stroke-linejoin="round" stroke-linecap="round" stroke="#93866c" fill-rule="evenodd" fill="none" d="m37.48,104.1h-5.61c-1.16,0-2.1-.94-2.1-2.1v-4.59c0-1.16.94-2.1,2.1-2.1h1.67"></path>
          <line stroke-width="1.2" stroke-linejoin="round" stroke-linecap="round" stroke="#93866c" fill="none" y2="104.1" x2="60.9" y1="104.1" x1="65.8"></line>
          <line stroke-width="1.2" stroke-linejoin="round" stroke-linecap="round" stroke="#93866c" fill="none" y2="104.1" x2="92.88" y1="104.1" x1="112.64"></line>
          <path stroke-width="1.2" stroke-linejoin="round" stroke-linecap="round" stroke="#93866c" fill-rule="evenodd" fill="none" d="m119.47,102.6l-.74.66c-.61.54-1.4.84-2.21.84h-3.88"></path>
          <path stroke-width=".57" stroke-linejoin="round" stroke-linecap="round" stroke="#93866c" fill-rule="evenodd" fill="none" d="m78.82,91.23h-6.87c-1.92,0-2.91,1.63-3.4,3.29l-1.19,4.07c-.14.49-.58.82-1.09.82h-1.66c-.37,0-.69-.16-.91-.46-.22-.3-.29-.65-.18-1l1.32-4.52c.99-3.37,3.39-6.07,7.11-6.07h10.01"></path>
          <path stroke-width=".57" stroke-linejoin="round" stroke-linecap="round" stroke="#93866c" fill-rule="evenodd" fill="none" d="m90.58,90.17c.94,1.1,1.48,2.81,1.77,4.09.2.88-.47,1.71-1.37,1.71h-.84"></path>
          <path stroke-width=".57" stroke-linejoin="round" stroke-linecap="round" stroke="#93866c" fill-rule="evenodd" fill="none" d="m44.64,91.11h-3.02c-1.92,0-2.91,1.63-3.4,3.29l-1.19,4.07c-.14.49-.58.82-1.09.82h-1.63c-.36,0-.71-.16-.94-.45s-.29-.65-.19-1.01l1.32-4.52c.99-3.37,3.39-6.07,7.11-6.07h1.77s5.92,0,5.92,0"></path>
          <path stroke-width=".57" stroke-linejoin="round" stroke-linecap="round" stroke="#93866c" fill-rule="evenodd" fill="none" d="m125.68,86.44c3.1,0,3.39.9,4.02,1.82.63.92,1.48,2.81,1.77,4.09.2.88-.47,1.71-1.37,1.71h-.84s-1.79-.16-2.48-.4"></path>
          <path stroke-width=".57" stroke-linejoin="round" stroke-linecap="round" stroke="#93866c" fill-rule="evenodd" fill="none" d="m35.8,90.5v-4.51c0-3.1,2.51-5.61,5.61-5.61h16.29s1.78,0,1.78,0c0,0-5.6,0-4.85,5.06l1.61,7.12s.51,2.7,2.28,2.97"></path>
          <path stroke-width=".57" stroke-linejoin="round" stroke-linecap="round" stroke="#93866c" fill-rule="evenodd" fill="none" d="m41.59,82.49c.9,0,1.5.73,1.34,1.62-.16.9-1.01,1.62-1.91,1.62s-1.5-.73-1.34-1.62c.16-.9,1.01-1.62,1.91-1.62Z"></path>
          <path stroke-width=".57" stroke-linejoin="round" stroke-linecap="round" stroke="#93866c" fill-rule="evenodd" fill="none" d="m63.32,77.81v-.37c0-1.11.91-2.01,2.01-2.01h4.43c1.11,0,2.01.91,2.01,2.01v2.73c0,1.11-.91,2.01-2.01,2.01h-4.43c-.52,0-1-.2-1.35-.53"></path>
          <path stroke-width=".57" stroke-linejoin="round" stroke-linecap="round" stroke="#93866c" fill-rule="evenodd" fill="none" d="m104.49,75.43h1.65c1.11,0,2.01.91,2.01,2.01v1.03"></path>
          <path stroke-width=".57" stroke-linejoin="round" stroke-linecap="round" stroke="#93866c" fill-rule="evenodd" fill="none" d="m99.7,77.81v-.37c0-1.11.91-2.01,2.01-2.01h.54"></path>
          <path stroke-width=".57" stroke-linejoin="round" stroke-linecap="round" stroke="#93866c" fill-rule="evenodd" fill="none" d="m71.81,79.41c.53.26.9.81.9,1.44v2.19c0,.88-.72,1.6-1.6,1.6h0c-.88,0-1.6-.72-1.6-1.6v-.7"></path>
          <path stroke-width=".57" stroke-linejoin="round" stroke-linecap="round" stroke="#93866c" fill-rule="evenodd" fill="none" d="m42.33,75.66c-5.69,0-10.31,4.62-10.31,10.31,0,1.93.53,3.74,1.45,5.28"></path>
          <path stroke-width=".57" stroke-linejoin="round" stroke-linecap="round" stroke="#93866c" fill-rule="evenodd" fill="none" d="m80.52,75.03h.42c1.69,0,3.36,1.12,4.16,2.65"></path>
          <path stroke-width=".57" stroke-linejoin="round" stroke-linecap="round" stroke="#93866c" fill-rule="evenodd" fill="none" d="m75.35,77.69c.17-1.53,1.38-2.65,3.07-2.65h2.1"></path>
          <path stroke-width=".57" stroke-linejoin="round" stroke-linecap="round" stroke="#93866c" fill-rule="evenodd" fill="none" d="m44.66,77.69c.51-1.93,1.47-2.65,3.26-2.65h2.69c1.8,0,3.58,1.12,4.43,2.65"></path>
          <path stroke-width=".57" stroke-linejoin="round" stroke-linecap="round" stroke="#93866c" fill-rule="evenodd" fill="none" d="m55.09,77.77s.38.71.59,1.45"></path>
          <line stroke-width=".57" stroke-linejoin="round" stroke-linecap="round" stroke="#93866c" fill="none" y2="83.45" x2="57.94" y1="83.45" x1="61.34"></line>
        </g>
      </g>
      <path stroke-width="1.25" stroke-linejoin="round" stroke-linecap="round" stroke="#93866c" fill-rule="evenodd" fill="none" d="m38.58,101.72c.63-2.61,2.38-4.9,4.91-6.14"></path>
      <path stroke-width="1.25" stroke-linejoin="round" stroke-linecap="round" stroke="#93866c" fill-rule="evenodd" fill="none" d="m45.39,112.57c-2.97-.73-5.53-2.91-6.58-6.03-.58-1.71-.63-3.47-.23-5.11"></path>
      <path stroke-width="1.25" stroke-linejoin="round" stroke-linecap="round" stroke="#93866c" fill-rule="evenodd" fill="none" d="m59.08,104.24c.06,3.07-1.21,6.12-3.64,8.22"></path>
      <path stroke-width="1.25" stroke-linejoin="round" stroke-linecap="round" stroke="#93866c" fill-rule="evenodd" fill="none" d="m49.24,95.17c2.97.73,5.53,2.91,6.58,6.03.58,1.71.63,3.47.23,5.11-.63,2.61-2.38,4.9-4.91,6.14"></path>
      <path stroke-width="1.25" stroke-linejoin="round" stroke-linecap="round" stroke="#93866c" fill-rule="evenodd" fill="none" d="m43.94,109.35c-1.73-1.05-2.96-2.86-3.18-5.03s.62-4.19,2.1-5.57"></path>
      <path stroke-width="1.25" stroke-linejoin="round" stroke-linecap="round" stroke="#93866c" fill-rule="evenodd" fill="none" d="m76.19,112.57c-2.97-.73-5.53-2.91-6.58-6.03-.58-1.71-.63-3.47-.23-5.11"></path>
      <path stroke-width="1.25" stroke-linejoin="round" stroke-linecap="round" stroke="#93866c" fill-rule="evenodd" fill="none" d="m89.88,104.24c.06,3.07-1.21,6.12-3.64,8.22"></path>
      <path stroke-width="1.25" stroke-linejoin="round" stroke-linecap="round" stroke="#93866c" fill-rule="evenodd" fill="none" d="m80.04,95.17c2.97.73,5.53,2.91,6.58,6.03.58,1.71.63,3.47.23,5.11-.63,2.61-2.38,4.9-4.91,6.14"></path>
      <path stroke-width="1.25" stroke-linejoin="round" stroke-linecap="round" stroke="#93866c" fill-rule="evenodd" fill="none" d="m74.73,109.35c-1.73-1.05-2.96-2.86-3.18-5.03-.22-2.17.62-4.19,2.1-5.57"></path>
      <path stroke-width="1.25" stroke-linejoin="round" stroke-linecap="round" stroke="#93866c" fill-rule="evenodd" fill="none" d="m119.48,112.75c-3.43-.65-5.3-3.09-6.35-6.21"></path>
      <path stroke-width="1.25" stroke-linejoin="round" stroke-linecap="round" stroke="#93866c" fill-rule="evenodd" fill="none" d="m133.4,104.24c.06,3.07-1.21,6.12-3.64,8.22"></path>
      <path stroke-width="1.25" stroke-linejoin="round" stroke-linecap="round" stroke="#93866c" fill-rule="evenodd" fill="none" d="m123.56,95.17c2.97.73,5.53,2.91,6.58,6.03.58,1.71.63,3.47.23,5.11-.63,2.61-2.38,4.9-4.91,6.14"></path>
      <path stroke-width="1.25" stroke-linejoin="round" stroke-linecap="round" stroke="#93866c" fill-rule="evenodd" fill="none" d="m118.25,109.35c-1.73-1.05-2.96-2.86-3.18-5.03"></path>
      <g>
        <path stroke-width="0" fill="#cac6b4" d="m23.86,100.12c-.51,0-.72-.65-.31-.95.73-.53,1.42-1.36,1.65-2.63.41-2.2,1.78-10.84,4.29-20.53,1.08-4.14.67-7.5,5.61-10.73,5.4-3.54,6.28-6.76,7.2-9.23,4.14-11.16,16.57-10.2,16.57-10.2h36.57c5.61,0,10.65,3.41,12.74,8.62l4.66,11.64c.7,1.75,2.04,3.18,3.76,3.98l13.79,6.47c2.97,1.39,4.93,4.29,5.13,7.56l.74,12.39c.06,1.08.5,2.12,1.28,2.87.28.27.85.54,1.42.76.29.11.21.54-.1.54-13.48-.07-98.82-.49-114.99-.57Z"></path>
        <path stroke-width="1.2" stroke-linejoin="round" stroke-linecap="round" stroke="#93866c" fill="none" d="m23.69,100.12c-.51,0-.72-.65-.31-.95.73-.53,1.42-1.36,1.65-2.63.41-2.2,2.11-10.34,4.29-20.53.9-4.19.67-7.5,5.61-10.73,5.4-3.54,6.28-6.76,7.2-9.23,4.14-11.16,16.57-10.2,16.57-10.2h36.57c5.61,0,10.65,3.41,12.74,8.62l4.66,11.64c.7,1.75,2.04,3.18,3.76,3.98l13.79,6.47c2.97,1.39,4.93,4.29,5.13,7.56l.74,12.39c.06,1.08.5,2.12,1.28,2.87.28.27.85.54,1.42.76.29.11.21.54-.1.54-13.48-.07-98.82-.49-114.99-.57Z"></path>
      </g>
      <path stroke-width="0" opacity=".3" fill="#93866c" d="m33.24,79.03c-1.07,5.15-2.81,13.34-3.75,16.9-.15.56.27,1.1.85,1.1h3.91c.46,0,.84-.36.88-.82.18-2.52.63-10.4-.15-17.1-.12-.99-1.53-1.05-1.74-.08Z"></path>
      <path stroke-width="0" opacity=".3" fill="#93866c" d="m130.36,88.01c-.05,2.43,0,5.83.53,7.74.18.65-.32,1.28-.99,1.28h-4.44c-.63,0-1.11-.56-1.01-1.18.38-2.47,1.11-8.32.44-12.75-.15-.96,1.01-1.55,1.72-.88.58.55,1.18,1.09,1.77,1.56,1.27,1.03,2.02,2.58,1.99,4.22Z"></path>
      <path stroke-width="0" opacity=".3" fill="#93866c" d="m90.38,65.83c-.16-1.06-1.72-.97-1.76.11l-.58,18.78s-.11,7.98-1.61,11.21c-.27.59.15,1.25.8,1.25h11.74c.68,0,1.11-.73.77-1.32-1.41-2.46-4.43-8.37-7.11-17.91-.71-2.53-1.55-7.5-2.26-12.11Z"></path>
    </g>
  </g>
</svg>