<svg viewBox="0 0 160.43 160.43" xmlns="http://www.w3.org/2000/svg">
  <g id="OBJECTS">
    <g data-name="ICON - CLUNKY CLAIMS PROCESS" id="ICON_-_CLUNKY_CLAIMS_PROCESS">
      <circle stroke-width="0" fill="#ece8dc" r="80.21" cy="80.21" cx="80.21"></circle>
      <path stroke-width="0" fill-rule="evenodd" fill="#f0ede0" d="m67.77,54.17l22.41-2.98c2.57,22.64,5.57,41.97,7.57,64.75l-19.35,2.33c-16.73,1.68-29.05-15.13-30.26-28.98-1.29-14.77,5.04-31.86,19.62-35.11h0Z"></path>
      <path stroke-width="0" fill-rule="evenodd" fill="#fff9f1" d="m93.06,74.67c.57,4.44,1.13,8.83,1.67,13.25-3.79,1.11-7.75,2.21-11.8,3.3-13.29,3.56-24.88,6.19-32.59,7.04-1.15-2.89-1.89-5.85-2.16-8.69,8.46-4.28,22.93-9.07,38.91-13.35,2.03-.54,4.03-1.06,5.97-1.55h0Z"></path>
      <path stroke-width="0" opacity=".3" fill-rule="evenodd" fill="#93866c" d="m68.23,55.7l21.24-2.83c.6,5.24,1.22,10.3,1.84,15.27-.68.16,12.32-2.88-2.05.47-12.99,3.03-24.49,6.28-35.15,10.03-3.69,1.3-4.64,2.39-3.75-1.83,2.11-10.01,7.99-18.91,17.87-21.11h0Zm26.76,42.12c.6,5.33,1.17,10.77,1.66,16.43l-18.34,2.21c-8.16.82-15.22-3.01-20.3-8.7-2.27-2.55-.57-1.99,2.69-2.51,7.36-1.19,14.57-2.63,22.89-4.58,3.86-.9,7.67-1.85,11.39-2.84h0Z"></path>
      <path stroke-width="0" fill-rule="evenodd" fill="#f0ede0" d="m82.14,53.34c12.88-6.55,27.98,1.76,33.72,18.57,5.75,16.81-.04,35.75-12.92,42.3-12.88,6.55-27.98-1.76-33.72-18.57-5.75-16.81.04-35.75,12.92-42.3h0Z"></path>
      <path stroke-width="0" fill-rule="evenodd" fill="#fff9f1" d="m94.55,51.76c8.86,1.63,17.01,9.11,20.89,20.47,4.5,13.17,1.93,27.64-5.59,36.44,12.58-21.2,6.04-49.57-15.3-56.91h0Z"></path>
      <path stroke-width="0" fill-rule="evenodd" fill="#e3e0d1" d="m82.73,56.83c-.58,23.06,5.45,40.61,18.61,54.59,1.48,1.57,1.89,1.74-.2,2.6-12.16,5.01-25.88-3.06-31.24-18.73-5.32-15.57-.46-32.97,10.82-40.09,2.18-1.38,2.08-1.13,2.01,1.63h0Z"></path>
      <path stroke-width="0" fill-rule="evenodd" fill="#fff9f1" d="m95.95,58.08c11.2,3.09,18.75,17.1,16.86,31.29-1.88,14.19-12.49,23.19-23.68,20.1-11.2-3.09-18.75-17.1-16.86-31.29,1.88-14.19,12.49-23.19,23.68-20.1h0Z"></path>
      <path stroke-width="0" fill-rule="evenodd" fill="#f0ede0" d="m83.09,63.89c-4.78,18.66,3.8,35.64,18.2,40.73,1.44.51,1.58,1.15.02,2.06-9.09,5.3-20.29.51-25.53-11.18-5.2-11.62-2.62-25.81,5.64-32.67,1.6-1.33,2.19-.98,1.67,1.05h0Z"></path>
      <path stroke-width="0" fill="#93866c" d="m95.55,81.92c.42.92.52,1.96.34,2.9-.19.99-.71,1.88-1.5,2.44-.16.12-.33.21-.51.29-.72.33-1.49.36-2.21.11-.66-.23-1.28-.68-1.74-1.34-.15-.21-.29-.45-.4-.7-.42-.92-.52-1.96-.34-2.9.19-.99.71-1.88,1.5-2.44.16-.12.33-.21.51-.29.72-.33,1.49-.36,2.21-.11.66.23,1.28.68,1.74,1.34.15.21.29.45.4.7h0Zm-2.1,2.41c.09-.44.04-.94-.16-1.38-.05-.11-.11-.21-.17-.3-.15-.21-.33-.36-.51-.42-.13-.04-.26-.04-.38.01-.04.02-.07.04-.11.06-.25.18-.42.51-.5.89-.09.44-.04.94.16,1.38.05.11.11.21.17.3.15.21.33.36.51.42.13.04.26.04.38-.01.04-.02.07-.04.11-.06.25-.18.42-.51.5-.89h0Z"></path>
      <path stroke-width="0" fill-rule="evenodd" fill="#fff9f1" d="m99.93,63.27c8.33,8.09,10.35,17.9,9.31,28.66-.27,2.78.44,4.16,1.16.8,3.29-15.3-3.16-26.76-9.91-30.97-2.85-1.77-2.53-.4-.56,1.52h0Z"></path>
      <path stroke-width="0" fill-rule="evenodd" fill="#f0ede0" d="m113.87,89.66h0c-.1.72-.64,1.18-1.21,1.03l-3.53-.97c-.57-.16-.96-.88-.86-1.6h0c.1-.72.64-1.18,1.21-1.03l3.53.97c.57.16.96.88.86,1.6h0Z"></path>
      <path stroke-width="0" fill-rule="evenodd" fill="#e3e0d1" d="m88.95,110.8h0c-.57-.16-.96-.88-.86-1.6l.59-4.47c.1-.72.64-1.18,1.21-1.03h0c.57.16.96.88.86,1.6l-.59,4.47c-.1.72-.64,1.18-1.21,1.03h0Z"></path>
      <path stroke-width="0" fill-rule="evenodd" fill="#e3e0d1" d="m71.22,77.89h0c.1-.72.64-1.18,1.21-1.03l3.53.97c.57.16.96.88.86,1.6h0c-.1.72-.64,1.18-1.21,1.03l-3.53-.97c-.57-.16-.96-.88-.86-1.6h0Z"></path>
      <path stroke-width="0" fill-rule="evenodd" fill="#f0ede0" d="m106.37,63.23h0c.31.34.35.93.1,1.31l-1.89,2.81c-.25.38-.71.41-1.02.06h0c-.31-.34-.35-.93-.1-1.31l1.89-2.81c.25-.38.71-.41,1.02-.06h0Z"></path>
      <path stroke-width="0" fill-rule="evenodd" fill="#f0ede0" d="m112.85,75.3h0c.14.49-.05,1.01-.43,1.17l-2.79,1.16c-.37.16-.79-.12-.93-.6h0c-.14-.49.05-1.01.43-1.17l2.79-1.16c.37-.16.79.12.93.6h0Z"></path>
      <path stroke-width="0" fill-rule="evenodd" fill="#f0ede0" d="m109.22,102.35h0c-.25.38-.71.41-1.02.06l-2.29-2.56c-.31-.34-.35-.93-.1-1.31h0c.25-.38.71-.41,1.02-.06l2.29,2.56c.31.34.35.93.1,1.31h0Z"></path>
      <path stroke-width="0" fill-rule="evenodd" fill="#e3e0d1" d="m100.08,110.07h0c-.37.16-.79-.12-.93-.6l-1.04-3.62c-.14-.49.05-1.01.43-1.17h0c.37-.16.79.12.93.6l1.04,3.62c.14.49-.05,1.01-.43,1.17h0Z"></path>
      <path stroke-width="0" fill-rule="evenodd" fill="#e3e0d1" d="m78.74,104.14h0c-.31-.34-.35-.93-.1-1.31l1.89-2.81c.25-.38.71-.41,1.02-.06h0c.31.34.35.93.1,1.31l-1.89,2.81c-.25.38-.71.41-1.02.06h0Z"></path>
      <path stroke-width="0" fill-rule="evenodd" fill="#e3e0d1" d="m72.26,92.06h0c-.14-.49.05-1.01.43-1.17l2.79-1.16c.37-.16.79.12.93.6h0c.14.49-.05,1.01-.43,1.17l-2.79,1.16c-.37.16-.79-.12-.93-.6h0Z"></path>
      <path stroke-width="0" fill-rule="evenodd" fill="#e3e0d1" d="m75.89,65.02h0c.25-.38.71-.41,1.02-.06l2.29,2.56c.31.34.35.93.1,1.31h0c-.25.38-.71.41-1.02.06l-2.29-2.56c-.31-.34-.35-.93-.1-1.31h0Z"></path>
      <path stroke-width="0" fill-rule="evenodd" fill="#f0ede0" d="m96.13,56.75h0c.57.16.96.88.86,1.6l-.59,4.47c-.1.72-.64,1.18-1.21,1.03h0c-.57-.16-.96-.88-.86-1.6l.59-4.47c.1-.72.64-1.18,1.21-1.03h0Z"></path>
      <path stroke-width="0" fill-rule="evenodd" fill="#f0ede0" d="m85.02,57.29h0c.37-.16.79.12.93.6l1.04,3.62c.14.49-.05,1.01-.43,1.17h0c-.37.16-.79-.12-.93-.6l-1.04-3.62c-.14-.49.05-1.01.43-1.17h0Z"></path>
      <path stroke-width="0" fill-rule="evenodd" fill="#fff9f1" d="m74.07,49.72c-.02.11-.05.23-.08.34v.02s0,.02,0,.02c-.03.11-.06.22-.09.33v.04c-.04.1-.08.21-.12.31l-.02.05v.04c-.04.08-.07.15-.1.23v.04s-.06.11-.06.11l-.08.2-.02.04-.05.12-.02.04-.02.04-.05.11c-.04.08-.08.16-.12.24l-.02.04-.04.08-.02.04c-.74-1.16-1.56-2.21-2.45-3.14.48-.84.88-1.69,1.21-2.54.24.26.47.52.68.81l.04.05.04.05.11.14.04.05.04.05.07.1.03.05.03.05.03.05.07.1.03.05.06.09.04.07.03.05.06.1.03.05v.02s.03.04.03.04l.11.19v.02s.01,0,.01,0v.02s.12.19.12.19l.02.04h0c.04.09.08.16.12.24l.02.04c.04.08.08.15.12.23h0s0,.02,0,.02c.04.09.09.18.13.27h0Z"></path>
      <polyline stroke-width="1.25" stroke-linejoin="round" stroke-linecap="round" stroke="#93866c" fill-rule="evenodd" fill="none" points="89.81 74.07 92.54 83.51 85.16 86.58"></polyline>
      <line stroke-width="1.25" stroke-linejoin="round" stroke-linecap="round" stroke="#93866c" fill="none" y2="71.62" x2="89.11" y1="69.65" x1="88.54"></line>
      <path stroke-width="1.25" stroke-linejoin="round" stroke-linecap="round" stroke="#93866c" fill-rule="evenodd" fill="none" d="m79.72,49.4c-5.24-.32-17.42,4.04-12.37,4.29-14.58,3.25-20.91,20.34-19.62,35.11.28,3.25,1.18,6.67,2.6,9.97"></path>
      <path stroke-width="1.25" stroke-linejoin="round" stroke-linecap="round" stroke="#93866c" fill-rule="evenodd" fill="none" d="m54.91,106.59c.27.35.55.7.83,1.05,6.5,7.85,16.71,11.63,26.83,10.41l7.11-.86c2.96-.36,5.89-.93,8.73-1.83,1.38-.44,2.75-.96,4.1-1.64,12.88-6.55,18.66-25.49,12.92-42.3-.84-2.45-1.88-4.73-3.08-6.8"></path>
      <path stroke-width="1.25" stroke-linejoin="round" stroke-linecap="round" stroke="#93866c" fill-rule="evenodd" fill="none" d="m51.83,101.73c.41.8,1.04,1.69,1.51,2.47"></path>
      <path stroke-width="0" fill-rule="evenodd" fill="#f0ede0" d="m74.07,49.72c-1.62,7.63-15.8,17.63-24.77,17.23-6.76-8.96-2.25-17.08,4.99-21.8,6.83-4.45,16.26-3.05,19.79,4.57h0Z"></path>
      <path stroke-width="0" fill-rule="evenodd" fill="#e3e0d1" d="m61.21,63.38c-3.48,1.95-7.16,3.3-10.36,3.54-3.66-6.59-4.78-12.47,2.63-19.66-.55,5.58,2.22,12.46,7.73,16.12h0Z"></path>
      <path stroke-width="0" fill-rule="evenodd" fill="#fff9f1" d="m74.07,49.72c-.17.8-.48,1.63-.91,2.47-3.31-5.21-8.31-8.07-13.82-9.18,5.82-1.32,12.02.86,14.73,6.72h0Z"></path>
      <path stroke-width="0" fill-rule="evenodd" fill="#e3e0d1" d="m74.07,49.72c-1.62,7.63-15.8,17.63-24.77,17.23-.78-1.03-1.41-2.05-1.9-3.06,11.37-1.82,21.36-9.17,24.53-17.38.85.91,1.57,1.98,2.14,3.22h0Z"></path>
      <path stroke-width="0" fill-rule="evenodd" fill="#cac6b4" d="m61.21,63.38c-3.48,1.95-7.16,3.3-10.36,3.54-.63-1.14-1.19-2.26-1.64-3.37,3.07-.66,6.01-1.71,8.72-3.06.95,1.09,2.05,2.07,3.28,2.89h0Z"></path>
      <path stroke-width="0" opacity=".6" fill-rule="evenodd" fill="#93866c" d="m51.9,49.45c2.17.02,6.43-2.46,7.04-4.45-1.86-2.36-3.56-1.65-5.1-.82-1.7.91-3.2,2.72-1.93,5.27h0Z"></path>
      <path stroke-width="0" fill-rule="evenodd" fill="#fff9f1" d="m54.93,48.58c1.87-.89,3.73-2.36,4.12-3.63-1.86-2.36-3.56-1.65-5.1-.82-1.19.64-.36,3.97.98,4.45h0Z"></path>
      <path stroke-width="0" opacity=".6" fill-rule="evenodd" fill="#93866c" d="m95.75,39.15l-4.76-.63c.7-3.83,2.67-3.92,5.32-3.57,2.65.35,4.53.96,4.2,4.84l-4.76-.63h0Z"></path>
      <path stroke-width="0" fill-rule="evenodd" fill="#fff9f1" d="m95.75,39.15l-2.19-.29c.58-3.18,2.04-3.78,4.03-3.69,1.95.44,3.2,1.4,2.92,4.62l-2.19-.29-2.57-.34h0Z"></path>
      <path stroke-width="0" fill-rule="evenodd" fill="#f0ede0" d="m94.13,51.31l-14.41-1.91c2-10.74,7.95-10.95,15.98-9.88,8.01,1.06,13.72,2.82,12.83,13.71l-14.41-1.91h0Z"></path>
      <path stroke-width="0" fill-rule="evenodd" fill="#fff9f1" d="m99.53,40.15c5.91,1.28,9.74,4.02,9,13.07l-3.21-.43c.64-5.15-1.2-9.69-5.79-12.64h0Z"></path>
      <path stroke-width="0" fill-rule="evenodd" fill="#e3e0d1" d="m93.88,40.22c-8.2-.52-11.39,2.86-12.45,8.6,3.85.51,7.7,1.02,11.55,1.53,2.04.27,1.39-.02.31-1.08-2.63-2.58-1.51-5.19.84-7.66,1.05-1.1,1.78-1.27-.25-1.39h0Z"></path>
      <path stroke-width="0" fill-rule="evenodd" fill="#e3e0d1" d="m94.08,51.31l-14.41-1.91c.26-1.38.58-2.59.96-3.64,9.33.37,18.62,1.6,27.87,3.7.09,1.12.09,2.36-.02,3.76l-14.41-1.91h0Z"></path>
      <path stroke-width="0" fill-rule="evenodd" fill="#cac6b4" d="m82.28,45.84c3.28.18,6.46.45,9.52.78-.01.83.69,1.87,1.41,2.66,1.02,1.11,1.73,1.35-.31,1.08-3.85-.51-7.7-1.02-11.55-1.53.19-1.03.59-2.11.93-2.98h0Z"></path>
      <path stroke-width="1.25" stroke-linejoin="round" stroke-linecap="round" stroke="#93866c" fill-rule="evenodd" fill="none" d="m56.95,43.34c1-.41,2.03-.7,3.07-.89"></path>
      <path stroke-width="1.25" stroke-linejoin="round" stroke-linecap="round" stroke="#93866c" fill-rule="evenodd" fill="none" d="m60.02,42.46c3.62-.65,8.76,2.23,11.95,4.37,1.95,1.3,2.5,3.96,1.2,5.91-4.05,6.11-13.91,12.57-21.23,13.65-1.62.24-3.23-.53-4.04-1.95-2.34-4.08-1.9-8.18-.53-11.57"></path>
      <path stroke-width="1.25" stroke-linejoin="round" stroke-linecap="round" stroke="#93866c" fill-rule="evenodd" fill="none" d="m57.86,45.85c.08-.11.15-.21.21-.31.03-.05.06-.09.08-.14.08-.15.15-.29.19-.44,0,0,0,0,0,0h0c-1.86-2.36-3.56-1.65-5.1-.82-1.7.91-3.2,2.72-1.93,5.27.79,0,1.85-.32,2.91-.83,0,0,0,0,0,0,.01,0,.03-.01.04-.02.21-.1.43-.21.64-.33.03-.02.07-.04.1-.06.18-.1.35-.2.52-.31.07-.04.13-.08.19-.12.14-.09.28-.19.41-.28.06-.04.13-.09.19-.13.15-.11.3-.23.43-.34.03-.03.07-.06.11-.09.17-.14.33-.29.47-.44.04-.04.07-.08.11-.12.1-.11.2-.22.29-.33.04-.05.08-.1.12-.15Z"></path>
      <path stroke-width="1.25" stroke-linejoin="round" stroke-linecap="round" stroke="#93866c" fill-rule="evenodd" fill="none" d="m95.66,39.52c8.01,1.06,13.72,2.82,12.83,13.71l-14.41-1.91h0l-14.41-1.91c.93-4.98,2.71-7.7,5.15-9.07"></path>
      <path stroke-width="1.25" stroke-linejoin="round" stroke-linecap="round" stroke="#93866c" fill-rule="evenodd" fill="none" d="m100.19,39.31c0-.14,0-.27,0-.4,0-.07,0-.13-.01-.2,0-.12-.02-.23-.04-.33,0-.06-.02-.12-.03-.18-.02-.11-.04-.21-.07-.31-.01-.04-.02-.09-.03-.13-.04-.14-.09-.27-.14-.39,0-.01-.01-.02-.02-.04-.05-.11-.1-.21-.16-.31-.02-.04-.05-.07-.07-.11-.05-.07-.09-.14-.14-.2-.03-.04-.06-.07-.09-.1-.05-.06-.1-.11-.16-.16-.03-.03-.06-.06-.1-.09-.06-.05-.13-.1-.19-.15-.03-.02-.06-.04-.09-.06-.1-.07-.2-.13-.31-.18-.02-.01-.04-.02-.07-.03-.09-.04-.18-.09-.27-.12-.04-.02-.09-.03-.13-.05-.08-.03-.15-.06-.23-.08-.05-.02-.1-.03-.15-.05-.08-.02-.16-.05-.24-.07-.05-.01-.1-.03-.16-.04-.02,0-.04-.01-.06-.01,0,0,0,0-.01,0-.4-.09-.82-.16-1.27-.22-2.65-.35-4.62-.26-5.32,3.57l2.57.34h0l2.19.29.81.11,3.95.53h0s0,0,0,0c.02-.23.03-.44.03-.64,0-.06,0-.12,0-.18Z"></path>
      <path stroke-width="0" fill-rule="evenodd" fill="#f0ede0" d="m94.42,82.44c.63,1.36.29,3.07-.75,3.8-1.04.74-2.39.23-3.01-1.14-.63-1.36-.29-3.07.75-3.8,1.04-.74,2.39-.23,3.01,1.14h0Z"></path>
      <path stroke-width="0" fill-rule="evenodd" fill="#cac6b4" d="m93.48,86.36c-1.01.55-2.23.02-2.82-1.26-.53-1.16-.37-2.57.33-3.41,1.01-.55,2.23-.02,2.82,1.26.53,1.16.37,2.57-.33,3.41h0Z"></path>
      <path stroke-width="1.25" stroke-linejoin="round" stroke-linecap="round" stroke="#93866c" fill="none" d="m123.33,83.77c.05,4.27-.49,9.38-2.26,14.99"></path>
      <path stroke-width="1.25" stroke-linejoin="round" stroke-linecap="round" stroke="#93866c" fill="none" d="m123.15,80.21c.1,1.11.17,2.3.18,3.56"></path>
      <path stroke-width="1.25" stroke-linejoin="round" stroke-linecap="round" stroke="#93866c" fill="none" d="m121.07,70.63s.78,1.84,1.42,5.04"></path>
      <path stroke-width="1.25" stroke-linejoin="round" stroke-linecap="round" stroke="#93866c" fill="none" d="m40.52,91.46c.52,4.15,1.72,8.92,4.15,13.82"></path>
      <path stroke-width="1.25" stroke-linejoin="round" stroke-linecap="round" stroke="#93866c" fill="none" d="m41.05,77.67s-.54,2.03-.77,5.36"></path>
    </g>
  </g>
</svg>