<svg viewBox="0 0 101.56 61.7" xmlns="http://www.w3.org/2000/svg" height="62" width="101">
  <g id="OBJECTS">
    <g data-name="SELECT YOUR CHARITY 01" id="SELECT_YOUR_CHARITY_01">
      <g data-name="CHARITY LOGOS" id="CHARITY_LOGOS">
        <path stroke-width="0" fill="#545e5e" d="m34.51,47.96c0,.51,0,.98,0,1.45,0,3.76,0,7.52,0,11.28q0,.8-.82.8c-1.19,0-2.39-.03-3.58.02-.56.02-.68-.18-.68-.7.02-4.03.01-8.05.01-12.08,0-.24,0-.49,0-.81H0C11.51,31.88,22.93,15.98,34.35.08c.04.01.09.02.13.04v42.45h7.62c-.03-.15-.04-.3-.1-.44-1.53-3.77-2.24-7.71-2.15-11.76.13-6.56,2.13-12.52,6.04-17.81,2.89-3.92,6.52-6.98,10.84-9.2,3.07-1.58,6.32-2.58,9.75-3.05,2.27-.32,4.54-.39,6.81-.2,4.21.35,8.21,1.51,11.94,3.53,6.16,3.34,10.72,8.19,13.63,14.56,1.41,3.08,2.26,6.31,2.56,9.69.66,7.27-1,13.96-5.03,20.04-2.79,4.22-6.44,7.53-10.87,9.98-3.49,1.92-7.21,3.13-11.16,3.58-6.16.71-12-.39-17.54-3.16-4.8-2.4-8.84-5.72-12-10.08-.13-.17-.38-.36-.57-.37-3.14-.01-6.29,0-9.43.01-.08,0-.16.03-.32.06Zm55.62-15.2c-.16.09-.18.11-.19.1-.08-.02-.16-.04-.23-.07-1.6-.58-3.21-.62-4.83-.11-2.17.68-3.5,2.15-3.99,4.35-.46,2.04.22,3.77,1.71,5.17,2.22,2.1,6.42,2.44,9.01.78,1.94-1.24,3.04-3.09,3.7-5.21,1.05-3.36,1.23-6.79.77-10.27-.68-5.13-2.68-9.67-6.14-13.49-6.11-6.74-13.73-9.61-22.78-8.46-5.74.73-10.64,3.27-14.67,7.38-4.16,4.23-6.6,9.33-7.2,15.27-.48,4.72.27,9.23,2.27,13.53.2.43.39.57.88.42,1.68-.51,3.17-1.34,4.54-2.41,2.36-1.83,4.19-4.16,6.05-6.45,2.12-2.62,4.18-5.3,6.96-7.27,4.08-2.89,8.57-4.09,13.51-2.88,3.59.88,6.27,3.14,8.41,6.06.83,1.13,1.49,2.37,2.23,3.57ZM29.43,16.03c-6.55,8.92-13,17.7-19.47,26.52h19.47v-26.52Z" id="fourth"></path>
      </g>
    </g>
  </g>
</svg>