<svg viewBox="0 0 56.29 71.75" xmlns="http://www.w3.org/2000/svg" height="72" width="56">
  <g id="OBJECTS">
    <g data-name="SELECT YOUR CHARITY 01" id="SELECT_YOUR_CHARITY_01">
      <g data-name="CHARITY LOGOS" id="CHARITY_LOGOS">
        <g id="seventh">
          <path stroke-width="0" fill="#545e5e" d="m25.78,27.08c-4.41,0-7.99,3.32-7.99,7.41s3.59,7.41,7.99,7.41,7.99-3.32,7.99-7.41c0-4.08-3.57-7.41-7.99-7.41"></path>
          <path stroke-width="0" fill="#545e5e" d="m28.15,0C12.6,0,0,12.6,0,28.15s12.6,28.15,28.15,28.15,28.15-12.6,28.15-28.15S43.69,0,28.15,0m13.81,19.98s.53-1.06,0-1.59c-1.19.7-2.31.27-3.44-.34-1.05-.53-2.11-1.23-2.5-.78-.57.46.44,1.84,1.55,4.74,1.05,2.53,2.17,6.07,2.17,10.16,0,2.12-.33,4.09-.95,5.86-.42,1.31-1.06,2.54-1.88,3.63-2.43,3.36-6.3,5.38-11.11,5.38-7.46,0-13.53-5.63-13.53-12.54s6.07-12.54,13.53-12.54c2.21,0,3.95.49,5.17.95.83.29,1.23.01,1.03-.5-.27-.92-3.76-4.54-3.76-7.28,0-3.77,2.66-5.88,5.64-5.88,3.19,0,3.33,1.95,3.33,1.95,0,0,2.41,2.63,4.28,2.63.67,0,2.58.52,2.58,2.8s-2.11,3.37-2.11,3.37"></path>
          <path stroke-width="0" fill="#545e5e" d="m25.78,27.08c-4.41,0-7.99,3.32-7.99,7.41s3.59,7.41,7.99,7.41,7.99-3.32,7.99-7.41c0-4.08-3.57-7.41-7.99-7.41"></path>
          <path stroke-width="0" fill="#545e5e" d="m28.15,0C12.6,0,0,12.6,0,28.15s12.6,28.15,28.15,28.15,28.15-12.6,28.15-28.15S43.69,0,28.15,0m13.81,19.98s.53-1.06,0-1.59c-1.19.7-2.31.27-3.44-.34-1.05-.53-2.11-1.23-2.5-.78-.57.46.44,1.84,1.55,4.74,1.05,2.53,2.17,6.07,2.17,10.16,0,2.12-.33,4.09-.95,5.86-.42,1.31-1.06,2.54-1.88,3.63-2.43,3.36-6.3,5.38-11.11,5.38-7.46,0-13.53-5.63-13.53-12.54s6.07-12.54,13.53-12.54c2.21,0,3.95.49,5.17.95.83.29,1.23.01,1.03-.5-.27-.92-3.76-4.54-3.76-7.28,0-3.77,2.66-5.88,5.64-5.88,3.19,0,3.33,1.95,3.33,1.95,0,0,2.41,2.63,4.28,2.63.67,0,2.58.52,2.58,2.8s-2.11,3.37-2.11,3.37"></path>
          <path stroke-width="0" fill="#545e5e" d="m7.59,66.91c0,.4-.06.8-.16,1.19-.1.4-.24.78-.43,1.13s-.43.69-.7.98c-.27.3-.59.55-.95.75-.23.13-.47.23-.73.3s-.52.14-.79.19-.55.07-.82.1c-.27.01-.53.03-.79.03H.06v-9.39h2.12c.33,0,.66.01,1,.04.34.03.69.09,1.02.17.34.09.66.19.98.33s.59.33.85.55c.26.22.47.47.66.76s.34.57.49.89c.13.32.23.63.3.98.07.33.11.67.11,1m-1.74,0c0-.43-.09-.85-.26-1.26-.17-.42-.42-.76-.75-1.05-.22-.19-.44-.34-.69-.44-.24-.1-.49-.19-.75-.23-.26-.06-.52-.09-.79-.09-.27-.01-.55-.01-.82-.01v6.13h.37c.42,0,.82-.03,1.18-.07s.73-.17,1.11-.39c.23-.13.43-.29.6-.47s.32-.4.44-.63c.13-.23.22-.47.27-.72.04-.26.07-.52.07-.76"></path>
          <path stroke-width="0" fill="#545e5e" d="m16.71,69.3c-.07.39-.22.75-.43,1.06-.32.46-.73.8-1.23,1.03-.5.23-1.02.36-1.56.36s-1.05-.11-1.55-.34c-.5-.23-.92-.56-1.23-.99-.24-.32-.39-.67-.47-1.08-.07-.42-.11-.8-.11-1.19v-5.96h1.74v5.96c0,.27.03.53.07.76.06.24.14.46.26.63.11.19.29.33.49.43s.47.16.79.16.57-.06.79-.16c.22-.1.37-.24.5-.43s.22-.39.26-.63c.06-.24.07-.5.07-.76v-5.96h1.74v5.96c.01.39-.03.76-.1,1.15"></path>
          <path stroke-width="0" fill="#545e5e" d="m23.84,71.58l-2.48-3.59h-.03v3.59h-1.74v-9.39h2.87c.42,0,.82.04,1.21.11.39.07.75.24,1.08.52.36.27.63.62.82,1,.19.39.29.82.29,1.26,0,.4-.07.82-.23,1.22s-.37.75-.66,1.03c-.24.23-.49.4-.72.5-.24.1-.52.2-.83.27l2.55,3.46h-2.12Zm.27-6.34c0-.24-.04-.44-.14-.63-.09-.19-.22-.33-.37-.44s-.33-.2-.53-.26c-.2-.06-.42-.09-.63-.09h-1.12v2.87h1.12c.23,0,.44-.03.65-.09.2-.06.37-.14.53-.27.16-.11.27-.27.36-.44.1-.19.14-.4.14-.65"></path>
          <path stroke-width="0" fill="#545e5e" d="m32.47,71.58l-2.48-3.59h-.03v3.59h-1.74v-9.39h2.88c.42,0,.82.04,1.21.11.39.07.75.24,1.08.52.36.27.63.62.82,1,.19.39.29.82.29,1.26,0,.4-.07.82-.23,1.22s-.37.75-.66,1.03c-.24.23-.49.4-.72.5-.24.1-.52.2-.83.27l2.55,3.46h-2.14Zm.27-6.34c0-.24-.04-.44-.14-.63-.1-.19-.22-.33-.37-.44s-.33-.2-.53-.26c-.2-.06-.42-.09-.63-.09h-1.12v2.87h1.12c.23,0,.44-.03.65-.09.2-.06.39-.14.53-.27.16-.11.27-.27.36-.44.1-.19.14-.4.14-.65"></path>
          <polygon stroke-width="0" fill="#545e5e" points="36.8 71.58 36.8 62.19 41.84 62.19 41.84 63.81 38.54 63.81 38.54 66.11 41.71 66.11 41.71 67.73 38.54 67.73 38.54 69.94 41.84 69.94 41.84 71.58 36.8 71.58"></polygon>
          <polygon stroke-width="0" fill="#545e5e" points="44.8 71.58 44.8 62.19 46.53 62.19 46.53 69.94 49.4 69.94 49.4 71.58 44.8 71.58"></polygon>
          <polygon stroke-width="0" fill="#545e5e" points="51.64 71.58 51.64 62.19 53.38 62.19 53.38 69.94 56.25 69.94 56.25 71.58 51.64 71.58"></polygon>
        </g>
      </g>
    </g>
  </g>
</svg>