<svg viewBox="0 0 51.37 75.25" xmlns="http://www.w3.org/2000/svg" height="75" width="51">
  <g id="OBJECTS">
    <g data-name="SELECT YOUR CHARITY 01" id="SELECT_YOUR_CHARITY_01">
      <g data-name="CHARITY LOGOS" id="CHARITY_LOGOS">
        <g id="bear">
          <g>
            <path stroke-width="0" fill-rule="evenodd" fill="#545e5e" d="m44.75,2.71c2.61,0,5.56,2.81,5.56,5.62,0,1.7-2.22,4.71-4.77,4.71-1.96,0-.92-2.68-4.58-3.6-.78-.33-1.11-.85-1.11-1.57,0-2.94,3.01-5.16,4.9-5.16h0Zm-23.96,20.86c0-2.48,2.29-5.36,4.84-5.36,1.44,0,3.14,1.31,3.14,4.12,0,.26-3.01,5.23-5.03,5.23-1.83,0-2.94-1.63-2.94-3.99h0Zm14.13.21l.07-.2c.65-2.35,2.03-3.66,3.53-3.66,1.96,0,4.12,2.48,4.12,5.56,0,2.42-1.5,4.18-3.33,4.18-1.37,0-2.03-.85-2.61-2.48-.65-1.76-.72-1.9-1.77-3.4Zm-7.75,7.82c0-.78.59-1.18,1.5-1.18,4.45,0,5.43,1.11,5.43,1.83,0,.65-.26.72-1.77.98-1.57.26-1.37,1.11-1.96,1.11s-.2-.98-1.57-1.5c-1.24-.46-1.63-.72-1.63-1.24h0Z"></path>
            <path stroke-width="0" fill-rule="evenodd" fill="#545e5e" d="m48.57,19.87c0,9.35-4.51,13.66-11.44,13.66-2.68,0-1.31,2.55-4.05,2.55-1.11,0-1.77-1.18-3.07-1.18-.72,0-1.5.39-2.35.39-2.75,0-2.16-3.01-3.07-3.4-3.86-1.57-3.92-1.57-4.64-2.03-2.88-1.96-4.12-4.64-4.12-8.69s1.57-9.28,4.12-11.57c.78.52,1.24.78,1.7.78.98,0,1.31-1.37,3.53-2.16q2.75-.98,2.75-2.42c0-3.79-2.22-5.82-4.58-5.82-3.07,0-6.08,2.55-6.08,5.03,0,1.24.72,2.48,1.7,3.53-5.36,3.27-8.5,8.37-8.5,14.58,0,2.09.33,2.81.33,4.31,0,1.76-.65,2.81-.65,4.51,0,.85.34,2.54.92,3.53-5.1-3.79-7.91-8.69-7.91-14.38s2.68-10.13,7.32-13.4l.33-.26C4.31,10.13,0,16.8,0,25.23c0,4.38,1.31,6.99,1.31,8.3,0,.52-.2,1.7-.2,3.2,0,2.68,2.09,7.65,3.92,10,1.44,1.83,3.66,2.88,6.28,2.88,2.03,0,3.4-.65,3.4-1.77,0-.78-1.05-2.61-1.11-6.73l3.6,6.93c3.4,6.47,6.01,8.5,11.7,8.5,2.42,0,3.92-.72,3.92-1.96,0-.98-1.96-3.4-1.96-10.2,0-3.07.72-4.71,2.42-4.71,1.24,0,1.83,1.05,1.83,3.4,0,3.53-.85,7.39-.85,8.5,0,1.44,1.05,2.29,3.14,2.29,3.59,0,6.86-2.22,8.63-5.49,2.61-4.84,4.44-14.25,4.44-18.89,0-3.79-.91-7.72-1.9-9.61h0Zm-18.08,18.22c-1.57,0-3.07-.98-3.33-2.16,2.22.52,3.99.78,6.01.78-.52.85-1.37,1.37-2.68,1.37Zm19.12,13.18c-.97,0-1.76.77-1.76,1.7s.79,1.72,1.76,1.72,1.76-.77,1.76-1.72c0-.94-.79-1.7-1.76-1.7Zm0,3.09c-.79,0-1.43-.61-1.43-1.39s.64-1.37,1.43-1.37,1.42.61,1.42,1.37-.64,1.39-1.42,1.39h0Z"></path>
            <path stroke-width="0" fill-rule="evenodd" fill="#545e5e" d="m50.51,52.53c0-.16-.07-.33-.22-.41-.15-.08-.31-.09-.48-.09h-.86v1.92h.29v-.88h.34l.56.88h.33l-.6-.88c.35,0,.62-.15.62-.53h0Zm-.94.29h-.32v-.58h.51c.25,0,.46.03.46.28,0,.34-.38.3-.65.3Zm-9.79,21.84c1.26,0,1.63-.33,1.63-1.31v-9.28c0-.92-.52-1.18-1.7-1.18v-.46h10.92v3.46h-.46c0-1.83-1.11-2.61-3.01-2.61h-1.83v4.97h.85c1.44,0,1.77-.92,1.83-2.48h.46v5.75h-.46c0-1.57-.59-2.48-1.83-2.48h-.85v4.25c0,1.11.33,1.37,1.63,1.37v.46h-7.19v-.46h0Zm-30.05-7.97l-3.07,8.56h-1.05l-3.27-9.68c-.85-2.68-1.14-2.67-1.96-2.68v-.46h6.15v.46c-1.04.02-1.06.8-.85,1.5l1.96,5.95,1.7-4.77c-.85-2.68-1.14-2.67-1.96-2.68v-.46h6.15v.46c-1.04.02-1.06.8-.85,1.5l1.96,5.95,2.22-6.15c.23-.89,0-1.24-.72-1.31v-.46h3.07v.46c-.78,0-1.24.33-1.7,1.63l-3.86,10.72h-1.05l-2.88-8.56h0Zm19.81,0l-3.07,8.56h-1.05l-3.27-9.68c-.85-2.68-1.14-2.67-1.96-2.68v-.46h6.14v.46c-1.04.02-1.06.8-.85,1.5l1.96,5.95,1.7-4.77c-.85-2.68-1.14-2.67-1.96-2.68v-.46h6.15v.46c-1.04.02-1.06.8-.85,1.5l1.96,5.95,2.22-6.15c.23-.89,0-1.24-.72-1.31v-.46h3.07v.46c-.78,0-1.24.33-1.7,1.63l-3.86,10.72h-1.05l-2.88-8.56h0Z"></path>
          </g>
        </g>
      </g>
    </g>
  </g>
</svg>