<svg viewBox="0 0 52.87 72.01" xmlns="http://www.w3.org/2000/svg" height="72" width="53">
  <g id="OBJECTS">
    <g data-name="SELECT YOUR CHARITY 01" id="SELECT_YOUR_CHARITY_01">
      <g data-name="CHARITY LOGOS" id="CHARITY_LOGOS">
        <g id="sixth">
          <rect stroke-width="0" fill="#545e5e" height="16.82" width="3.94" y="55.09" x="44.27"></rect>
          <polygon stroke-width="0" fill-rule="evenodd" fill="#545e5e" points="20.27 62.3 16.41 62.3 12.68 72.01 28.56 72.01 23.06 55.33 19.02 55.33 23.37 68.39 18.15 68.39 20.27 62.3"></polygon>
          <path stroke-width="0" fill-rule="evenodd" fill="#545e5e" d="m35.94,55.43h-6.16v3.94h4.91s4.35.1,4.56,4.88c0,0,.21,3.8-3.94,4.14h-1.6v-6.3h-3.94v9.82h6.2s6.83.24,7.52-7.45c0,0,.35-8.53-7.56-9.02h0Z"></path>
          <path stroke-width="0" fill-rule="evenodd" fill="#545e5e" d="m15.19,60.66c-.1-5.57-5.43-5.57-5.43-5.57H3.97v3.9h5.15c.84,0,1.5.66,1.5,1.46s-.66,1.46-1.5,1.46H3.97v10h3.9v-6.03h2.09c5.47-.31,5.22-5.22,5.22-5.22h0Z"></path>
          <path stroke-width="0" fill-rule="evenodd" fill="#545e5e" d="m50.33,54.98c-.66,0-1.25.52-1.25,1.22s.59,1.25,1.25,1.25c.7,0,1.25-.52,1.25-1.25s-.56-1.22-1.25-1.22Zm0,2.26c-.56,0-1.01-.45-1.01-1.04,0-.56.45-1.01,1.01-1.01.56,0,1.01.45,1.01,1.01,0,.59-.45,1.04-1.01,1.04Z"></path>
          <path stroke-width="0" fill-rule="evenodd" fill="#545e5e" d="m50.54,56.31c.21-.04.38-.14.38-.38,0-.28-.17-.42-.52-.42h-.52v1.43h.21v-.63h.24l.38.63h.24l-.42-.63Zm-.44-.17v-.45h.28c.17,0,.31.03.31.21,0,.24-.17.24-.35.24h-.24Z"></path>
          <path stroke-width="0" fill-rule="evenodd" fill="#545e5e" d="m11.11,15.45s.77-.84,1.74-.73c0,0,1.04.1,1.36-.59,0,0,.49-.49.7-.31,0,0,.73.77-1.5,2.05,0,0-1.22.56-2.3.56,0,0-1.43-.07,0-.98Zm-5.78.14s-.17.45,0,.63c0,0,.21.14.49-.07,0,0,1.04-.73,1.95-.7,0,0,1.01-.07,1.6.1,0,0,.38.17.91-.35,0,0,1.04-1.08,1.6-1.46,0,0,.24-.21.1-.38,0,0-.35-.28-1.64.84,0,0-.84.21-1.71,0,0,0-2.61-.77-3.31,1.39h0Z"></path>
          <path stroke-width="0" fill-rule="evenodd" fill="#545e5e" d="m3.48,16.85h.94s-.07-2.02,1.01-2.89c0,0,.63-.59,1.81-.7h2.3s.59.14.84-.49l2.06-3.45s.28-.42-.77-.42h-4.25s-.91,0-1.36.63c0,0-2.37,2.58-3.69,5.89,0,0-.73,1.39,1.11,1.43h0Zm8.53-4.53s1.01-2.16,1.29-2.72c0,0,.07-.63,1.22-.59h4.74s1.78-.1,1.22,1.36l-1.92,5.64s-.31,1.08-1.46,1.04h-3.97s1.39-.77,1.71-1.04c0,0,.87-.7.87-1.74,0,0,.17-1.11-.42-1.32,0,0-.77-.35-1.39.45,0,0-.49.66-1.18.66,0,0,.38-1.36-.59-1.15,0,0-.52.07-.1-.59h0ZM22.5.89s1.57-.66.28-.84c0,0-.52-.1-1.25-.04,0,0-5.75.73-12.5,6.58,0,0-1.08,1.01-.14,1.15h4.21s.7.1,1.11-.42c0,0,3.34-4.11,8.29-6.44h0Zm-6.44,6.16s2.61-3.87,7.8-5.54c0,0,.87-.38.73.49,0,0-2.4,3.83-3.2,5.36,0,0-.17.45-.94.45h-4.21s-.8.07-.17-.77h0ZM30.65.89s-1.57-.66-.28-.84c0,0,.52-.1,1.25-.04,0,0,5.71.73,12.5,6.58,0,0,1.08,1.01.14,1.15h-4.21s-.7.1-1.11-.42c0,0-3.34-4.11-8.29-6.44h0Zm6.41,6.16s-2.58-3.87-7.77-5.54c0,0-.87-.38-.77.49,0,0,2.4,3.83,3.24,5.36,0,0,.17.45.91.45h4.25s.77.07.14-.77h0Zm-11.14-4.88s-1.36,1.71-2.72,4.81c0,0-.45.73.1.87h6.58s1.05.1.49-1.11c0,0-1.53-3.41-2.58-4.63,0,0-.84-1.36-1.88.07h0Zm-3.41,50.08s1.57.63.28.8c0,0-.52.14-1.25.04,0,0-5.75-.73-12.5-6.58,0,0-1.08-1.01-.14-1.15h4.21s.7-.1,1.11.42c0,0,3.34,4.14,8.29,6.48h0Zm-6.44-6.16s2.61,3.83,7.8,5.54c0,0,.87.38.73-.49,0,0-2.4-3.87-3.2-5.4,0,0-.17-.45-.94-.45h-4.21s-.8-.07-.17.8h0Zm14.59,6.16s-1.57.63-.28.8c0,0,.52.14,1.25.04,0,0,5.71-.73,12.5-6.58,0,0,1.08-1.01.14-1.15h-4.21s-.7-.1-1.11.42c0,0-3.34,4.14-8.29,6.48h0Zm6.41-6.16s-2.58,3.83-7.77,5.54c0,0-.87.38-.77-.49,0,0,2.4-3.87,3.24-5.4,0,0,.17-.45.91-.45h4.25s.77-.07.14.8h0Zm-11.14,4.84s-1.36-1.67-2.72-4.81c0,0-.45-.73.1-.87h6.58s1.05-.1.49,1.11c0,0-1.53,3.41-2.58,4.63,0,0-.84,1.39-1.88-.07ZM4.56,21.86c.28.07,1.5-.17,1.99-.52,0,0,.28-.17-.03-.7,0,0-.31-.77-.7-.91,0,0-.17-.56.52-.8,0,0,.7-.21,1.43.31,0,0,1.11.91,2.93.24,0,0,1.46-.84,1.71-2.54,0,0-1.92,1.39-2.61.42,0,0-.42-1.46-2.23-1.11,0,0-2.02.24-2.4,3.17,0,0-.94.98-.94,1.78,0,0-.07.59.35.66h0Zm1.67,2.75s1.22-.28.73-1.74c0,0-.31-1.01-1.39-.73,0,0-1.36.52-.45,1.92,0,0,.35.66,1.11.56h0Z"></path>
          <path stroke-width="0" fill-rule="evenodd" fill="#545e5e" d="m5.05,25.76s-.45-.49-.42-.84l.35-.07s-.38-.59-.35-.8c0,0-.91-.42-.63-1.6,0,0-1.74-.52.21-3.13l.1-.49s.17-.8-.28-.73H1.95s-.63-.17-1.01,1.01C.94,19.11,0,21.93.04,24.47c0,0-.07,1.15,1.08,1.29h3.94s0,0,0,0Zm2.65-3.55s.56-1.6-.24-2.37c0,0-.31-.45-.66-.14,0,0-.28.21.04.56,0,0,.1.28.7.59,0,0,.17.63-.14,1.29,0,0,0,.14.14.17,0,0,.1,0,.17-.1Zm1.08-1.85s0,1.64-.38,3.27c0,0-.03,1.18.28,1.67,0,0,.45.66,1.25.84,0,0,.56.24.7-.52l-.56-.8s-.59-.52.28-1.22l1.36-1.36s.07-.17.66-.07l.42.03s.42.03.56-.21c0,0,2.37-1.71,4.35.24,0,0,.17-2.65.31-3.31,0,0,.17-.63-.8-.63h-4.42s-.77,2.44-4.01,2.05h0Zm21.56-11.35h-7.49s-.91-.14-1.29,1.15c0,0-1.11,4.39-1.25,5.36,0,0-.42,1.46.98,1.46h9.96s1.71.1,1.67-1.57c0,0-.52-3.2-1.08-5.43,0,0-.14-1.11-1.5-.98h0Zm7.38-.03h-3.97s-1.18-.14-.87,1.01l1.46,5.85s.1,1.01,1.11,1.18h5.89s1.46.17,1.01-1.08c0,0-2.3-4.39-3.55-6.41,0,0-.35-.59-1.08-.56h0Zm7.63.07h-3.94s-1.57-.14-.84,1.05l3.03,6.09s.21.87,1.5.8h4.81s1.36.1.77-1.15c0,0-1.53-3.59-3.94-6.34,0,0-.38-.52-1.39-.45h0ZM15.19,43.98h3.97s1.22.17.87-1.01c0,0-1.39-5.57-1.46-5.82,0,0-.07-1.01-1.11-1.18h-5.89s-1.46-.17-1.01,1.05c0,0,2.3,4.39,3.55,6.41,0,0,.35.63,1.08.56Zm-7.63-.07h3.94s1.57.14.84-1.01l-3.03-6.13s-.21-.84-1.5-.77H3s-1.36-.1-.77,1.15c0,0,1.53,3.55,3.94,6.3,0,0,.38.52,1.39.45Zm1.85-11.53s-.66,1.85.98,2.4h4.91s-4.77-1.81-5.89-2.4h0ZM1.22,27.26S-.03,27.05,0,28.48c0,0-.1,3.06,1.46,5.89,0,0,.21.49.98.56h4.81s1.57-.1,1.39-1.25c0,0,0-1.15-1.18-1.92,0,0-1.32-.59-1.57-2.26,0,0-.14-1.01-.03-1.6,0,0,.07-.7-.59-.63H1.22Z"></path>
          <path stroke-width="0" fill-rule="evenodd" fill="#545e5e" d="m5.64,25.34s1.46,0,1.74-.56c0,0,0,.63.21.84,0,0,.31.63.94,1.25,0,0,1.5,1.22,1.81,3.38,0,0,.21,1.08-1.05,1.25,0,0-1.78,0-2.51-1.99,0,0-.31-1.25-.17-1.95,0,0,.21-.77-.21-1.39,0,0-.28-.52-.77-.84h0Zm9.09-.66c-.84-.66-1.88-1.53-1.88-1.53-.49-.52-1.04-.03-1.04-.03l-.8.66c-.63.52-.17.87-.17.87.07.21.91.94,1.25,1.25-.14-.03-.28-.07-.45-.07-.63,0-1.18.56-1.18,1.22,0,.7.56,1.25,1.18,1.25.66,0,1.22-.56,1.22-1.25,0-.17-.03-.31-.1-.49l.03.03c.56.66,1.11.1,1.11.1l1.05-1.08c.49-.49-.21-.94-.21-.94h0Z"></path>
          <path stroke-width="0" fill-rule="evenodd" fill="#545e5e" d="m12.33,28.72s.66-.21,1.25-1.15c0,0,.45.31,1.04-.38,0,0,1.25-1.39,1.39-1.67,0,0,.49-.77-.35-1.29,0,0-1.46-1.11-1.6-1.18,0,0-.66-.35-.1-.8,0,0,.8-.66,2.44.17,0,0,2.16,1.15,1.81,3.59,0,0-.52,1.78-2.68,2.58,0,0-.98.35-1.36-.03,0,0-.91.63-1.29.73,0,0-.07-.24-.56-.56Zm6.44-2.47s.94.91,1.43,1.32c0,0,.31.45,1.11.07,0,0,2.75-.17,5.75,1.5,0,0,.24.17.38.63,0,0,1.01.24,2.05,0,0,0,.28,0,.21-.31,0,0-2.05-1.99-8.92-4.32,0,0-.98-.35-1.99.35,0,0,.11.35-.03.77h0Z"></path>
          <path stroke-width="0" fill-rule="evenodd" fill="#545e5e" d="m11.29,29.56s.63-.31,1.08.04l.94.66s.63-.03,1.08-.59c0,0,2.37-.17,4.21-2.47,0,0,.63.28.91.59,0,0-1.18,2.16,1.01,3.55,0,0,1.04.45,2.65.63,0,0,.98,0,.8.94v2.3s-7.17.1-12.92-3.1c0,0-.24-.1-.21-.45,0,0,.17-1.6.45-2.09h0Zm17.52-2.05s.66.17,2.26,1.92c0,0,1.15-.21,2.51-1.92h-4.77,0Zm-10.13-3.38s.38-4.01.52-4.42c0,0,.1-1.25,1.67-1.36h11.25s1.92-.07,1.95,1.29c0,0,.38,3.87.52,5.02,0,0,.24,1.64-1.32,1.6h-7.98s-1.91-2.37-6.62-2.12h0Zm23.58-5.68h-5.22s-1.5-.24-1.39.91c0,0,.28,4.39.42,5.99,0,0,.07,1.08,1.15,1.18,0,0,1.25.1,1.64-1.11,0,0,.73-2.23,1.99-1.57,0,0,1.29.66,2.68,1.81,0,0,.59.56.77-.24,0,0,.24-2.19-.63-5.78,0,0-.1-1.25-1.39-1.18Zm3.83.17h4.14s1.57-.24,1.95,1.5c0,0,.73,2.89.7,5.36,0,0,.04,1.15-1.36,1.15h-3.31s-2.19.17-2.61-1.81c0,0-.45-3.59-.59-4.98,0,0-.38-1.29,1.08-1.22h0Zm.7,9.09s-.91-.14-.52.52c0,0,2.44,2.16,3.45,4.28,0,0,.66,1.22.07,1.81,0,0-.94.94-1.15,1.11h1.95s1.08.17,1.46-1.64c0,0,.49-2.4.66-5.05,0,0,.24-1.05-.98-1.05h-4.95,0Z"></path>
          <path stroke-width="0" fill-rule="evenodd" fill="#545e5e" d="m39.74,25.38s-.35.45.24.66c0,0,1.5.24,2.86,2.05,0,0,.84.87-.21,1.6,0,0-.38.24.31.91,0,0,1.78,1.81,1.18,4.39,0,0-.14.17.24.14,0,0,.63-.35,1.11-.24,0,0,.31.07.63.42,0,0,.28.63,1.29-.21,0,0,.84-.8,1.6-1.15,0,0-1.25-4.6-7.49-8.74,0,0-1.05-.8-1.78.17Z"></path>
          <path stroke-width="0" fill-rule="evenodd" fill="#545e5e" d="m35.35,32.17s1.6-1.99,3.87-2.65c0,0,1.39-.38,2.44.52,0,0,1.74,1.46,1.71,4.81,0,0-.14.8-1.22.7h-3.73s-1.08-.59-2.3-.8c0,0-1.39-.31-1.25-1.32,0,0,.14-.94.49-1.25h0Zm-15.29-3.13s-.42,1.36,1.43,1.92c0,0,1.92.49,2.58.49,0,0,.49-.1.45.52,0,0-.07,2.61.17,3.73h1.43s.77-2.26.91-4.28c0,0,.31-1.29-1.15-1.81,0,0-2.58-1.11-4.56-1.18,0,0-.94-.14-1.25.63h0Z"></path>
          <path stroke-width="0" fill-rule="evenodd" fill="#545e5e" d="m27.79,30.64s.31,2.12-.49,4.28c0,0,1.08.04,1.64-.28,0,0,1.88-1.22,2.61-1.43,0,0,1.53-.42,2.51-1.36,0,0,2.02-2.12,3.55-2.89,0,0,.87-.56,2.23-.45,0,0,1.39.28,1.88.1,0,0,.31-.1.21-.42,0,0-.45-.98-1.85-1.46,0,0-.73-.21-1.25.1,0,0-.59.56-1.95.59,0,0-1.22-.35-2.19.59,0,0-2.02,2.75-6.9,2.61h0Zm2.23,4.28s3.03-1.64,3.45-1.81c0,0,.42-.17.49.07.1.24-.17,2.47-3.66,2.23,0,0-.87-.07-.28-.49Zm-2.19,1.36s.17.66.42.84c0,0,.52-.52,1.08-.59,0,0,.63-.14.84-.07,0,0,.28-.1.03-.31,0,0-1.64-.14-2.37.14h0Zm-2.37.21h-.8s-.77.52-.17,1.6c0,0,.14.45,1.08.35,0,0,.98-.1.77-1.29,0,0-.38-.73-.87-.66h0Z"></path>
          <path stroke-width="0" fill-rule="evenodd" fill="#545e5e" d="m23.96,35.79s-.63,1.67.21,2.75c0,0,.52.73,1.95.28,0,0,1.05-.45.59-1.39,0,0-.17-1.39-.38-1.43,0,0,.63.1.98,1.22,0,0,.49.49.63.87,0,0,.1.17.24-.03,0,0,.66-1.15,1.95-.91,0,0,1.32.24,1.88.03,0,0,.45-.14.73-.52,0,0,.31-.38.63-.03,0,0,.59.35,1.25.45,0,0,.59.31.98.7,0,0,.14.31-.24.31,0,0-1.29-.17-2.65.45,0,0-2.54,1.39-3.14,1.6,0,0-2.89,1.18-4.04.28,0,0-2.33-1.99-3.94-4.7,0,0,1.43.07,2.37.07h0Zm10.8-.87s-.8,0-1.22.42c0,0-.21.17-.03.38,0,0,.14.1.56.21,0,0,1.67.28,2.51,1.67,0,0,.31.77,1.15.98,0,0,5.02,1.36,9.2.87,0,0,.35,0,.24-.24,0,0-.03-.1-.49-.03,0,0-6.69-.63-8.15-1.95,0,0-2.47-2.4-3.76-2.3Z"></path>
          <path stroke-width="0" fill-rule="evenodd" fill="#545e5e" d="m39.67,36.59s.87.8,2.26,1.11c0,0,.63.14.66-.28,0,0,.28-.7-.59-.84h-2.33,0Zm4.25.1s-.14.8-.28,1.01c0,0-.24.24.21.21,0,0,2.02.38,2.93.35,0,0,1.36.03,1.36.77,0,0,.14,1.18-1.01,1.39h-3.76s-.91-.24-1.36.73c0,0-.98,1.81-1.11,2.02,0,0-.66,1.08.03,1.11h4.32s.87.14,1.36-.52c0,0,3-3.13,3.94-5.64,0,0,.66-1.39-.42-1.43h-6.2s0,0,0,0Zm-11.74,3.27s-.56,2.65-1.01,3.48c0,0-.24.66-1.43.52h-6.69s-1.05.14-1.43-1.29c0,0-1.53-3-1.99-6.27,0,0,0-.7,1.01-.07,0,0,.87.52,1.22,1.11,0,0,2.05,2.58,2.65,3.31,0,0,1.25,1.29,3.2.8,0,0,2.68-.94,3.59-1.53,0,0,.94-.56.87-.07Zm1.36-.14s-.45,2.12-1.08,3.27c0,0-.63.94.1.84h5.85s.77.14,1.05-.52c0,0,1.32-2.02,1.57-2.75,0,0,.52-.8-.63-.94,0,0-2.06,0-3.41-.38,0,0-1.29-.45-3.07,0,0,0-.35.17-.38.49h0Z"></path>
        </g>
      </g>
    </g>
  </g>
</svg>