<svg viewBox="0 0 229.41 66.16" xmlns="http://www.w3.org/2000/svg" height="66" width="229">
  <g id="OBJECTS">
    <g data-name="SELECT YOUR CHARITY 01" id="SELECT_YOUR_CHARITY_01">
      <g data-name="CHARITY LOGOS" id="CHARITY_LOGOS">
        <g id="wild">
          <g>
            <path stroke-width="0" fill="#545e5e" d="m0,1.54c.09.24.16.44.24.64,8.73,20.98,17.46,41.96,26.19,62.93.17.4.21.97.8.97.55,0,.6-.56.77-.93,4.77-10.31,9.53-20.63,14.29-30.94.34-.73.68-1.45,1.05-2.24.1.22.16.33.21.45,5.12,10.96,10.24,21.91,15.36,32.87.17.36.27.87.76.86.52,0,.55-.55.7-.91,8.17-19.88,16.32-39.77,24.48-59.66.54-1.33,1.08-2.66,1.63-4.01-.12-.02-.18-.04-.25-.04-5.36,0-10.71,0-16.07-.01-.42,0-.48.24-.58.52-3.28,8.79-6.56,17.58-9.84,26.37-.33.88-.66,1.75-1.04,2.75-.25-.52-.45-.92-.64-1.32-4.65-9.75-9.29-19.51-13.94-29.26-.11-.24-.15-.59-.51-.6-.36,0-.4.35-.51.59-3.78,8.3-7.56,16.61-11.35,24.91-.84,1.85-1.69,3.7-2.54,5.57-.24-.17-.25-.4-.33-.59-3.71-9.43-7.41-18.86-11.1-28.31-.2-.52-.45-.65-.97-.65-3.52.02-7.04.01-10.56.01-2.07,0-4.14,0-6.26,0Zm196.99,43.43c.29-.66.64-1.12,1.08-1.5,1.15-.99,2.48-1.58,3.99-1.65,3.9-.16,7,1.47,9.52,4.37.65.75.72,1.47.19,2.33-1.82,2.93-4.39,4.83-7.76,5.57-1.72.38-3.37.06-4.95-.76-1.37-.71-1.84-2-2.26-3.32-.18-.58-.53-.33-.81-.27-3.26.73-6.23,1.98-8.79,4.26-3.97,3.54-8.65,5.17-14.02,4.56-.4-.05-.41.12-.4.41,0,1.75.03,3.5-.01,5.24-.01.54.12.67.66.67,8.1-.02,16.2-.01,24.3-.02,3.25,0,6.46-.41,9.59-1.31,9.17-2.63,15.89-8.14,19.55-17.03,2.9-7.04,3.15-14.35,1.56-21.72-1.34-6.2-4.36-11.5-9.19-15.67-5.99-5.17-13.1-7.45-20.91-7.57-8.32-.13-16.63-.02-24.95-.04-.46,0-.62.07-.61.58.02,17.85.01,35.7,0,53.55,0,.43.1.6.55.65,1.84.2,3.66.11,5.46-.33,3.52-.87,6.31-2.91,8.75-5.49,1.18-1.24,1.15-1.23.12-2.63-.32-.44-.56-.45-.96-.16-.87.65-1.88.72-2.91.56-1.17-.18-2.26-.61-3.16-1.39-3.15-2.73-4.14-6.26-3.77-10.3.1-1.04.73-1.43,1.61-1.61,3.3-.67,6.4-.18,9.23,1.67,1.46.95,2.43,2.3,2.92,3.99.35,1.21.22,2.5-.34,3.33-.1-.12-.2-.22-.3-.34-1.95-2.27-4.26-4.08-6.87-5.54-.47-.26-.92-.36-1.39-.01-.71.52-.58,1.46.29,1.94,1.5.83,2.89,1.8,4.18,2.92,1.48,1.28,2.7,2.78,3.88,4.34.06-.06.12-.09.16-.14,1.76-2.57,3.16-5.33,4.36-8.2.16-.39-.03-.42-.3-.52-1.52-.56-2.99-1.22-4.34-2.12-4.52-3.04-5.79-8.73-2.95-13.38,1.78-2.9,4.38-4.89,7.33-6.48,2.58-1.39,5.31-2.38,8.24-2.7.46-.05.87.02,1.27.31,1.68,1.17,3.12,2.59,4.37,4.2,2.59,3.32,4.51,6.92,4.82,11.23.31,4.19-2.1,8.16-6,9.74-2.44.99-4.98.86-7.53.54-.38-.05-.25-.24-.17-.45.33-.86.67-1.73.97-2.6.12-.33.32-.53.62-.69,1.52-.81,3.04-1.63,4.55-2.45.47-.26.96-.49,1.41-.79.42-.27.59-.69.44-1.18-.15-.47-.47-.76-.98-.8-.32-.03-.58.1-.85.25-1.29.7-2.6,1.4-3.99,2.14.33-1.27.67-2.43.91-3.6.1-.51.32-.78.76-1,.96-.48,1.9-1.01,2.85-1.53.71-.38.96-1.01.65-1.59-.32-.6-.95-.75-1.67-.38-.62.32-1.24.66-1.95,1.03.04-.46.06-.8.1-1.14.13-1.22.17-2.45.15-3.68,0-.28,0-.57-.14-.82-.26-.44-.64-.71-1.18-.6-.59.11-.93.54-.92,1.22.03,1.79,0,3.59-.32,5.35-1.38,7.67-4.06,14.84-8.22,21.45-.07.11-.23.21-.15.41.08-.01.16-.01.24-.04,4.42-1.45,8.9-1.76,13.45-.64.74.18,1.31-.16,1.46-.8.15-.64-.22-1.19-.95-1.37-1.47-.36-2.96-.59-4.47-.68-1.68-.1-3.36-.04-5.13.2Zm-75.94-11.77c0,10.34,0,20.68-.01,31.02,0,.55.14.66.67.66,14.19-.02,28.38-.02,42.58,0,.63,0,.72-.2.72-.75-.02-4.25-.03-8.5,0-12.76,0-.69-.21-.79-.83-.79-8.45.02-16.89,0-25.34.03-.64,0-.81-.13-.81-.8.02-15.89.01-31.77.03-47.66,0-.49-.1-.64-.62-.64-5.21.01-10.41.02-15.62-.03-.69,0-.79.2-.79.82.02,10.3.01,20.59.01,30.89Zm-28.34,0c0,10.34,0,20.67-.01,31.01,0,.55.14.67.68.67,5.23-.02,10.45-.02,15.68,0,.56,0,.65-.17.65-.68-.01-20.67-.01-41.34,0-62.01,0-.54-.13-.67-.67-.67-5.2.02-10.41.03-15.61,0-.61,0-.73.18-.73.75.02,10.31.01,20.63.01,30.94Z"></path>
            <path stroke-width="0" fill="#545e5e" d="m0,1.54c2.12,0,4.19,0,6.26,0,3.52,0,7.04.01,10.56-.01.52,0,.77.13.97.65,3.68,9.44,7.39,18.87,11.1,28.31.07.19.09.42.33.59.85-1.87,1.7-3.72,2.54-5.57,3.78-8.3,7.56-16.61,11.35-24.91.11-.24.15-.59.51-.59.36,0,.39.36.51.6,4.65,9.75,9.3,19.5,13.94,29.26.19.4.38.8.64,1.32.38-1,.71-1.87,1.04-2.75,3.28-8.79,6.56-17.58,9.84-26.37.11-.28.16-.53.58-.52,5.36.02,10.71.01,16.07.01.06,0,.12.02.25.04-.55,1.35-1.09,2.68-1.63,4.01-8.16,19.89-16.31,39.77-24.48,59.66-.15.35-.18.9-.7.91-.5,0-.59-.5-.76-.86-5.12-10.96-10.24-21.91-15.36-32.87-.05-.12-.11-.23-.21-.45-.37.79-.72,1.51-1.05,2.24-4.76,10.31-9.52,20.63-14.29,30.94-.17.37-.22.93-.77.93-.59,0-.63-.58-.8-.97C17.7,44.14,8.97,23.16.24,2.18c-.08-.19-.15-.39-.24-.64Z"></path>
            <path stroke-width="0" fill="#545e5e" d="m196.99,44.98c1.77-.24,3.45-.3,5.13-.2,1.51.09,3,.32,4.47.68.73.18,1.1.73.95,1.37-.15.64-.72.98-1.46.8-4.55-1.12-9.02-.8-13.45.64-.08.03-.16.02-.24.04-.08-.21.07-.3.15-.41,4.15-6.61,6.84-13.78,8.22-21.45.32-1.77.35-3.56.32-5.35-.01-.68.33-1.11.92-1.22.54-.1.91.16,1.18.6.15.25.13.54.14.82.02,1.23-.02,2.46-.15,3.68-.04.34-.06.68-.1,1.14.71-.38,1.33-.71,1.95-1.03.72-.37,1.35-.23,1.67.38.31.58.05,1.21-.65,1.59-.95.51-1.89,1.04-2.85,1.53-.44.22-.66.49-.76,1-.24,1.18-.58,2.33-.91,3.6,1.39-.75,2.69-1.44,3.99-2.14.27-.15.53-.28.85-.25.51.04.84.33.98.8.15.49-.02.91-.44,1.18-.45.29-.94.53-1.41.79-1.52.82-3.03,1.64-4.55,2.45-.3.16-.5.36-.62.69-.3.87-.64,1.74-.97,2.6-.08.21-.21.4.17.45,2.55.32,5.09.45,7.53-.54,3.9-1.58,6.3-5.54,6-9.74-.31-4.3-2.23-7.91-4.82-11.23-1.25-1.61-2.69-3.03-4.37-4.2-.41-.28-.81-.36-1.27-.31-2.94.32-5.66,1.31-8.24,2.7-2.95,1.59-5.55,3.57-7.33,6.48-2.84,4.65-1.57,10.33,2.95,13.38,1.35.91,2.82,1.56,4.34,2.12.26.1.46.13.3.52-1.19,2.87-2.6,5.63-4.36,8.2-.03.05-.09.08-.16.14-1.18-1.56-2.4-3.06-3.88-4.34-1.29-1.12-2.68-2.09-4.18-2.92-.86-.48-.99-1.42-.29-1.94.47-.34.92-.25,1.39.01,2.6,1.46,4.92,3.27,6.87,5.54.1.11.2.22.3.34.56-.83.69-2.12.34-3.33-.49-1.68-1.46-3.03-2.92-3.99-2.83-1.85-5.93-2.34-9.23-1.67-.88.18-1.52.57-1.61,1.61-.37,4.04.62,7.56,3.77,10.3.9.78,1.99,1.21,3.16,1.39,1.03.16,2.03.09,2.91-.56.4-.3.64-.28.96.16,1.03,1.4,1.06,1.39-.12,2.63-2.45,2.57-5.23,4.61-8.75,5.49-1.8.45-3.62.54-5.46.33-.44-.05-.55-.22-.55-.65.01-17.85.01-35.7,0-53.55,0-.51.16-.58.61-.58,8.32.01,16.64-.09,24.95.04,7.8.12,14.91,2.4,20.91,7.57,4.83,4.17,7.85,9.47,9.19,15.67,1.59,7.37,1.35,14.68-1.56,21.72-3.67,8.9-10.38,14.4-19.55,17.03-3.13.9-6.33,1.3-9.59,1.31-8.1,0-16.2,0-24.3.02-.54,0-.67-.13-.66-.67.04-1.75.02-3.5.01-5.24,0-.29,0-.46.4-.41,5.36.61,10.04-1.02,14.02-4.56,2.56-2.28,5.53-3.53,8.79-4.26.27-.06.62-.31.81.27.42,1.32.89,2.61,2.26,3.32,1.58.82,3.23,1.13,4.95.76,3.37-.74,5.94-2.64,7.76-5.57.53-.85.46-1.58-.19-2.33-2.52-2.89-5.61-4.53-9.52-4.37-1.51.06-2.84.66-3.99,1.65-.44.38-.79.84-1.08,1.5Z"></path>
            <path stroke-width="0" fill="#545e5e" d="m121.04,33.21c0-10.3,0-20.59-.01-30.89,0-.62.1-.83.79-.82,5.21.04,10.41.04,15.62.03.52,0,.62.15.62.64-.01,15.89,0,31.77-.03,47.66,0,.67.17.8.81.8,8.45-.02,16.89,0,25.34-.03.62,0,.83.09.83.79-.04,4.25-.03,8.5,0,12.76,0,.56-.09.76-.72.75-14.19-.02-28.38-.02-42.58,0-.53,0-.67-.12-.67-.66.02-10.34.01-20.68.01-31.02Z"></path>
            <path stroke-width="0" fill="#545e5e" d="m92.7,33.22c0-10.31,0-20.63-.01-30.94,0-.57.11-.75.73-.75,5.2.03,10.41.02,15.61,0,.54,0,.67.13.67.67-.02,20.67-.01,41.34,0,62.01,0,.52-.09.68-.65.68-5.23-.03-10.45-.02-15.68,0-.53,0-.68-.12-.68-.67.02-10.34.01-20.67.01-31.01Z"></path>
          </g>
        </g>
      </g>
    </g>
  </g>
</svg>