<svg viewBox="0 0 240.85 68.38" xmlns="http://www.w3.org/2000/svg" height="67" width="239">
  <g id="OBJECTS">
    <g data-name="SELECT YOUR CHARITY 01" id="SELECT_YOUR_CHARITY_01">
      <g data-name="CHARITY LOGOS" id="CHARITY_LOGOS">
        <g id="third">
          <g>
            <path stroke-width="0" fill="#545e5e" d="m98.96,16.13c.29-.61.34-1.28.51-1.91,1.01-3.74,2.01-7.48,3-11.23.05-.2.12-.28.33-.27,1.1,0,2.2,0,3.29,0,.19,0,.29.04.35.26,1.04,3.95,2.23,7.86,3.15,11.84.1.43.16.87.24,1.3.11-.06.15-.16.16-.26.12-2.08.73-4.07,1.2-6.08.52-2.23,1.07-4.46,1.6-6.7.07-.3.18-.38.48-.37,1.02.02,2.04.02,3.07,0,.29,0,.41.03.32.37-1.53,5.8-3.04,11.61-4.56,17.42-.06.24-.15.34-.43.34-1.02-.02-2.04-.02-3.06,0-.25,0-.37-.05-.44-.32-1.09-3.94-2.2-7.87-3.3-11.8-.19-.68-.28-1.37-.39-2.07-.22,2.11-.95,4.1-1.51,6.13-.71,2.58-1.46,5.14-2.18,7.72-.07.26-.17.34-.43.34-1.01-.01-2.01-.03-3.02,0-.34.01-.43-.12-.51-.41-1.27-4.88-2.55-9.76-3.83-14.64-.24-.91-.47-1.82-.72-2.73-.07-.25-.04-.35.26-.34,1.08.01,2.17.02,3.25,0,.29,0,.35.12.41.36.63,2.71,1.27,5.42,1.92,8.12.39,1.63.75,3.26.86,4.94Z"></path>
            <path stroke-width="0" fill="#545e5e" d="m138.35,19.19c-1.78,3-7.19,2.99-8.84-1-.98-2.37-.95-4.78.09-7.14,1.4-3.19,6.36-3.89,8.48-.93.1.14.22.27.32.41v-1.86c0-2.19,0-4.39,0-6.58,0-.36.1-.46.46-.45.85.03,1.71.02,2.56,0,.29,0,.36.08.35.36,0,6.15,0,12.31,0,18.46,0,.26-.04.38-.34.37-.91-.02-1.83-.02-2.74,0-.3,0-.35-.1-.33-.37.03-.39,0-.78,0-1.27Zm.19-4.44c.02-.35-.03-.7-.1-1.04-.28-1.43-1.32-2.4-2.66-2.47-1.61-.09-2.74.66-3.16,2.11-.21.74-.23,1.5-.12,2.26.23,1.49,1.29,2.52,2.69,2.59,1.72.08,2.82-.69,3.21-2.27.1-.38.15-.78.13-1.18Z"></path>
            <path stroke-width="0" fill="#545e5e" d="m108.33,36.87c0,1.34,0,2.58,0,3.83,0,.23-.17.27-.31.35-1.75.96-3.64,1.35-5.63,1.27-2.31-.1-4.43-.77-6.21-2.3-2.29-1.97-3.29-4.53-3.2-7.5.14-4.96,3.55-8.58,8.5-9.13,2.32-.26,4.55.07,6.69,1.02.23.1.33.21.32.47-.05,1.17-.08,2.34-.12,3.58-.79-.65-1.55-1.23-2.46-1.54-2.39-.82-4.68-.71-6.76.86-1.39,1.05-1.97,2.55-2.13,4.23-.11,1.1-.02,2.19.34,3.25.74,2.17,2.55,3.54,4.85,3.7,2.3.15,4.34-.45,6.13-2.08Z"></path>
            <path stroke-width="0" fill="#545e5e" d="m100.72,44.31c1.26-.02,2.85.57,4.07,2.04.2.24.27.39-.02.64-.61.53-1.18,1.1-1.75,1.67-.17.16-.26.26-.42-.02-.87-1.48-2.8-1.54-3.88-1.05-1.45.66-1.64,2.47-.36,3.41.57.42,1.22.68,1.86.95,1.19.5,2.36,1.05,3.38,1.86,1.64,1.29,2.34,2.96,1.96,5.02-.38,2.09-1.65,3.47-3.66,4.09-2.15.66-4.3.6-6.36-.38-.8-.38-1.43-.97-1.93-1.7-.14-.21-.15-.36.03-.55.59-.64,1.16-1.29,1.73-1.94.17-.2.23-.25.39.03.92,1.63,2.85,2.3,4.61,1.63.87-.33,1.39-.94,1.49-1.89.1-.91-.33-1.51-1.06-1.96-1.04-.63-2.18-1.08-3.24-1.66-.94-.51-1.86-1.05-2.6-1.84-2.17-2.34-1.49-5.97,1.4-7.49,1.17-.62,2.43-.85,4.35-.85Z"></path>
            <path stroke-width="0" fill="#545e5e" d="m195.11,31.5c0-.48.02-.96,0-1.44-.01-.27.05-.37.35-.37.9.02,1.8.02,2.7,0,.24,0,.34.04.34.31,0,3.84,0,7.68,0,11.51,0,.23-.04.32-.3.32-.94-.01-1.89-.01-2.83,0-.24,0-.32-.08-.31-.31.02-.4,0-.81,0-1.21-.03,0-.07,0-.08.02-1.68,2.81-6.95,2.86-8.65-.92-1.1-2.44-1.08-4.94.02-7.38,1.48-3.29,6.81-3.83,8.78-.53Zm-5.96,4.3c-.03.33.03.69.1,1.05.25,1.22,1.07,2.08,2.2,2.29,1.4.26,2.64-.14,3.22-1.16.84-1.49.83-3.04-.05-4.51-.58-.97-1.55-1.29-2.63-1.23-1.12.06-1.97.58-2.46,1.62-.29.6-.4,1.24-.37,1.95Z"></path>
            <path stroke-width="0" fill="#545e5e" d="m122.77,35.86c-.09,3.77-2.87,6.46-6.66,6.46-2.45,0-4.52-.84-5.88-2.95-2.44-3.8-.5-9.45,4.95-10.02,1.49-.16,2.92.06,4.25.75,2.11,1.1,3.4,3.34,3.34,5.76Zm-9.96-.06c0,1.97,1.24,3.24,3.15,3.24,1.91,0,3.17-1.28,3.17-3.23,0-1.99-1.25-3.27-3.19-3.26-1.93.01-3.14,1.27-3.14,3.25Z"></path>
            <path stroke-width="0" fill="#545e5e" d="m220.24,29.3c3.15,0,5.64,1.73,6.49,4.49,1.33,4.36-1.76,8.52-6.32,8.53-2.2,0-4.11-.66-5.53-2.4-2.82-3.45-1.45-9.45,3.92-10.49.48-.09.96-.13,1.45-.13Zm3.16,6.49c0-1.96-1.24-3.23-3.16-3.24-1.92-.01-3.18,1.25-3.18,3.21,0,1.99,1.25,3.29,3.17,3.28,1.91,0,3.16-1.29,3.17-3.25Z"></path>
            <path stroke-width="0" fill="#545e5e" d="m106.68,56.8c0-3.78,2.9-6.5,6.91-6.5,3.81,0,6.65,2.79,6.64,6.52,0,3.8-2.87,6.5-6.91,6.49-3.82,0-6.65-2.78-6.65-6.52Zm6.73-3.24c-1.94.01-3.16,1.29-3.15,3.3.01,1.9,1.3,3.2,3.18,3.19,1.9,0,3.21-1.36,3.18-3.3-.03-1.97-1.28-3.2-3.21-3.19Z"></path>
            <path stroke-width="0" fill="#545e5e" d="m146.08,57.68c-1.37,0-2.74,0-4.12,0-.31,0-.42.02-.33.39.28,1.05.85,1.84,1.94,2.08,1.33.29,2.56.1,3.47-1.03.25-.31.41-.32.73-.14.69.38,1.4.73,2.12,1.06.28.13.26.23.11.46-1.24,1.84-2.98,2.77-5.19,2.84-1.46.05-2.86-.16-4.11-.98-1.78-1.16-2.54-2.89-2.65-4.95-.14-2.56.66-4.72,2.9-6.15,2.47-1.58,6.21-1.17,8.14.86,1.15,1.21,1.55,2.72,1.6,4.35.04,1.23.02,1.23-1.21,1.23h-3.43Zm-4.4-2.17h.45c1.34,0,2.68,0,4.02,0,.32,0,.84.15.93-.08.13-.33-.12-.75-.32-1.1,0-.01-.02-.03-.03-.04-.56-.88-1.7-1.28-2.96-1.03-1.2.24-1.87.94-2.1,2.24Z"></path>
            <path stroke-width="0" fill="#545e5e" d="m152.74,36.66c.08,1.42,1.12,2.47,2.52,2.56,1.25.08,2.33-.23,3.08-1.3.09-.13.17-.17.33-.09.88.45,1.76.88,2.66,1.33-1.23,2.03-3.02,3.06-5.36,3.15-1.15.05-2.29-.08-3.35-.57-2.01-.91-3.05-2.54-3.36-4.67-.21-1.44-.1-2.86.53-4.2,1.15-2.46,3.57-3.8,6.38-3.57,2.14.18,3.88,1.01,4.92,2.97.67,1.26.84,2.62.75,4.03-.02.3-.13.36-.41.36-2.73-.01-5.46,0-8.19,0h-.5Zm2.78-2.15c.78,0,1.55-.03,2.33.01.44.02.43-.18.35-.48-.28-1.07-.99-1.66-2.19-1.82-1.55-.21-2.75.54-3.13,1.93-.08.29-.04.37.27.37.79-.02,1.58,0,2.38,0Z"></path>
            <path stroke-width="0" fill="#545e5e" d="m171.3,15.65c-1.39,0-2.78,0-4.16,0-.33,0-.45.02-.35.41.3,1.11.92,1.9,2.09,2.09,1.28.21,2.48.04,3.34-1.07.22-.28.36-.34.68-.16.68.38,1.37.72,2.08,1.05.3.14.37.24.16.54-1.17,1.68-2.76,2.62-4.81,2.78-.98.07-1.95.03-2.9-.26-1.91-.57-3.23-1.78-3.85-3.69-.63-1.96-.61-3.92.37-5.76,1.31-2.47,3.49-3.39,6.2-3.27,3.43.15,5.64,2.54,5.72,6.19q.03,1.15-1.1,1.15h-3.48Zm-1.78-2.13h2.01q.91,0,.56-.84c-.42-1.01-1.29-1.5-2.58-1.47-1.39.03-2.27.71-2.62,1.97-.08.28-.05.37.26.36.79-.02,1.58,0,2.37,0Z"></path>
            <path stroke-width="0" fill="#545e5e" d="m165.84,58.71c.67-2.69,1.68-5.18,2.5-7.74.07-.22.18-.28.39-.27,1.14,0,2.29.01,3.43,0,.33,0,.29.12.2.34-2.33,5.69-4.66,11.37-6.99,17.06-.06.14-.08.29-.29.29-1.23,0-2.46,0-3.75,0,.31-.77.61-1.48.9-2.19.53-1.31,1.05-2.62,1.6-3.92.11-.26.11-.46,0-.72-1.51-3.43-3.01-6.87-4.51-10.3q-.24-.54.38-.54c1.05,0,2.1,0,3.16,0,.26,0,.38.08.47.31.66,1.78,1.35,3.55,2.01,5.32.28.74.39,1.53.51,2.38Z"></path>
            <path stroke-width="0" fill="#545e5e" d="m231.98,31.56c1.66-2.03,3.69-2.65,6.09-2.06,1.57.39,2.56,1.63,2.7,3.24.13,1.41.06,2.83.07,4.25.01,1.49,0,2.99,0,4.48,0,.27-.06.37-.35.37-.96-.02-1.92-.02-2.88,0-.31,0-.34-.12-.33-.38,0-1.97,0-3.93,0-5.9,0-.44-.03-.88-.07-1.32-.17-1.68-1.13-2.29-2.8-2-1.4.24-2.31,1.36-2.34,2.86-.04,2.09-.03,4.17-.01,6.26,0,.38-.1.49-.48.48-.9-.03-1.8-.02-2.7,0-.27,0-.4-.03-.4-.36.01-3.81.01-7.62,0-11.43,0-.27.06-.36.35-.36.95.02,1.89.02,2.84,0,.24,0,.32.06.31.3-.02.48,0,.97,0,1.56Z"></path>
            <path stroke-width="0" fill="#545e5e" d="m127.73,31.55c.8-.92,1.61-1.62,2.67-1.97,1.22-.41,2.46-.4,3.68-.02,1.44.45,2.35,1.69,2.45,3.25.15,2.17.05,4.35.07,6.53,0,.73,0,1.46,0,2.19,0,.21-.06.3-.28.29-1.01,0-2.01-.01-3.02,0-.35,0-.26-.22-.26-.4,0-1.9,0-3.81,0-5.71,0-.5-.03-1-.08-1.5-.17-1.62-1.05-2.26-2.77-1.99-1.39.22-2.32,1.33-2.36,2.79-.05,2.07-.02,4.14-.02,6.21q0,.59-.62.59c-.87,0-1.74,0-2.61,0-.25,0-.34-.05-.34-.32,0-3.84,0-7.68,0-11.51,0-.24.06-.31.3-.31.94.01,1.89.01,2.83,0,.25,0,.35.06.34.33-.02.47,0,.94,0,1.53Z"></path>
            <path stroke-width="0" fill="#545e5e" d="m163.15,4.47c-.51-.21-1-.36-1.53-.3-.84.1-1.28.49-1.37,1.32-.11.99-.03,1.98-.06,2.97,0,.24.14.22.29.22.55,0,1.1,0,1.65,0,.22,0,.32.04.31.29-.02.73-.02,1.46,0,2.19,0,.23-.05.32-.3.31-.5-.02-1.01.02-1.51-.01-.38-.03-.44.12-.44.46.01,2.8,0,5.6.02,8.41,0,.39-.07.53-.49.51-.85-.04-1.71-.03-2.56,0-.39.01-.51-.06-.51-.49.02-2.8,0-5.6.02-8.41,0-.37-.09-.49-.47-.48-1.12.02-1.12,0-1.12-1.13,0-.46.01-.91,0-1.37,0-.22.06-.3.28-.29.32.02.64-.01.96,0,.28.02.36-.06.36-.35-.02-.85,0-1.71,0-2.56,0-.5.03-1.01.15-1.5.4-1.68,1.33-2.49,3.29-2.79.91-.14,1.82-.13,2.72.08.23.05.36.12.35.41-.03.82,0,1.64,0,2.49Z"></path>
            <path stroke-width="0" fill="#545e5e" d="m172.53,29.7c1.28,0,2.54,0,3.81,0,.14,0,.25,0,.3.19.84,2.74,1.92,5.41,2.52,8.22.02.07.02.15.03.25.18-.24.15-.52.2-.76.42-2,1.23-3.88,1.83-5.82.18-.59.41-1.18.59-1.77.07-.21.15-.32.4-.32,1.22.02,2.44,0,3.66,0,.08.14-.02.24-.06.34-1.57,3.82-3.14,7.63-4.71,11.45-.1.24-.2.36-.48.35-.96-.02-1.92-.01-2.88,0-.22,0-.35-.04-.44-.27-1.59-3.92-3.19-7.84-4.79-11.76,0-.01,0-.03.01-.1Z"></path>
            <path stroke-width="0" fill="#545e5e" d="m143.27,29.24c1.31,0,2.54.28,3.57,1.15.37.31.65.68.89,1.09.11.2.12.3-.11.42-.7.33-1.39.68-2.08,1.03-.17.09-.26.11-.37-.1-.57-1.1-1.95-1.51-3.05-.92-.77.42-.82,1.32-.09,1.81.72.48,1.57.65,2.37.92.63.22,1.25.48,1.84.79,2.53,1.32,2.2,4.76.09,6.02-.87.52-1.82.77-2.81.83-1.45.1-2.86-.06-4.15-.81-.62-.36-1.1-.86-1.42-1.5-.1-.2-.09-.31.13-.42.76-.38,1.52-.77,2.27-1.17.17-.09.22-.04.29.11.58,1.24,2.23,1.73,3.42,1.02.76-.45.73-1.43-.06-1.89-.49-.28-1.04-.42-1.57-.6-.75-.26-1.48-.56-2.18-.92-1.17-.61-2.07-1.43-2.06-2.87.01-1.53.75-2.63,2.08-3.34.93-.5,1.95-.66,3-.66Z"></path>
            <path stroke-width="0" fill="#545e5e" d="m131.03,54.59c-2.26-1.49-4.26-1.48-5.43-.02-1.01,1.26-.91,3.47.21,4.59,1.31,1.3,3.36,1.2,5.22-.33,0,1.22,0,2.37,0,3.52,0,.18-.14.22-.25.28-3.89,2.19-9-.46-9.44-4.88-.14-1.44-.02-2.84.66-4.13,1.17-2.22,3.12-3.2,5.55-3.32,1.09-.05,2.15.11,3.16.58.23.11.34.24.33.51-.02,1.04,0,2.09,0,3.18Z"></path>
            <path stroke-width="0" fill="#545e5e" d="m127.2,11.22c0,3.06,0,6.13,0,9.19,0,.35-.09.43-.43.42-.91-.03-1.83-.02-2.74,0-.28,0-.4-.04-.4-.36.01-6.16,0-12.31,0-18.47,0-.29.09-.36.36-.35.95.02,1.89.02,2.84,0,.32,0,.37.11.37.39,0,3.06,0,6.13,0,9.19Z"></path>
            <path stroke-width="0" fill="#545e5e" d="m156.65,58.16c0,1.43,0,2.87,0,4.3,0,.3-.08.38-.38.38-.93-.02-1.86-.02-2.79,0-.32,0-.4-.08-.4-.4.01-2.82,0-5.64.02-8.46,0-.37-.05-.55-.48-.5-.39.04-.91.14-1.15-.06-.25-.21-.06-.75-.07-1.14-.01-.41.02-.82,0-1.23-.02-.3.1-.39.37-.35.01,0,.03,0,.05,0,.42-.03,1,.19,1.22-.09.21-.26.07-.81.07-1.24,0-.79.01-1.59,0-2.38,0-.27.08-.33.33-.33.96.01,1.92.02,2.88,0,.29,0,.35.1.35.37-.01,1.1,0,2.19-.01,3.29,0,.3.08.4.38.38.33-.03.67,0,1.01-.01.25-.02.31.08.3.32-.01.73-.02,1.46,0,2.19,0,.26-.1.3-.32.29-.34-.01-.67.02-1.01-.01-.32-.03-.37.1-.37.38.01,1.43,0,2.87,0,4.3Z"></path>
            <path stroke-width="0" fill="#545e5e" d="m147.71,11.24c0,3.05,0,6.1,0,9.14,0,.35-.08.47-.45.45-.87-.03-1.74-.03-2.61,0-.39.01-.47-.1-.47-.48.01-5.58,0-11.15,0-16.73,0-.56,0-1.13,0-1.69,0-.21.06-.29.28-.29.98.01,1.95.02,2.93,0,.3,0,.31.13.31.36,0,1.49,0,2.99,0,4.48v4.75Z"></path>
            <path stroke-width="0" fill="#545e5e" d="m201.58,37.17c0-1.43,0-2.86,0-4.3,0-.32-.08-.43-.41-.4-.35.03-.7,0-1.05,0-.2,0-.27-.06-.26-.26,0-.75.01-1.49,0-2.24,0-.23.08-.29.29-.28.37.01.73-.01,1.1,0,.27.02.33-.08.33-.34-.01-1.11,0-2.22-.01-3.34,0-.27.04-.37.34-.36.96.02,1.92.02,2.88,0,.27,0,.33.08.33.34-.01,1.1,0,2.19-.01,3.29,0,.31.07.44.4.41.33-.03.67,0,1.01-.01.25-.02.3.08.3.31-.01.73-.01,1.46,0,2.19,0,.22-.06.29-.28.28-.33-.02-.67.02-1.01-.01-.37-.04-.42.11-.42.44.01,2.79,0,5.58.02,8.36,0,.46-.1.6-.57.58-.87-.04-1.74-.02-2.61,0-.29,0-.39-.07-.38-.37.02-1.43,0-2.86,0-4.3Z"></path>
            <path stroke-width="0" fill="#545e5e" d="m166.78,32.52c.32-.88.68-1.62,1.3-2.22,1.09-1.05,2.4-1.14,3.79-.88.19.04.16.13.14.26-.15,1.07-.3,2.14-.44,3.21-.04.28-.12.37-.42.25-.75-.27-1.52-.28-2.3-.12-1.12.24-1.78,1.04-1.93,2.31-.05.45-.08.91-.08,1.37,0,1.58,0,3.17,0,4.75,0,.29-.06.39-.37.39-.94-.02-1.89-.01-2.83,0-.25,0-.34-.06-.34-.33,0-3.84,0-7.67,0-11.51,0-.25.09-.3.32-.3.96.01,1.92.01,2.88,0,.24,0,.3.07.29.31-.02.81,0,1.63,0,2.52Z"></path>
            <path stroke-width="0" fill="#545e5e" d="m150,14.69c0-1.87,0-3.75,0-5.62,0-.32.09-.41.4-.4.94.02,1.89.02,2.84,0,.26,0,.33.07.33.33,0,3.82,0,7.65,0,11.47,0,.27-.05.37-.35.36-.95-.02-1.89-.02-2.84,0-.3,0-.38-.08-.38-.38.01-1.92,0-3.84,0-5.76Z"></path>
            <path stroke-width="0" fill="#545e5e" d="m208.46,35.75c0-1.89,0-3.77,0-5.66,0-.32.07-.41.4-.4.94.02,1.89.02,2.83,0,.25,0,.34.05.34.32,0,3.82,0,7.64,0,11.46,0,.28-.08.36-.36.36-.94-.02-1.89-.02-2.83,0-.3,0-.38-.08-.38-.38.01-1.9,0-3.8,0-5.71Z"></path>
            <path stroke-width="0" fill="#545e5e" d="m136.62,56.77c0,1.89,0,3.77,0,5.66,0,.31-.06.41-.39.4-.93-.02-1.86-.02-2.79,0-.28,0-.39-.05-.39-.37.01-3.8.01-7.61,0-11.41,0-.28.07-.37.36-.36.94.02,1.89.02,2.83,0,.29,0,.38.07.38.38-.02,1.9,0,3.8,0,5.71Z"></path>
            <path stroke-width="0" fill="#545e5e" d="m121.39,14.75c0,1.87,0,3.74,0,5.62,0,.34-.06.48-.44.47-.91-.03-1.83-.02-2.74,0-.26,0-.37-.04-.37-.34.01-3.84.01-7.67,0-11.51,0-.28.11-.31.34-.31.94.01,1.89.02,2.83,0,.3,0,.38.07.38.37-.01,1.9,0,3.81,0,5.71Z"></path>
            <path stroke-width="0" fill="#545e5e" d="m208.17,24.7c0-1.14.92-2.03,2.07-2.03,1.14,0,2.06.92,2.06,2.05,0,1.16-.93,2.08-2.09,2.08-1.16,0-2.05-.92-2.05-2.1Z"></path>
            <path stroke-width="0" fill="#545e5e" d="m134.82,43.69c1.19,0,2.1.88,2.09,2.05,0,1.14-.91,2.07-2.04,2.08-1.15.01-2.09-.92-2.09-2.07,0-1.15.89-2.06,2.04-2.06Z"></path>
            <g>
              <path stroke-width="3.32" stroke-miterlimit="10" stroke="#545e5e" fill="none" d="m29.29,14.6c.2-.06.25-.26.33-.41,1.01-1.88,1.97-3.78,3.01-5.63,2.3-4.09,5.78-6.5,10.48-6.81,5.62-.37,9.82,2.06,12.57,6.95,1.03,1.83,1.98,3.7,2.97,5.55.07.13.1.29.25.37,0,.04,0,.07,0,.11-.12.06-.16.17-.22.28-1.09,2.02-2.17,4.04-3.26,6.07-.98,1.82-1.95,3.65-2.92,5.47-1.84,3.46-3.68,6.93-5.53,10.39-.83,1.56-1.67,3.1-2.51,4.66-.14.27-.32.52-.3.85-.19.03-.21.21-.28.33-2.96,5.54-5.9,11.08-8.88,16.61-1.24,2.31-3.22,3.51-5.83,3.48-2.56-.03-4.49-1.23-5.69-3.5-2.95-5.58-5.88-11.17-8.81-16.75-.06-.12-.1-.25-.15-.38.11-.04.16-.14.21-.23.51-.97,1.03-1.93,1.54-2.9,1.1-2.07,2.19-4.14,3.29-6.2,2.07-3.87,4.14-7.74,6.22-11.62.92-1.71,1.85-3.42,2.75-5.15.26-.51.6-.98.74-1.55Z"></path>
              <path stroke-width="3.32" stroke-miterlimit="10" stroke="#545e5e" fill="none" d="m44.18,42.44c-.02-.33.16-.58.3-.85.83-1.55,1.68-3.1,2.51-4.66,1.85-3.46,3.68-6.93,5.53-10.39.97-1.83,1.95-3.65,2.92-5.47,1.08-2.02,2.17-4.05,3.26-6.07.06-.11.1-.23.22-.28.44.82.88,1.63,1.32,2.45,2.21,4.13,4.42,8.27,6.62,12.4,1.86,3.49,3.71,6.99,5.58,10.47.4.75.74,1.53,1.24,2.23-.54,1.22-1.21,2.38-1.83,3.56-2.38,4.54-4.74,9.08-7.15,13.6-1.19,2.22-3.11,3.41-5.63,3.45-2.6.04-4.59-1.13-5.82-3.42-3-5.55-5.95-11.12-8.92-16.68-.06-.11-.1-.22-.15-.33Z"></path>
              <path stroke-width="3.32" stroke-miterlimit="10" stroke="#545e5e" fill="none" d="m29.29,14.6c-.14.57-.48,1.04-.74,1.55-.9,1.72-1.83,3.43-2.75,5.15-2.07,3.87-4.15,7.74-6.22,11.62-1.1,2.06-2.2,4.13-3.29,6.2-.51.97-1.03,1.93-1.54,2.9-.05.1-.1.19-.21.23-.75-1.24-1.37-2.54-2.04-3.81-3.09-5.86-6.15-11.73-9.25-17.58-1.07-2.02-1.63-4.16-1.59-6.44C1.79,7.75,6.74,2.7,12.66,1.81c5.66-.85,11.02,2.03,13.56,6.94.94,1.83,1.93,3.63,2.89,5.44.07.13.12.28.18.41Z"></path>
              <path stroke-width="3.32" stroke-miterlimit="10" stroke="#545e5e" fill="none" d="m73.68,42.27c-.5-.69-.84-1.48-1.24-2.23-1.87-3.48-3.72-6.98-5.58-10.47-2.2-4.14-4.41-8.27-6.62-12.4-.44-.82-.88-1.63-1.32-2.45,0-.04,0-.07,0-.11,1.4-2.56,2.53-5.28,4.25-7.65,2.28-3.15,5.44-4.89,9.33-5.24,6.63-.61,12.61,3.99,13.84,10.43.57,2.99.15,5.85-1.27,8.54-3.73,7.1-7.46,14.19-11.19,21.28-.06.11-.13.2-.2.3Z"></path>
              <path stroke-width="3.32" stroke-miterlimit="10" stroke="#545e5e" fill="none" d="m14.74,42.3c-.02-.33.16-.59.3-.85.84-1.56,1.68-3.11,2.51-4.67,1.85-3.47,3.69-6.95,5.54-10.42.97-1.83,1.95-3.66,2.93-5.49,1.09-2.03,2.18-4.06,3.27-6.09.06-.11.1-.23.22-.28.44.82.89,1.64,1.33,2.46,2.21,4.15,4.43,8.29,6.64,12.44,1.87,3.5,3.72,7.01,5.6,10.5.4.75.74,1.54,1.24,2.23-.55,1.23-1.22,2.39-1.84,3.57-2.38,4.55-4.76,9.11-7.17,13.64-1.19,2.23-3.12,3.42-5.64,3.46-2.6.04-4.6-1.14-5.84-3.43-3.01-5.56-5.97-11.15-8.94-16.73-.06-.11-.1-.22-.15-.33Z"></path>
            </g>
          </g>
        </g>
      </g>
    </g>
  </g>
</svg>