<svg viewBox="0 0 218.07 67.52" xmlns="http://www.w3.org/2000/svg" height="67" width="218">
  <g id="OBJECTS">
    <g data-name="SELECT YOUR CHARITY 01" id="SELECT_YOUR_CHARITY_01">
      <g data-name="CHARITY LOGOS" id="CHARITY_LOGOS">
        <g id="fifth">
          <path stroke-width="0" fill="#545e5e" d="m23.51,15.02c3.73-3.73,5.25-7.54,5.48-9.29.23-1.83-.15-2.28-.46-3.43-.08-.23-.08-.53-.08-.76.15-.99,1.07-1.68,2.06-1.52.99.15,1.68,1.07,1.52,2.06-.08.3-.15.53-.3.76-.53.84-1.37,1.6-1.45,3.12-.08,1.07,1.07,1.68,1.98.84,2.36-2.21,2.82-3.73,3.27-4.57.08-.23.23-.46.46-.69.76-.69,1.9-.69,2.59,0,.69.69.69,1.9,0,2.59-.23.15-.46.3-.69.38-.84.38-2.21.76-4.49,3.2-.99.99-.53,1.9.38,1.98,1.07.08,2.44-.69,3.35-1.14.23-.08.46-.15.76-.23.99-.08,1.9.69,1.98,1.75.08.99-.69,1.9-1.75,1.9-.3,0-.53,0-.76-.15-.91-.3-2.13-.84-3.5-.69-3.12.15-5.94,2.59-6.17,4.11-.08.53,1.37.76,3.35.84-2.13.76-4.26,1.68-6.32,2.67-.53-.15-1.07-.38-1.52-.69-1.22-.76-.84-1.9.3-3.05m-18.05,6.85c-.46-.53-.61-1.14-.46-1.75.08-.38.23-.69.46-.99,0-.08.08-.15.15-.15.84-.84,2.21-.84,3.12,0,.46.46.69,1.14.61,1.75-.08.15-.15.38-.15.53-.23,1.14-.23,2.28,0,3.43.08.46.38.84.76.99.69.3,1.45,0,1.75-.69,0-.08.08-.08.08-.15.91-2.13,1.45-4.26,1.52-6.47v-.15c0-.53.23-.99.61-1.37.84-.84,2.21-.84,3.12,0,.84.84.84,2.21,0,3.12-1.52,1.52-2.82,3.35-3.81,5.41-1.68,1.14-3.27,2.36-4.72,3.58v-.61c-.08-2.28-.99-4.49-2.67-6.09l-.23-.23c-.08,0-.08-.08-.15-.15m43.86,0c-.53.76-1.29,1.22-2.28,1.45-2.28.46-4.65-.61-5.18-2.89-.61-2.21.84-4.8,3.12-5.41.91-.23,1.9-.15,2.59.15.23.08.3.23.3.3s-.15.15-.46.08c-.53-.15-1.07-.08-1.6,0-1.9.46-2.89,2.36-2.51,4.26.38,1.9,2.28,3.05,4.11,2.59.61-.15,1.14-.46,1.52-.84.3-.3.38-.3.46-.23.15.08.15.23-.08.53m-.46-3.12c.15,1.6-.46,2.97-1.29,3.05-.91.08-1.75-1.14-1.9-2.74s.46-2.97,1.29-3.05c.91-.08,1.75,1.14,1.9,2.74m9.75-2.28c-.3-.3-.69-.53-1.14-.76l-1.37-.69c-.53-.23-.99-.46-1.52-.61-.23-.08-.53-.23-.76-.3-.15-.08-.23-.08-.38-.15-.08,0-.15-.08-.23-.15v-.08c0-.15-.08-.38-.15-.53-.3-1.14-1.14-2.13-2.28-2.67-1.22-.53-2.67-.46-3.81.3-.53.3-.99.76-1.29,1.29l-.46.91c0,.08-.08.15-.08.23,1.37-.15,2.97-.08,3.81.15.08,0,.15.08.15.08-1.14,0-2.44.08-3.73.23C23.13,16.62-1.32,35.51.06,42.67c.38,1.83,3.43,3.81,10.89,4.49,2.59.23,6.78.08,9.06-.46.53-.15.91-.3,1.29-.3.3,0,.61.08.69.38.08.3-.15.61-.53.69-.53.08-.61,0-1.6.08-2.82.3-10.2,2.06-13.25,3.2-1.37.53-2.21,1.29-2.06,2.21.15.76,1.07,1.37,3.73,1.83,3.58.69,9.06,1.98,10.58,6.55.69,2.06.23,2.59.08,3.88,0,.3,0,.61.08.84.3,1.07,1.45,1.75,2.59,1.37,1.07-.3,1.68-1.45,1.37-2.59-.08-.3-.23-.53-.38-.76-.69-.84-1.75-1.6-2.13-3.27-.23-1.14.91-1.98,1.98-1.22,2.82,1.98,3.81,3.58,4.34,4.49.15.23.3.46.61.69.91.69,2.21.46,2.89-.46.69-.91.46-2.21-.46-2.89-.23-.15-.53-.3-.76-.38-.99-.3-2.74-.46-5.64-2.74-1.22-.91-.91-1.98.08-2.21,1.14-.23,2.82.15,3.96.53.3.08.53.15.84.15,1.14,0,2.06-.99,1.98-2.13,0-1.14-.99-2.06-2.13-1.98-.3,0-.61.08-.84.23-2.06.91-3.2,1.83-6.63,1.83-1.6,0-3.88-.76-5.48-1.52,6.17-.99,11.27-2.82,13.55-4.19,1.14-.69,1.6-1.37,1.52-2.36,0-.76-.61-1.6-1.68-2.51-4.11-3.5-10.13-5.56-15.38-5.71-.23,0-.38-.08-.38-.15s.15-.23.53-.23c3.81-.38,9.06.61,12.26,2.13,1.75-.38,3.58-1.45,4.95-2.82,1.83-1.75,2.74-3.2,3.5-4.8.08-.23.15-.3.23-.3.15,0,.08.15.15.38v.15c.08,2.13-.38,3.96-.69,5.71-.15.91-.08,1.6.15,2.13.38.76,1.14.99,2.13.91,3.58-.23,8.22.76,10.66,2.21,1.68.99,1.68,1.6,2.28,2.59.15.23.3.38.53.53.84.53,1.98.3,2.51-.53.53-.84.3-1.98-.61-2.51-.23-.15-.46-.23-.76-.3-.99-.15-2.13,0-3.35-.99-.84-.69-.53-1.9.69-2.06,3.2-.38,4.65.3,5.48.53.23.08.53.15.76.08.99-.08,1.75-.99,1.68-1.98-.08-.99-.99-1.75-1.98-1.68-.3,0-.53.15-.76.23-.84.38-1.98,1.14-5.33,1.37-1.37.08-1.83-.84-1.22-1.52.69-.84,2.13-1.37,3.05-1.83.23-.08.46-.23.61-.46.69-.76.69-1.9,0-2.59s-1.9-.69-2.59.08c-.15.23-.3.46-.38.69-.38.84-.76,2.13-1.75,3.12-2.13,2.21-6.4,2.82-7.08,1.98-1.22-1.45,2.28-7.61,3.96-9.14,8.76-2.74,13.48-6.7,15.84-8.53,1.07-.84,1.45-1.52,1.45-2.36.08-.61-.38-1.29-1.14-1.98"></path>
          <path stroke-width="0" fill="#545e5e" d="m81.08,27.51l-3.81-6.47c-.38-.61-.38-.99,0-1.45,1.52-1.45,2.21-2.97,2.21-5.1,0-4.11-2.36-6.32-6.78-6.32h-6.17c-.46,0-.61.15-.61.61v18.89c0,.46.15.61.61.61h3.12c.46,0,.61-.15.61-.61v-5.64c0-.61.23-.99.53-1.07.3-.15.76.08,1.07.69l1.83,3.12.91,1.6.84,1.52c.38.46.53.46.99.46h4.11c.53,0,.84-.53.53-.84Zm-7.69-11.12h-2.67c-.46,0-.61-.23-.61-.69v-2.13c0-.46.15-.69.61-.69h2.67c.99,0,1.68.61,1.68,1.75s-.69,1.75-1.68,1.75Zm58.56,11.35c0,.46-.15.69-.61.69h-3.2c-.46,0-.61-.23-.61-.69V8.85c0-.46.15-.69.61-.69h8.99c.46,0,.61.23.61.69v3.81c0,.46-.15.69-.61.69h-4.57c-.46,0-.61.15-.61.61v1.37c0,.46.15.61.61.61h3.88c.46,0,.61.23.61.69v3.2c0,.46-.15.69-.61.69h-3.88c-.46,0-.61.15-.61.61v6.63Zm77.75-13.86c0-.46-.15-.61-.61-.61h-2.44c-.46,0-.61-.15-.61-.61v-3.81c0-.46.15-.61.61-.61h10.51c.46,0,.61.15.61.61v3.81c0,.46-.15.61-.61.61h-2.44c-.46,0-.61.15-.61.61v13.86c0,.46-.15.61-.61.61h-3.12c-.46,0-.61-.15-.61-.61v-13.86h-.08Zm-113.16,13.63l-4.8-18.66c-.15-.53-.38-.69-.84-.69h-2.97c-.46,0-.69.15-.84.69l-4.8,18.66c0,.15-.08.23-.08.38,0,.3.15.46.53.46h2.82c.84,0,1.07-.08,1.22-.84l.46-1.83c.15-.53.38-.69.84-.69h2.44c.46,0,.69.15.84.69l.46,1.83c.15.69.46.84,1.22.84h2.89c.38,0,.53-.15.53-.46.15-.15.08-.23.08-.38h0Zm-6.32-6.24h-1.52c-.3,0-.53-.08-.53-.3,0-.15,0-.3.08-.53.23-1.07.53-2.13.76-3.2.08-.38.15-.61.46-.61s.38.38.46.61c.23,1.07.46,2.13.76,3.2.08.23.08.46.08.53-.08.23-.23.3-.53.3Zm91.23-.91c-.46,0-.61.23-.61.69v1.9c0,.46.15.69.61.69h8.07c.46,0,.61.23.61.69v3.5c0,.46-.15.69-.61.69h-12.41c-.46,0-.61-.23-.61-.69V8.85c0-.46.15-.69.61-.69h12.41c.46,0,.61.23.61.69v3.5c0,.46-.15.69-.61.69h-8.07c-.46,0-.61.23-.61.69v1.98c0,.46.15.69.61.69h6.55c.46,0,.61.23.61.69v2.74c0,.46-.15.69-.61.69h-6.55v-.15h0Zm-7.39,7.16l-2.36-8.3c-.08-.23,0-.38.15-.61.61-.99,1.37-2.21,1.37-4.19,0-4.26-2.28-6.24-6.63-6.24h-4.11c-.46,0-.61.15-.61.61v18.89c0,.46.15.61.61.61h3.2c.38,0,.53-.15.61-.38v-6.85c0-.61.84-.53,1.07-.38.3.15.46.46.53.76l1.6,6.24c.15.53.38.69.99.69h3.12c.53,0,.61-.46.46-.84h0Zm-7.08-11.12h-.53c-.46,0-.61-.23-.61-.69v-2.28c0-.46.15-.69.61-.69h.53c1.07,0,1.9.69,1.9,1.83,0,1.22-.84,1.83-1.9,1.83Zm-17.59-8.53c-5.86,0-10.13,4.34-10.13,10.43s4.26,10.43,10.13,10.43,10.13-4.42,10.13-10.43c-.08-6.09-4.26-10.43-10.13-10.43Zm0,15.92c-3.12,0-5.41-2.36-5.41-5.56s2.36-5.48,5.41-5.48,5.41,2.36,5.41,5.48c0,3.2-2.36,5.56-5.41,5.56Zm-26.04-15.61c.46,0,.69.23.69.69v18.81c0,.46-.15.69-.69.69h-1.9c-.38,0-.61-.08-.84-.23l-.23-.23c-1.14-1.29-2.28-2.59-3.35-3.88-1.22-1.45-2.51-2.89-3.73-4.26l-1.37-1.6c-.3-.38-.76-.23-.76.3v9.37c0,.46-.15.69-.69.69h-3.05c-.46,0-.69-.23-.69-.69V8.85c0-.46.15-.69.69-.69h1.9c.38,0,.61.08.84.23l.23.23,8.45,9.82c.3.38.76.23.76-.3v-9.37c0-.46.15-.69.69-.69h3.05m-23.99,20.26h3.5c.46,0,.69-.23.69-.69V8.85c0-.46-.15-.69-.69-.69h-3.5c-.46,0-.69.23-.69.69v18.81c0,.46.23.69.69.69m99.76-12.26c2.59.23,5.71,1.52,5.71,6.17,0,4.04-2.28,6.4-6.17,6.4-1.45,0-2.97-.3-4.11-1.29-1.37-1.14-1.9-3.12-1.83-4.87,0-.15,0-.38.08-.53l.23-.23c.08-.08.23-.08.3-.08h3.12c.3,0,.46.08.53.38.08.15,0,.3.08.46.08.46.3.84.69,1.07,1.07.76,2.59,0,2.59-1.29,0-.69-.3-1.6-1.6-1.75-4.26-.53-6.02-2.28-6.02-6.24s2.13-6.4,5.94-6.4c2.36,0,4.49,1.14,5.41,3.35.3.76.53,1.75.53,2.59,0,.76-.3.91-.76.91h-2.89c-.46,0-.61-.15-.61-.53-.08-.91-.69-1.52-1.68-1.52s-1.68.69-1.68,1.6c0,1.45,1.14,1.75,2.13,1.83m-40.13,34.65c0-.08-.08-.15-.15-.23,0,0,0-.08-.08-.08-.08-.08-.23-.15-.3-.15-.3,0-.46.23-.46.53v9.06c0,.69-.23.91-.91.91h-4.11c-.69,0-.91-.3-.91-.91v-25.51c0-.69.23-.91.91-.91h2.44c.61,0,1.22.08,1.52.69.23.38.38.84.61,1.29.99,2.13,1.98,4.34,2.89,6.47l.69,1.6c.08.15.08.23.23.38.08.08.15.15.3.15.3,0,.46-.23.46-.53v-9.14c0-.69.23-.91.91-.91h4.11c.69,0,.91.3.91.91v25.43c0,.69-.23.91-.91.91h-2.44c-.91,0-1.37-.15-1.75-1.07,0,0,0-.08-.08-.08-1.22-2.97-2.59-5.86-3.88-8.83m-56.96,3.66c0-.69-.23-.91-.91-.91h-3.88c-.61,0-.84-.23-.91-.84v-18.28c0-.69-.23-.91-.91-.91h-4.57c-.69,0-.91.3-.91.91v25.51c0,.69.23.91.91.91h10.2c.69,0,.91-.3.91-.91.08-1.83.08-3.66.08-5.48m113.23-4.49c.61,0,.84-.3.84-.91v-3.66c0-.61-.23-.91-.84-.91h-8.91c-.61,0-.84-.3-.84-.91v-2.67c0-.61.23-.91.84-.91h10.89c.61,0,.84-.3.84-.91v-4.72c0-.61-.23-.91-.84-.91h-16.83c-.61,0-.84.3-.84.91v25.51c0,.61.23.91.84.91h16.83c.61,0,.84-.3.84-.91v-4.72c0-.61-.23-.91-.84-.91h-10.89c-.61,0-.84-.3-.84-.91v-2.59c0-.61.23-.91.84-.91h8.91v.15Zm-98.77,3.5h-3.88c-.61,0-.84-.23-.91-.84v-18.28c0-.69-.23-.91-.91-.91h-4.49c-.69,0-.91.3-.91.91v25.51c0,.69.23.91.91.91h10.13c.69,0,.91-.3.91-.91v-5.48c.08-.61-.15-.91-.84-.91m10.05-19.95h-4.8c-.69,0-.91.3-.91.91v25.43c0,.69.23.91.91.91h4.8c.69,0,.91-.3.91-.91v-25.43c0-.61-.3-.91-.91-.91m22.84,26.2l-6.47-25.21c-.23-.76-.53-.91-1.14-.91h-3.96c-.69,0-.99.23-1.14.91l-6.4,25.21c-.08.23-.08.3-.08.46,0,.38.23.69.76.69h3.88c1.07,0,1.45-.15,1.68-1.07l.61-2.51c.15-.76.46-.91,1.14-.91h3.27c.69,0,.91.15,1.14.91l.61,2.51c.23.99.53,1.07,1.68,1.07h3.88c.53,0,.76-.23.76-.69-.15-.15-.15-.23-.23-.46Zm-8.6-8.45h-1.98c-.46,0-.76-.15-.76-.46,0-.15.08-.46.15-.76.38-1.45.69-2.89.99-4.26.15-.53.23-.84.53-.84.46,0,.53.53.61.84.3,1.45.69,2.89.99,4.26.08.3.15.61.15.76,0,.3-.23.46-.69.46Zm-53.46,8.45l-1.6-4.11-8-20.87c-.3-.76-.69-1.22-1.37-1.22h-4.04c-.69,0-1.07.46-1.37,1.22l-9.52,24.98c-.23.61,0,1.14.69,1.14h5.18c.61-.08.91-.3,1.14-.76l.91-2.36c.38-.84.84-1.14,1.68-1.14h6.7c.84,0,1.29.3,1.68,1.14l.91,2.36c.23.53.53.76,1.14.76h5.18c.69,0,.91-.53.69-1.14Zm-10.97-8.76h-3.81c-.76,0-.99-.46-.76-1.07l1.52-4.19c.3-.99.91-1.07,1.14-1.07s.84.08,1.14,1.07l1.52,4.19c.23.69,0,1.07-.76,1.07Zm115.75.3c-.23-.08-.38-.15-.61-.15-.38,0-.61.3-.84.61-1.45,1.9-3.66,2.97-6.09,2.97-4.19,0-7.31-3.2-7.31-7.46s3.12-7.46,7.31-7.46c.84,0,1.75.15,2.51.38,1.37.46,2.51,1.37,3.5,2.44.23.23.38.53.69.61.08,0,.15.08.3,0,.08,0,.23,0,.3-.08.76-.3,3.43-1.6,3.88-1.83.38-.15.69-.38.76-.84,0-.38-.15-.76-.3-1.07-1.07-2.06-2.89-3.66-4.95-4.8-2.06-1.07-4.42-1.6-6.7-1.6-7.92,0-13.63,5.94-13.63,14.09s5.71,14.09,13.63,14.09c1.75,0,3.5-.3,5.1-.91,1.52-.53,2.89-1.37,4.11-2.44.61-.61,1.14-1.07,1.52-1.68.46-.61.99-1.29,1.14-1.98,0-.15.08-.3.08-.38,0-.3-.23-.61-.53-.69-.76-.38-3.35-1.68-3.88-1.83h0Z"></path>
        </g>
      </g>
    </g>
  </g>
</svg>